<svg width="198" height="198" viewBox="0 0 198 198" fill="none" xmlns="http://www.w3.org/2000/svg">
<mask id="mask0_277_1032" style="mask-type:alpha" maskUnits="userSpaceOnUse" x="0" y="0" width="198" height="198">
<circle cx="99" cy="99" r="99" fill="#C4C4C4"/>
</mask>
<g mask="url(#mask0_277_1032)">
<path fill-rule="evenodd" clip-rule="evenodd" d="M175.703 239.209C174.851 234.394 174.07 229.566 173.36 224.727C173.023 222.43 172.694 220.131 172.398 217.828C172.191 216.214 171.876 214.369 172.974 213.174C174.517 211.491 175.92 210.052 176.11 207.643C176.288 205.375 175.521 202.904 175.042 200.704C174.037 196.089 172.786 191.531 171.404 187.016C169.999 182.43 168.46 177.887 166.898 173.352C165.437 169.112 164.034 164.833 162.132 160.766C158.523 153.046 152.415 147.328 144.869 143.511C142.991 142.562 139.163 139.173 137.202 138.414C135.4 137.716 135.406 139.754 133.631 138.986C132.213 138.373 130.893 137.555 130.098 136.185C129.236 134.698 127.074 132.617 126.744 130.885C126.047 127.214 126.802 124.091 124.184 121.328C121.859 118.875 118.735 117.195 115.502 116.293C108.39 114.308 98.9046 115.695 94.613 122.307C92.5632 125.464 91.8476 129.281 89.0823 131.857C86.6672 134.107 87.2077 135.645 84.08 136.804C83.9028 136.871 79.1008 135.841 78.9237 135.907C75.5021 135.174 72.2317 137.225 69.0925 138.414C64.4126 140.188 59.9569 142.496 55.7709 145.24C47.3301 150.772 40.1007 157.958 34.1406 166.086C28.1313 174.283 23.4686 183.471 20.1486 193.073C19.3425 195.405 18.6182 197.766 17.9794 200.15C17.6219 201.484 17.2398 202.868 17.6751 204.233C18.0312 205.351 18.8233 206.183 19.7535 206.853C21.0144 207.762 23.5434 208.353 23.4942 210.181C23.4566 211.571 22.9853 213.034 22.7552 214.407C22.4813 216.042 22.2563 217.687 22.0315 219.331C21.008 226.808 20.2115 234.328 19.8592 241.869C19.5124 249.294 19.2247 256.871 19.7395 264.294C19.7735 264.784 19.9194 265.233 20.1548 265.612C19.9351 265.696 19.9181 266.106 20.1916 266.164C20.3831 266.205 20.5743 266.246 20.7659 266.286C21.1638 266.587 21.6601 266.772 22.2312 266.79C22.6184 266.802 23.0054 266.819 23.3921 266.839C27.4732 267.693 31.5538 268.499 35.6882 269.109C40.7139 269.852 45.7544 270.457 50.8105 270.948C61.2001 271.959 71.5077 271.624 81.9111 271.079C92.298 270.536 102.679 270.408 113.077 270.679C123.485 270.95 133.887 271.402 144.296 271.587C155.926 271.795 167.538 271.476 179.134 270.552C180.723 270.425 181.707 269.159 181.394 267.58C179.515 258.116 177.386 248.714 175.703 239.209Z" fill="#D08B5B"/>
<path fill-rule="evenodd" clip-rule="evenodd" d="M69.0916 138.414L69.3187 138.327C72.3885 137.127 75.5836 135.191 78.9227 135.905C79.0408 135.862 81.2141 136.305 82.7024 136.586L81.2891 138.061L78.7963 138.541C87.3964 152.741 97.568 159.84 109.311 159.84C121.054 159.84 129.965 152.741 136.044 138.541L136.873 138.312C136.976 138.336 137.085 138.369 137.201 138.414C139.163 139.172 142.991 142.562 144.867 143.511C152.415 147.328 158.521 153.045 162.131 160.766C163.97 164.698 165.343 168.827 166.751 172.927L166.897 173.351C168.459 177.886 169.999 182.429 171.403 187.016C172.725 191.335 173.927 195.692 174.908 200.101L175.041 200.703C175.52 202.904 176.286 205.375 176.108 207.642C176.041 208.5 175.82 209.236 175.493 209.903L158.482 216.026L166.586 271.319C159.164 271.637 151.733 271.719 144.296 271.587C133.886 271.402 123.483 270.949 113.076 270.678C102.994 270.416 92.9261 270.527 82.8545 271.031L80.2964 271.161C70.4402 271.654 60.6617 271.907 50.8095 270.948L50.1383 270.882L50.1382 262.794L53.5989 217.756L36.0604 214.455L18.844 206.088C18.3237 205.569 17.9064 204.961 17.6742 204.233C17.2709 202.968 17.569 201.688 17.8992 200.446L17.9784 200.149C18.6173 197.765 19.3415 195.405 20.1477 193.072C23.4677 183.47 28.1303 174.283 34.1396 166.086C40.0997 157.956 47.3292 150.772 55.77 145.239C59.9559 142.496 64.4116 140.187 69.0916 138.414Z" fill="#EC7495"/>
<path fill-rule="evenodd" clip-rule="evenodd" d="M75.6781 135.673C76.7535 135.626 77.8502 135.8 78.923 135.907C79.0165 135.916 79.052 136.06 78.9467 136.082C77.0266 136.483 75.1275 137.031 73.2417 137.589L72.4343 137.828C70.3078 138.458 68.2437 139.106 66.185 139.946C62.082 141.618 58.1853 143.876 54.5989 146.471C40.7888 156.459 30.7936 171.583 24.4861 187.24C22.7732 191.493 21.3218 195.851 20.1461 200.281C19.8603 201.36 19.5914 202.442 19.3363 203.528C19.2615 203.846 18.9352 204.662 19.1141 204.987C19.2723 205.276 19.8871 205.453 20.1728 205.603L21.1373 206.103C23.0185 207.073 26.1522 208.668 26.4663 208.823L26.9564 209.064C34.9726 212.995 43.5378 216.329 52.5584 216.56L52.629 215.79C53.0312 211.529 53.5589 207.246 54.7109 203.117C54.7729 202.895 55.0552 202.97 55.0809 203.167C55.7227 208.055 55.5176 212.982 55.2937 217.893C54.8973 226.592 54.3707 235.285 53.9028 243.981C53.6685 248.33 53.3657 252.677 53.0923 257.025C52.8185 261.381 52.7299 265.841 52.1046 270.162C51.9653 271.125 50.8378 271.648 49.984 271.546C49.0393 271.434 48.3126 270.601 48.3081 269.648C48.2966 267.13 48.6128 264.584 48.7885 262.074C48.9553 259.689 49.1345 257.305 49.318 254.921C49.9887 246.221 50.7603 237.53 51.4739 228.834C51.7268 225.749 52 222.668 52.2812 219.586C42.7252 219.278 33.7977 215.737 25.281 211.599C25.1577 214.4 24.8599 217.194 24.5718 219.982C23.7672 227.764 23.0578 235.543 22.5269 243.348C22.2587 247.291 22.0636 251.238 21.8936 255.185C21.81 257.125 21.742 259.066 21.6897 261.007C21.6722 261.654 21.6565 262.301 21.6425 262.948L21.6135 264.431C21.5897 265.37 21.4943 266.24 20.7042 266.924C19.9017 267.619 18.8179 267.655 18.0236 266.924C16.9605 265.944 17.1485 264.61 17.18 263.295C17.2062 262.185 17.2377 261.076 17.2743 259.967C17.3476 257.748 17.4413 255.532 17.5553 253.315C17.9542 245.565 18.7509 237.847 19.7923 230.159L20.1989 227.191C20.958 221.675 21.7914 216.032 23.4886 210.717C22.8277 210.389 22.1689 210.058 21.5126 209.726C20.3483 209.136 19.1446 208.583 18.0129 207.931C17.115 207.416 16.3408 206.707 16.0908 205.662C15.812 204.497 16.2383 203.224 16.5214 202.088L16.5461 201.988C16.8237 200.844 17.1226 199.705 17.4381 198.571C18.7174 193.972 20.2993 189.463 22.1505 185.064C25.8572 176.259 30.6416 167.892 36.4859 160.327C41.7465 153.519 47.9609 147.343 55.2445 142.712C58.8052 140.448 62.5998 138.589 66.613 137.275C68.4887 136.66 70.5296 136.126 72.4935 135.906C73.5529 135.787 74.6137 135.719 75.6781 135.673ZM94.7327 121.718C96.0108 120.345 98.5489 121.766 97.9354 123.584C96.4922 127.862 94.1942 131.762 90.6072 134.572C87.2353 137.215 83.2148 138.931 78.8844 138.565C78.851 138.562 78.8221 138.553 78.7965 138.541L79.1697 139.047C82.0989 143.012 85.1895 146.921 88.9147 150.162C96.5042 156.763 106.838 160.324 116.816 157.791C124.666 155.799 131.583 149.588 133.617 141.673C133.326 141.805 132.979 141.849 132.599 141.767C130.972 141.412 129.36 139.701 128.31 138.473C127.174 137.145 126.288 135.71 125.638 134.089C124.448 131.122 124.067 127.302 125.691 124.428C125.891 124.073 126.354 124.273 126.394 124.618L126.455 125.158C126.768 127.852 127.158 130.457 128.427 132.913C129.049 134.114 129.794 135.287 130.7 136.293C131.186 136.831 131.711 137.346 132.279 137.797C132.832 138.238 133.502 138.555 133.997 139.059L134.088 139.156L134.091 139.139C134.216 138.072 134.964 137.603 135.696 137.632C136.403 137.661 137.235 137.972 137.556 138.121L137.587 138.136C142.524 140.507 147.072 143.598 151.352 147.027C160.203 154.118 166.833 163.389 170.047 174.305C171.623 179.663 172.528 185.185 173.484 190.679L174.071 194.046C174.963 199.118 175.959 204.292 177.972 209.01C178.492 210.231 178.091 211.376 176.815 211.856C175.22 212.455 173.621 213.035 172.019 213.609C172.805 216.986 173.285 220.48 173.874 223.873C175.127 231.086 176.663 238.253 177.979 245.456C178.652 249.139 179.26 252.834 179.932 256.518C180.256 258.292 180.594 260.063 180.922 261.837C181.099 262.793 181.26 263.752 181.429 264.709L181.458 264.868C181.555 265.373 181.676 265.895 181.538 266.401C181.379 266.977 180.929 267.385 180.528 267.798C180.198 268.138 179.719 268.14 179.315 267.954L179.182 267.893C178.458 267.555 177.892 267.218 177.635 266.401C177.472 265.884 177.414 265.302 177.308 264.769C177.104 263.749 176.912 262.727 176.729 261.702C176.364 259.652 176.008 257.6 175.661 255.547L175.336 253.624C174.222 246.996 173.164 240.33 172.628 233.632C172.391 230.661 172.14 227.693 171.886 224.723L171.695 222.496C171.454 219.678 171.16 216.788 171.118 213.931L170.16 214.271L165.484 215.925C164.325 216.334 162.85 217.175 161.602 217.022C160.991 216.947 160.526 216.755 160.167 216.405C160.597 222.483 161.179 228.551 161.956 234.587C162.663 240.079 163.446 245.564 164.371 251.025C164.829 253.729 165.301 256.429 165.812 259.124C166.068 260.471 166.332 261.816 166.603 263.16C166.739 263.831 166.9 264.502 167.006 265.178C167.127 265.952 166.914 266.429 166.482 267.065C166.127 267.589 165.416 267.857 164.84 267.497C164.078 267.017 163.681 266.603 163.456 265.731C163.252 264.94 163.128 264.113 162.97 263.311C162.68 261.831 162.397 260.349 162.126 258.864C161.558 255.761 161.034 252.65 160.567 249.529C158.918 238.536 157.873 227.452 157.344 216.348C157.084 210.87 157.003 205.388 157.049 199.904C157.073 197.093 157.165 194.274 157.363 191.47C157.564 188.633 157.984 185.851 158.357 183.04C158.37 182.941 158.51 182.935 158.516 183.04C158.693 186.191 158.97 189.339 159.107 192.499C159.236 195.513 159.293 198.533 159.396 201.55C159.532 205.514 159.719 209.48 159.968 213.445C160.419 212.951 161.098 212.667 161.778 212.778C162.763 212.572 163.822 212.055 164.76 211.741L168.299 210.559C170.159 209.938 172.02 209.32 173.886 208.722C172.217 203.105 171.074 197.404 170.098 191.62L169.663 189.019C168.801 183.899 167.871 178.777 166.31 173.819C164.669 168.606 162.213 163.76 158.955 159.372C155.745 155.047 151.837 151.238 147.815 147.676C144.371 144.627 140.687 141.874 137.174 138.907C137.211 139.104 137.219 139.32 137.187 139.559C136.44 145.026 133.589 150.119 129.614 153.906C121.632 161.515 109.815 163.094 99.5968 159.526C89.7134 156.074 80.9744 147.9 77.8871 137.785C77.8343 137.612 78.066 137.544 78.159 137.671C78.3303 137.905 78.5024 138.14 78.6747 138.375C78.6631 138.282 78.7115 138.18 78.8265 138.135C82.4292 136.744 85.9662 134.772 88.6665 131.979C89.9826 130.619 91.1306 129.077 92.0374 127.414C92.4717 126.618 92.8621 125.793 93.1733 124.941L93.2524 124.721C93.6297 123.653 93.945 122.564 94.7327 121.718Z" fill="black"/>
<path fill-rule="evenodd" clip-rule="evenodd" d="M92.056 37.6862L93.8785 39.859C92.8687 40.5719 91.9169 41.2883 91.0201 42.008L91.0191 42.0058C95.1696 39.291 99.7666 37.6862 104.733 37.6862C114.297 37.6862 133.725 45.9227 138.116 51.8635C140.295 54.8118 144.346 63.8627 146.446 73.7027C148.135 81.6089 150.645 103.945 148.135 112.338C144.921 123.079 134.35 133.008 123.45 133.008C112.549 133.008 95.626 125.118 83.5817 107.829C83.0303 107.039 76.7062 106.123 72.1944 103.155L73.3789 116.239L74.2793 123.849L74.0806 124.391C70.8493 133.151 68.2886 137.722 66.3987 138.102C64.4701 138.491 60.5428 135.321 54.6164 128.595L53.8592 125.408C51.9357 117.28 50.9741 112.917 50.9741 112.319L50.9754 112.21C51.0038 110.835 51.4765 103.048 51.4863 100.954L51.4864 69.5485C57.8599 48.307 63.9421 37.6862 69.7328 37.6862H92.056Z" fill="#D08B5B"/>
<path fill-rule="evenodd" clip-rule="evenodd" d="M76.9536 30.4524C78.8275 29.7246 80.9984 29.8622 82.7769 30.9579C86.2699 30.8078 89.7429 32.8553 91.5634 35.8443C91.6014 35.8866 91.6415 35.9288 91.6775 35.9712L92.0638 36.422C92.4292 36.8526 92.8145 37.3272 93.1197 37.8172C91.6235 37.8515 90.3784 38.4626 89.5087 39.6968C88.8881 40.5776 90.3093 41.4145 90.9439 40.5815L90.9659 40.5511C91.4883 39.81 92.276 39.523 93.1538 39.508C93.406 39.5038 93.5971 39.4071 93.7323 39.2645C93.7863 39.461 93.8344 39.6596 93.8784 39.8591C98.2972 38.1362 103.06 37.6799 107.805 38.0886C107.597 38.4262 107.423 38.788 107.289 39.1681C107.138 39.599 107.461 40.0937 107.878 40.2088C108.331 40.3332 108.738 40.0679 108.902 39.6579L108.917 39.6178C109.099 39.0999 109.397 38.6556 109.797 38.311C112.03 38.6144 114.248 39.0972 116.411 39.7195C119.011 40.4681 121.587 41.3817 124.106 42.4278C123.679 42.5955 123.311 42.879 123.052 43.3522C122.537 44.2967 123.954 45.1427 124.492 44.2397L124.511 44.2063C124.563 44.1094 124.61 44.0513 124.644 44.0181L124.656 44.0068L124.73 43.9726L124.869 43.9328L124.922 43.9197C124.969 43.9091 124.988 43.9097 125.111 43.9029C125.275 43.8936 125.44 43.8945 125.604 43.8943C125.991 43.894 126.238 43.6781 126.349 43.4018C127.592 43.9643 128.819 44.5566 130.025 45.177L130.311 45.3257C134.033 47.2747 137.558 49.8342 139.602 53.6002C139.738 53.8519 139.78 54.1269 139.746 54.3892C140.183 54.9137 140.604 55.4553 141.01 56.0053C142.246 57.6891 143.151 59.6034 144.008 61.5008C145.732 65.3168 146.893 69.2365 147.797 73.3233C148.673 77.262 149.38 81.243 150.036 85.224C150.764 89.6469 151.369 94.1087 151.497 98.5945C151.721 106.593 150.16 114.637 145.682 121.37C141.685 127.378 135.667 132.148 128.531 133.675C121.273 135.228 113.592 133.713 107.872 128.865C106.95 128.085 107.077 126.508 107.872 125.709C108.773 124.808 110.102 124.933 111.02 125.709C116.407 130.276 124.247 130.98 130.738 128.653C136.739 126.5 141.44 121.533 144.324 115.955C147.844 109.152 148.437 101.339 147.896 93.8124C147.601 89.6789 146.988 85.5794 146.354 81.4863L145.972 79.0224C145.555 76.3537 145.117 73.6887 144.547 71.0472L144.413 70.4318C143.714 67.2463 142.896 63.9793 141.632 60.9847C140.97 59.4131 140.172 57.8985 139.355 56.4029C139.197 56.1131 139.035 55.8191 138.868 55.5229C138.645 55.6012 138.389 55.6139 138.121 55.5293C135.815 54.8101 133.445 54.3278 131.034 54.1671C129.935 54.0934 128.834 54.082 127.735 54.125C125.854 54.0152 123.92 54.181 122.127 54.7594C121.952 54.6086 121.774 54.4608 121.597 54.3132C121.549 54.3094 121.501 54.3043 121.453 54.2948C120.996 54.2047 120.674 53.8789 120.48 53.4675C120.47 53.4458 120.461 53.424 120.452 53.4021C120.223 53.2264 119.992 53.0533 119.758 52.8827C119.19 53.0305 118.692 52.556 118.557 52.0361C118.43 51.9504 118.302 51.8675 118.174 51.7836C118.074 51.8081 117.974 51.8284 117.877 51.8356C117.459 51.8658 117.054 51.8015 116.683 51.6012C116.212 51.3476 115.912 50.9384 115.712 50.4737C115 50.5175 114.282 50.2863 113.646 49.8683C113.131 49.5292 112.735 49.0611 112.343 48.5938C107.558 46.4542 102.357 45.1909 97.1422 44.8674C96.6287 44.9663 96.1193 45.0841 95.6149 45.2213C95.4958 45.2538 95.3266 45.3176 95.1325 45.3942C96.2945 45.2534 97.4715 45.2394 98.6655 45.4118C104.332 46.2332 108.745 50.4863 112.543 54.5009C113.447 54.3179 114.36 55.4908 113.524 56.2676L107.005 62.3238C107.165 63.0012 106.39 63.6688 105.711 63.5062C104.573 63.232 103.433 62.9655 102.292 62.7034C101.102 63.2807 99.6053 63.1819 98.5264 62.3451C98.4763 62.3061 98.3672 62.244 98.2721 62.1821C98.1841 62.2556 98.064 62.3292 98.0169 62.3605C97.6326 62.6152 97.1652 62.6901 96.7168 62.6186C96.2554 62.5451 95.8401 62.3105 95.4808 62.0185C95.2526 61.8323 94.7201 61.056 94.4239 60.9987L94.3948 60.9955C94.592 61.0012 93.9565 61.5932 93.7863 61.7157C93.388 62.0007 92.9476 62.1504 92.4522 62.0959C91.5874 62.0006 90.8448 61.2114 90.4224 60.4826L90.3904 60.4266L90.3774 60.392L90.3664 60.4295C90.3644 60.4361 90.3624 60.4432 90.3594 60.4513C90.2953 60.6228 90.0972 60.8178 89.9621 60.9378C89.5767 61.279 89.1003 61.4289 88.5919 61.3398C88.1605 61.2647 87.7982 61.0038 87.508 60.6881L87.4619 60.6378C87.3758 60.5403 86.8084 59.776 86.8984 59.5928L86.9084 59.5774L86.8804 59.5715C86.5351 59.6565 86.2449 59.5712 86.0327 59.3929C84.8487 59.1327 83.6797 58.8297 82.5477 58.4442C82.4586 58.6938 82.3726 58.9435 82.2875 59.1952C82.906 59.578 83.4775 60.1238 84.003 60.513C84.9998 61.2491 85.9947 61.9853 86.9885 62.7235L90.9269 65.6354L91.3773 65.5142C91.9528 65.3593 92.4462 65.6951 92.6574 66.2085L92.6744 66.2529C92.7584 66.4777 92.8595 66.6857 92.9776 66.8847C93.9625 66.8454 94.7952 67.4512 95.0654 68.3202C95.3076 68.3147 95.5538 68.324 95.805 68.3517C96.4926 68.4274 96.956 68.9393 96.8309 69.6422L96.8219 69.6904L96.8049 69.7687C97.2042 69.9383 97.4935 70.266 97.5575 70.7614C97.6636 70.9224 97.7497 71.0975 97.8047 71.2926C98.093 72.3046 97.5335 73.5555 97.2353 74.525L97.2122 74.6009C97.0211 75.2381 96.8229 75.8721 96.6227 76.5059L96.1233 78.0795C94.7401 82.4649 93.392 87.0888 94.5109 91.6866C94.7501 92.6594 93.5091 93.0988 92.9706 92.3382C91.6665 90.4946 90.2573 88.7571 88.777 87.0891L88.706 87.0777C87.6691 86.8689 87.2668 86.1351 86.7913 85.3871C86.5111 85.4698 86.2098 85.4893 85.9186 85.433C85.4972 85.3516 85.1189 85.1102 84.8217 84.8054C84.5684 84.5469 84.3372 83.8839 84.039 83.7196C83.6657 83.5142 82.914 83.8078 82.4687 83.7418C82.1053 83.6883 81.7671 83.5635 81.4388 83.4067C80.8346 84.2319 80.4343 85.202 80.3362 86.2479C80.298 86.6455 80.1799 86.9818 80.009 87.2608C80.6377 87.2378 81.2686 87.2818 81.8912 87.3989C84.1951 87.8283 85.8475 89.2535 86.7763 91.3773C86.8164 91.4704 86.6953 91.5465 86.6412 91.4574C85.263 89.3316 82.2645 89.2245 80.087 89.9731C77.7744 90.7678 76.4767 92.8096 76.0148 95.1385C75.5085 97.6917 76.1582 100.444 77.5447 102.618C78.188 103.63 79.066 104.552 80.2326 104.924C81.6189 105.366 82.9 104.575 84.3192 104.983C85.2861 105.26 85.7124 106.197 85.5373 107.135C85.4672 107.502 85.3391 107.824 85.166 108.104C85.6764 109.118 86.1488 110.163 86.7503 111.124C87.6791 112.606 88.8021 113.833 90.0251 115.071C91.2892 116.349 92.5763 117.601 93.9284 118.786C95.2245 119.922 96.7098 120.729 98.069 121.77C99.0228 122.5 99.4952 123.524 99.0248 124.696C98.6365 125.665 97.3283 126.489 96.2684 126.052C94.2407 125.214 92.4662 123.788 90.8508 122.32C89.3525 120.958 88.0484 119.329 87.0626 117.561C86.1328 115.893 85.4482 114.001 84.8707 112.176L84.7986 111.949C84.5264 111.081 84.2402 110.106 84.054 109.122C82.9421 109.732 81.4328 109.821 80.2434 109.656C78.3209 109.392 76.5675 108.421 75.2424 107.006C74.6248 106.347 74.079 105.595 73.6076 104.782C73.6504 105.277 73.6759 105.757 73.7034 106.193C74.805 107.403 75.2469 109.148 74.8559 110.741C75.7775 111.692 76.0358 113.12 75.5547 114.335C76.5635 115.338 76.5255 116.934 76.0894 118.383C77.2819 119.721 77.3948 121.801 76.4637 123.31L76.4356 123.418C77.3758 124.995 77.1638 127.034 75.9858 128.426C76.7903 129.99 76.6658 132.095 74.6552 132.702C73.9224 132.923 73.2122 132.735 72.6806 132.322C73.1659 134.742 73.3831 137.198 72.7359 139.63C72.4783 140.594 71.5372 141.299 70.5476 141.299C69.7205 141.299 69.1192 140.882 68.7037 140.268C68.7522 141.489 68.6784 142.716 68.4189 143.953C68.2622 144.701 67.5708 145.283 66.8367 145.463C67.1015 145.764 67.207 146.196 66.9532 146.647C65.8769 148.557 63.2763 147.765 63.1005 145.935C62.366 145.385 62.0246 144.483 61.8833 143.508C61.6773 142.087 61.6026 140.687 61.3692 139.284L61.2801 139.367L61.234 139.407L61.2192 139.509C61.0854 140.203 60.6951 140.688 60.1884 140.979C60.2986 142.189 60.0948 143.422 59.3289 144.341C58.8187 144.953 57.9495 145.194 57.2045 145.061C57.1577 145.064 57.1097 145.064 57.06 145.057C55.3725 144.832 54.3963 143.228 54.8404 141.755C54.161 140.921 53.8749 139.862 54.0759 138.815C52.7612 137.942 52.788 136.025 53.2433 134.485C51.865 133.395 51.3467 131.356 52.0392 129.736C50.797 128.19 50.6242 126.035 51.4682 124.273C50.1015 123.148 50.1093 120.975 51.4648 119.824C50.743 118.387 50.3077 116.666 51.0291 115.352C50.5202 114.788 50.2407 113.986 50.2997 113.21C50.386 112.072 51.1375 111.284 52.0702 110.76L52.1348 110.404C52.3538 110.432 52.5871 110.37 52.7928 110.172C52.9965 109.976 53.206 109.818 53.4227 109.688C53.6681 109.684 53.8794 109.575 54.0279 109.406C54.4342 109.268 54.8712 109.207 55.3559 109.202C56.4027 109.19 56.4396 107.62 55.4654 107.519C55.3116 107.363 55.0997 107.265 54.87 107.265L54.69 107.266C54.2694 107.27 53.8446 107.296 53.4544 107.464C53.2008 107.572 53.0051 107.736 52.8619 107.936C52.8351 108.241 52.6705 108.543 52.3141 108.792C51.9025 109.081 51.3395 109.114 50.8989 108.853C50.2822 108.488 50.2758 107.917 50.3469 107.298C50.5027 105.941 49.7245 104.664 49.9098 103.275C49.9918 102.662 50.1956 102.133 50.528 101.704C49.8272 100.653 49.7036 99.2951 50.2431 98.1411C49.1191 96.9291 48.9247 95.0605 49.6415 93.6012C49.6518 93.5662 49.66 93.5302 49.6711 93.4951C49.7521 93.2469 49.8637 93.0237 49.9867 92.8096C49.3575 91.7166 49.3622 90.3755 50.0017 89.2876C49.033 88.1556 49.0022 86.3541 49.8637 85.1343C49.8688 85.0332 49.8793 84.9321 49.8879 84.831C49.4926 83.8019 49.5875 82.6319 50.0891 81.675C49.9102 81.2614 49.7722 80.8161 49.684 80.3419C49.458 79.1192 49.5743 77.9305 49.9119 76.7373C49.9665 76.5491 50.0277 76.3608 50.0931 76.1726C50.104 75.3555 50.1351 74.5419 50.176 73.7299C50.0156 73.0424 49.9897 72.2869 49.9861 71.5857L49.9851 71.1309C49.9773 69.9736 49.8969 68.279 50.6267 67.2953C50.1581 66.2326 50.3507 64.8935 51.1329 64.0512C50.5838 63.1046 50.4686 61.9423 51.0204 60.892C51.1091 60.723 51.2118 60.5656 51.3245 60.4167C51.2789 59.4549 51.4808 58.4631 51.9921 57.5071C52.3242 56.8848 52.8202 56.346 53.4101 55.915C53.4001 55.7874 53.394 55.6601 53.3961 55.5346C53.4065 54.9749 53.5304 54.4129 53.7387 53.8885C53.3647 53.2484 53.1913 52.5269 53.4101 51.7492C53.6548 50.8693 54.2986 50.112 55.1023 49.6848C55.1671 48.8551 55.2964 48.0304 55.4812 47.2166C54.9873 46.1139 55.3806 44.6586 56.497 44.0089C56.3514 43.1277 56.4827 42.2139 57.1224 41.5256C57.3648 41.2648 57.6506 41.0669 57.9579 40.9358C57.8098 40.0497 57.977 39.1279 58.5883 38.4063C59.0875 37.8172 59.8272 37.4593 60.5801 37.4066C60.87 35.8654 62.3388 34.713 63.8884 34.8048C64.0821 34.1262 64.5449 33.5346 65.2627 33.2346C65.4464 33.1579 65.6321 33.1072 65.8171 33.0791C67.0773 31.8049 68.9533 30.9412 70.5774 30.4989C72.2065 30.057 73.8578 30.0142 75.2566 30.528L75.3585 30.5666L75.4724 30.5517C75.9664 30.4968 76.4599 30.4651 76.9536 30.4524ZM64.5736 134.892C64.1385 134.756 63.6532 135.054 63.5352 135.484C63.4107 135.938 63.688 136.388 64.1248 136.525C64.669 136.695 65.2405 136.737 65.8077 136.737C66.2637 136.738 66.6518 136.349 66.6518 135.891C66.6518 135.432 66.2654 135.046 65.8077 135.046C65.3464 135.045 65.006 135.028 64.5736 134.892ZM60.7037 125.907C60.0531 125.908 59.4953 126.063 59.0128 126.52C58.6913 126.826 58.6833 127.414 59.0128 127.717C59.3457 128.024 59.8287 128.042 60.1704 127.749L60.2363 127.69C60.2442 127.683 60.2503 127.677 60.2553 127.672C60.2827 127.655 60.3103 127.636 60.3395 127.621L60.2844 127.657C60.2425 127.688 60.3397 127.638 60.3942 127.615L60.4114 127.608L60.4168 127.606L60.4606 127.603C60.5413 127.599 60.6226 127.599 60.7037 127.599C61.1451 127.599 61.5679 127.211 61.5476 126.754C61.527 126.295 61.1767 125.907 60.7037 125.907ZM72.9799 120.539C73.8934 119.977 73.0774 118.541 72.1613 119.058L72.128 119.078C71.6583 119.366 71.0806 119.327 70.5485 119.327C69.4625 119.328 69.4606 121.021 70.5485 121.02H70.7283C71.5084 121.014 72.2975 120.959 72.9799 120.539ZM65.7899 114.362C65.0996 114.232 64.3265 114.116 63.6003 114.195L63.4796 114.21H63.2562C63.0621 114.21 62.874 114.289 62.7232 114.412C62.4843 114.511 62.2581 114.644 62.0518 114.823C61.2295 115.538 62.4277 116.731 63.2454 116.02C63.2908 115.98 63.3435 115.948 63.4021 115.921L63.4471 115.902H64.35C64.4321 115.902 64.512 115.885 64.5899 115.86C64.883 115.901 65.1561 115.959 65.3411 115.994C66.4028 116.195 66.8577 114.564 65.7899 114.362ZM65.0183 98.1211C63.6953 97.5056 62.2301 97.5106 61.0065 98.3643C60.1315 98.9758 60.9443 100.416 61.8267 99.8466L61.8583 99.8255C61.9681 99.7495 62.0807 99.6854 62.1947 99.6274C62.8158 99.8065 63.4411 99.8155 64.0416 99.5943L64.1198 99.5643L64.1664 99.5823C65.1455 100.038 66.0039 98.5795 65.0183 98.1211ZM79.4259 95.4698C78.0894 95.3197 78.0786 93.2029 79.4259 93.354C82.2705 93.6743 84.8517 94.9414 86.7413 97.1192C87.6211 98.1311 86.1728 99.6124 85.2771 98.6455L85.25 98.6145C83.7467 96.883 81.718 95.7271 79.4259 95.4698ZM64.4534 84.6028C64.1563 84.5701 63.8599 84.5539 63.568 84.568C62.867 84.6019 62.0134 85.0707 62.321 85.9176C62.5677 86.5963 63.3763 86.6231 63.7754 86.2612C63.9414 86.2652 64.1074 86.2762 64.2725 86.2931C64.7133 86.3385 65.1499 86.4227 65.5843 86.5086C66.6454 86.7179 67.0997 85.0872 66.0331 84.8767L65.5614 84.7831C65.4024 84.7519 65.242 84.7214 65.0809 84.6934C64.9845 84.6454 64.8811 84.6131 64.7707 84.6049L64.7148 84.6028H64.4534ZM56.067 71.4741L55.9678 71.4606C54.5425 71.2778 52.2546 71.446 52.0816 73.2649C51.986 74.2722 53.4377 74.3355 53.7242 73.4741C54.7767 73.2839 55.8378 73.2476 56.8831 73.3631C57.282 72.9569 57.2852 72.1762 56.6213 71.9813C56.5276 71.7288 56.332 71.5124 56.067 71.4741ZM88.6469 68.402C88.3176 68.0989 87.7772 68.0587 87.4529 68.402C87.2657 68.5996 87.1106 68.8192 86.9865 69.0607L86.9044 69.2238C86.8904 69.251 86.8764 69.2778 86.8614 69.3044C86.8344 69.3536 86.8033 69.4007 86.7733 69.4484L86.7523 69.4684C86.7443 69.4767 86.7353 69.4866 86.7233 69.4986C86.42 69.8203 86.381 70.3802 86.7233 70.6952C87.0526 70.9983 87.593 71.0386 87.9173 70.6952C88.1035 70.4976 88.2596 70.2783 88.3837 70.0365L88.4658 69.8736C88.4798 69.8465 88.4938 69.8196 88.5088 69.793C88.5358 69.7436 88.5669 69.6965 88.5969 69.6488L88.6309 69.6152C88.6359 69.6102 88.6409 69.6047 88.6469 69.5987C88.9502 69.2771 88.9882 68.717 88.6469 68.402ZM71.3386 66.1985C70.1493 65.3536 68.7352 65.3143 67.642 66.3307C66.853 67.0643 68.0122 68.2398 68.8077 67.5524L68.8356 67.5273C68.8645 67.5003 68.8939 67.4765 68.923 67.4539C69.0656 67.5757 69.2469 67.653 69.4541 67.6532C69.5083 67.6533 69.5623 67.6532 69.6164 67.6543L69.6974 67.6572L69.7409 67.6608L69.7463 67.6619L69.7843 67.678C69.8537 67.7094 69.9495 67.7579 69.8181 67.6754C69.8474 67.6908 69.8748 67.709 69.9027 67.7268L69.9512 67.771C70.2694 68.0727 70.8199 68.1124 71.1358 67.7788C71.6952 67.5893 71.992 66.6623 71.3386 66.1985ZM82.9651 63.4265L82.9871 63.4196C84.03 63.1211 83.5866 61.4879 82.5387 61.7877C81.4258 62.1061 80.895 63.1435 80.6726 64.2064C80.5791 64.6532 80.8034 65.1209 81.2626 65.2472C81.681 65.3625 82.2064 65.1055 82.3005 64.6562C82.3666 64.3403 82.4426 64.0722 82.5627 63.8235L82.6358 63.6815C82.6698 63.6168 82.6818 63.606 82.7969 63.5053C82.8159 63.4883 82.904 63.4474 82.9651 63.4265ZM65.3035 54.9036L65.1404 54.8663C64.1245 54.6432 62.7761 54.5267 62.1627 55.5363C61.6035 56.456 63.0141 57.2933 63.5949 56.4239C63.6039 56.4236 63.6141 56.4237 63.6259 56.4246L63.645 56.4268L63.9054 56.4057C64.2297 56.4034 64.5401 56.4609 64.8547 56.5356C65.9109 56.7862 66.3619 55.1549 65.3035 54.9036ZM101.772 48.3982C102.542 47.6272 101.349 46.4301 100.579 47.2017C99.9706 47.8116 99.3841 48.4257 98.9888 49.2006C98.7816 49.6071 98.8827 50.1185 99.291 50.3582C99.6683 50.5793 100.238 50.4629 100.446 50.0547C100.789 49.3831 101.222 48.9511 101.772 48.3982ZM92.0668 46.3742C91.3072 46.8252 90.8148 47.5682 90.5165 48.428C90.3664 48.8596 90.6877 49.3535 91.106 49.4688C91.5564 49.5927 91.9678 49.3284 92.1299 48.9179L92.1439 48.8778C92.224 48.6478 92.3521 48.3761 92.5102 48.1712C92.6453 47.9963 92.8555 47.8212 93.0136 47.7629C93.394 47.6229 93.6632 47.2773 93.6282 46.8737C93.0026 47.0906 92.4221 46.8297 92.0668 46.3742ZM69.3218 42.6936C68.5553 41.9804 67.5269 41.8858 66.5976 42.3175C66.1839 42.5096 66.0803 43.1076 66.2948 43.4753C66.543 43.9006 67.0344 43.9717 67.4494 43.7788C67.3428 43.8283 67.5353 43.7629 67.6185 43.739C67.6291 43.744 67.7684 43.7376 67.8165 43.7383L67.8743 43.742C67.8748 43.7423 67.8606 43.7421 67.8318 43.7411C67.8723 43.7503 67.9123 43.7612 67.9518 43.7738L68.0021 43.7913C67.9767 43.786 68.0908 43.8605 68.1225 43.8853L68.1282 43.89C68.9237 44.6302 70.1203 43.4363 69.3218 42.6936Z" fill="black"/>
<path fill-rule="evenodd" clip-rule="evenodd" d="M125.121 110.954C125.847 109.674 128.012 109.882 128.342 111.376C129.013 114.403 125.404 117.2 122.663 117.27C119.939 117.339 116.883 115.019 117.277 112.089C117.375 111.365 118.342 111.453 118.672 111.907L118.8 112.081C119.695 113.285 120.878 114.531 122.541 114.238C123.23 114.117 123.856 113.686 124.272 113.132C124.775 112.463 124.72 111.664 125.121 110.954ZM107.799 88.8031C108.169 88.7013 108.541 88.7408 108.868 88.8799C109.599 89.0138 110.209 89.623 110.424 90.3188C110.441 90.3789 110.46 90.4379 110.48 90.497L110.513 90.585L110.425 90.3618C110.466 90.581 110.644 90.8122 110.709 91.0324C110.788 91.3036 110.807 91.6109 110.78 91.9092C111.012 91.9122 111.244 91.9202 111.476 91.9402L111.7 91.9602C112.953 92.0763 114.328 92.2905 115.07 93.3724C115.487 93.9809 115.096 95.0759 114.33 95.193C113.15 95.3741 112.134 94.7216 110.959 94.5905C109.848 94.4663 108.686 94.5374 107.589 94.7386C105.325 95.1519 103.244 96.0707 101.039 96.6462L100.738 96.7223V96.7213C100.361 96.8123 99.9316 96.2869 100.305 95.9786C102.072 94.5264 104.335 93.3494 106.565 92.6328C106.24 92.1153 106.14 91.4348 106.362 90.8803C106.396 90.7652 106.439 90.6531 106.484 90.542L106.577 90.3128C106.587 90.2047 106.607 90.0977 106.637 89.993L106.642 89.961L106.645 89.9629C106.811 89.4233 107.245 88.9562 107.799 88.8031ZM130.35 88.8867C130.833 88.4029 131.512 88.4743 132.016 88.8552L132.083 88.9076C132.558 89.1189 132.953 89.5807 133.211 90.0086C133.479 90.4529 133.657 90.9053 133.664 91.3947C134.834 91.3987 135.955 91.75 136.814 92.6948C137.092 93.0001 137.281 93.4705 137.128 93.8838L137.038 94.1301C136.749 94.9107 135.452 95.3611 135.012 94.4423L134.992 94.3973C134.523 93.3064 132.725 93.4215 131.77 93.5325C131.103 93.6106 130.446 93.7768 129.802 93.9619C129.576 94.027 129.351 94.098 129.127 94.1711L128.902 94.2432C128.782 94.2822 128.16 94.6205 128.547 94.5404C128.651 94.5194 128.73 94.6705 128.623 94.7216C128.162 94.9427 127.668 94.5024 127.699 94.006C127.752 93.1442 129.121 92.6708 129.779 92.3736L129.819 92.3555C130.071 92.2394 130.336 92.1273 130.609 92.0233C130.456 91.7951 130.329 91.5408 130.223 91.2686C130.123 91.0114 130.056 90.7612 130.02 90.488C129.984 90.3538 129.984 90.2207 130.02 90.0867L130.025 90.0484C130.007 89.96 129.998 89.8686 129.999 89.7765L129.995 89.7408H129.999C130.012 89.4186 130.14 89.0959 130.35 88.8867ZM122.626 98.0684C124.483 98.6419 127.547 100.206 126.579 102.62C125.228 104.836 121.644 103.208 119.908 102.491C118.347 101.974 117.535 104.162 119.043 104.821C131.51 109.755 131.465 96.7333 123.078 96.9244C122.155 96.9455 122.126 97.8773 122.626 98.0684ZM106.132 81.0891L106.448 80.9967C108.095 80.5196 109.775 79.6959 111.236 80.9811C111.811 81.4859 111.929 82.5347 111.519 83.1642C110.583 84.5985 109.196 84.3794 107.684 84.5016C106.534 84.5947 105.401 84.9328 104.327 85.3552C103.45 85.7007 102.636 86.187 101.867 86.7293C101.113 87.2626 100.597 88.0962 99.8225 88.5762C99.5393 88.7522 99.211 88.5711 99.1089 88.2858C98.7476 87.2736 99.3581 86.0126 99.8746 85.1502C100.505 84.0981 101.463 83.2376 102.492 82.5865C103.62 81.8734 104.866 81.4617 106.132 81.0891ZM130.117 80C132.9 79.9991 135.577 81.5473 137.133 83.8169C137.663 84.5879 137.275 85.7301 136.516 86.1742C135.664 86.6725 134.753 86.3136 134.193 85.5995L134.16 85.5562C133.267 84.3672 132.116 83.4308 130.753 82.8212C130.087 82.5236 129.351 82.2822 128.631 82.1597L128.399 82.1198C128.073 82.0652 127.694 82.013 127.4 82.0641C127.242 82.0848 127.097 82.137 126.963 82.2166C127.028 82.3571 126.862 82.5263 126.708 82.4421C126.017 82.0622 126.102 81.3845 126.672 80.8577C127.48 80.1125 129.074 80.0002 130.117 80Z" fill="black"/>
<circle cx="99" cy="99" r="97.5" stroke="black" stroke-width="3"/>
</g>
</svg>
