<svg width="205" height="209" viewBox="0 0 205 209" fill="none" xmlns="http://www.w3.org/2000/svg">
<mask id="mask0_7_17" style="mask-type:alpha" maskUnits="userSpaceOnUse" x="3" y="3" width="199" height="198">
<circle cx="102.5" cy="102" r="97.5" fill="#C4C4C4" stroke="black" stroke-width="3"/>
</mask>
<g mask="url(#mask0_7_17)">
<path d="M160.205 167.157H111.824V226.758H160.205V167.157Z" fill="#FDEA6B"/>
<path fill-rule="evenodd" clip-rule="evenodd" d="M97.7127 108.861C102.928 104.888 116.02 103.101 121.587 106.927C127.084 110.768 127.683 116.98 130.245 122.694C132.662 121.554 136.654 123.187 137.355 125.431C138.224 126.489 138.263 129.462 138.862 130.884C164.942 135.037 168.901 155.377 172.04 178.469C176.193 201.901 185.62 225.282 181.527 249.394C182.06 250.166 182.481 250.917 182.87 251.808C183.801 253.393 182.601 255.638 180.722 255.551C178.291 255.337 175.883 255.045 173.439 254.954C166.666 254.719 159.887 254.747 153.111 254.833L152.187 254.845C118.039 255.27 83.8937 256.108 49.7444 256.331C48.5055 256.332 47.899 255.221 48.0644 254.124C48.3976 251.917 48.7067 249.708 49.0293 247.5C40.9521 249.634 32.3653 250.171 24.311 247.724C23.7475 247.15 25.6238 247.461 25.9215 247.374C18.5089 242.307 20.7226 231.632 21.3792 223.944C25.4622 197.599 26.9015 168.45 42.6767 145.969C49.5012 136.795 59.5067 129.531 71.0036 127.897L71.3226 127.853C74.6843 127.404 78.4309 127.26 81.3701 125.431C84.6759 122.79 86.0846 117.912 89.5624 117.867C90.7108 117.852 92.273 119.305 93.9541 120.292C94.0796 118.121 95.2489 116.289 95.5071 114.606L95.528 114.462C95.7974 112.5 95.4284 110.735 97.7127 108.861ZM153.759 179.165C146.43 174.072 127.498 176.631 127.065 176.916C126.11 177.544 125.699 177.6 125.183 178.415C124.674 178.483 124.164 178.553 123.656 178.625C122.635 178.959 123.391 180.214 124.57 179.766C123.861 182.825 125.948 185.001 126.779 188.025C127.048 189.007 126.788 190.773 126.779 191.777C126.859 193.056 128.273 194.567 128.037 195.851C127.2 200.413 122.654 204.864 124.57 209.289C125.84 211.789 129.659 213.063 132.198 213.913C137.458 215.932 146.624 213.837 149.68 209.289C151.311 206.864 153.199 200.746 154.171 198.848L154.387 195.838C154.918 188.355 155.391 180.299 153.759 179.165Z" fill="#D08B5B"/>
<path fill-rule="evenodd" clip-rule="evenodd" d="M89.2912 117.88L91.3887 119.168L103.57 125.192C105.931 125.853 107.112 126.646 107.112 127.57V136.979C107.112 138.238 109.328 141.092 113.76 145.54L117.855 141.457L117.763 140.922C117.374 138.618 117.179 137.077 117.179 136.299C117.179 135.462 121.185 132.284 129.197 126.766L132.702 123.464L132.328 122.327C134.49 122.43 136.833 123.761 137.355 125.431C138.224 126.489 138.263 129.462 138.862 130.885C164.942 135.037 168.901 155.377 172.04 178.469C176.193 201.901 185.62 225.282 181.527 249.395C182.06 250.166 182.481 250.917 182.87 251.808C183.801 253.393 182.601 255.638 180.722 255.551C178.291 255.337 175.883 255.045 173.439 254.954C166.666 254.719 159.887 254.747 153.111 254.833L152.187 254.845C118.039 255.271 83.8937 256.109 49.7444 256.331C48.5055 256.333 47.899 255.221 48.0644 254.125C48.3976 251.917 48.7067 249.708 49.0293 247.5C40.9521 249.634 32.3653 250.171 24.311 247.724C23.7475 247.15 25.6238 247.461 25.9215 247.374C18.5089 242.307 20.7226 231.632 21.3792 223.944C25.4622 197.599 26.9015 168.45 42.6767 145.969C49.5012 136.795 59.5067 129.531 71.0036 127.897L71.3226 127.853L71.6439 127.811C74.9214 127.394 78.5242 127.202 81.3701 125.431C84.5886 122.86 86.0089 118.168 89.2912 117.88ZM118.479 173.107C117.284 173.107 114.837 174.963 111.139 178.676L110.813 178.826C106.341 180.904 103.379 182.706 101.926 184.233L101.874 184.289C100.406 185.864 97.4997 190.053 93.1541 196.855L86.8611 200.578H84.4801L82.7848 212.88L86.8611 221.663L96.0943 218.552L111.139 214.585L119.771 205.823L124.641 204.188C124.05 205.895 123.836 207.594 124.57 209.29C125.84 211.789 129.659 213.063 132.198 213.913C137.458 215.932 146.624 213.837 149.68 209.29C151.31 206.864 153.199 200.746 154.171 198.848L154.45 194.938C154.952 187.721 155.325 180.254 153.759 179.165C146.43 174.072 127.498 176.631 127.064 176.916C126.11 177.544 125.699 177.6 125.183 178.415L124.916 178.451L126.418 176.412L125.886 176.128C122.09 174.114 119.621 173.107 118.479 173.107ZM124.57 179.766C123.891 182.695 125.775 184.814 126.666 187.643L124.39 183.284V179.823C124.449 179.808 124.509 179.79 124.57 179.766Z" fill="#9DDADB"/>
<path fill-rule="evenodd" clip-rule="evenodd" d="M88.2855 117.425C88.7915 116.977 89.5402 117.54 89.2186 118.146C88.4961 119.507 87.755 120.796 86.7853 121.999C86.1973 122.729 85.5675 123.419 84.9293 124.101C86.5672 125.518 87.9719 127.278 89.2985 128.928C90.9948 131.037 92.5985 133.236 94.5027 135.166C96.3806 137.07 98.457 138.401 100.968 139.288L101.475 139.464C103.997 140.35 106.693 141.546 108.114 143.935C108.395 144.406 107.83 144.988 107.355 144.694C104.885 143.164 101.983 142.856 99.2936 141.845C96.696 140.869 94.4317 139.366 92.431 137.447C90.4336 135.532 88.7566 133.353 87.0073 131.22C85.2774 129.111 83.4149 127.309 81.3688 125.525C78.2113 127.65 74.6071 128.575 70.9422 129.483L70.5422 129.582C66.8729 130.491 63.2232 131.546 59.7808 133.129C56.7458 134.524 53.7605 136.19 51.2883 138.46C48.6639 140.87 46.6214 143.947 44.7519 146.956C40.57 153.689 37.63 161.065 35.0418 168.531C32.3498 176.296 30.0981 184.217 28.2804 192.232C27.3559 196.309 26.605 200.415 25.9879 204.55C25.6909 206.541 25.427 208.537 25.1953 210.537C24.9479 212.673 24.891 214.87 24.2361 216.923C23.9553 217.803 23.2924 218.169 22.6288 218.137L22.494 219.824C22.3153 222.072 22.1486 224.321 22.0924 226.583C21.999 230.345 22.0413 234.096 22.3118 237.849L22.3501 238.361C22.5626 241.101 23.0376 244.179 25.0968 246.185C27.2293 248.262 30.5089 248.916 33.3831 248.953C40.0776 249.04 46.5217 245.876 52.4456 243.1C58.5466 240.241 64.4809 237.068 70.273 233.626C73.2227 231.873 76.1405 230.062 79.0212 228.198C80.4348 227.283 81.8384 226.353 83.2315 225.408C84.0295 224.866 84.7856 224.273 85.5979 223.792C85.1999 223.421 85.0222 222.839 85.3556 222.33C83.0074 220.29 82.03 216.652 81.9158 213.707C81.8234 211.331 82.1731 208.961 82.449 206.607C82.5882 205.419 82.7602 204.234 82.9387 203.053C83.0093 202.586 83.0631 202.086 83.1455 201.593C76.8048 205.079 70.2863 208.184 63.5953 210.941C60.1655 212.355 56.6919 213.626 53.1703 214.791L52.4565 215.026C49.1197 216.119 45.7032 217.151 42.2536 217.775C42.0692 217.809 41.9194 217.536 42.1163 217.45C45.478 215.966 48.9561 214.714 52.3683 213.347L52.929 213.119C52.8646 213.115 52.7978 213.106 52.7281 213.09C50.7269 212.607 48.7415 211.862 46.7788 211.235C44.9572 210.653 42.9107 210.288 41.2081 209.41C41.0771 209.342 41.1504 209.16 41.278 209.151C43.1917 209.018 45.2691 209.576 47.1453 209.905L47.8502 210.028C49.031 210.236 50.2379 210.46 51.4129 210.752C51.4554 210.359 51.6753 209.963 51.9882 209.731C55.4312 207.18 55.0816 202.029 55.4498 198.23L55.7229 195.409C56.2032 190.473 56.7113 185.537 57.4833 180.638C57.5245 180.377 57.9291 180.452 57.9308 180.699C57.9706 186.772 57.5123 192.817 57.2826 198.88L57.247 199.875C57.12 203.617 57.0205 207.502 54.665 210.381C54.9943 210.188 55.4397 210.188 55.7065 210.506C56.0344 210.896 56.2237 211.334 56.2178 211.764C58.3463 210.872 60.4655 209.956 62.5744 209.021C69.3546 206.016 75.9927 202.653 82.4551 199.015C83.1506 198.623 83.8117 198.931 84.1556 199.447L84.2053 199.44C84.2135 199.439 84.2219 199.438 84.2306 199.438L84.2798 199.436C84.2817 199.436 84.2836 199.436 84.2853 199.436C85.195 198.936 86.4343 199.292 87.215 200.021C87.238 200.043 87.2577 200.067 87.2781 200.09C88.2665 199.646 89.1893 199.047 90.0267 198.288C91.7405 196.734 93.1922 194.813 94.4577 192.886C96.7881 189.337 98.7677 185.391 101.916 182.47C104.474 180.097 107.645 178.619 110.972 177.692C110.958 177.595 110.995 177.491 111.062 177.422C111.233 177.247 111.355 177.186 111.576 177.293C111.593 177.301 111.604 177.313 111.611 177.326L111.935 176.771C112.113 176.47 112.295 176.166 112.358 176.087C112.735 175.611 113.124 175.139 113.519 174.677C114.188 173.894 114.95 173.122 115.833 172.579C117.766 171.391 119.798 172.063 121.786 172.713C122.987 173.105 124.183 173.51 125.382 173.909L125.506 173.949C126.4 174.236 127.446 174.488 127.845 175.435C128.003 175.81 128.028 176.199 127.954 176.576C136.444 174.417 145.873 175.409 154.158 177.944C154.476 178.042 154.793 178.303 154.86 178.647C155.809 183.517 156.232 188.511 155.802 193.463C155.432 197.739 154.485 201.928 152.701 205.842L152.599 206.063C150.922 209.69 148.264 214.162 144.205 215.299C141.754 215.985 139.044 215.581 136.544 215.455C134.115 215.332 131.631 215.315 129.225 214.933C127.082 214.592 125.204 213.631 123.88 211.888C122.737 210.384 122.136 208.566 121.643 206.758C121.417 206.83 121.193 206.907 120.972 206.993C120.041 207.357 119.252 207.944 118.539 208.635C117.033 210.094 115.865 211.866 114.289 213.258C112.863 214.519 111.237 215.499 109.494 216.253C105.881 217.815 102.005 218.439 98.1831 219.266L97.9165 219.324C95.0395 219.956 92.1029 220.731 89.5634 222.23C89.5138 222.671 89.3129 223.086 88.9909 223.358C89.4388 223.779 89.6285 224.445 89.2349 225.07C88.1355 226.816 86.2418 227.809 84.5417 228.925L84.4311 228.998C82.7587 230.107 81.0717 231.194 79.371 232.259C75.9136 234.425 72.384 236.471 68.8045 238.427C63.0472 241.574 57.1664 244.542 51.1791 247.234C51.5384 249.003 51.4071 250.826 51.6772 252.607L51.7186 252.861C51.834 253.522 51.6782 254.074 51.2232 254.506L51.175 254.55L51.1759 254.544L51.1332 254.584L51.119 254.596L51.1237 254.592C51.0713 254.64 51.0172 254.685 50.962 254.723L50.8917 254.768C50.4535 255.034 49.8893 255.031 49.4407 254.796L49.3894 254.768L49.3032 254.719C48.7104 254.377 48.3016 253.532 48.5475 252.861C49.1519 251.211 49.3803 249.449 49.9385 247.788L49.4957 247.986L48.912 248.241C42.5998 250.971 35.5882 253.271 28.7105 251.409C25.6717 250.587 22.8314 248.846 21.3109 246.01C19.8147 243.219 19.6032 239.978 19.5238 236.873C19.4257 233.041 19.6311 229.151 20.1362 225.351C20.4753 222.801 20.8854 220.203 21.5179 217.679C21.1926 217.392 20.9534 216.98 20.8903 216.47C20.5917 214.059 21.1142 211.553 21.4341 209.156C21.7465 206.814 22.0917 204.477 22.4822 202.148C23.2704 197.444 24.1862 192.749 25.2525 188.1C27.1501 179.825 29.656 171.698 32.6729 163.764L32.9371 163.073C35.7248 155.822 38.9527 148.726 43.4473 142.356C45.5974 139.308 47.8702 136.545 50.9082 134.348C53.7544 132.291 56.9648 130.809 60.2779 129.677C63.5946 128.544 67.0036 127.784 70.4729 127.312C73.9962 126.832 77.7151 126.538 81.0018 125.092C80.586 124.347 80.9429 123.34 81.6426 122.877C83.9974 121.321 86.1749 119.296 88.2855 117.425ZM163.666 185.104C163.765 184.954 163.999 185.049 163.956 185.226C162.811 189.92 161.736 194.624 161.034 199.407C159.766 208.041 159.999 216.787 160.103 225.485L160.108 225.934C160.161 230.619 160.235 235.304 160.39 239.987C160.468 242.354 160.623 244.744 160.539 247.112C160.493 248.397 160.151 249.612 160.03 250.881C159.923 251.991 160.018 253.117 160.071 254.229C160.107 254.968 159.016 254.936 158.942 254.229L158.847 253.314C158.724 252.156 158.572 251.005 158.193 249.897C157.737 248.564 157.518 247.255 157.359 245.855C157.117 243.71 157.009 241.544 156.916 239.385L156.852 237.891C156.461 228.865 156.475 219.797 157.107 210.781L157.153 210.137C157.78 201.615 158.866 192.406 163.666 185.104ZM139.254 131.39C138.954 131.267 139.059 130.815 139.391 130.894L139.993 131.037C144.407 132.095 148.742 133.241 152.862 135.209C156.985 137.179 160.475 140.119 163.249 143.734C168.64 150.762 170.881 159.303 172.65 167.835C174.615 177.317 176.405 186.833 178.388 196.311L178.756 198.077C180.59 206.905 182.323 215.738 183.599 224.67L183.691 225.318C184.978 234.504 185.752 244.007 184.347 253.217C184.07 255.039 181.039 254.585 181.157 252.785C181.5 247.581 181.745 242.404 181.508 237.189C181.271 231.972 180.782 226.778 180.053 221.607C179.439 217.255 178.524 212.957 177.715 208.64L177.588 207.958C176.91 204.286 176.212 200.618 175.515 196.95L174.473 191.457C172.911 183.233 171.319 175.001 169.52 166.829L169.413 166.348C167.653 158.485 165.058 150.249 159.777 144.005C154.418 137.669 146.747 134.478 139.254 131.39ZM119.782 214.789C119.911 214.501 120.362 214.533 120.5 214.789C121.043 215.791 121.104 217.07 121.206 218.202L121.217 218.318C121.348 219.699 121.463 221.085 121.534 222.47C121.668 225.099 121.732 227.724 121.724 230.357C121.716 233.054 121.661 235.749 121.516 238.443L121.477 239.164C121.344 241.505 121.121 244.116 120.009 246.163C119.605 246.907 118.506 246.688 118.272 245.936C117.505 243.472 117.899 240.551 118.096 238.028L118.248 236.059C118.4 234.09 118.544 232.121 118.658 230.149C118.815 227.452 118.944 224.753 119.069 222.055C119.109 221.178 119.153 220.302 119.199 219.425L119.27 218.111C119.331 217.011 119.326 215.805 119.782 214.789ZM33.5536 218.28L33.8931 217.952C34.9353 216.932 36.2523 215.36 37.7929 215.458C38.4073 215.497 38.7988 216.007 38.6714 216.612C38.3993 217.904 37.0812 218.575 36.1324 219.364C35.0929 220.228 34.1133 221.152 33.1355 222.085C32.2681 222.912 31.4339 223.762 30.6197 224.64L30.3153 224.97C30.0235 225.288 27.9452 227.169 28.1699 227.657L28.1822 227.679C28.2447 227.772 28.1405 227.9 28.0368 227.868C27.1393 227.584 27.1953 226.815 27.5346 226.035C28.1866 224.537 29.3283 223.151 30.3253 221.872C31.3195 220.595 32.3957 219.407 33.5536 218.28ZM123.034 180.712C122.34 179.071 119.783 179.105 118.332 179.204C114.677 179.451 110.723 180.376 107.471 182.085C104.099 183.856 101.828 186.695 99.7959 189.834L99.7009 189.982C97.7202 193.062 95.8127 196.708 92.7113 198.826C91.1316 199.904 89.2871 200.89 87.3704 201.316C87.2388 201.548 87.0256 201.731 86.7461 201.798L86.6162 201.827C86.0703 201.948 85.2223 202.081 84.4898 202.001C84.4947 202.36 84.4909 202.716 84.4999 203.055C84.5257 204.029 84.5367 205.006 84.5367 205.98C84.5371 208.021 84.4275 210.065 84.5126 212.106C84.588 213.91 84.8428 215.796 85.709 217.409C86.3443 218.593 87.1828 219.376 88.195 220.124C90.685 218.606 93.5006 217.68 96.3582 216.985C99.8141 216.143 103.353 215.582 106.73 214.441C108.355 213.891 109.918 213.173 111.334 212.196C112.837 211.16 113.985 209.757 115.165 208.385L115.35 208.172C116.555 206.789 117.87 205.466 119.574 204.716C121.04 204.071 122.974 203.956 124.256 202.956C124.927 202.433 124.983 201.675 125.054 200.898C124.232 201.015 123.363 200.827 122.544 200.731L122.12 200.681C121.346 200.589 120.589 200.488 119.827 200.291C119.686 200.254 119.686 200.041 119.827 200.004C120.728 199.772 121.621 199.673 122.544 199.564L122.761 199.537C123.596 199.428 124.475 199.262 125.294 199.446C125.441 198.887 125.653 198.352 125.951 197.817C126.369 197.065 127.16 196.213 127.267 195.335C127.299 195.073 127.238 194.763 127.115 194.532L127.072 194.452C127.02 194.359 126.959 194.265 126.869 194.207C126.859 194.219 126.837 194.232 126.792 194.246C126.161 194.445 125.611 194.136 125.319 193.66C124.079 193.814 122.727 193.762 121.564 193.814L120.389 193.871C119.133 193.928 117.82 193.953 116.64 193.7C116.475 193.664 116.426 193.39 116.591 193.319C118.041 192.699 119.801 192.501 121.354 192.262C122.222 192.129 123.096 192.027 123.966 191.91C124.545 191.832 125.16 191.703 125.76 191.672C127.265 189.798 126.454 186.841 124.36 186.034C123.597 186.37 122.911 186.175 122.077 186.103C121.245 186.032 120.411 185.983 119.576 185.987C117.902 185.994 116.128 186.435 114.471 186.245C114.201 186.214 113.951 185.855 114.219 185.636C115.488 184.6 117.306 184.263 118.917 184.042L119.25 183.997C119.79 183.926 120.447 183.823 121.128 183.762C121.282 183.461 121.559 183.234 121.974 183.177C122.097 183.16 122.221 183.151 122.345 183.14L122.343 183.128C123.355 183.079 123.311 181.368 123.034 180.712ZM53.7238 212.716C53.7059 212.743 53.6863 212.77 53.6655 212.795L53.6334 212.832L53.7998 212.765L53.7238 212.716ZM140.7 177.045C136.439 176.587 132.172 176.684 127.898 176.807C127.556 177.925 126.366 178.878 125.213 178.914C126.116 180.289 126.209 182.15 125.576 183.608C126.921 184.143 128.079 185.105 128.782 186.475C129.757 188.373 129.629 190.486 128.666 192.24C129.488 192.985 129.973 194.195 129.925 195.335C129.87 196.606 129.113 197.692 128.484 198.744C127.804 199.883 127.781 200.885 127.572 202.16C127.266 204.026 126.008 205.157 124.39 205.864L124.476 206.203C124.893 207.827 125.412 209.542 126.605 210.73C128.139 212.259 130.519 212.244 132.546 212.341L132.644 212.346C134.5 212.439 136.355 212.548 138.211 212.653L139.603 212.731C141.739 212.848 143.791 212.862 145.535 211.45C148.382 209.143 150.334 205.327 151.569 201.948C154.162 194.856 154.193 187.073 153.003 179.686C149.011 178.399 144.869 177.493 140.7 177.045ZM105.263 188.812L105.294 188.814C106.172 188.914 106.774 189.625 106.989 190.468C107.301 191.693 107.148 192.801 107.898 193.907C108.67 195.045 109.144 195.956 109.256 197.361C109.303 197.939 109.281 198.516 109.41 199.082L109.503 199.478C109.602 199.901 109.684 200.308 109.634 200.762C109.589 201.177 109.388 201.499 108.973 201.632C107.62 202.065 106.575 201.067 106.226 199.806C105.924 198.717 106.327 197.419 105.901 196.396C105.665 195.829 105.23 195.355 104.984 194.784C104.74 194.218 104.618 193.627 104.579 193.012C104.505 191.849 105.533 190.451 104.96 189.397C104.837 189.172 104.976 188.805 105.263 188.812ZM87.2941 176.807C88.2102 176.621 89.2494 176.194 90.1528 176.549C90.6171 176.732 90.8466 177.298 90.4543 177.692C89.7731 178.375 88.7831 178.413 87.8656 178.574L87.7849 178.588C86.7 178.789 85.6133 178.98 84.525 179.16C82.4776 179.499 80.4254 179.799 78.366 180.054C76.2507 180.316 74.1296 180.549 72.0055 180.725L71.1832 180.792C69.389 180.936 67.522 181.044 65.7615 180.769C65.5057 180.729 65.5469 180.356 65.7615 180.291C67.6902 179.707 69.8058 179.551 71.7998 179.303C73.9196 179.04 76.0359 178.762 78.1467 178.433C80.254 178.103 82.3587 177.75 84.4555 177.359C85.4033 177.183 86.3495 176.999 87.2941 176.807ZM120.348 174.932C119.544 174.647 118.659 174.226 117.788 174.367C116.286 174.61 114.949 176.074 113.761 177.038L114.358 176.922C117.412 176.335 121.457 175.702 124.022 177.645C124.028 177.634 124.033 177.623 124.041 177.612C124.248 177.297 124.488 177.052 124.749 176.783C124.774 176.759 124.799 176.735 124.822 176.71L124.964 176.56L124.641 176.448C123.949 176.203 123.129 175.887 123 175.841L122.991 175.838C122.108 175.539 121.225 175.243 120.348 174.932ZM95.249 110.878C95.1233 109.26 97.6397 109.273 97.7643 110.878C98.0362 114.379 97.2484 117.848 95.5528 120.919C95.5403 120.941 95.5266 120.961 95.5135 120.982C96.574 121.534 97.6466 122.064 98.7431 122.537C100.146 123.143 101.575 123.694 103.029 124.162C104.345 124.586 105.966 124.753 107.072 125.634C109.405 127.493 108.529 131.349 108.08 133.849L108.01 134.243C107.786 135.529 107.625 136.849 108.167 138.084C108.746 139.402 109.916 140.38 110.961 141.324L111.172 141.515C112.097 142.358 113.154 143.383 113.832 144.526C114.452 143.245 115.296 142.198 116.189 141.019C116.826 140.178 116.372 139.9 115.915 139.079C115.474 138.288 115.259 137.445 115.397 136.542C115.651 134.876 116.982 133.673 118.307 132.768C119.872 131.701 121.619 130.91 123.237 129.917C126.561 127.876 129.798 125.543 132.714 122.952C132.795 122.881 132.934 122.975 132.87 123.072C130.566 126.578 127.865 129.607 124.545 132.179C123.198 133.221 121.784 134.086 120.36 134.995L119.951 135.258C119.379 135.628 118.666 136.124 118.408 136.754C118.148 137.388 118.703 137.867 119.001 138.393C119.949 140.061 119.492 141.618 118.368 143.033L118.316 143.098C117.199 144.475 116.352 145.755 115.948 147.514C115.078 151.293 116.289 155.228 117.557 158.775L117.608 158.915C118.294 160.827 119.023 162.725 119.619 164.667L119.783 165.204C120.323 166.992 120.765 168.754 120.159 170.592C119.953 171.217 119.101 171.365 118.747 170.776C117.499 168.702 117.188 166.206 116.405 163.926C115.642 161.703 114.767 159.521 114.03 157.289C113.082 154.416 112.447 151.323 112.791 148.309C112.781 148.291 112.77 148.275 112.762 148.256L112.52 147.728C111.862 146.297 111.226 145.048 110.028 143.907C108.779 142.717 107.423 141.664 106.441 140.224C104.306 137.096 105.626 133.616 105.884 130.196L105.913 129.776C105.96 129.066 105.986 128.101 105.522 127.609C105.001 127.056 103.777 126.915 103.085 126.67C101.297 126.037 99.5341 125.299 97.8554 124.413C96.2573 123.57 94.7094 122.638 93.2681 121.547L92.5376 120.997C91.385 120.127 90.1898 119.177 89.4173 117.992C89.3282 117.856 89.4797 117.636 89.6411 117.701C90.9307 118.225 92.1089 119.058 93.3154 119.782C93.3342 119.738 93.356 119.693 93.3807 119.649C94.8735 116.946 95.4875 113.951 95.249 110.878ZM136.442 129.395C136.956 127.985 139.298 128.094 139.204 129.769C139.133 131.056 138.587 132.217 138.088 133.385L138.034 133.51C137.519 134.727 136.923 135.87 136.211 136.986C134.85 139.118 133.255 141.097 131.552 142.965C130.008 144.658 127.982 145.694 125.647 145.522C124.663 145.449 123.67 145.199 122.808 144.707C121.784 144.123 120.671 142.369 119.365 142.794C119.239 142.835 119.121 142.65 119.23 142.562C120.738 141.347 122.45 143.231 123.894 143.685C126.07 144.369 128.303 143.613 129.703 141.853C131.165 140.016 132.511 137.959 133.74 135.958C134.364 134.942 134.934 133.888 135.425 132.802C135.922 131.705 136.035 130.513 136.442 129.395ZM132.935 120.721C132.872 120.526 133.113 120.341 133.284 120.452C134.275 121.097 135.134 121.95 136.048 122.698C137.063 123.527 138.084 124.34 139.122 125.14C140.634 126.306 138.88 128.453 137.549 127.179C135.727 125.436 133.731 123.157 132.935 120.721ZM127.494 113.898C127.896 112.345 130.278 112.986 129.931 114.521L129.919 114.567C129.262 117.103 130.198 119.684 132.197 121.328L132.27 121.388C133.534 122.4 131.743 124.169 130.491 123.167C127.759 120.979 126.622 117.262 127.494 113.898Z" fill="#00160A"/>
<path fill-rule="evenodd" clip-rule="evenodd" d="M116.837 33.4085C148.569 34.4156 150.483 49.5255 150.483 74.8653C150.483 100.205 134.022 116.173 127.961 118.961C121.9 121.749 105.94 133.725 91.5372 128.206C77.1343 122.687 81.3052 99.3707 81.3052 89.3521C81.3052 79.3336 85.1064 32.4014 116.837 33.4085Z" fill="#D08B5B"/>
<path fill-rule="evenodd" clip-rule="evenodd" d="M86.1687 73.6227C92.7296 46.8027 104.707 33.7174 122.1 34.3668C148.19 35.3408 147.915 61.9997 146.278 59.569C145.209 57.9809 137.722 52.4332 123.817 42.9258L122.957 42.3388L86.1687 73.6227Z" fill="#9FD8E5"/>
<path fill-rule="evenodd" clip-rule="evenodd" d="M129.711 110.639C123.884 113.9 117.212 114.027 110.944 111.974C107.185 110.747 103.739 108.849 100.513 106.579C97.7068 104.603 95.2023 102.411 92.7209 100.084C90.678 95.5674 88.8588 91.0593 88.0069 86.1454C87.2437 81.7345 87.1425 77.1546 88.028 72.7521C94.5763 67.3521 101.084 61.9078 107.584 56.4467C110.894 53.6651 114.212 50.8987 117.57 48.1763C119.276 46.7941 120.965 45.3907 122.664 44.0022C122.944 43.7739 123.223 43.5457 123.503 43.3174C127.011 45.8916 130.772 48.0983 134.255 50.7147C136.078 52.0863 137.851 53.5467 139.54 55.0831C140.425 55.8885 141.29 56.7191 142.133 57.5709C142.905 58.3488 143.649 59.4646 144.743 59.7585C144.893 59.7985 145.034 59.8069 145.167 59.7879C146.63 72.6296 147.669 86.4963 141.401 98.1586C138.667 103.246 134.79 107.794 129.711 110.639ZM91.804 115.358C91.0016 114.621 92.1974 113.429 92.9964 114.162C98.0153 118.771 104.576 121.214 111.204 122.345C112.273 122.528 111.817 124.157 110.755 123.975C103.836 122.795 97.0354 120.162 91.804 115.358ZM85.7804 122.429C84.8225 121.914 85.6752 120.455 86.6315 120.969C90.5416 123.072 94.8304 124.164 99.1805 124.902C100.25 125.083 99.794 126.712 98.7323 126.532C94.2344 125.769 89.8208 124.602 85.7804 122.429ZM101.695 51.1988C104.939 48.2799 108.426 45.5025 112.109 43.1589C115.836 40.7875 119.907 39.3694 124.307 39.3356C123.999 39.5828 123.706 39.8576 123.409 40.1131C122.579 40.8256 121.75 41.542 120.921 42.2564C119.264 43.6873 117.603 45.1158 115.967 46.5701C112.746 49.436 109.514 52.2871 106.299 55.1593C100.12 60.6798 94.0736 66.3205 88.1577 72.1244C88.1896 71.9828 88.2233 71.8412 88.2568 71.6998C90.2153 63.4992 95.5428 56.7339 101.695 51.1988ZM127.128 39.6927C127.149 39.6293 127.164 39.5678 127.172 39.5089C135.616 40.6121 142.668 46.8404 144.999 55.041C144.797 55.3242 144.685 55.6602 144.727 56.0172C144.748 56.1971 144.769 56.3788 144.791 56.5585C144.502 56.2713 144.204 56.0026 143.952 55.7469C143.11 54.893 142.248 54.0622 141.363 53.2528C139.552 51.5981 137.671 50.051 135.689 48.6075C132.243 46.0966 128.511 43.7887 124.402 42.584C124.672 42.3621 124.942 42.1402 125.214 41.9204C126.025 41.2586 126.778 40.7135 127.128 39.6927ZM142.265 30.9238C137.081 25.2448 129.903 21.0855 122.343 19.6398C115.124 18.2576 107.651 19.1685 100.831 21.8548C86.56 27.4767 75.3 39.8388 70.0274 54.1639C66.9536 62.5101 65.9459 71.6595 66.8695 80.4939C67.7885 89.288 70.4301 98.3699 75.2368 105.852C75.6774 106.537 76.1602 107.194 76.6662 107.83C76.4406 110.413 75.5804 112.944 74.227 115.147C74.1542 115.265 74.0775 115.38 74.0016 115.496C72.6157 116.537 71.1781 117.513 69.7746 118.521C68.5584 119.395 67.3546 120.291 66.2109 121.258C65.1313 122.171 63.8775 123.188 63.1466 124.421C62.5476 125.43 62.3031 126.803 63.1207 127.766C64.1058 128.926 65.7751 128.517 67.1096 128.517C67.2239 128.517 67.3379 128.519 67.452 128.521C67.8528 128.773 68.2656 129.002 68.6655 129.214C72.7069 131.361 76.7632 133.486 80.8236 135.599C88.9109 139.811 96.9643 144.193 105.218 148.071C109.042 149.869 113.136 151.442 117.42 151.436C121.438 151.429 125.071 149.829 128.208 147.397C131.783 144.626 134.773 141.107 137.674 137.658C138.833 136.277 139.969 134.88 141.085 133.464C143.227 132.748 145.352 132.539 147.262 133.921C148.794 135.031 150.814 133.521 150.85 131.856C150.863 131.264 150.837 130.681 150.774 130.106C150.39 126.555 148.657 123.343 146.705 120.363C145.639 118.733 144.515 117.133 143.385 115.548C143.119 115.174 142.858 114.8 142.605 114.419C147.144 107.72 150.744 100.291 152.958 92.528C155.284 84.3595 156.074 75.8886 155.556 67.424C154.759 54.4513 151.208 40.722 142.265 30.9238Z" fill="#00160A"/>
<path fill-rule="evenodd" clip-rule="evenodd" d="M126.525 101.411C125.105 100.831 123.838 99.8646 122.911 98.6296C122.589 98.2003 122.506 97.7469 122.573 97.3322C122.649 96.8659 122.925 96.4433 123.301 96.1599C123.678 95.8755 124.15 95.7353 124.606 95.8068C125.003 95.8689 125.397 96.086 125.71 96.5363L125.775 96.6264C126.326 97.3718 127.043 97.9834 127.861 98.3776C128.649 98.7576 129.531 98.9349 130.443 98.8318C132.18 98.6355 133.378 97.6955 134.651 96.419C134.809 96.2578 134.966 96.0916 135.125 95.9227C135.225 95.7696 135.364 95.6712 135.519 95.6196C135.69 95.5623 135.884 95.5655 136.062 95.6275C136.233 95.6873 136.386 95.8006 136.489 95.9514C136.586 96.0948 136.641 96.2718 136.624 96.4755C136.507 97.7984 135.816 98.979 134.834 99.906C133.743 100.936 132.297 101.648 130.936 101.898C129.437 102.173 127.909 101.976 126.525 101.411ZM131.644 81.0032C133.239 81.9733 135.67 84.2354 133.954 86.6404C131.934 88.761 129.025 86.3296 127.592 85.23C126.263 84.3778 124.769 86.5696 126.003 87.5647C136.36 95.2357 140.563 81.2569 132.451 79.8626C131.558 79.7089 131.226 80.7031 131.644 81.0032ZM113.084 72.0798C113.26 69.891 116.592 69.394 116.924 71.5599C117.22 73.5001 116.871 75.2824 115.997 77.0292C115.163 78.698 113.065 77.9195 112.906 76.3999C112.694 74.3629 112.974 73.4414 113.084 72.0798ZM138.45 71.1108C138.914 70.5021 139.585 70.0866 140.389 70.3214C142.899 71.0555 142.159 74.6216 141.278 76.3574C140.798 77.3 139.25 77.539 138.55 76.7091C137.409 75.3556 136.863 72.6526 138.313 71.3194C138.352 71.2505 138.396 71.181 138.45 71.1108ZM115.962 62.5023L116.359 62.4329C117.586 62.2206 119.111 62.0166 119.979 63.0034C120.44 63.5267 120.598 64.4994 119.979 65.0003C118.891 65.8816 117.687 65.54 116.383 65.6147C115.308 65.6764 114.275 65.8543 113.24 66.1504C110.968 66.7999 109.117 67.9856 107.177 69.2875C106.923 69.4583 106.663 69.1326 106.784 68.8944C107.904 66.6999 110.075 64.8973 112.249 63.7985C113.409 63.212 114.678 62.7255 115.962 62.5023ZM136.161 61.5193L136.464 61.5814C139.768 62.2723 144.06 63.6522 145.624 66.8985C145.684 67.3575 145.621 67.4559 145.57 67.5201L145.553 67.5415C145.511 67.5964 145.477 67.6721 145.278 67.7346C145.223 67.7214 145.167 67.7075 145.111 67.6927C144.394 67.5047 143.826 67.2457 143.277 66.977L142.681 66.6834C141.99 66.3445 141.293 66.0179 140.555 65.7768C138.978 65.2624 137.357 64.9 135.71 64.7065C135.353 64.6646 135.009 64.5441 134.738 64.3376C134.481 64.1416 134.284 63.8702 134.195 63.5094C134.078 63.0425 134.112 62.689 134.362 62.2678C134.55 61.9515 134.82 61.7323 135.129 61.6064C135.445 61.478 135.804 61.4478 136.161 61.5193Z" fill="#00160A"/>
<path fill-rule="evenodd" clip-rule="evenodd" d="M150.552 82.2905C147.987 84.9419 143.705 85.7027 140.292 84.2808C131.53 80.6183 135.819 69.1948 142.576 66.127C143.421 65.9165 144.548 65.4171 145.576 65.3038C145.669 65.2582 145.872 65.3903 146.117 65.2654C153.569 66.0977 155.266 77.6695 150.552 82.2905ZM122.289 82.9689C119.412 86.7861 114.064 87.9637 109.694 86.1892C101.061 82.7882 104.123 72.6584 110.029 68.6871C122.506 63.997 127.658 75.9307 122.289 82.9689ZM103.575 74.5113C103.566 74.5075 103.558 74.5056 103.55 74.5018C103.596 74.4817 103.641 74.4617 103.687 74.4412C103.672 74.4798 103.656 74.5181 103.642 74.5568C103.619 74.5413 103.6 74.5234 103.575 74.5113ZM156.491 70.385C155.786 70.3865 154.769 70.5023 154.186 70.9912C152.748 66.1401 147.44 61.6504 142.824 64.9242C139.19 66.0936 136.492 68.687 134.959 72.135C132.195 70.4903 127.849 71.1926 125.452 73.3676C123.883 68.1788 120.019 66.3618 115.421 66.0936C110.403 65.2712 105.4 70.1473 103.839 74.0589C102.542 73.9112 100.602 73.498 99.3814 74.2992C91.4574 72.2204 77.6035 71.0743 75.9926 72.2293C74.8445 72.6699 74.2145 75.3807 75.8181 75.527C77.2154 75.3285 75.655 73.5407 77.0635 73.3456C84.5683 72.8802 91.8539 74.3922 99.2793 75.0267C99.9423 75.9188 102.084 76.2172 103.227 75.8588C101.427 82.4944 105.313 87.0088 111.134 88.361C120.148 90.4325 127.99 82.3656 125.633 73.975C128.364 72.6161 131.505 72.6744 134.479 73.3902C129.509 91.691 158.971 90.87 154.37 71.6183C157.432 73.1421 158.097 70.6926 156.491 70.385Z" fill="#00160A"/>
</g>
<circle cx="102.5" cy="102" r="100.5" stroke="#00160A" stroke-width="3"/>
</svg>
