<svg width="199" height="198" viewBox="0 0 199 198" fill="none" xmlns="http://www.w3.org/2000/svg">
<mask id="mask0_277_1069" style="mask-type:alpha" maskUnits="userSpaceOnUse" x="0" y="0" width="199" height="198">
<circle cx="99.5" cy="99" r="99" fill="#C4C4C4"/>
</mask>
<g mask="url(#mask0_277_1069)">
<path fill-rule="evenodd" clip-rule="evenodd" d="M115.782 228.994C101.852 229.033 93.5082 228.87 77.7519 228.642C59.515 228.159 54.6002 229.028 44.3837 227.021C42.8216 226.688 41.6332 226.185 40.4279 225.484C39.9958 225.973 39.2634 226.7 38.5678 226.219C37.2866 225.371 37.874 222.412 37.5563 220.742C37.0303 206.028 36.1891 190.875 39.0649 176.339C37.3214 175.772 27.1052 171.568 26.5474 170.159C35.786 145.992 56.0526 117.713 82.7173 118.778C83.2536 119.439 83.7306 120.418 84.3261 121.092C87.9507 119.733 92.9833 118.372 93.2319 113.144C93.86 109.654 94.3118 106.396 94.614 103.189C94.6693 102.822 95.1088 102.696 95.3786 102.54C95.4939 101.71 95.7572 100.863 96.33 100.294C101.003 99.8742 111.67 101.802 114.47 102.597C118.289 103.251 117.891 107.351 118.603 110.459C119.731 114.301 120.516 118.289 122.192 122.042C122.571 122.094 123.633 122.28 124.025 122.348C124.045 121.923 123.845 120.66 124.235 120.403C124.958 119.676 125.124 121.058 125.285 121.509C141.065 118.528 151.385 131.924 154.843 146.888C157.347 154.413 160.666 162.029 164.998 170.197C167.715 175.268 159.91 176.21 156.638 178.234C160.014 191.375 160.421 204.758 160.975 218.004C161.121 220.04 161.319 222.811 160.598 223.825C160.256 224.091 160.018 224.083 159.671 224.103C159.001 224.826 157.853 224.778 156.886 224.985C153.829 225.54 150.696 225.912 147.753 225.968C139.492 231.082 126.757 228.222 115.782 228.994Z" fill="#D08B5B"/>
<path d="M142.586 139.56H67.4014V189.016H142.586V139.56Z" fill="white"/>
<path fill-rule="evenodd" clip-rule="evenodd" d="M93.4641 103.179C93.898 101.006 97.4836 101.51 97.3202 103.701C95.51 111.858 96.6125 121.787 85.1717 120.984C92.4339 133.763 114.86 141.536 122.109 124.758C118.537 124.332 117.83 115.885 117.399 112.929L117.381 112.665C117.285 111.145 117.317 109.736 118.231 108.436C119.142 109.119 119.509 110.355 119.818 111.482L120.043 112.386C120.799 115.394 121.59 118.389 122.788 121.262L122.831 121.268C122.771 119.32 125.27 118.43 125.89 120.516C142.801 118.187 152.052 132.147 155.702 146.749C158.364 154.741 161.834 162.43 165.777 169.863C168.752 175.671 161.527 177 157.705 178.932C160.645 190.712 161.222 202.916 161.766 214.999C161.586 217.578 162.751 222.867 161.195 224.716C158.89 226.52 157.648 223.428 158.003 221.445C158.334 207.426 156.874 193.468 156.456 179.47C153.57 180.689 150.649 181.813 147.696 182.856C147.846 195.992 149.408 209.127 149.965 222.195C150.695 222.771 151.099 223.769 150.475 224.639C147.134 229.301 141.094 229.997 135.779 230.063C123.131 230.222 110.47 230.173 97.8207 230.136C85.396 229.854 72.8629 230.65 60.5037 229.226C58.0817 231.045 57.5863 227.122 57.9107 225.449L58.0339 222.097C58.1168 219.863 58.2046 217.628 58.3176 215.395L58.5992 209.95C59.0707 200.876 59.5704 191.806 60.3632 182.75C53.1839 181.768 46.1077 180.025 39.2571 177.673C39.8211 193.394 38.6642 209.285 40.5931 224.928C41.866 226.655 39.3133 228.278 37.8231 227.195C35.9751 225.786 36.7676 223.028 36.3986 220.998L36.3512 219.686C35.834 205.537 35.1273 191.091 37.7636 177.136L36.6296 176.696C33.1729 175.346 24.2833 171.736 25.4491 169.954C34.7295 145.628 55.4897 116.53 82.9849 117.913C83.6816 118.397 84.0375 119.339 84.5534 120.014L85.3716 119.717C88.5396 118.558 91.9797 117.086 92.0739 113.186C92.6736 109.862 93.1489 106.537 93.4641 103.179ZM138.776 163.815C142.714 158.304 115.397 167.013 113.455 167.589L112.724 167.855C100.759 172.206 87.8611 176.414 78.3206 185.087C78.1201 185.307 78.3697 185.61 78.6291 185.486L78.6623 185.467C79.0419 185.256 80.6852 184.669 79.521 184.891C93.3057 176.195 109.321 171.418 124.97 167.239C127.243 166.689 129.529 166.184 131.822 165.723C134.136 165.161 136.747 165.167 138.776 163.815ZM95.6099 162.021C95.9463 160.647 98.2107 148.023 94.4505 151.486C93.4479 153.302 93.0636 155.408 92.8832 157.453C92.3981 159.838 93.6217 162.408 92.4314 164.607C91.3662 167.478 87.45 170.833 87.1884 165.498C93.5957 165.279 91.6717 157.158 87.3102 159.668C84.9215 161.713 84.5087 165.565 85.7039 168.386C83.7734 166.283 80.6423 166.276 78.4074 164.69C74.3712 160.325 81.1504 155.783 84.8419 154.211C85.0499 153.982 88.0756 152.927 87.4346 152.8C84.5364 152.826 81.6327 153.443 79.1319 154.968C73.9557 157.494 72.1941 165.315 78.1152 168.057C79.3955 168.673 80.7968 169.006 82.0644 169.643C85.2587 171.299 84.2268 173.381 80.9289 173.442C79.5725 173.738 75.0962 172.496 75.5975 174.874C76.4072 176.361 78.1704 176.583 79.7152 176.624C83.8441 176.907 88.9775 174.575 86.644 169.716C89.4609 172.116 92.9782 168.76 94.1848 166.152C95.6562 169.038 99.3531 168.169 101.44 166.462C104.629 168.973 108.629 166.181 110.049 163.064C110.078 163.712 110.107 164.361 110.138 165.01C110.202 166.339 112.263 166.766 112.567 165.338C113.03 163.168 113.669 161.021 114.547 158.981C116.568 153.618 117.803 156.037 117.874 160.239C118.123 161.817 118.912 163.231 120.656 163.338C121.142 163.367 121.776 162.935 121.852 162.427L121.952 161.755C122.165 160.346 122.411 158.897 122.942 157.573C123.454 161.953 129.188 161.932 130.787 158.3C134.104 160.292 137.584 157.51 139.131 154.633L139.177 154.546C139.717 153.562 138.344 152.371 137.559 153.297L137.286 153.58C135.806 155.114 133.45 157.336 131.504 155.443C131.569 154.589 131.543 153.718 131.49 152.878C131.427 151.876 130.045 150.985 129.26 151.881C128.152 150.94 126.777 151.075 125.619 151.732C122.618 152.58 120.728 155.502 120.077 158.406C120.008 156.085 119.249 153.568 116.701 153.35C114.09 153.328 113.091 156.247 112.2 158.212C112.148 157.332 112.099 156.453 112.054 155.572C111.977 154.057 109.877 154.074 109.705 155.527L109.7 155.573C109.37 158.715 107.63 166.241 103.24 164.768C105.091 162.728 108.44 156.512 105.257 154.576C100.357 153.342 97.8443 161.073 99.9332 164.671L99.8252 164.747C98.6316 165.571 96.6589 166.488 95.9926 164.642L95.9171 164.471C95.575 163.691 95.2727 162.845 95.6099 162.021ZM88.6013 161.15C89.5292 160.608 89.8591 162.402 89.6226 163.004C89.2432 163.97 88.2081 164.508 87.177 164.876L87.1802 164.767C87.2257 163.663 87.5938 161.739 88.6013 161.15ZM104.216 156.672C104.237 156.801 104.203 156.96 104.198 157.079C104.04 159.194 103.1 161.224 101.791 162.874C101.038 160.632 102.009 157.67 104.216 156.672ZM126.518 154.028C127.119 153.87 127.756 153.913 128.376 154.082C128.331 154.786 128.484 155.491 128.791 156.138C127.191 160.944 123.431 157.244 126.518 154.028Z" fill="black"/>
<path fill-rule="evenodd" clip-rule="evenodd" d="M124.679 52.1047C113.413 42.9251 95.359 39.9445 83.299 49.2057C73.929 57.8971 70.0513 82.5948 71.7096 95.0057C72.1707 102.966 78.2371 111.989 87.1422 109.471C88.6542 109.322 90.1224 108.74 91.6483 108.619C93.474 108.408 95.3135 108.405 97.1351 108.662C101.105 109.225 104.625 111.339 108.478 112.327C115.627 114.16 123.604 112.926 129.759 108.798C150.095 95.3933 140.883 65.0782 124.679 52.1047Z" fill="#D08B5B"/>
<path fill-rule="evenodd" clip-rule="evenodd" d="M124.166 110.849C124.374 110.777 124.583 110.702 124.79 110.625C124.804 110.673 124.826 110.719 124.852 110.764C124.881 110.836 124.911 110.906 124.943 110.977C124.683 110.978 124.422 110.932 124.166 110.849ZM123.748 21.8937C123.655 21.6861 123.549 21.4869 123.429 21.2944C123.72 21.389 124.012 21.5195 124.275 21.6878C124.097 21.7479 123.923 21.8166 123.748 21.8937ZM79.2476 49.0534C79.2356 49.0514 79.2238 49.0496 79.212 49.0476C79.3647 48.6397 79.6369 48.2548 79.9376 47.9767C79.9915 47.9268 80.0499 47.8806 80.1065 47.8328C79.7873 48.2139 79.4978 48.6204 79.2476 49.0534ZM160.671 91.7008C160.52 90.2684 160.328 88.8416 160.08 87.423C159.842 86.0645 159.642 84.6118 158.951 83.4068C158.266 82.2059 157.58 81.04 156.764 79.9838C156.88 79.4451 157.034 78.9381 157.168 78.5294C157.939 76.1772 158.698 73.189 157.096 71.003C156.725 70.4964 156.271 70.1083 155.751 69.758C155.53 69.6086 155.164 69.4729 154.994 69.2669C154.875 69.1209 154.915 69.1999 154.911 69.1278C154.881 68.7397 155.789 67.9206 156.002 67.6132C156.399 67.0446 156.696 66.4043 156.921 65.75C157.815 63.1605 157.207 60.3081 156.67 57.7132C156.385 56.3379 156.072 54.959 155.969 53.5543C155.873 52.2355 156.053 50.9475 156.159 49.6356C156.263 48.3406 156.235 47.0048 155.682 45.806C155.411 45.2222 155.002 44.7071 154.503 44.3052C154.017 43.9121 153.41 43.6837 152.935 43.2922C152.462 42.9023 152.598 42.3752 152.722 41.836C152.891 41.1044 153.105 40.3781 153.125 39.6225C153.164 38.3054 152.627 37.0224 151.79 36.0266C150.926 34.998 149.693 34.3024 148.36 34.1461C147.751 34.074 147.151 34.1961 146.544 34.1532C145.945 34.112 145.815 33.8114 145.702 33.262C145.442 32.0032 145.547 30.7599 144.93 29.5854C144.381 28.5413 143.406 27.8336 142.329 27.4165C140.355 26.6506 138.057 26.8086 135.974 27.2601C134.744 23.6335 130.906 21.2552 127.129 21.2259C126.54 20.223 125.54 19.4744 124.402 19.0346C122.518 18.3047 120.521 18.7308 118.559 18.7308H118.55C118.353 18.7186 118.156 18.7137 117.96 18.7154C117.774 18.7049 117.589 18.6894 117.404 18.669C115.17 18.4043 112.961 17.4874 110.748 18.3857C109.762 18.7857 108.977 19.4023 108.48 20.1888C107.731 20.3929 106.993 20.6266 106.269 20.8979C103.128 20.9802 100.018 22.6683 98.4304 25.4039C96.1952 25.1498 93.7691 25.5808 92.2911 27.4114C91.906 27.8877 91.6078 28.4473 91.4104 29.0415C89.9024 29.5302 88.5081 30.4011 87.5949 31.7127C86.7621 32.9096 86.602 34.4571 87.1651 35.7419C85.8196 36.7192 84.7682 38.1183 84.262 39.7702C83.9538 40.7739 83.9081 41.8109 84.1061 42.7988C82.7284 43.1052 81.4106 43.6731 80.2431 44.5253C79.0195 45.4182 77.4914 46.8391 77.4109 48.4746C77.4049 48.5946 77.4095 48.7146 77.4191 48.8344C74.7256 48.6446 71.979 49.1021 70.1584 51.2669C68.7913 52.8913 68.1971 54.9831 68.562 56.8874C65.3571 57.54 62.3267 59.2194 60.213 61.7025C58.6766 63.5073 57.3115 65.8015 57.3935 68.2587C57.4192 68.999 57.5923 69.7442 57.8921 70.4328V70.4344C57.7636 70.6767 57.6316 70.9463 57.5048 71.2331C55.5196 72.6256 54.0772 74.8084 53.2653 77.2139C52.6094 79.1631 52.1966 81.6941 52.8971 83.6774C53.0034 83.9796 53.1387 84.2648 53.2963 84.5297C53.1643 84.6703 53.0394 84.8108 52.9178 84.9538C51.5798 86.5211 50.2249 88.4963 50.3175 90.6543C50.3552 91.5237 50.6771 92.3979 51.2032 93.1154C49.353 94.9963 47.8629 97.3688 48.01 100.019C48.1368 102.325 49.3994 104.667 51.3777 105.775C51.0472 107.553 51.4892 109.427 52.8696 110.815C53.5584 111.509 54.3701 111.965 55.2302 112.209C55.4221 114.303 57.2753 115.987 59.2434 116.471C59.6102 116.562 59.9768 116.618 60.3414 116.643C62.1126 117.514 64.2246 117.414 66.0318 116.615C66.5645 117.294 67.2582 117.847 68.0668 118.244C68.3939 118.405 68.7401 118.539 69.1013 118.647C71.6536 119.405 74.2711 118.378 76.5029 117.179C76.5749 117.141 76.7067 117.093 76.8232 117.04C77.1316 117.385 77.6934 117.727 77.9863 117.895C78.9799 118.467 80.1945 118.733 81.3352 118.658C82.6731 118.569 83.8531 118.125 84.9461 117.495C85.1054 117.523 85.2662 117.538 85.4271 117.546C86.4549 117.602 87.3714 117.275 88.1953 116.76C88.7397 116.832 89.2987 116.825 89.8634 116.726C91.1089 117.043 92.322 116.538 93.2962 115.736C93.7284 115.381 94.0933 114.963 94.4841 114.565C94.8895 114.151 95.1982 114.055 95.6719 113.777C96.7948 113.12 96.9297 111.452 96.443 110.246C96.5356 110.036 96.5893 109.8 96.5893 109.539C96.5852 107.262 95.5387 105.174 94.2541 103.352C93.6805 102.54 93.0565 101.744 92.3732 101.023C91.8231 100.445 91.0513 99.5057 90.2371 99.2701C90.1876 99.2343 90.1364 99.1977 90.0844 99.1636C90.2428 98.6103 90.3346 98.0472 90.2956 97.472C90.2542 96.8813 90.0641 96.3215 89.7594 95.8446C90.7815 93.8572 91.2138 91.6781 91.0082 89.4047C91.8402 88.2217 92.4707 86.9144 92.7965 85.4827C92.9964 84.5963 93.1118 83.6644 93.0963 82.7552C93.089 82.3197 92.9298 81.768 92.9265 81.3163C92.9509 81.4593 93.1353 80.9271 93.2076 80.7946C94.0331 79.2574 95.0934 78.0589 95.2698 76.2471C95.3721 75.1877 95.1227 74.0167 94.4889 73.1478C94.8944 71.5439 94.8895 69.8213 94.2509 68.2915C94.0794 67.8828 93.8828 67.4826 93.6561 67.1032C93.7609 66.7838 93.8568 66.4609 93.9795 66.1705C94.0282 66.0555 94.0762 65.9389 94.1241 65.8221C94.5881 65.4116 95.0195 64.9635 95.3827 64.5238C96.1879 63.5502 96.8029 62.4341 96.8801 61.1477C96.9175 60.5038 96.7672 59.8872 96.5803 59.2761C96.4983 58.9996 96.4479 58.6922 96.3504 58.4226C96.2959 58.273 96.1635 58.1204 96.118 57.9796C96.1074 57.9487 96.0985 57.9229 96.092 57.9023C96.0985 57.8817 96.1042 57.8388 96.1042 57.7579C96.1058 57.1414 96.1862 56.5387 96.1895 55.9447C96.7534 56.5148 97.4318 56.9405 98.2021 57.1897C99.7556 57.6893 101.377 57.4627 102.752 56.6917C104.232 57.7083 105.895 58.6285 107.639 58.9979C108.675 59.2176 109.714 59.1267 110.753 59.2623C111.785 59.398 112.785 59.8496 113.757 60.2017C115.923 60.9865 118.082 61.7917 120.254 62.556C122.008 63.1725 123.906 63.6619 125.743 63.315C126.259 64.1116 126.928 64.7849 127.787 65.2795C128.401 65.6315 129.076 65.8701 129.773 65.9887C130.39 66.0934 131.113 66.0522 131.613 66.4764C132.101 66.8885 132.406 67.5031 132.845 67.967C133.333 68.4855 133.936 68.9355 134.568 69.2583C135.075 69.5176 135.593 69.7046 136.118 69.8267C136.072 70.9995 136.027 72.1707 136.013 73.3452C135.988 75.8969 135.998 78.4489 135.964 81.001C135.93 83.5433 135.849 86.0873 135.715 88.6271C135.588 91.0102 135.411 93.4022 134.843 95.7276C132.962 103.443 125.917 108.967 118.031 109.249C115.69 109.333 113.372 109.003 111.133 108.313C108.814 107.597 106.743 106.123 104.366 105.67C103.743 105.553 103.158 106.18 103.514 106.782C104.128 107.818 104.873 108.45 105.892 109.074C106.959 109.724 108.148 110.207 109.321 110.63C111.479 111.406 113.763 111.856 116.053 111.981C117.8 112.077 119.554 111.957 121.265 111.627C121.385 111.996 121.598 112.355 121.758 112.697C121.782 112.747 121.863 112.713 121.847 112.661C121.821 112.576 121.805 112.5 121.798 112.437C122.373 113.19 123.262 113.71 124.175 113.962C124.82 114.141 125.503 114.196 126.166 114.121C126.38 114.097 126.584 114.061 126.786 114.016C127.461 114.608 128.324 115.003 129.191 115.201C129.042 116.107 129.489 117.096 130.526 117.354C130.96 117.463 131.378 117.464 131.797 117.425C132.134 117.582 132.497 117.706 132.882 117.79C133.384 117.9 133.984 117.759 134.362 117.395C134.57 117.542 134.763 117.642 134.955 117.875C135.744 118.829 137.447 118.069 137.522 116.965C137.772 116.965 138.024 116.968 138.276 116.976C138.336 117.004 138.396 117.031 138.458 117.061C139.559 117.574 140.7 118.023 141.918 117.619C142.142 117.545 142.348 117.451 142.535 117.34C143.393 117.418 144.239 117.42 145.109 117.138C145.623 116.971 146.106 116.707 146.508 116.36C147.852 116.755 149.269 116.934 150.604 116.444C151.604 116.078 152.41 115.501 152.977 114.74C153.844 114.772 154.724 114.562 155.517 114.148C156.874 113.444 157.824 112.106 158.487 110.765C159.946 107.806 160.81 104.628 161.149 101.35C161.483 98.1212 161.007 94.9102 160.671 91.7008Z" fill="black"/>
<path fill-rule="evenodd" clip-rule="evenodd" d="M118.312 100.223C117.158 99.7522 116.129 98.9665 115.375 97.963C115.114 97.6136 115.046 97.2456 115.101 96.9084C115.162 96.5298 115.387 96.1861 115.692 95.9562C115.999 95.7254 116.382 95.6108 116.753 95.6693C117.075 95.7197 117.395 95.896 117.65 96.2617L117.702 96.3348C118.15 96.9409 118.733 97.4373 119.397 97.7583C120.037 98.067 120.754 98.2108 121.495 98.1272C122.906 97.9679 123.88 97.2041 124.914 96.1666C125.042 96.0358 125.17 95.9009 125.299 95.7636C125.38 95.6393 125.493 95.5588 125.619 95.5174C125.758 95.4703 125.916 95.4735 126.061 95.5239C126.199 95.5718 126.324 95.6645 126.407 95.7872C126.486 95.9033 126.531 96.0471 126.517 96.2129C126.422 97.287 125.861 98.2466 125.063 98.9998C124.176 99.8366 123.001 100.415 121.896 100.618C120.678 100.842 119.436 100.682 118.312 100.223ZM122.471 83.6411C123.767 84.4292 125.742 86.2671 124.347 88.2211C122.706 89.9445 120.343 87.9693 119.178 87.0755C118.098 86.3833 116.885 88.1643 117.887 88.9727C126.302 95.2054 129.717 83.8475 123.126 82.7148C122.4 82.5897 122.131 83.3973 122.471 83.6411ZM107.391 76.3911C107.534 74.6127 110.241 74.2088 110.511 75.9686C110.751 77.5449 110.468 78.9928 109.758 80.4122C109.08 81.7683 107.375 81.1362 107.246 79.9012C107.073 78.2461 107.302 77.497 107.391 76.3911ZM128 75.6037C128.378 75.1092 128.923 74.7715 129.575 74.9624C131.616 75.5587 131.014 78.4565 130.298 79.8662C129.909 80.6324 128.65 80.8266 128.081 80.1522C127.154 79.0529 126.711 76.8564 127.889 75.7732C127.921 75.7173 127.957 75.6607 128 75.6037ZM109.729 68.6094L110.052 68.5529C111.049 68.3804 112.288 68.2146 112.993 69.0165C113.368 69.4417 113.496 70.2319 112.993 70.6389C112.109 71.3549 111.131 71.0775 110.071 71.1381C109.198 71.1882 108.359 71.3328 107.518 71.5734C105.672 72.1011 104.168 73.0644 102.591 74.1223C102.385 74.261 102.174 73.9964 102.272 73.8029C103.182 72.0199 104.945 70.5553 106.712 69.6625C107.655 69.186 108.686 68.7906 109.729 68.6094ZM126.14 67.8106L126.387 67.8611C129.071 68.4224 132.559 69.5436 133.83 72.1812C133.878 72.5541 133.827 72.6341 133.785 72.6863L133.771 72.7037C133.737 72.7483 133.709 72.8097 133.549 72.8605C133.503 72.8498 133.458 72.8385 133.412 72.8265C132.829 72.6737 132.369 72.4633 131.923 72.245L131.438 72.0065C130.877 71.7311 130.311 71.4658 129.71 71.2699C128.43 70.8519 127.112 70.5575 125.774 70.4003C125.484 70.3662 125.205 70.2683 124.985 70.1005C124.775 69.9412 124.616 69.7207 124.543 69.4275C124.449 69.0483 124.475 68.761 124.679 68.4188C124.832 68.1618 125.051 67.9836 125.302 67.8814C125.558 67.7771 125.85 67.7525 126.14 67.8106Z" fill="black"/>
<circle cx="99.5" cy="99" r="97.5" stroke="black" stroke-width="3"/>
</g>
</svg>
