<svg width="198" height="198" viewBox="0 0 198 198" fill="none" xmlns="http://www.w3.org/2000/svg">
<mask id="mask0_277_1018" style="mask-type:alpha" maskUnits="userSpaceOnUse" x="0" y="0" width="198" height="198">
<circle cx="99" cy="99" r="99" fill="#C4C4C4"/>
</mask>
<g mask="url(#mask0_277_1018)">
<path fill-rule="evenodd" clip-rule="evenodd" d="M41.6192 282.792C44.08 282.945 46.5406 283.065 49.0012 283.157C81.1784 284.356 113.329 280.686 145.486 279.884C156.685 279.589 167.826 279.736 178.996 280.635C180.09 280.723 181.342 279.545 181.207 278.423C179.144 260.603 176.562 242.831 175.224 224.937C175.223 223.99 175.346 223.046 175.671 222.154C175.732 222.084 176.049 221.3 176.332 221.251C176.24 221.321 176.658 221.2 176.392 221.22C178.007 220.956 179.591 219.212 178.419 217.543C166.345 199.032 149.865 182.136 144.562 160.149C143.31 154.205 138.785 153.837 133.964 151.385C132.461 150.49 128.783 148.011 128.184 146.288C126.754 140.077 129.272 133.992 121.916 131.479C117.061 130.131 108.478 128.992 103.564 130.413C97.5715 132.408 98.02 139.165 94.5435 143.813C92.7454 146.501 89.6804 150.182 86.8499 150.594C85.479 150.794 84.4682 148.018 83.0986 148.209C61.7499 153.396 32.6637 188.78 23.4882 208.368C21.4204 214.533 28.089 212.673 27.6793 218.87C27.1743 230.624 26.0697 245.672 26.7248 257.441C27.3384 264.272 26.8843 271.429 29.0068 278.003C28.4355 278.697 29.2563 279.397 29.9261 279.699C30.7699 281.135 39.073 282.594 41.6192 282.792Z" fill="#D08B5B"/>
<path d="M83.0986 148.209C84.376 148.031 84.459 151.789 85.6959 151.951C91.4367 160.013 100.333 162.689 110.621 162.689C121.543 162.689 130.4 159.403 137.189 152.832L137.812 153.094C141.026 154.461 143.654 155.839 144.562 160.149C149.865 182.137 166.345 199.032 178.418 217.543C179.591 219.212 178.007 220.957 176.392 221.22C176.658 221.2 176.24 221.321 176.332 221.251C176.049 221.3 175.732 222.084 175.671 222.154C175.513 222.585 175.403 223.03 175.332 223.481C175.332 223.481 161.806 226.347 158.17 226.426C121.659 227.216 54.8887 226.087 54.8887 226.087L26.9222 215.505C25.3228 213.103 21.9323 213.007 23.4882 208.369C32.6637 188.78 61.7499 153.396 83.0986 148.209Z" fill="#E86BBB"/>
<path fill-rule="evenodd" clip-rule="evenodd" d="M97.1998 136.409C97.7544 133.912 101.728 134.983 101.047 137.471C99.9933 141.318 97.806 144.954 94.7186 147.506C92.3338 149.477 89.084 151.234 85.8604 151.559C86.163 151.854 86.452 152.168 86.7565 152.469C87.4435 153.151 88.1732 153.784 88.9254 154.393C90.4715 155.644 92.0789 156.768 93.8342 157.71C100.846 161.474 108.767 162.342 116.599 161.465C120.316 161.05 124.087 160.344 127.582 158.985C129.202 158.356 130.776 157.529 132.166 156.484L132.53 156.212C133.26 155.659 134.235 154.881 134.693 154.029C133.302 154.342 131.545 152.861 130.581 152C129.527 151.054 128.639 149.834 127.983 148.584C126.697 146.131 126.017 142.965 127.094 140.335C127.166 140.16 127.397 140.189 127.417 140.378C127.736 143.445 128.563 146.319 130.762 148.59C131.739 149.595 132.908 150.439 134.185 151.025L134.364 151.108C134.908 151.359 135.481 151.654 135.709 152.192C135.798 152.183 135.887 152.19 135.971 152.214C136.047 152.234 136.117 152.257 136.184 152.281C136.032 151.983 135.953 151.632 135.966 151.216C136.021 149.606 138.23 149.557 138.536 150.99C138.481 150.801 138.407 150.984 138.547 151.041C138.545 151.025 138.541 151.006 138.536 150.99L138.541 151.005L138.549 151.041H138.547C138.553 151.068 138.556 151.094 138.559 151.121L138.562 151.157L138.561 151.127C138.559 151.106 138.556 151.085 138.554 151.068L138.549 151.041C138.569 151.051 138.598 151.058 138.631 151.058L138.644 151.063C138.696 151.085 138.878 151.17 138.931 151.191C139.299 151.327 139.71 151.37 140.086 151.487C140.902 151.738 141.622 152.154 142.12 152.861C142.478 153.369 142.676 153.952 142.759 154.556C146.371 156.294 149.789 158.551 152.652 161.346C159.044 167.581 163.5 175.385 167.157 183.463C169.018 187.576 170.677 191.775 172.299 195.986L172.555 196.651C174.294 201.177 175.832 205.753 176.21 210.618C176.245 211.054 176.101 211.464 175.853 211.804C175.941 212.169 175.986 212.535 175.973 212.893C175.971 212.949 175.968 213.004 175.964 213.06C176.547 213.049 177.119 213.294 177.662 213.981C177.881 213.911 178.12 213.902 178.354 213.979C179.783 214.436 180.013 216.005 180.283 217.319C180.56 218.676 180.681 220.066 180.684 221.45C180.684 221.945 180.4 222.571 179.919 222.783C179.014 223.181 178.04 223.443 177.104 223.805C176.402 224.076 175.696 224.333 174.985 224.573C175.38 225.262 175.507 226.221 175.721 226.946C176.056 228.08 176.326 229.217 176.551 230.377C178.085 238.264 179.147 246.234 180.583 254.137C181.3 258.096 182.134 262.028 182.986 265.96C183.405 267.893 183.851 269.822 184.33 271.743C184.585 272.766 184.85 273.791 185.124 274.809C185.203 275.106 185.283 275.403 185.365 275.699L185.508 276.218C185.82 276.39 186.088 276.652 186.273 277.009C186.949 278.317 186.561 279.791 185.264 280.528C183.853 281.33 182.169 280.573 181.392 279.271C180.845 278.352 180.667 277.135 180.398 276.112C180.093 274.965 179.803 273.811 179.524 272.657C177.625 264.82 176.353 256.845 175.394 248.84L175.326 248.268C174.839 244.147 174.368 240.016 174.064 235.876C173.914 233.842 173.795 231.809 173.721 229.77C173.684 228.721 173.743 227.667 173.803 226.62C173.83 226.161 173.869 225.7 173.883 225.242L173.888 225.177C173.891 225.131 173.897 225.07 173.901 225.005L173.906 224.928C172.487 225.372 171.048 225.742 169.595 226.054C166.503 226.723 163.34 227.095 160.184 226.906C160.624 232.134 161.197 237.348 161.999 242.528C162.773 247.518 163.665 252.496 164.672 257.444C165.176 259.93 165.72 262.411 166.294 264.882C166.602 266.202 166.954 267.514 167.231 268.841C167.395 269.63 167.447 270.291 167.116 271.029C167.48 272.022 167.804 273.019 168.122 273.959L168.218 274.239C168.781 275.884 169.85 277.566 168.734 279.183C168.156 280.017 167.215 280.495 166.267 280.524C166.25 280.534 166.232 280.546 166.213 280.556C165.703 280.83 165.116 280.883 164.557 280.766C163.708 280.933 162.856 281.093 162.004 281.239C159.896 281.603 157.779 281.904 155.658 282.157C151.618 282.637 147.553 282.901 143.489 283.047C128.609 283.583 113.715 282.641 98.8296 282.913C91.246 283.051 83.6629 283.393 76.092 283.845C72.3137 284.071 68.5333 284.314 64.753 284.501L63.5828 284.558C60.2021 284.72 56.819 284.844 53.4408 284.597C53.375 284.593 53.3236 284.567 53.2886 284.53C52.1231 284.398 50.9516 283.324 51.0685 282.085C51.5722 276.803 52.0759 271.523 52.5816 266.239C53.4798 256.828 54.3864 247.415 55.3032 238.005L55.4357 236.645C55.7437 233.475 56.0379 230.297 56.1871 227.113C55.4348 227.06 54.6847 226.992 53.9341 226.91C45.8029 226.019 38.008 223.558 30.5234 220.327L30.2202 220.196C29.5459 219.901 28.808 219.607 28.0515 219.293C28.0641 220.73 28.0166 222.17 28.0103 223.593C28.0001 225.956 28.0186 228.318 28.0247 230.679C28.0391 235.545 28.2242 240.412 28.4668 245.27C28.8923 253.849 29.3918 262.416 30.1482 270.975C30.3394 273.128 30.5986 275.278 30.7814 277.431C30.8905 278.7 30.6293 279.756 29.468 280.423C28.8964 280.752 28.4544 280.615 27.8871 280.349C26.5015 279.699 26.4625 278.163 26.3309 276.826C26.2304 275.819 26.1377 274.811 26.0472 273.802C25.8543 271.648 25.6875 269.495 25.5519 267.338C25.0155 258.766 24.8591 250.203 25.2291 241.621C25.4008 237.608 25.6489 233.585 25.978 229.578L26.0555 228.654C26.3269 225.452 26.5015 222.092 27.0627 218.87C24.7994 217.865 22.5567 216.589 21.5166 214.466C20.1683 211.71 21.6502 209.354 23.7613 207.732C23.7408 207.458 23.7613 207.187 23.8189 206.94C24.4253 204.313 25.4408 201.718 26.4213 199.214C27.4101 196.697 28.5017 194.218 29.7022 191.794C34.5206 182.081 41.1028 173.205 48.9492 165.728C52.8467 162.015 57.1122 158.582 61.6654 155.703C63.9225 154.279 66.2372 152.962 68.6341 151.79L68.9885 151.617C70.657 150.807 72.5285 149.946 74.3839 149.495C74.5769 149.351 74.7722 149.215 74.9695 149.086C75.6993 148.6 76.6901 148.951 77.1218 149.645C77.3317 149.483 77.5741 149.339 77.8516 149.209L78.1259 149.084C79.7908 148.334 81.7899 147.632 83.5971 148.125C84.7196 148.432 85.6035 149.259 86.0005 150.312C86.9112 149.83 87.8054 149.335 88.6782 148.728C90.0823 147.757 91.355 146.552 92.4982 145.287C94.7897 142.744 96.4555 139.764 97.1998 136.409ZM176.73 216.611C176.574 216.657 176.409 216.673 176.239 216.652C176.547 216.688 175.93 216.871 175.76 216.958L175.748 216.965C175.439 217.142 175.129 217.313 174.815 217.477C174.081 217.863 173.331 218.211 172.568 218.538C171.065 219.178 169.513 219.669 167.92 220.029C166.361 220.381 164.727 220.586 163.13 220.619C162.061 220.639 160.793 220.591 159.687 220.276C159.815 222.215 159.956 224.152 160.114 226.087L162.299 225.586C164.483 225.085 166.665 224.571 168.82 223.947C170.438 223.478 172.033 222.929 173.61 222.336C174.436 222.026 175.256 221.697 176.066 221.343C176.47 221.167 176.847 220.958 177.221 220.746L177.54 220.564C177.466 219.698 177.331 218.849 177.133 217.993C177.031 217.54 176.856 217.076 176.73 216.611ZM27.1659 207.479C26.8884 208.38 26.4628 209.22 25.4926 209.424C25.1492 209.496 24.8617 209.457 24.623 209.34L24.5658 209.455C23.768 211.093 23.5337 212.822 25.3692 214.083C26.1978 214.654 27.1001 215.147 28.0333 215.589C29.7023 216.384 31.4796 217.022 33.1553 217.672L33.4891 217.802C36.4861 218.979 39.5305 220.05 42.6223 220.946C45.7593 221.853 48.9516 222.581 52.1833 223.044C53.546 223.237 54.9191 223.373 56.2946 223.461C56.3169 221.611 56.3067 219.758 56.3005 217.906C55.8113 217.845 55.3261 217.779 54.8576 217.723C53.4308 217.557 52.0084 217.354 50.594 217.101C47.6401 216.572 44.717 215.843 41.8658 214.908C36.5827 213.175 31.6677 210.696 27.1659 207.479ZM85.0876 150.786C83.8871 149.516 81.5909 149.974 80.1419 150.591C79.7039 150.778 79.2619 150.967 78.8426 151.195L78.7613 151.241C78.273 151.522 78.2754 151.689 78.5138 152.25C78.8241 152.988 79.2557 153.703 79.6668 154.387C81.4267 157.326 83.7432 159.884 86.3887 162.045C95.7588 169.695 109.218 172.393 120.936 169.831C126.559 168.602 131.984 166.123 136.124 162.056L136.5 161.681C138.17 160.01 140.461 157.592 140.3 155.115C140.224 153.924 139.252 153.856 138.259 153.627C137.852 153.531 137.464 153.398 137.126 153.209C137.398 154.379 135.953 156.119 135.206 156.848C133.642 158.381 131.759 159.578 129.767 160.472C125.976 162.177 121.853 162.983 117.748 163.493C113.09 164.073 108.331 164.021 103.707 163.164C99.6849 162.418 95.7199 161.005 92.2579 158.804C90.6709 157.797 89.1063 156.647 87.7821 155.308L87.5009 155.024C86.5454 154.055 85.4333 152.884 84.8615 151.613C84.6436 151.615 84.4277 151.609 84.2119 151.594C84.0598 151.586 83.9777 151.37 84.1297 151.289C84.3003 151.199 84.471 151.109 84.6415 151.021C84.613 150.926 84.5881 150.833 84.5676 150.739C84.5511 150.659 84.6354 150.585 84.7093 150.63C84.8122 150.691 84.9108 150.757 85.0075 150.827C85.0341 150.815 85.0609 150.801 85.0876 150.786Z" fill="black"/>
<path fill-rule="evenodd" clip-rule="evenodd" d="M145.914 92.0753C145.427 85.753 146.182 79.1262 143.751 73.1168C139.51 63.1462 127.622 59.8217 118.406 56.0257C114.713 54.932 102.289 54.7791 97.9648 53.3315C88.1802 50.0552 85.8421 46.1515 78.0676 52.3897C76.7552 53.4553 75.934 54.6136 75.335 56.196L75.3596 56.2028C75.1886 56.8625 75.372 57.5207 75.7574 58.0236C72.3863 61.4779 70.9756 66.657 72.7053 71.2554C78.3499 83.2216 78.0844 89.6919 76.2657 102.557C73.8907 114.565 79.3179 118.953 88.3057 125.487C87.9399 126.199 87.864 127.144 88.3408 127.772C98.7344 142.414 118.332 149.404 135.122 141.973C141.937 138.931 144.98 131.655 146.716 125.089C148.739 117.738 149.361 109.991 147.714 102.502C147.05 99.0391 146.185 95.6007 145.914 92.0753Z" fill="#D08B5B"/>
<path fill-rule="evenodd" clip-rule="evenodd" d="M71.4728 74.1401L77.6527 78.2674L99.7734 54.8882L92.4126 49.0797C92.4126 49.0797 79.0571 58.975 76.4311 61.5866C73.8052 64.1982 71.4728 74.1401 71.4728 74.1401Z" fill="#9FD8E5"/>
<path fill-rule="evenodd" clip-rule="evenodd" d="M85.9626 22.0284C87.2245 21.8385 88.1771 22.6232 88.6305 23.7292L88.6539 23.7888C88.7998 24.1651 88.9614 24.5312 89.1365 24.891C92.2929 23.3384 96.7979 23.7373 98.7955 26.8816C100.221 29.1272 99.3521 31.7924 98.814 34.1738L98.4618 35.7429C99.1439 36.1779 99.6576 36.9571 99.6333 37.7639L99.6304 37.8261L99.4873 40.0141C99.9427 39.5514 100.359 39.0476 100.73 38.5109C100.987 38.04 101.263 37.5772 101.561 37.129C103.31 34.4906 107.239 36.7834 105.794 39.6091C105.518 40.1539 105.206 40.6701 104.872 41.1678C104.494 41.9019 104.185 42.6567 103.947 43.432C104.63 43.7301 105.155 44.3923 105.211 45.3917C105.339 47.7259 104.117 49.6732 102.172 50.8969C101.6 51.2567 101.009 51.3267 100.474 51.193C100.38 51.3205 100.285 51.448 100.195 51.5776C100.97 52.2089 101.67 52.9286 102.271 53.7266C104.08 53.4551 105.899 53.3276 107.719 53.3235C109.942 52.2315 112.605 52.2541 114.995 52.6634C116.533 52.9266 118.01 53.4387 119.524 53.8068C121.12 54.1933 122.74 54.2077 124.355 54.4709C126.39 54.802 128.174 55.7439 129.296 57.2472C130.529 57.2842 131.826 57.79 132.9 58.477C135.404 60.0769 137.892 61.6994 140.388 63.3096C141.346 63.9278 141.704 64.9147 141.528 66.0154L141.516 66.0858L141.433 66.5423L141.63 66.8233C142.394 67.9049 143.225 69.0378 143.719 70.2316C144.634 71.5539 145.461 72.9399 146.194 74.3692C147.18 76.2899 147.995 78.3258 148.546 80.4151C148.683 80.9437 148.821 81.4763 148.911 82.0151C149.041 82.776 148.841 83.3662 148.733 84.0962C148.598 85.0217 148.548 85.9593 148.404 86.8868C148.308 87.5016 147.787 87.804 147.241 87.8204C147.447 89.3854 147.595 90.9606 147.736 92.5235C147.935 94.7569 148.07 96.9963 148.187 99.2358C148.79 100.114 150.023 100.809 150.914 101.05C152.146 101.381 153.439 101.021 154.603 100.599C155.336 100.334 155.937 101.257 155.58 101.874C154.458 103.812 152.058 103.803 150.24 102.946C149.472 102.584 148.796 102.059 148.296 101.377C148.326 102.026 148.359 102.676 148.393 103.328L148.423 103.919C148.792 110.814 149.59 117.947 148.298 124.775C146.06 136.602 136.297 145.607 124.372 146.306C118.114 146.672 112.902 144.82 110.31 143.787C107.719 142.752 108.726 140.645 110.525 141.247C113.624 142.285 119.317 143.831 124.413 143.164C136.421 141.589 146.603 135.573 145.557 109.658C145.409 105.983 144.952 102.306 144.854 98.6312C144.759 95.0385 144.794 91.4439 144.637 87.8533L144.583 86.6283C144.522 85.1968 144.456 83.7587 144.349 82.3256C144.22 81.7704 144.113 81.2069 143.956 80.6619C143.527 79.1792 142.967 77.7376 142.271 76.3619C142.118 76.4791 141.945 76.5634 141.759 76.5963C140.341 76.8513 139.012 76.7793 137.685 76.1871C137.065 75.9135 136.519 75.5496 136.011 75.0992C135.769 74.8874 135.606 74.6818 135.48 74.4679C134.838 74.4782 134.195 74.2848 133.794 73.8222C133.334 73.2948 133.258 72.7501 133.437 72.2458L133.457 72.1955L133.411 72.1791C132.87 73.5836 131.791 74.8196 130.607 75.6544C128.737 76.9788 126.396 77.3613 124.152 77.3963C121.674 77.4333 119.06 77.0508 116.615 76.66C115.969 76.5573 115.327 76.44 114.697 76.2817C114.673 76.3063 114.649 76.3351 114.621 76.3599C112.523 78.3731 109.572 78.8913 106.908 77.7418C105.37 77.0775 104.08 76.0082 102.94 74.7825C102.923 75.4241 102.89 76.0657 102.834 76.7012L102.812 76.9536C102.698 78.1371 102.479 79.3924 101.588 80.2465C100.145 81.6305 98.0531 81.0752 96.3893 80.1745C96.3912 80.2177 96.3912 80.263 96.3912 80.3082C96.8408 81.8382 97.2922 83.3703 97.7437 84.9024L97.841 85.2287C98.1689 86.3165 98.5289 87.4058 98.6272 88.5443C98.816 90.7201 97.372 92.869 94.9599 92.139C93.6941 91.7574 92.6812 90.6909 91.7081 89.8366L91.0952 89.3052C92.6812 94.5018 93.7807 99.8835 93.8828 105.306C93.8887 105.601 93.6366 105.823 93.3574 105.832C92.7055 105.86 92.0039 105.73 91.3472 105.469C91.3102 105.467 91.2732 105.465 91.2343 105.459C90.1144 105.296 89.0742 104.891 88.1577 104.292C88.3688 104.966 88.4632 105.687 88.4077 106.442C88.3931 106.625 88.108 106.689 88.0672 106.486C87.5379 103.877 84.492 101.905 81.8663 102.405C79.0478 102.942 76.9719 105.372 76.4632 108.139C75.9175 111.11 76.9617 114.546 78.896 116.839C79.7863 117.896 80.9576 118.778 82.3483 119C82.9843 119.101 83.6448 119.066 84.2622 118.885C84.5248 118.807 84.771 118.698 85.0213 118.595C85.3865 118.448 85.8127 118.424 86.1581 118.268C86.9395 117.916 87.7247 118.638 87.3287 119.443C86.9842 120.143 86.6748 120.616 86.1027 120.978C86.5658 121.547 86.9862 122.336 87.1418 122.548C87.9378 123.625 88.7463 124.644 89.6532 125.628C90.5765 126.628 91.5836 127.541 92.6481 128.386L93.0957 128.74C94.1212 129.555 95.0135 130.311 95.7374 131.481C96.3075 132.404 95.569 133.657 94.5007 133.642C91.1565 133.595 88.7259 130.65 86.9949 128.077C86.7487 127.71 86.5162 127.32 86.3012 126.921C86.2233 127.047 86.1367 127.165 86.0404 127.272L86.2311 127.785C86.7974 129.299 84.3587 130.288 83.651 128.875C83.1361 127.852 82.5391 126.877 81.8745 125.955C81.4827 125.9 81.0991 125.661 80.8858 125.353C80.3463 124.57 79.7412 123.778 79.2304 122.943C78.9473 122.673 78.6561 122.414 78.3586 122.161C78.2724 122.237 78.1843 122.313 78.1001 122.393C77.7267 123.247 77.2652 124.027 76.6929 124.76L76.5702 124.917C75.4738 126.303 74.0457 127.72 72.2785 128.059C71.739 128.162 71.2201 127.49 71.698 127.06C72.9349 125.945 74.3975 125.187 75.5381 123.942C76.1 123.329 76.6159 122.654 77.0596 121.946L77.1607 121.783C77.2345 121.661 77.3104 121.54 77.3883 121.417C76.8734 121.065 76.3586 120.712 75.8437 120.358C74.4263 121.572 72.5805 122.126 71.0127 123.133L70.8569 123.235C69.4395 124.184 67.9461 122.083 69.0826 120.93C70.3353 119.662 71.3811 118.152 72.4908 116.743C71.969 115.78 71.7219 114.64 71.6295 113.488C71.5929 113.162 71.5644 112.836 71.5359 112.51C70.74 112.523 69.94 112.249 69.2631 111.779L69.0067 111.595C68.1841 111.858 67.3205 111.986 66.4938 111.963C64.5491 111.906 63.7532 109.679 64.9697 108.27C66.2107 106.83 68.3831 106.516 70.1041 107.215C70.1595 107.186 70.2169 107.155 70.2724 107.125C70.1902 106.746 70.2085 106.403 70.3018 106.101L70.2748 105.917C69.8963 105.335 69.6475 104.671 69.5531 103.968C69.4785 103.412 69.4937 102.861 69.6221 102.311C69.6647 102.129 69.7535 101.939 69.8215 101.749C69.6815 101.394 69.5993 101.028 69.5738 100.66C69.5347 100.614 69.4957 100.566 69.4587 100.514C68.6048 99.3119 68.7773 97.8635 69.5901 96.8909C69.5938 96.8289 69.5995 96.767 69.6079 96.7055C69.5603 96.5982 69.5166 96.4898 69.4768 96.3802C68.6828 95.5771 68.0998 94.6108 68.2085 93.4133C68.2723 92.7088 68.5611 92.0746 68.9983 91.6006C68.9208 91.3707 68.9134 91.1044 69.0073 90.8821C68.3096 89.0218 68.3979 86.7813 68.9 84.7008C68.7892 84.3841 68.7318 84.0407 68.7441 83.6767C68.8016 82.1323 70.1349 80.7134 71.7143 80.7319C71.9046 80.7335 72.0826 80.7583 72.2537 80.7948L72.2559 80.7579C72.3164 80.2944 72.4436 79.8661 72.6293 79.4818C72.538 79.4487 72.4534 79.4011 72.3794 79.338C71.3673 79.8792 70.2963 80.293 69.1734 80.5749C68.3477 80.7823 67.502 79.8414 68.0153 79.0645C68.2535 78.704 68.5162 78.3803 68.7993 78.0846C68.3968 78.0868 67.9882 78.1142 67.5749 78.1674C66.8323 78.2641 66.0036 77.7561 65.5215 77.0693C64.9225 77.6534 64.3215 78.2353 63.7204 78.8173C62.1984 80.2959 59.8988 79.208 59.6588 77.2585C59.2055 77.1372 58.7829 76.9315 58.4116 76.6375C56.0116 77.6822 53.429 78.2559 50.789 78.3648C48.8936 78.4431 47.7859 76.2303 48.672 74.6674C49.2669 73.6186 50.0054 72.6767 50.8567 71.8583C49.5357 72.2634 48.1715 72.5554 46.7786 72.7425C46.0258 72.8433 44.9613 72.2182 44.6596 71.5251C43.5068 68.8599 43.6053 66.0817 44.9325 63.4886C44.9837 63.3857 45.0412 63.2869 45.0966 63.1883C45.2341 62.8448 45.3838 62.5055 45.5458 62.1724C43.913 60.4655 43.7715 57.9279 44.6515 55.8036C44.2986 55.2298 44.1633 54.5388 44.4032 53.9137C45.0864 52.1143 46.071 50.4527 47.3141 49.0255C47.1951 48.7952 47.0905 48.5505 47.0022 48.2872C46.3027 46.1588 47.1131 43.5903 48.7479 42.1076C49.7756 41.1739 50.9572 40.6147 52.2187 40.2568C52.7501 39.3149 53.4331 38.4657 54.229 37.75C54.2598 37.6821 54.2905 37.6143 54.3255 37.5464C55.5644 35.2062 57.8209 33.9517 60.2394 33.6617C60.3337 32.7466 60.9491 31.8727 61.8435 31.5889C62.0897 30.7971 62.4569 30.0403 62.9615 29.3535C63.7554 28.2718 65.0743 27.7618 66.3174 28.4712C66.9984 28.86 67.6508 29.3062 68.262 29.7998C68.5366 29.6707 68.8479 29.5872 69.199 29.5605L69.2877 29.555L71.3103 29.4522C72.1575 29.0759 73.0026 28.681 73.8498 28.2965C74.3585 27.8749 74.9267 27.5232 75.5462 27.2621C76.2478 26.9681 76.9658 26.8015 77.6858 26.7459C78.2704 26.5546 78.8591 26.386 79.4581 26.2544C80.8653 25.946 82.3381 25.7732 83.7987 25.7876C83.8286 25.4086 83.8433 25.0252 83.8405 24.6371L83.8376 24.4427C83.8048 23.1985 84.7956 22.2053 85.9626 22.0284ZM84.5447 121.571C84.3437 121.614 84.1406 121.649 83.9374 121.674C83.999 121.826 84.0605 121.978 84.1201 122.13C84.2841 122.223 84.4503 122.311 84.6165 122.393C84.5673 122.114 84.5385 121.832 84.5447 121.571ZM74.006 118.431L73.8696 118.683C73.8475 118.724 73.8258 118.765 73.8044 118.805C74.0935 118.782 74.3849 118.788 74.672 118.821L74.6712 118.791C74.6342 118.778 74.5974 118.767 74.562 118.749C74.3639 118.654 74.1797 118.547 74.006 118.431ZM79.7016 106.946C81.5164 107.052 83.054 107.33 84.7046 108.126L84.8463 108.196C86.305 108.922 88.7171 110.263 88.5138 112.185C88.4564 112.732 88.0604 113.308 87.4367 113.265C85.7281 113.148 84.7519 111.42 83.5949 110.342C82.4278 109.257 80.9939 108.14 79.5806 107.394C79.3808 107.289 79.4595 106.956 79.6768 106.946H79.7016ZM71.4721 81.612C71.0372 81.6264 71.1829 82.0501 71.4065 81.6963C71.4249 81.6675 71.4475 81.6387 71.4721 81.612ZM94.9463 53.3312C90.8276 53.4398 86.6826 55.8778 83.5973 58.342C80.9131 60.4859 78.5954 63.0359 76.5431 65.7844C76.015 67.1531 75.5617 68.5504 75.1787 69.9581C74.9264 70.8876 74.7685 71.8274 74.5572 72.7652L74.4915 73.0526C74.3256 73.3636 74.2023 73.6982 74.1124 74.0438C74.4864 74.4198 74.9716 74.6889 75.5058 74.8167C75.6778 74.8578 75.8208 74.9469 75.9338 75.0649C76.3638 74.3455 76.7395 73.5863 76.9583 72.7814L76.9662 72.7442C77.7927 71.3871 78.6904 70.0722 79.6526 68.8023C82.3071 65.2961 85.2299 62.1004 88.7444 59.4414C91.4085 57.426 94.3868 55.8468 97.554 54.8205C96.7795 54.1935 95.8989 53.6975 94.9463 53.3312Z" fill="black"/>
<path fill-rule="evenodd" clip-rule="evenodd" d="M127.192 129.743C125.81 129.179 124.577 128.239 123.675 127.037C123.362 126.619 123.281 126.178 123.346 125.774C123.42 125.321 123.689 124.909 124.055 124.634C124.422 124.358 124.881 124.22 125.325 124.29C125.711 124.351 126.094 124.562 126.399 125L126.462 125.087C126.998 125.813 127.696 126.408 128.492 126.792C129.258 127.162 130.117 127.334 131.004 127.234C132.694 127.042 133.86 126.128 135.098 124.886C135.252 124.729 135.405 124.568 135.56 124.403C135.657 124.254 135.792 124.158 135.943 124.108C136.109 124.052 136.298 124.056 136.471 124.116C136.638 124.174 136.787 124.285 136.887 124.43C136.981 124.571 137.035 124.743 137.018 124.941C136.904 126.228 136.232 127.377 135.276 128.279C134.215 129.281 132.808 129.974 131.484 130.217C130.025 130.485 128.538 130.293 127.192 129.743ZM132.173 109.886C133.724 110.83 136.09 113.031 134.42 115.371C132.455 117.435 129.624 115.069 128.23 113.999C126.937 113.17 125.483 115.303 126.684 116.271C136.761 123.735 140.851 110.133 132.958 108.777C132.089 108.627 131.766 109.594 132.173 109.886ZM114.114 101.204C114.285 99.0741 117.527 98.5904 117.85 100.698C118.138 102.586 117.798 104.319 116.948 106.019C116.136 107.643 114.095 106.886 113.94 105.407C113.733 103.425 114.007 102.528 114.114 101.204ZM138.795 100.261C139.246 99.6687 139.899 99.2644 140.681 99.4928C143.124 100.207 142.404 103.677 141.546 105.365C141.079 106.283 139.573 106.516 138.892 105.708C137.782 104.391 137.251 101.761 138.662 100.464C138.699 100.397 138.742 100.329 138.795 100.261ZM116.914 91.8848L117.3 91.8172C118.494 91.6106 119.978 91.4121 120.822 92.3724C121.271 92.8816 121.425 93.8279 120.822 94.3153C119.764 95.1728 118.592 94.8405 117.323 94.9131C116.278 94.9731 115.272 95.1463 114.265 95.4344C112.055 96.0664 110.254 97.22 108.366 98.4868C108.119 98.6529 107.866 98.336 107.984 98.1043C109.073 95.9691 111.185 94.2152 113.3 93.146C114.43 92.5754 115.665 92.1019 116.914 91.8848ZM136.568 90.9283L136.862 90.9888C140.077 91.6609 144.253 93.0037 145.775 96.1622C145.834 96.6089 145.772 96.7046 145.723 96.7672L145.706 96.788C145.665 96.8414 145.632 96.915 145.438 96.9758C145.385 96.9629 145.33 96.9494 145.276 96.935C144.578 96.7521 144.026 96.5001 143.492 96.2386L142.912 95.9531C142.239 95.6233 141.561 95.3055 140.843 95.0709C139.309 94.5704 137.731 94.2178 136.129 94.0295C135.781 93.9888 135.447 93.8715 135.183 93.6705C134.933 93.4798 134.741 93.2157 134.655 92.8646C134.541 92.4104 134.574 92.0665 134.817 91.6566C135 91.3489 135.263 91.1355 135.563 91.013C135.871 90.8882 136.22 90.8587 136.568 90.9283Z" fill="black"/>
<path fill-rule="evenodd" clip-rule="evenodd" d="M156.042 94.2298C155.873 94.2016 155.704 94.1751 155.534 94.1502C155.402 94.0752 155.247 94.0174 155.066 93.9826C154.655 93.8779 154.245 93.8074 153.837 93.7693C147.971 92.4489 134.403 94.3238 133.843 99.3308C131.975 99.9545 130.359 99.396 128.194 99.4515C126.547 92.5614 98.059 93.5339 96.689 97.6879C96.6832 97.6865 96.6783 97.6852 96.6725 97.6835C95.357 97.276 93.4158 97.3743 91.9087 97.3097C88.6919 97.2423 85.4703 97.5291 82.3229 98.208C76.4283 99.1451 68.3835 100.242 72.4831 107.606C72.484 107.608 72.4845 107.609 72.4856 107.61H72.4862C73.1927 108.333 74.3918 107.751 74.4364 106.77C73.0581 103.281 76.1712 102.862 78.5664 101.86C84.5264 99.7176 90.5941 99.4207 96.7581 100.083C97.2222 100.629 97.9257 101.106 98.6691 101.355C102.791 102.039 100.619 105.097 103.224 105.543C102.745 116.203 115.684 122.023 123.18 115.015C126.174 112.087 126.887 107.751 127.581 103.841C127.948 103.758 128.181 103.558 128.318 103.292C129.2 102.411 129.755 101.597 131.499 101.355C133.245 101.113 134.589 101.599 134.77 101.747C134.815 101.84 134.865 101.932 134.922 102.025C135.002 102.163 135.11 102.273 135.234 102.359C133.51 112.976 141.749 119.689 150.066 114.183C153.68 110.783 154.443 105.576 154.595 100.929C155.084 100.633 155.394 100.06 155.224 99.3394C154.991 98.3462 155.539 97.4861 156.412 97.0543C157.546 96.4936 157.345 94.4455 156.042 94.2298ZM120.306 99.2663C119.273 99.0391 118.833 100.631 119.868 100.859C120.602 101.02 121.222 101.391 121.643 102.017L121.687 102.085C122.251 102.982 123.675 102.154 123.108 101.252C122.47 100.236 121.477 99.524 120.306 99.2663ZM150.541 98.2789C150.177 98.0225 149.626 98.2129 149.415 98.5753C149.183 98.9743 149.335 99.4187 149.676 99.6798L149.711 99.7053C150.023 99.9256 150.328 100.321 150.366 100.726L150.37 100.776C150.411 101.836 152.057 101.841 152.015 100.776C151.975 99.7345 151.372 98.8642 150.541 98.2789Z" fill="black"/>
<circle cx="99" cy="99" r="97.5" stroke="#00160A" stroke-width="3"/>
</g>
</svg>
