<svg width="56" height="74" viewBox="0 0 56 74" fill="none" xmlns="http://www.w3.org/2000/svg">
<path d="M34.327 18.412H31.827C31.826 22.124 30.33 25.462 27.898 27.897C25.463 30.328 22.126 31.825 18.414 31.826C14.703 31.825 11.365 30.328 8.92902 27.897C6.49802 25.461 5.002 22.124 5 18.412C5.002 14.7 6.49802 11.363 8.92902 8.92798C11.365 6.49698 14.703 5.001 18.414 5C22.126 5.001 25.464 6.49698 27.899 8.92798C30.33 11.363 31.826 14.7 31.827 18.412H34.327H36.827C36.826 8.24099 28.584 0.00100145 18.414 1.45079e-06C13.338 -0.00199855 8.71901 2.06397 5.39401 5.39197C2.06501 8.71597 -0.000999637 13.335 3.62854e-07 18.412C0.00200036 28.583 8.245 36.824 18.414 36.826C28.584 36.824 36.826 28.583 36.827 18.412H34.327Z" fill="#64FCD9"/>
<path d="M24.6159 72.2899L53.2621 50.7034C54.3651 49.8723 54.5847 48.3044 53.7542 47.2023C52.9231 46.0994 51.356 45.8791 50.2531 46.7102L21.6068 68.2967C20.5039 69.1278 20.2837 70.6949 21.1148 71.7979C21.9453 72.9 23.513 73.121 24.6159 72.2899Z" fill="#00160A"/>
</svg>
