<svg width="219" height="162" viewBox="0 0 219 162" fill="none" xmlns="http://www.w3.org/2000/svg">
<g filter="url(#filter0_d_129_97)">
<path d="M155.117 109.452L139.865 95.1469C138.858 94.2029 137.276 94.2529 136.332 95.2599C135.387 96.2679 135.438 97.8499 136.445 98.7939L151.697 113.099C152.704 114.043 154.286 113.993 155.23 112.986C156.175 111.979 156.124 110.396 155.117 109.452Z" fill="#64FCD9"/>
<path d="M140.45 113.462L154.757 98.2098C155.701 97.2028 155.651 95.6208 154.644 94.6768C153.637 93.7318 152.055 93.7828 151.11 94.7898L136.803 110.042C135.859 111.049 135.909 112.631 136.916 113.575C137.923 114.52 139.505 114.469 140.45 113.462Z" fill="#64FCD9"/>
<path d="M38.9683 123.08L40.5746 121.163L24.4941 107.689C23.8088 107.115 22.8707 106.95 22.031 107.257C21.1918 107.562 20.5801 108.294 20.4257 109.174L16.8032 129.83L13.1734 150.493C13.0186 151.372 13.3459 152.268 14.0303 152.841C14.7147 153.415 15.6537 153.58 16.4925 153.273L36.1949 146.084L55.9024 138.901C56.7413 138.594 57.3543 137.864 57.509 136.985C57.6634 136.105 57.3365 135.21 56.6517 134.635L40.5746 121.163L38.9683 123.08L37.3627 124.996L50.1204 135.686L34.482 141.387L18.8474 147.092L21.7286 130.694L24.6021 114.304L37.3627 124.996L38.9683 123.08Z" fill="#00160A"/>
<path d="M79.155 25.5V28H108.31V54.654H81.655V25.5H79.155V28V25.5H76.655V57.154C76.655 57.813 76.922 58.457 77.387 58.922C77.853 59.388 78.497 59.654 79.155 59.654H110.81C111.468 59.654 112.112 59.388 112.577 58.922C113.043 58.457 113.31 57.813 113.31 57.154V25.5C113.31 24.842 113.043 24.198 112.577 23.732C112.112 23.267 111.468 23 110.81 23H79.155C78.497 23 77.853 23.267 77.387 23.732C76.922 24.198 76.655 24.842 76.655 25.5H79.155Z" fill="#64FCD9"/>
<path d="M176.537 33.667C176.105 33.9116 175.802 33.9826 175.465 34.002C175.17 34.0161 174.832 33.9715 174.411 33.844C173.676 33.626 172.725 33.1221 171.657 32.4699C170.04 31.5046 168.185 30.2096 165.861 29.4544C164.699 29.0816 163.399 28.8626 162.016 28.9724C160.635 29.0782 159.202 29.5213 157.82 30.3224C156.625 31.0124 156.215 32.5424 156.905 33.7375C157.596 34.9334 159.125 35.3425 160.32 34.6525C161.026 34.2473 161.616 34.0613 162.165 33.9836C162.646 33.9171 163.107 33.936 163.603 34.0285C164.466 34.1873 165.437 34.6057 166.489 35.1957C168.078 36.0695 169.764 37.3141 171.785 38.1968C172.8 38.6305 173.934 38.9732 175.197 39.0027C176.457 39.0387 177.815 38.7121 179.037 37.9972C180.232 37.3072 180.643 35.7781 179.952 34.5821C179.262 33.3861 177.732 32.977 176.537 33.667Z" fill="#00160A"/>
<path d="M201.714 19.131C201.283 19.3756 200.979 19.4466 200.642 19.466C200.348 19.4801 200.009 19.4355 199.588 19.308C198.853 19.09 197.903 18.5856 196.834 17.9339C195.218 16.9681 193.364 15.674 191.039 14.9179C189.878 14.5459 188.577 14.327 187.195 14.4368C185.814 14.5426 184.38 14.9857 182.999 15.7863C181.803 16.4768 181.394 18.0062 182.084 19.2013C182.775 20.3973 184.303 20.8069 185.499 20.1164C186.204 19.7116 186.795 19.5257 187.343 19.4479C187.824 19.3819 188.286 19.4003 188.781 19.4929C189.643 19.6522 190.616 20.0701 191.668 20.6601C193.256 21.5338 194.942 22.779 196.963 23.6603C197.977 24.0945 199.112 24.4367 200.375 24.4662C201.634 24.5027 202.992 24.1761 204.214 23.4612C205.41 22.7707 205.82 21.2421 205.129 20.0461C204.439 18.8501 202.91 18.4405 201.714 19.131Z" fill="#00160A"/>
<path d="M179.037 37.9972C180.106 37.3855 180.978 36.5429 181.576 35.5993C182.103 34.7743 182.427 33.896 182.624 33.0433C182.965 31.5434 182.963 30.1036 182.939 28.7377C182.885 26.6939 182.791 24.7941 183.112 23.3802C183.268 22.6701 183.501 22.0912 183.853 21.5772C184.209 21.0649 184.691 20.5865 185.499 20.1164C186.695 19.4264 187.105 17.8974 186.414 16.7014C185.724 15.5063 184.195 15.0963 182.999 15.7863C181.794 16.4801 180.803 17.3406 180.052 18.3091C179.393 19.1551 178.92 20.0732 178.599 20.9907C178.038 22.6024 177.909 24.1916 177.885 25.6567C177.864 27.8515 178.048 29.8458 177.87 31.2265C177.789 31.9168 177.636 32.422 177.442 32.7741C177.24 33.1263 177.025 33.3762 176.537 33.6671C175.341 34.3576 174.931 35.8862 175.622 37.0822C176.312 38.2781 177.841 38.6877 179.037 37.9972Z" fill="#00160A"/>
<path d="M204.214 23.4612C205.283 22.8487 206.155 22.0069 206.753 21.0625C207.28 20.2382 207.604 19.36 207.8 18.5064C208.142 17.0074 208.139 15.5672 208.115 14.2013C208.061 12.1584 207.967 10.2577 208.288 8.84515C208.445 8.13459 208.677 7.55568 209.029 7.04221C209.385 6.52935 209.867 6.05153 210.675 5.58143L209.428 3.42243L210.492 5.67801C210.582 5.63493 210.644 5.59893 210.675 5.58143L209.428 3.42243L210.492 5.67801C211.74 5.08873 212.276 3.59916 211.687 2.35051C211.099 1.10136 209.609 0.565328 208.36 1.1546C208.269 1.19817 208.206 1.2333 208.175 1.2513C206.97 1.94544 205.98 2.80508 205.227 3.77404C204.568 4.61869 204.097 5.53767 203.775 6.45523C203.213 8.06735 203.085 9.65606 203.062 11.1212C203.041 13.3146 203.224 15.3102 203.046 16.6901C202.965 17.3813 202.813 17.8859 202.618 18.2386C202.416 18.5908 202.201 18.8406 201.713 19.1316C200.518 19.8216 200.109 21.351 200.8 22.547C201.49 23.7421 203.018 24.1517 204.214 23.4612Z" fill="#00160A"/>
</g>
<defs>
<filter id="filter0_d_129_97" x="9.13556" y="0.915161" width="206.791" height="160.51" filterUnits="userSpaceOnUse" color-interpolation-filters="sRGB">
<feFlood flood-opacity="0" result="BackgroundImageFix"/>
<feColorMatrix in="SourceAlpha" type="matrix" values="0 0 0 0 0 0 0 0 0 0 0 0 0 0 0 0 0 0 127 0" result="hardAlpha"/>
<feOffset dy="4"/>
<feGaussianBlur stdDeviation="2"/>
<feComposite in2="hardAlpha" operator="out"/>
<feColorMatrix type="matrix" values="0 0 0 0 0 0 0 0 0 0 0 0 0 0 0 0 0 0 0.25 0"/>
<feBlend mode="normal" in2="BackgroundImageFix" result="effect1_dropShadow_129_97"/>
<feBlend mode="normal" in="SourceGraphic" in2="effect1_dropShadow_129_97" result="shape"/>
</filter>
</defs>
</svg>
