<svg width="143" height="115" viewBox="0 0 143 115" fill="none" xmlns="http://www.w3.org/2000/svg">
<path d="M78.4618 109.452L63.2098 95.1469C62.2028 94.2029 60.6208 94.2529 59.6768 95.2599C58.7318 96.2679 58.7828 97.8499 59.7898 98.7939L75.0418 113.099C76.0488 114.043 77.6308 113.993 78.5748 112.986C79.5198 111.979 79.4688 110.396 78.4618 109.452Z" fill="#64FCD9"/>
<path d="M63.7948 113.462L78.1018 98.2098C79.0458 97.2028 78.9958 95.6208 77.9888 94.6768C76.9818 93.7318 75.3998 93.7828 74.4548 94.7898L60.1478 110.042C59.2038 111.049 59.2538 112.631 60.2608 113.575C61.2678 114.52 62.8498 114.469 63.7948 113.462Z" fill="#64FCD9"/>
<path d="M2.5 25.5V28H31.655V54.654H5V25.5H2.5V28V25.5H0V57.154C0 57.813 0.266995 58.457 0.731995 58.922C1.19799 59.388 1.842 59.654 2.5 59.654H34.155C34.813 59.654 35.457 59.388 35.922 58.922C36.388 58.457 36.655 57.813 36.655 57.154V25.5C36.655 24.842 36.388 24.198 35.922 23.732C35.457 23.267 34.813 23 34.155 23H2.5C1.842 23 1.19799 23.267 0.731995 23.732C0.266995 24.198 0 24.842 0 25.5H2.5Z" fill="#64FCD9"/>
<path d="M99.882 33.6672C99.4504 33.9117 99.1474 33.9828 98.8098 34.0021C98.5154 34.0162 98.1767 33.9716 97.7555 33.8441C97.0212 33.6261 96.0698 33.1223 95.0015 32.47C93.3854 31.5048 91.5304 30.2098 89.2064 29.4546C88.0443 29.0817 86.7435 28.8627 85.3613 28.9726C83.9801 29.0783 82.5466 29.5214 81.1651 30.3225C79.97 31.0125 79.56 32.5425 80.25 33.7376C80.9405 34.9336 82.47 35.3427 83.6651 34.6527C84.371 34.2474 84.9611 34.0614 85.5097 33.9837C85.9909 33.9172 86.4522 33.9361 86.9479 34.0286C87.8109 34.1874 88.7822 34.6058 89.8342 35.1959C91.4229 36.0696 93.1091 37.3142 95.1302 38.1969C96.145 38.6306 97.2794 38.9734 98.5423 39.0028C99.8021 39.0388 101.16 38.7122 102.382 37.9973C103.577 37.3073 103.988 35.7782 103.297 34.5822C102.607 33.3862 101.077 32.9772 99.882 33.6672Z" fill="#00160A"/>
<path d="M125.059 19.1312C124.628 19.3757 124.324 19.4468 123.987 19.4661C123.693 19.4802 123.354 19.4356 122.933 19.3081C122.198 19.0901 121.248 18.5858 120.179 17.934C118.563 16.9683 116.709 15.6741 114.384 14.9181C113.223 14.546 111.922 14.3271 110.54 14.4369C109.159 14.5427 107.725 14.9858 106.344 15.7864C105.148 16.4769 104.739 18.0063 105.429 19.2015C106.12 20.3974 107.648 20.807 108.844 20.1165C109.549 19.7118 110.14 19.5258 110.688 19.4481C111.169 19.3821 111.631 19.4005 112.126 19.493C112.988 19.6523 113.961 20.0702 115.013 20.6602C116.601 21.534 118.287 22.7791 120.308 23.6604C121.322 24.0946 122.457 24.4369 123.72 24.4663C124.979 24.5028 126.337 24.1762 127.559 23.4613C128.755 22.7708 129.165 21.2422 128.474 20.0462C127.784 18.8502 126.255 18.4407 125.059 19.1312Z" fill="#00160A"/>
<path d="M102.382 37.9973C103.451 37.3857 104.323 36.5431 104.921 35.5995C105.448 34.7744 105.771 33.8961 105.968 33.0434C106.31 31.5435 106.308 30.1037 106.284 28.7378C106.23 26.6941 106.136 24.7942 106.457 23.3803C106.613 22.6702 106.846 22.0913 107.198 21.5774C107.554 21.065 108.036 20.5867 108.844 20.1166C110.04 19.4266 110.45 17.8975 109.759 16.7015C109.069 15.5064 107.54 15.0964 106.344 15.7864C105.139 16.4802 104.148 17.3407 103.397 18.3092C102.738 19.1552 102.265 20.0733 101.944 20.9909C101.383 22.6025 101.254 24.1917 101.23 25.6568C101.209 27.8516 101.393 29.8459 101.215 31.2266C101.134 31.917 100.981 32.4221 100.787 32.7742C100.585 33.1264 100.37 33.3763 99.882 33.6672C98.686 34.3577 98.2764 35.8863 98.9669 37.0823C99.6574 38.2783 101.186 38.6878 102.382 37.9973Z" fill="#00160A"/>
<path d="M127.559 23.4612C128.628 22.8487 129.5 22.0069 130.098 21.0625C130.625 20.2382 130.949 19.36 131.145 18.5064C131.487 17.0074 131.484 15.5672 131.46 14.2013C131.406 12.1584 131.312 10.2577 131.633 8.84515C131.79 8.13459 132.022 7.55568 132.374 7.04221C132.73 6.52935 133.212 6.05153 134.02 5.58143L132.773 3.42243L133.837 5.67801C133.927 5.63493 133.989 5.59893 134.02 5.58143L132.773 3.42243L133.837 5.67801C135.085 5.08873 135.621 3.59916 135.032 2.35051C134.444 1.10136 132.954 0.565328 131.705 1.1546C131.614 1.19817 131.551 1.2333 131.52 1.2513C130.315 1.94544 129.325 2.80508 128.572 3.77404C127.913 4.61869 127.442 5.53767 127.12 6.45523C126.558 8.06735 126.43 9.65606 126.407 11.1212C126.386 13.3146 126.569 15.3102 126.391 16.6901C126.31 17.3813 126.158 17.8859 125.963 18.2386C125.761 18.5908 125.546 18.8406 125.058 19.1316C123.863 19.8216 123.454 21.351 124.145 22.547C124.835 23.7421 126.363 24.1517 127.559 23.4612Z" fill="#00160A"/>
</svg>
