<svg width="356" height="369" viewBox="0 0 356 369" fill="none" xmlns="http://www.w3.org/2000/svg">
<path fill-rule="evenodd" clip-rule="evenodd" d="M330.352 296.331C396.942 236.917 310.969 203.016 326.814 152.807C342.659 102.598 382.764 27.0901 233.122 40.3932C83.4791 53.6962 -40.7553 204.835 12.593 275.966C65.9412 347.097 263.762 355.745 330.352 296.331Z" fill="#64FCD9"/>
<path fill-rule="evenodd" clip-rule="evenodd" d="M206.816 174.526C211.139 176.625 215.461 178.725 219.784 180.824C226.594 184.13 233.522 187.517 239.012 192.717C244.503 197.917 248.431 205.315 247.608 212.818C246.64 221.638 239.645 228.433 233.077 234.424C224.515 242.234 215.953 250.043 207.39 257.852C203.638 261.275 199.529 266.148 201.55 270.799C206.798 282.879 211.552 296.62 206.78 308.894C205.432 312.36 202.643 315.937 198.917 315.767C196.144 315.64 193.946 313.468 192.162 311.349C185.074 302.926 179.814 292.984 176.847 282.397C173.047 268.84 173.511 252.953 182.758 242.314C189.945 234.046 202.327 228.486 203.092 217.576C189.092 205.73 168.839 201.693 151.343 207.261C133.847 212.829 119.692 227.814 115.175 245.552C112.715 255.213 118.222 265.157 124.995 272.49C131.769 279.823 140.078 285.902 145.29 294.409C155.771 311.516 151.196 333.422 146.291 352.86C144.589 359.606 134.318 360.731 129.205 355.996C124.092 351.261 123.212 343.526 123.754 336.591C124.296 329.657 125.92 322.647 124.558 315.826C121.04 298.22 100.357 290.183 90.2211 275.342C82.5398 264.095 81.4817 249.379 84.3256 236.072C87.1702 222.766 93.53 210.507 99.8227 198.433C88.1129 180.572 83.1973 158.401 86.2645 137.287C87.812 126.633 73.7384 118.436 75.2041 107.771C76.3736 99.259 86.3961 95.4155 94.8676 93.8141C110.992 90.766 127.48 89.6395 143.871 90.4657C147.536 90.6501 149.148 85.3455 147.313 82.1797C145.478 79.0134 141.894 77.3836 138.926 75.2337C132.946 70.9025 129.189 64.0742 127.118 57.0034C124.459 47.9295 124.454 37.6264 129.392 29.5543C130.625 27.5374 132.747 24.5475 135.975 27.4448C136.943 22.3878 147.225 17.5272 153.799 20.2421C157.739 21.8692 161.937 18.5323 164.441 15.092C166.945 11.6517 169.367 7.49746 173.528 6.56397C180.978 4.89239 185.75 14.8265 184.892 22.3878C184.034 29.9492 180.697 37.9371 183.973 44.8107C185.219 47.4239 187.377 49.6869 187.791 52.5505C188.15 55.035 187.507 54.0661 186.107 59.7859C184.709 65.5051 181.339 67.3425 179.95 70.5065C177.812 75.3769 178.133 79.6547 173.665 83.9655C172.913 84.6909 174.444 86.3532 173.903 87.5847C184.907 87.7418 193.267 96.8853 201.784 103.83C212.376 112.466 225.334 118.507 238.969 119.679C252.605 120.851 266.874 116.865 277.055 107.751C281.041 104.183 290.548 108.844 291.242 103.551C291.375 102.179 291.01 101.589 289.707 101.251C289.032 101.077 287.437 101.44 286.942 100.805C285.491 98.9442 293.945 95.7361 293.588 98.2913C293.496 98.9459 293.112 99.4295 293.16 99.8533C293.302 101.086 294.006 101.466 295.093 101.684C297.384 101.826 300.666 100.261 302.036 98.2913C302.954 96.9723 302.597 96.6221 301.876 96.5641C300.699 96.4684 298.555 97.1532 299.433 95.6555C300.514 93.8141 303.299 92.0677 305.948 93.6709C306.52 94.017 306.319 94.689 306.026 95.3488C305.487 96.56 304.639 97.7307 307.68 96.7786C312.381 95.3077 312.65 95.5831 313.864 95.9425C315.079 96.302 316.862 98.4363 318.003 100.43C320.352 104.532 322.761 108.835 322.981 113.553C323.201 118.271 320.469 123.488 315.824 124.431C315.783 125.804 316.457 127.098 317.479 128.007C318.593 128.999 321.456 128.395 320.975 129.281C319.412 132.159 315.606 132.897 312.609 131.89C311.786 131.613 313.685 130.197 313.864 129.215C314.152 127.643 313.825 125.951 312.864 124.667C310.154 125.809 307.443 126.952 304.733 128.096C305.52 129.098 305.161 130.287 305.948 131.289C306.691 132.235 308.597 131.996 308.916 133.339C309.264 134.799 306.449 135.412 304.995 135.548C303.401 135.698 300.922 135.862 300.179 134.799C299.335 133.592 301.979 133.205 302.101 131.941C302.235 130.562 301.729 129.088 300.514 128.421C298.186 127.142 294.846 129.496 295.281 132.109C296.375 138.692 293.638 145.769 288.394 149.918C283.149 154.066 275.61 155.117 269.424 152.563C263.831 150.253 257.636 153.224 251.848 154.995C238.727 159.011 223.755 156.45 212.729 148.304C212.092 157.41 210.342 167.273 204.501 173.987C205.448 174.526 204.961 174.526 206.816 174.526Z" fill="white"/>
<path d="M148.452 75.9438C150.213 75.9438 151.641 74.5207 151.641 72.7653C151.641 71.0099 150.213 69.5869 148.452 69.5869C146.691 69.5869 145.263 71.0099 145.263 72.7653C145.263 74.5207 146.691 75.9438 148.452 75.9438Z" fill="#FFB61D"/>
<path d="M171.332 69.5766C173.093 69.5766 174.521 68.1489 174.521 66.3877C174.521 64.6265 173.093 63.1987 171.332 63.1987C169.571 63.1987 168.143 64.6265 168.143 66.3877C168.143 68.1489 169.571 69.5766 171.332 69.5766Z" fill="#FFB61D"/>
<path fill-rule="evenodd" clip-rule="evenodd" d="M189.956 208.432C188.521 207.789 187.083 207.144 185.636 206.517C175.045 201.923 162.342 198.618 152.35 204.392C150.824 194.678 161.276 187.259 170.893 185.062C173.531 184.459 176.253 184.032 178.975 183.604C186.178 182.473 193.383 181.341 199.037 176.963C207.432 170.461 209.671 158.873 210.409 148.304C221.436 156.45 236.408 159.011 249.529 154.995C250.531 154.689 251.544 154.346 252.565 154.001C257.443 152.354 262.48 150.652 267.105 152.563C273.291 155.117 280.83 154.066 286.074 149.918C291.319 145.769 294.056 138.692 292.961 132.109C292.527 129.496 295.867 127.142 298.195 128.421C299.409 129.088 299.916 130.562 299.782 131.941C299.728 132.507 299.168 132.897 298.641 133.263C297.992 133.716 297.393 134.132 297.86 134.799C298.602 135.862 301.082 135.698 302.676 135.548C304.13 135.412 306.945 134.799 306.597 133.339C306.414 132.569 305.71 132.319 305.002 132.068C304.475 131.881 303.946 131.693 303.629 131.289C303.236 130.788 303.128 130.24 303.021 129.692C302.914 129.144 302.807 128.597 302.413 128.096L310.545 124.667C311.506 125.951 311.833 127.643 311.545 129.215C311.468 129.637 311.073 130.14 310.713 130.597C310.236 131.205 309.821 131.732 310.29 131.89C313.286 132.897 317.093 132.159 318.656 129.281C318.901 128.83 318.28 128.765 317.465 128.679C316.677 128.597 315.707 128.495 315.16 128.007C314.138 127.098 313.464 125.804 313.505 124.431C318.15 123.488 320.881 118.271 320.662 113.553C320.442 108.835 318.033 104.532 315.684 100.43C314.543 98.4363 312.759 96.302 311.545 95.9425C311.47 95.9205 311.398 95.8985 311.328 95.877C310.28 95.5558 309.769 95.3993 305.361 96.7786C302.631 97.6333 303.035 96.7775 303.536 95.7176C303.593 95.5964 303.651 95.4729 303.706 95.3488C304 94.689 304.201 94.017 303.629 93.6709C300.98 92.0677 298.195 93.8141 297.114 95.6555C296.469 96.7554 297.454 96.6783 298.489 96.5977C298.864 96.5682 299.245 96.5386 299.557 96.5641C300.277 96.6221 300.635 96.9723 299.717 98.2913C298.347 100.261 295.065 101.826 292.774 101.684C291.687 101.466 290.983 101.086 290.841 99.8533C290.815 99.6278 290.912 99.3854 291.021 99.11C291.118 98.8671 291.225 98.598 291.268 98.2913C291.626 95.7361 283.171 98.9442 284.623 100.805C284.946 101.219 285.735 101.209 286.433 101.2C286.806 101.195 287.153 101.191 287.388 101.251C288.691 101.589 289.056 102.179 288.922 103.551C288.544 106.441 285.537 106.363 282.236 106.278C279.492 106.207 276.545 106.131 274.736 107.751C264.555 116.865 250.286 120.851 236.65 119.679C223.014 118.507 210.057 112.466 199.465 103.83C198.003 102.638 196.546 101.381 195.079 100.116C188 94.0112 180.7 87.7151 171.584 87.5847C171.852 86.9753 171.612 86.2604 171.393 85.6064C171.169 84.9379 170.966 84.332 171.346 83.9655C173.699 81.695 174.901 77.2728 175.942 73.4426C176.878 70.0003 177.683 67.037 179.077 66.5447C181.867 65.5596 182.685 63.1001 183.629 60.2637C183.682 60.1054 183.735 59.9459 183.788 59.7859C184.111 58.8258 184.398 58.05 184.642 57.3896C185.391 55.369 185.742 54.4227 185.471 52.5505C185.202 50.6836 184.191 49.0717 183.174 47.4517C182.632 46.5867 182.088 45.7199 181.654 44.8107C179.27 39.8099 180.387 34.22 181.503 28.633C181.921 26.5403 182.339 24.4482 182.573 22.3878C183.431 14.8265 178.659 4.89239 171.209 6.56397C167.578 7.37854 165.272 10.6453 163.079 13.7502C162.759 14.2037 162.441 14.6536 162.122 15.092C159.618 18.5323 155.42 21.8692 151.48 20.2421C144.906 17.5272 134.624 22.3878 133.655 27.4448C130.428 24.5475 128.306 27.5374 127.072 29.5543C122.135 37.6264 122.14 47.9295 124.798 57.0034C126.87 64.0742 130.627 70.9025 136.607 75.2337C137.367 75.7845 138.167 76.3011 138.969 76.8177C141.296 78.3194 143.629 79.8246 144.994 82.1797C146.829 85.3455 145.217 90.6501 141.552 90.4657C125.161 89.6395 108.673 90.766 92.5484 93.8141C84.0769 95.4155 74.0544 99.259 72.8849 107.771C72.1538 113.092 75.2905 117.799 78.4255 122.503C81.5739 127.227 84.7205 131.949 83.9453 137.287C80.8781 158.401 85.7937 180.572 97.5034 198.433C91.2108 210.507 84.8509 222.766 82.0064 236.072C79.1625 249.379 80.2206 264.095 87.9019 275.342C91.9049 281.203 97.5533 286.004 103.139 290.751C111.698 298.024 120.11 305.173 122.238 315.826C123.239 320.833 122.629 325.942 122.02 331.049C121.799 332.898 121.579 334.747 121.434 336.591C120.893 343.526 121.773 351.261 126.886 355.996C129.806 358.7 134.406 359.493 138.134 358.42C138.102 358.99 138.069 359.521 138.038 360.02C137.868 362.74 137.757 364.524 138.235 366.638C138.36 367.189 138.563 367.816 139.092 368.017C140.146 368.416 140.85 366.808 140.778 365.715C140.508 361.579 139.991 359.245 139.493 357.927C141.663 356.962 143.364 355.269 143.972 352.86C148.876 333.422 153.452 311.516 142.971 294.409C139.508 288.757 134.678 284.177 129.84 279.589C127.395 277.271 124.949 274.951 122.676 272.49C115.902 265.157 110.395 255.213 112.856 245.552C117.373 227.814 131.528 212.829 149.024 207.261C166.52 201.693 186.772 205.73 200.772 217.576C200.251 225.007 194.341 229.956 188.353 234.969C185.55 237.316 182.731 239.677 180.439 242.314C171.191 252.953 170.728 268.84 174.528 282.397C177.495 292.984 182.755 302.926 189.843 311.349C191.627 313.468 193.825 315.64 196.598 315.767C200.324 315.937 203.113 312.36 204.461 308.894C209.233 296.62 204.479 282.879 199.231 270.799C197.21 266.148 201.319 261.275 205.071 257.852L230.758 234.424C237.326 228.433 244.321 221.638 245.289 212.818C246.112 205.315 242.184 197.917 236.693 192.717C231.202 187.517 224.275 184.13 217.465 180.824L204.497 174.526C208.771 180.001 215.224 183.074 221.576 186.1C222.804 186.685 224.027 187.268 225.231 187.865C232.664 191.559 240.295 196.95 241.997 205.05C244.088 215.001 236.491 224.136 229.447 231.493C220.529 240.808 211.532 250.191 200.937 257.561C197.332 260.068 193.334 262.401 188.94 262.558C184.547 262.715 179.767 259.971 179.077 255.645C178.455 251.739 181.155 248.159 183.694 245.12L202.474 222.642C205.327 219.226 209.087 218.337 213.56 217.279C215.134 216.907 216.795 216.515 218.536 215.983C207.999 216.519 199.027 212.498 189.956 208.432ZM113.954 148.021C114.711 154.825 116.815 161.637 121.081 167.003C125.346 172.369 131.993 176.104 138.856 175.808C141.155 175.708 141.891 172.301 140.526 170.456C139.343 168.855 137.385 168.126 135.488 167.42C135.197 167.312 134.908 167.205 134.624 167.094C132.48 166.265 130.193 164.877 129.806 162.618C135.857 167.309 144.891 167.744 151.369 163.657C153.624 170.104 161.103 173.976 167.871 172.911C174.64 171.846 180.298 166.456 182.543 160.005C182.586 159.882 182.628 159.757 182.67 159.632C183.011 158.628 183.362 157.596 184.137 156.885C184.859 156.223 185.844 155.941 186.79 155.68L205.297 150.581C205.756 150.455 206.278 150.335 206.685 150.582C207.12 150.844 207.24 151.41 207.303 151.912C208.584 162.029 202.884 172.655 193.731 177.215C188.823 179.661 183.215 180.46 177.654 181.253C170.4 182.286 163.227 183.308 157.8 187.96C154.846 190.491 152.797 193.816 150.743 197.149C149.762 198.74 148.781 200.333 147.699 201.842C141.065 211.095 128.881 217.361 118.061 213.746C111.85 211.67 107.023 206.759 103.055 201.566C91.1105 185.933 84.8051 166.112 85.5316 146.477C85.6633 142.914 86.0303 139.307 87.3232 135.983C95.5234 145.478 105.005 153.874 115.432 160.871C115.068 158.987 113.758 157.44 112.453 156.028C108.721 151.987 104.602 148.202 100.488 144.422C90.9192 135.631 81.3756 126.862 76.7801 114.941C75.7695 112.32 75.0227 109.46 75.6448 106.722C77.0566 100.512 84.3807 97.9272 90.6444 96.6661C105.687 93.639 121.04 92.139 136.387 92.1982C137.202 101.67 145.111 110.141 154.57 111.389C164.029 112.636 173.997 106.328 176.653 97.1972C176.732 96.9259 176.806 96.6516 176.88 96.3762C177.21 95.1494 177.543 93.9098 178.332 92.9276C179.298 91.725 181.263 91.1336 182.39 92.1877C190.746 99.9989 199.515 107.508 209.507 113.095C219.5 118.681 230.853 122.284 242.3 121.779C222.747 128.887 202.761 134.812 182.488 139.51C180.938 139.87 179.018 140.105 178.021 138.869C174.49 134.486 168.732 131.985 163.107 132.39C157.481 132.796 152.144 136.096 149.282 140.939C148.246 142.693 145.661 142.472 143.695 141.924C139.604 140.783 135.394 139.029 132.977 135.548C132.569 134.961 132.215 134.329 131.862 133.698C131.172 132.463 130.483 131.232 129.393 130.35C127.852 129.102 125.833 128.798 123.833 128.497C123.277 128.413 122.723 128.33 122.181 128.226C116.007 127.048 110.54 122.674 108.053 116.923C113.872 113.04 121.731 114.882 128.157 117.66C129.168 118.097 130.183 118.556 131.201 119.018C136.648 121.485 142.206 124.002 148.083 123.464C153.079 123.007 157.439 120.416 161.818 117.815C165.69 115.514 169.576 113.205 173.929 112.354C185.096 110.172 196.057 118.458 201.285 128.529C201.325 128.606 201.365 128.684 201.405 128.761C202.261 130.414 203.186 132.203 204.901 132.897C203.151 123.094 195.761 114.496 186.309 111.265C176.858 108.034 165.727 110.301 158.306 116.969C153.701 121.106 146.704 121.398 140.694 119.878C137.309 119.021 134.083 117.68 130.855 116.338C128.352 115.298 125.847 114.256 123.266 113.44C117.356 111.571 110.53 111.018 105.27 114.289C103.691 110.821 101.578 107.595 99.0283 104.76C101.555 119.209 114.782 131.089 129.468 132.1L121.318 135.185C119.414 135.906 117.441 136.672 116.043 138.149C113.65 140.677 113.569 144.567 113.954 148.021ZM109.933 249.09C109.141 253.067 108.707 257.376 110.492 261.019C111.454 262.983 112.991 264.596 114.502 266.182L114.605 266.291C123.693 275.836 132.23 285.901 140.159 296.422C136.638 299.791 132.719 302.747 128.508 305.209C127.336 305.894 126.069 306.561 124.71 306.536C122.683 306.5 121.037 304.974 119.611 303.538C109.655 293.516 99.956 283.239 90.5266 272.723C87.5285 269.379 84.4799 265.877 83.1173 261.604C81.3855 256.173 82.6117 250.296 83.8479 244.731C87.2577 229.387 90.8444 213.623 99.7345 200.641C104.729 209.577 113.979 216.026 124.115 217.641C117.086 226.878 112.197 237.72 109.933 249.09ZM173.27 78.0161C171.783 81.1146 169.274 83.8519 166.021 84.9866C161.684 86.4998 156.913 84.986 152.667 83.2355C150.46 82.3258 148.231 81.317 146.522 79.6547C145.071 78.2446 144.077 76.4414 143.157 74.6423C140.29 69.039 137.922 63.183 136.087 57.1652C134.57 52.1893 133.789 45.8921 137.827 42.5965C142.438 46.1234 148.642 47.0082 154.416 46.3391C159.551 45.7442 164.47 44.0436 169.362 42.3524C169.973 42.1413 170.583 41.9303 171.193 41.7215C171.889 41.4832 172.714 41.2635 173.315 41.6873C173.776 42.0114 173.938 42.6063 174.063 43.1536C175.921 51.2964 176.462 59.7355 175.659 68.0476C175.329 71.4661 174.757 74.9182 173.27 78.0161ZM191.801 310.633C183.533 299.651 177.994 286.644 175.814 273.089C174.877 267.268 174.575 261.169 176.521 255.603C178.38 262.893 187.185 267.548 194.286 264.996C196.14 268.8 197.825 272.686 199.335 276.638C203.302 287.021 206.002 298.838 201.609 309.049C200.552 311.504 198.466 314.118 195.815 313.726C194.095 313.471 192.843 312.017 191.801 310.633ZM136.753 27.0674C138.843 23.3372 143.442 21.442 147.715 21.8006C148.711 21.8843 149.704 22.0104 150.678 22.1341C153.761 22.5259 156.645 22.8923 158.823 21.8006C162.139 20.1385 163.524 17.828 164.935 15.4763C165.876 13.9063 166.828 12.3181 168.374 10.892C169.351 9.9898 170.441 9.12404 171.742 8.83883C174.403 8.25561 176.958 10.2748 178.474 12.531C181.727 17.3733 182.156 23.9639 179.559 29.1844C176.698 34.9338 170.801 38.5314 164.901 41.1046C160.653 42.9571 156.158 44.4594 151.522 44.555C146.886 44.6507 142.062 43.1879 138.866 39.8412C135.669 36.494 134.493 31.1012 136.753 27.0674ZM123.682 329.632C123.483 328.163 123.326 326.522 124.221 325.338C127.886 325.667 131.67 324.343 134.325 321.803C133.517 320.143 131.018 320.255 129.439 321.219C128.833 321.589 128.276 322.043 127.721 322.497C126.831 323.224 125.943 323.948 124.863 324.313C123.819 323.283 124.006 321.466 124.875 320.285C125.743 319.105 127.108 318.408 128.422 317.754L136.696 313.63C135.106 312.062 132.456 312.042 130.428 312.98C128.399 313.918 126.847 315.62 125.353 317.278C123.694 314.393 124.878 310.251 127.813 308.668L138.532 302.888C139.365 302.439 140.248 301.977 141.194 302.005C143.244 302.066 144.48 304.277 145.04 306.241C146.662 311.926 146.168 317.967 145.66 323.854C144.912 332.512 144.153 341.236 141.716 349.58C140.876 352.456 139.551 355.588 136.761 356.703C133.734 357.912 130.174 356.077 128.365 353.374C126.555 350.672 126.073 347.326 125.638 344.106L123.682 329.632ZM266.58 133.339C267.74 133.197 268.746 131.861 268.18 130.842L264.196 123.661C263.67 122.714 263.133 121.728 263.063 120.649C262.994 119.571 263.535 118.371 264.567 118.038C266.044 117.56 267.402 118.983 268.258 120.275C270.06 122.997 271.631 125.87 272.949 128.855C274.513 126.778 272.804 123.91 271.243 121.831C269.682 119.752 268.316 116.564 270.268 114.845C272.197 113.147 275.262 114.887 276.74 116.987C277.515 118.091 278.153 119.314 278.789 120.533C280.02 122.895 281.242 125.24 283.443 126.656C284.393 126.077 283.92 124.627 283.344 123.677L275.96 111.498C275.3 110.409 276.391 108.932 277.655 108.749C278.918 108.565 280.137 109.238 281.193 109.954C286.27 113.399 290.314 118.671 291.268 124.717C292.222 130.763 289.632 137.48 284.307 140.532C282.697 141.455 280.903 142.031 279.08 142.384C267.98 144.534 255.832 137.454 252.273 126.76C251.729 125.123 251.597 122.887 253.143 122.112C254.321 121.521 255.744 122.223 256.726 123.102C258.144 124.371 259.156 125.995 260.17 127.62C261.146 129.184 262.123 130.751 263.463 132.001C264.316 132.798 265.42 133.48 266.58 133.339ZM150.787 145.355C152.151 145.396 153.564 145.44 154.698 146.172C155.948 146.978 156.493 149.02 155.309 149.921C154.861 150.261 154.279 150.36 153.722 150.449C148.549 151.276 142.648 151.919 138.626 148.573C137.722 148.984 137.458 150.223 137.827 151.143C138.196 152.062 139.017 152.717 139.839 153.274C143.488 155.746 147.858 157.151 152.269 157.27C149.38 159.763 145.151 160.612 141.518 159.427C140.092 158.961 138.086 158.43 137.455 159.787C140.253 162.452 144.523 162.657 148.393 162.706C141.48 165.989 132.409 163.852 127.704 157.83C127.369 157.401 126.614 157.62 126.348 158.095C126.081 158.569 126.154 159.152 126.234 159.69C126.641 162.425 127.2 165.433 129.379 167.146C130.533 168.053 131.964 168.448 133.396 168.843C133.967 169 134.539 169.158 135.093 169.349C137.036 170.015 139.045 171.479 139.063 173.527C132.804 174.065 126.676 170.53 122.887 165.537C119.097 160.544 117.356 154.284 116.554 148.076C116.346 146.471 116.2 144.809 116.668 143.259C117.599 140.174 120.659 138.309 123.478 136.731C125.522 135.586 128.343 134.531 129.964 136.219C135.249 141.719 142.731 145.064 150.368 145.341C150.507 145.346 150.647 145.35 150.787 145.355ZM164.213 156.445L244.321 134.349C247.809 133.386 251.938 132.545 254.73 134.841C223.013 144.607 190.89 153.064 158.47 160.181C156.706 160.568 154.19 160.49 153.882 158.716C154.948 158.756 154.943 157.565 154.939 156.307C154.934 155.068 154.93 153.762 155.945 153.498L249.297 129.204C249.862 129.057 250.578 128.959 250.924 129.426C251.487 130.187 250.335 131.036 249.422 131.289L160.388 155.952C161.196 157.059 162.89 156.81 164.213 156.445ZM254.533 150.078C248.754 153.936 241.417 154.949 234.508 154.133C227.599 153.317 221.013 150.812 214.612 148.099L252.939 137.395C254.282 137.019 255.941 136.724 256.889 137.745C264.666 146.117 278.817 147.611 288.183 141.048C287.09 146.259 282.361 150.498 277.046 151.029C274.018 151.332 271.036 150.55 268.07 149.77C267.283 149.564 266.497 149.358 265.712 149.172C261.966 148.286 257.731 147.942 254.533 150.078ZM148.618 85.9606C149.166 85.1796 150.343 84.7494 151.102 85.3286C155.55 88.7251 161.733 89.7282 167.032 87.9122C168.723 87.333 170.648 88.5326 171.346 90.1735C172.044 91.8143 171.762 93.7149 171.148 95.3888C169.281 100.486 164.253 104.278 158.823 104.686C153.393 105.094 147.851 102.096 145.238 97.3358C144.431 95.866 144.161 93.5624 145.718 92.9293C147.27 92.2973 147.715 90.3503 147.883 88.6874L147.888 88.637C147.982 87.7047 148.08 86.7271 148.618 85.9606ZM296.727 126.763C296.101 126.932 295.439 127.098 294.813 126.931C294.187 126.764 293.635 126.136 293.792 125.51C299.394 124.624 304.802 122.538 309.542 119.435C311.389 118.226 313.348 116.12 312.417 114.124C311.799 112.801 310.14 112.292 308.676 112.351C306.557 112.437 304.582 113.385 302.676 114.314L292.397 119.324C291.919 118.76 292.117 117.853 292.623 117.313C293.11 116.793 293.801 116.526 294.468 116.269L294.543 116.24C299.209 114.435 303.557 111.815 307.328 108.535C308.432 107.575 307.858 105.595 306.597 104.85C305.336 104.105 303.752 104.252 302.31 104.52C298.13 105.298 294.107 106.905 290.544 109.22C288.791 110.36 286.301 111.622 284.867 110.102C288.738 106.192 294.045 104.106 299.186 102.125L309.135 98.2913C309.827 98.0252 310.575 97.7544 311.293 97.9376C312.271 98.187 312.843 99.1715 313.286 100.075C315.799 105.203 317.649 110.652 318.776 116.246C318.94 117.057 319.075 117.954 318.656 118.669C318.276 119.317 317.534 119.648 316.838 119.935C310.289 122.634 303.567 124.917 296.727 126.763ZM249.675 127.105C249.303 127.5 248.747 127.654 248.221 127.792L156.86 151.626C158.278 148.213 162.447 147.045 166.07 146.257C191.277 140.775 215.97 133.216 240.637 125.664C242.039 125.235 243.442 124.806 244.845 124.377C246.062 124.005 247.387 123.634 248.58 124.079C249.772 124.523 250.547 126.181 249.675 127.105ZM126.023 36.2047C126.583 34.3795 127.498 31.8567 128.93 30.5881C129.66 29.9416 130.649 29.2517 131.528 29.6772C132.08 29.9445 132.351 30.5626 132.577 31.1314C132.916 31.982 133.4 33.1224 133.883 34.2623C134.367 35.4028 134.85 36.5433 135.189 37.3939C135.664 38.5871 136.124 40.4413 135.253 41.0437C131.528 43.6204 132.375 53.0266 134.043 57.3548C134.442 58.388 134.783 60.506 134.44 62.0495C134.097 63.5935 132.375 64.9821 130.967 64.2522C130.16 63.8335 128.878 61.6152 128.415 60.8116C128.372 60.738 128.337 60.6765 128.309 60.629C121.446 48.9291 125.251 38.3598 125.935 36.4575C125.978 36.3392 126.008 36.2546 126.023 36.2047ZM156.129 162.893C162.23 161.766 168.268 160.302 174.206 158.509C174.298 158.481 174.39 158.454 174.482 158.426C176.331 157.866 178.206 157.298 180.135 157.307C179.893 160.35 178.197 163.167 175.871 165.152C173.545 167.136 170.632 168.345 167.648 169.033C165.386 169.554 163.001 169.788 160.752 169.21C158.504 168.63 156.407 167.133 155.552 164.982C155.246 164.211 155.311 163.043 156.129 162.893ZM163.693 144.745C159.802 145.295 155.689 145.013 152.187 143.238C151.446 142.863 151.829 141.734 152.352 141.091C155.042 137.785 159.115 135.634 163.37 135.272C167.625 134.911 172.005 136.344 175.217 139.148C175.748 139.612 176.287 140.346 175.929 140.952C175.741 141.271 175.363 141.418 175.013 141.543C171.314 142.866 167.584 144.196 163.693 144.745ZM151.705 108.782C148.246 107.702 145.538 104.958 143.56 101.93C142.361 100.095 141.38 98.1342 140.399 96.1727C139.761 94.8977 139.123 93.6233 138.425 92.382C139.707 92.1698 140.955 93.0406 141.665 94.1243C142.173 94.8983 142.481 95.7738 142.788 96.6505C142.912 97.0013 143.035 97.3526 143.171 97.697C145.729 104.168 153.347 108.049 160.208 106.766C167.069 105.484 172.632 99.4625 173.822 92.6093C173.947 91.8891 174.174 90.998 174.893 90.8553C175.67 91.5018 175.705 92.6713 175.568 93.6709C174.572 100.927 167.971 106.387 160.918 108.448C157.925 109.323 154.681 109.712 151.705 108.782ZM288.849 113.127C293.171 109.765 298.267 107.395 303.629 106.253C304.273 106.115 305.239 106.257 305.181 106.91C305.162 107.117 305.028 107.292 304.895 107.452C302.231 110.653 298.332 112.527 294.559 114.304C293.502 114.802 292.387 115.312 291.22 115.24C290.053 115.168 288.847 114.292 288.849 113.127ZM307.556 114.738C308.111 114.561 308.719 114.395 309.265 114.599C309.811 114.804 310.172 115.551 309.788 115.988C306.478 119.752 301.526 121.61 296.695 122.978C295.432 123.335 293.575 123.326 293.359 122.035C297.64 118.839 302.46 116.361 307.556 114.738ZM177.591 59.5853C177.871 57.8627 178.205 55.8044 178.205 54.4732C178.205 52.6445 178.483 50.4076 180.195 49.7565C181.835 49.132 183.688 50.6296 184.004 52.3511C184.32 54.0725 182.369 61.0221 181.4 62.482C180.958 63.1488 180.442 63.8138 179.714 64.149C178.985 64.4847 177.993 64.3757 177.547 63.7112C177.315 63.3651 177.263 62.9331 177.223 62.5185C177.183 62.1034 177.37 60.9496 177.591 59.5853ZM177.631 37.9371C177.716 38.0595 177.753 38.2079 177.787 38.3534C178.498 41.3597 178.774 44.4681 178.603 47.552C177.788 47.9173 177.113 46.8331 176.873 45.975L175.848 42.3042C175.445 40.8594 175.12 39.091 176.197 38.0432C176.588 37.6629 177.319 37.4901 177.631 37.9371ZM134.496 70.648C133.436 69.9186 132.577 69.3272 132.577 67.5228C132.577 65.388 134.893 63.3071 135.397 63.7112C137.232 65.1804 140.529 72.4657 140.694 74.8052C139.314 74.2434 138.296 73.4774 136.438 72.0784C136.034 71.774 135.59 71.44 135.093 71.0707C134.89 70.9199 134.689 70.7819 134.496 70.648ZM146.536 153.88L150.277 153.091C150.744 152.993 151.311 152.925 151.624 153.285C152.225 153.978 151.04 154.852 150.121 154.869C148.864 154.892 147.602 154.545 146.536 153.88ZM260.116 119.624C260.793 119.701 261.365 120.562 260.92 121.075L260.878 121.122C260.294 121.567 259.621 122.037 258.893 121.932C258.165 121.827 257.652 120.765 258.255 120.345C258.813 119.955 259.439 119.548 260.116 119.624ZM265.5 130.771L264.649 130.647L264.566 130.639L262.765 127.877C264.345 127.367 266.105 129.23 265.5 130.771ZM261.542 125.787C260.85 125.82 260.295 124.96 260.611 124.346C260.928 123.732 261.954 123.683 262.329 124.263C262.704 124.844 262.235 125.753 261.542 125.787ZM167.098 35.7182L160.594 38.7871C155.624 41.1313 149.383 40.5242 144.962 37.2657C144.338 37.1219 143.797 37.8647 143.903 38.4943C144.008 39.1234 144.522 39.5994 145.036 39.9798C148.6 42.6115 153.473 42.9414 157.771 41.8502C162.07 40.7596 165.925 38.4114 169.66 36.0267C169.389 35.0822 167.989 35.2979 167.098 35.7182ZM160.983 49.9553C160.449 50.4314 159.523 49.7849 159.532 49.0705C159.541 48.3556 160.122 47.7816 160.722 47.3897C163.236 45.7459 166.841 46.0011 169.097 47.9823C168.599 48.798 167.435 48.609 166.455 48.4496C166.378 48.4368 166.302 48.4246 166.228 48.413C164.367 48.1214 162.387 48.7035 160.983 49.9553ZM148.937 52.6549C149.79 52.4607 150.694 51.8101 150.612 50.9416C150.544 50.2099 149.805 49.724 149.094 49.5269C147.418 49.0624 145.494 49.666 144.388 51.0036C143.281 52.3412 143.055 54.3392 143.833 55.8891C144.208 55.5551 144.513 55.1446 144.817 54.7352C145.267 54.1288 145.714 53.5269 146.379 53.1901C146.882 52.935 147.446 52.8671 148.011 52.7987C148.323 52.761 148.634 52.7239 148.937 52.6549ZM165.922 62.2907C166.954 62.2762 167.651 61.2134 167.91 60.2179C168.443 58.1706 167.9 55.8763 166.505 54.2818C165.874 53.56 164.798 52.9593 163.994 53.4846C163.746 53.6469 163.568 53.8969 163.423 54.156C162.415 55.9708 162.92 58.2402 163.704 60.1622C164.115 61.1717 164.828 62.3063 165.922 62.2907ZM152.873 62.2947L152.566 59.1023C152.449 57.8876 152.188 56.459 151.077 55.9453C149.558 55.2432 147.955 56.9252 147.557 58.5446C147.13 60.284 147.377 62.1788 148.235 63.7524C149.014 65.1793 150.952 66.3748 152.191 65.3184C153.011 64.618 152.976 63.3662 152.873 62.2947ZM150.309 301.582C158.865 301.328 167.422 301.079 175.978 300.832C176.918 300.804 177.927 300.796 178.707 301.32C179.43 301.805 179.826 302.732 179.675 303.588L154.557 304.059C153.623 304.077 152.658 304.088 151.799 303.723C150.941 303.358 150.216 302.508 150.309 301.582ZM159.098 72.6269C158.181 72.3659 158.613 71.0098 159.044 70.1621C160.438 67.4231 159.653 64.0643 158.258 61.3265L158.223 61.2592C157.913 60.6527 157.583 60.0045 157.692 59.3366C157.807 58.6443 158.683 58.068 159.231 58.5098C159.395 58.6425 159.495 58.8368 159.59 59.0258C160.638 61.105 161.665 63.2421 162.006 65.5434C162.348 67.8446 161.908 70.3708 160.324 72.0801C160.003 72.4262 159.552 72.7561 159.098 72.6269ZM160.466 81.3494C164.761 80.6635 168.205 76.4965 168.058 72.1647C168.049 71.9073 168.026 71.6389 167.893 71.418C167.521 70.7976 166.507 70.9425 166.028 71.4858C165.634 71.9323 165.484 72.5248 165.337 73.1093C165.305 73.2351 165.273 73.3603 165.239 73.4838C164.665 75.5688 163.236 77.4062 161.354 78.4817C161.262 78.5339 161.169 78.5855 161.074 78.6371C160.525 78.9398 159.959 79.2511 159.671 79.7956C159.333 80.4328 159.752 81.4631 160.466 81.3494ZM186.69 342.208C186.873 347.352 187.446 363.676 186.776 366.638C186.652 367.189 186.449 367.816 185.92 368.017C184.865 368.416 184.246 366.839 184.234 365.715C184.127 356.608 184.021 345.907 183.915 335.205V335.205C183.809 324.503 183.703 313.802 183.597 304.695C185.345 304.695 185.92 310.84 185.92 314.808C185.92 328.143 186.69 342.208 186.69 342.208ZM126.539 229.102C126.283 228.953 125.985 228.804 125.68 228.651C124.462 228.042 123.123 227.372 123.828 226.428C142.467 227.232 161.15 227.046 179.77 225.87C185.043 225.536 190.991 224.768 194.126 220.529C194.251 220.359 194.373 220.184 194.494 220.009C194.911 219.404 195.329 218.797 195.943 218.405C196.734 217.9 198 217.964 198.395 218.814C197.837 223.357 193.563 227.145 188.969 227.167C186.959 227.177 186.277 229.792 186.023 231.779C185.768 233.765 184.392 236.31 182.506 235.619C182.982 233.99 183.29 232.313 183.424 230.621C183.469 230.054 183.457 229.396 183.017 229.033C182.675 228.752 182.189 228.751 181.746 228.764L132.549 230.162C132.237 230.171 131.893 230.192 131.671 230.41C131.399 230.676 131.424 231.111 131.468 231.488L134.96 261.15C135.037 261.803 135.303 262.636 135.962 262.64L163.851 262.793C165.334 262.801 167.444 263.93 166.538 265.099C166.167 265.578 165.472 265.622 164.865 265.625L136.482 265.739C135.284 265.744 134.945 267.368 134.989 268.561L135.441 280.766C132.031 278.346 131.797 273.486 131.773 269.315C131.704 257.16 130.614 245.01 128.518 233.036C128.256 231.541 127.854 229.865 126.539 229.102Z" fill="#00160A"/>
<path fill-rule="evenodd" clip-rule="evenodd" d="M189.689 286.722C190.857 284.083 193.577 282.198 196.467 282.024C197.218 281.98 198.071 282.09 198.529 282.684C198.988 283.279 198.594 284.407 197.848 284.31C196.057 284.076 194.269 284.987 193.012 286.279C191.756 287.572 190.936 289.214 190.136 290.828C188.986 289.89 189.089 288.077 189.689 286.722Z" fill="#00160A"/>
<path fill-rule="evenodd" clip-rule="evenodd" d="M317.306 34.1934C318.775 34.332 320.135 33.4837 321.353 32.6535C324.737 30.3441 328.382 27.1963 328.16 23.1139C328.089 21.8174 327.62 20.5976 327.151 19.3763C326.951 18.8537 326.75 18.3308 326.58 17.8016C325.693 15.0376 325.66 12.1233 325.627 9.20146C325.6 6.80495 325.573 4.40334 325.074 2.07549C324.896 1.24068 324.538 0.292353 323.716 0.0549231C323.252 -0.0788378 322.759 0.0570689 322.296 0.192511L307.512 4.51774C304.729 5.33196 304.133 8.93451 304.053 11.8251L303.836 19.6901C302.957 19.7999 302.123 19.4565 301.289 19.1131C300.97 18.982 300.652 18.851 300.331 18.7451C297.172 17.7027 293.352 19.4554 292.091 22.5257C290.831 25.596 292.321 29.5167 295.307 30.9819C298.292 32.447 302.318 31.2341 303.989 28.3658C305.125 26.4181 305.192 24.0532 305.229 21.8007L305.299 17.5713C305.325 15.9906 307.104 15.1141 308.607 14.6116C313.238 13.0638 317.911 11.6432 322.62 10.3519C323.085 10.2243 323.664 10.1286 323.982 10.4905C324.154 10.6862 324.191 10.9617 324.221 11.2199L324.865 16.7572C324.961 17.5785 324.868 18.6828 324.058 18.8569C320.143 19.6977 316.663 22.363 314.84 25.9175C314.063 27.4317 313.572 29.1706 313.917 30.8369C314.261 32.5027 315.608 34.034 317.306 34.1934ZM323.286 2.51834C323.452 2.68555 323.499 2.93191 323.539 3.16297L323.988 5.76229C324.106 6.44889 324.219 7.1864 323.919 7.81659C323.448 8.81212 322.194 9.11165 321.106 9.32554C318.593 9.81965 316.113 10.4753 313.686 11.2872C311.657 11.9657 309.667 12.7525 307.679 13.539C307.51 13.6054 307.342 13.6719 307.174 13.7383C306.702 13.9247 306.052 14.0591 305.781 13.6323C305.714 13.5254 305.685 13.3991 305.662 13.2749C305.187 10.7544 306.355 8.00503 308.505 6.58173C309.689 5.79783 311.088 5.41325 312.461 5.04061L322.111 2.42093C322.51 2.31268 322.996 2.2256 323.286 2.51834ZM303.817 23.2462C303.776 25.6825 303.187 28.4678 301.02 29.6472C299.3 30.5824 297.055 30.133 295.496 28.9578C293.663 27.5782 292.657 24.8306 293.996 22.9818C294.554 22.2118 295.426 21.7127 296.327 21.3861C298.399 20.636 300.767 20.7114 302.785 21.5918C303.107 21.7323 303.436 21.9059 303.622 22.2002C303.815 22.5054 303.822 22.8866 303.817 23.2462ZM45.5153 28.6899C45.7657 29.4587 46.8563 29.4292 47.646 29.2442L54.8269 27.5651C54.6269 25.7008 54.2634 23.8539 53.7427 22.0522C53.589 21.5212 53.4041 20.9658 52.986 20.6024C52.3396 20.0396 51.3713 20.1174 50.5196 20.2279L39.4905 21.6585C38.7327 21.7567 37.7221 22.2474 38.0109 22.9519C40.5353 29.1248 42.5269 35.5148 43.9562 42.0272C44.2293 43.2726 44.1835 45.0218 42.9334 45.2955C39.3131 46.0864 36.2152 48.9181 35.1124 52.4433C34.7732 53.5282 34.619 54.733 35.0579 55.7813C35.2956 56.3495 35.6951 56.8383 36.1421 57.2627C38.2897 59.3013 41.7141 59.8677 44.4073 58.631C47.1004 57.3937 48.892 54.4309 48.7309 51.4803C48.67 50.3659 48.3586 49.2817 48.0496 48.209L40.9992 23.7542L50.334 23.0243C51.2721 23.0767 51.6681 24.4042 51.1724 25.1991C50.6773 25.9941 49.6933 26.3248 48.7726 26.5093C48.6398 26.5359 48.5059 26.561 48.372 26.5862C47.5741 26.736 46.7624 26.8883 46.1154 27.3637C45.6967 27.6715 45.3547 28.1965 45.5153 28.6899Z" fill="#FFB61D"/>
<path fill-rule="evenodd" clip-rule="evenodd" d="M188.151 278.813C187.871 279.175 187.239 279.072 186.968 278.701C186.699 278.33 186.723 277.817 186.87 277.384C187.133 276.607 187.729 275.989 188.354 275.455C189.924 274.113 191.793 273.122 193.786 272.572C194.572 272.356 195.489 272.23 196.139 272.72C196.79 273.21 196.685 274.517 195.873 274.59C192.864 274.858 189.994 276.427 188.151 278.813Z" fill="#00160A"/>
</svg>
