<svg width="327" height="393" viewBox="0 0 327 393" fill="none" xmlns="http://www.w3.org/2000/svg">
<path fill-rule="evenodd" clip-rule="evenodd" d="M92.5568 383.723C130.634 370.672 167.852 344.29 233.291 354.881C298.729 365.474 343.927 279.12 319.737 236.757C308.993 223.076 301.365 205.043 319.737 176.2C336.91 121.801 303.875 87.6463 273.415 71.5631C242.956 55.4799 168.762 22.0655 106.597 45.486C44.4317 68.9057 19.219 105.694 15.0949 131.229C10.9715 156.763 27.4476 159.26 30.3954 199.648C33.3432 240.036 -7.25293 306.612 9.25461 343.242C25.7621 379.872 54.4797 396.773 92.5568 383.723Z" fill="#64FCD9"/>
<path fill-rule="evenodd" clip-rule="evenodd" d="M264.216 347.888C262.862 345.877 260.625 344.684 258.567 343.402C253.293 340.117 248.74 335.814 244.247 331.522C234.885 322.581 225.608 313.55 216.415 304.434C214.101 302.139 211.778 299.822 209.914 297.148C205.641 291.025 200.196 285.724 193.96 281.617C193.071 281.032 192.112 280.453 191.048 280.409C189.783 280.357 188.625 281.067 187.573 281.773C179.398 287.256 172.108 294.057 166.07 301.831C165.324 302.792 164.559 303.9 164.698 305.107C164.801 306 165.383 306.755 165.946 307.454C173.029 316.253 180.656 324.614 188.769 332.473C190.971 334.606 193.215 336.709 195.167 339.073C197.864 342.339 199.96 346.051 202.382 349.526C213.565 365.57 231.435 376.022 250.175 381.612C252.489 382.301 254.904 382.931 257.291 382.576C262.609 381.784 266.235 375.338 264.15 370.382C262.658 366.834 263.774 362.798 264.725 359.068C265.677 355.339 266.364 351.082 264.216 347.888Z" fill="white"/>
<path fill-rule="evenodd" clip-rule="evenodd" d="M267.749 252.534C269.69 248.231 274.26 245.251 278.98 245.21C281.282 245.19 283.536 245.807 285.756 246.418C295.516 249.108 305.276 251.797 315.036 254.486C317.576 255.186 320.166 255.908 322.353 257.376C324.541 258.845 326.296 261.216 326.33 263.85C326.353 265.578 325.65 267.228 324.866 268.768C323.795 270.868 322.486 272.942 320.523 274.246C316.553 276.884 311.276 275.657 306.696 274.338C296.044 271.27 285.378 268.198 275.025 264.237C271.668 262.953 267.928 261.113 267.07 257.623C266.654 255.93 267.031 254.123 267.749 252.534Z" fill="white"/>
<path fill-rule="evenodd" clip-rule="evenodd" d="M134.704 339.298C139.066 336.973 145.202 339.132 147.146 343.677C148.419 346.653 147.996 350.048 147.55 353.255C146.362 361.79 145.174 370.326 143.986 378.862C143.742 380.613 143.496 382.373 142.973 384.062C141.971 387.297 139.852 390.275 136.841 391.824C133.83 393.374 129.907 393.281 127.248 391.185C125.257 389.614 124.15 387.129 123.755 384.623C123.36 382.118 123.603 379.56 123.88 377.038C124.784 368.787 126.031 360.575 127.616 352.428C128.599 347.372 130.159 341.722 134.704 339.298Z" fill="white"/>
<path fill-rule="evenodd" clip-rule="evenodd" d="M30.3363 169.415C29.8497 168.774 30.6815 167.967 31.3963 167.596C39.5903 163.352 47.8768 159.285 56.2475 155.402C58.4346 154.386 60.6638 153.372 63.0478 153.008C65.4317 152.642 68.0312 153.003 69.9166 154.506C72.1515 156.288 72.9939 159.319 73.1328 162.174C73.2479 164.532 72.8977 167.077 71.3166 168.831C70.5905 169.637 69.6544 170.219 68.7278 170.783C60.1835 175.987 51.3269 180.677 42.2213 184.821C39.4665 186.075 36.2892 187.288 33.5098 186.09C32.4669 185.64 31.5823 184.88 30.8405 184.02C27.4023 180.033 27.1811 173.629 30.3363 169.415Z" fill="white"/>
<path fill-rule="evenodd" clip-rule="evenodd" d="M112.097 87.0636C111.586 91.1304 113.464 95.4104 116.803 97.7874C118.379 98.9095 118.96 101.053 118.71 102.972C118.46 104.891 117.519 106.642 116.558 108.322C115.838 109.582 115.064 110.867 113.882 111.71C112.702 112.553 111.001 112.841 109.811 112.012C105.243 108.829 99.054 110.073 93.6588 111.444C91.8696 111.898 90.1301 110.671 88.6911 109.515C86.8648 108.049 85.0385 106.583 83.2116 105.117C82.5559 104.59 81.8814 104.041 81.4966 103.294C81.0201 102.366 81.0553 101.265 81.1735 100.228C81.7644 95.0407 84.1075 90.2251 86.6592 85.6704C89.2952 80.9642 92.983 75.9035 98.3619 75.5043C99.7651 75.3999 101.317 75.713 102.206 76.8037C103.783 78.74 106.219 79.7113 108.322 81.0579C110.426 82.4045 112.409 84.5854 112.097 87.0636Z" fill="white"/>
<path fill-rule="evenodd" clip-rule="evenodd" d="M80.4027 98.4091C78.8178 99.8123 76.5213 100.184 74.4298 99.86C72.3382 99.5357 70.3981 98.5952 68.5159 97.627C58.6207 92.5367 49.295 86.3418 40.7678 79.1939C40.1133 78.6457 39.4514 78.0774 39.0169 77.3425C38.5058 76.4793 38.3493 75.4558 38.2506 74.4575C37.1982 63.8073 42.0446 52.761 50.5945 46.3234C54.0804 43.6987 59.0614 41.8548 62.6718 44.306C70.9117 49.9011 78.9838 55.7434 86.8742 61.8213C90.3231 64.4787 93.8128 67.2649 96.0634 70.9917C96.8367 72.2729 97.3943 74.0721 96.3463 75.1402C95.0444 71.1036 75.0993 98.763 80.4027 98.4091Z" fill="white"/>
<path fill-rule="evenodd" clip-rule="evenodd" d="M21.3615 360.743C17.0117 362.317 11.1463 360.509 9.96751 356.036C7.99727 348.558 18.8581 344.735 22.9155 338.151C27.7318 330.337 21.9587 320.467 16.2862 313.251C12.2615 316.616 6.39857 320.074 2.25314 316.859C-2.76676 312.966 1.45725 304.827 6.57648 301.065C15.7582 294.319 27.4998 291.15 38.829 292.362C41.7133 270.88 52.7483 250.594 69.2156 236.501C85.6829 222.408 107.43 214.638 129.099 215.107C126.677 173.092 151.036 130.72 188.564 111.671C192.637 109.604 196.999 107.759 201.567 107.786C206.135 107.813 210.959 110.139 212.692 114.365C214.426 118.592 211.738 124.393 207.186 124.779C205.065 124.958 186.67 131.507 188.564 131.094C212.692 125.817 270.447 167.907 301.541 167.907C304.333 167.907 311.579 157.613 313.543 156.237C315.346 154.973 320.311 154.258 322.482 154.631C328.14 155.603 327.743 163.958 325.309 169.158C310.793 200.171 278.273 219.687 244.843 227.099C211.413 234.512 176.665 231.582 142.551 228.615C140.191 253.012 136.858 279.544 119.402 296.752C102.807 313.112 76.5572 316.709 54.0911 310.519C54.0911 307.147 54.0911 307.147 54.2829 297.915C50.3858 317.08 42.5513 335.435 31.4082 351.508C28.7728 355.309 25.7106 359.169 21.3615 360.743Z" fill="white"/>
<path d="M256.88 63.5345C255.5 65.3313 254.12 67.128 252.741 68.9247C251.996 69.8941 250.538 70.9132 249.745 69.9822C248.357 68.352 245.791 68.8116 243.694 68.3778C242.336 68.0968 241.108 67.3971 239.905 66.7068C222.516 56.7317 205.127 46.7567 187.738 36.7816C186.364 35.9939 184.876 35.0672 184.421 33.5496C188.391 26.6016 195.092 17.0297 195.475 17.2611C199.646 20.2664 203.892 23.1673 208.208 25.9598C221.901 34.8196 236.272 42.5748 250.253 50.9719C251.613 51.7892 253.104 52.8032 253.358 54.3698C253.553 55.5762 252.668 58.5637 253.504 57.9853C253.953 57.6741 254.562 57.9539 255.031 58.2343C256.451 59.083 258.08 60.3749 257.736 61.9924C257.613 62.5727 257.241 63.0643 256.88 63.5345Z" fill="white"/>
<path fill-rule="evenodd" clip-rule="evenodd" d="M184.648 132.811C185.635 132.649 186.526 131.989 186.969 131.094C194.305 131.818 201.577 133.189 208.673 135.185C224.734 139.702 239.722 147.358 254.303 155.466C269.237 163.772 286.015 168.737 303.063 169.898C303.193 170.83 302.406 171.691 301.511 171.981C300.617 172.27 299.646 172.13 298.716 171.986C284.582 169.811 270.008 167.477 257.878 159.903C245.499 152.174 232.352 145.679 218.692 140.545C215.168 139.221 211.609 137.986 207.994 136.936C200.39 134.728 192.548 133.342 184.648 132.811Z" fill="#00160A"/>
<path fill-rule="evenodd" clip-rule="evenodd" d="M267.749 252.534C269.69 248.231 274.26 245.251 278.98 245.21C281.282 245.19 283.536 245.807 285.756 246.418C295.516 249.108 305.276 251.797 315.036 254.486C317.576 255.186 320.166 255.908 322.353 257.376C324.541 258.845 326.296 261.216 326.33 263.85C326.353 265.578 325.65 267.228 324.866 268.768C323.795 270.868 322.486 272.942 320.523 274.246C316.553 276.884 311.276 275.657 306.696 274.338C296.044 271.27 285.378 268.198 275.025 264.237C271.668 262.953 267.928 261.113 267.07 257.623C266.654 255.93 267.031 254.123 267.749 252.534ZM292.772 264.442C292.482 266.44 292.895 269.094 294.874 269.491C299.685 270.458 304.45 271.652 309.148 273.069C312.146 273.973 315.427 274.96 318.318 273.755C320.488 272.851 321.998 270.869 323.281 268.9C324.743 266.656 326.069 263.759 324.767 261.419C323.897 259.855 322.111 259.079 320.44 258.438C314.028 255.981 307.452 253.951 300.771 252.367C298.783 251.895 297.017 253.709 295.966 255.462C294.323 258.206 293.23 261.277 292.772 264.442Z" fill="#00160A"/>
<path fill-rule="evenodd" clip-rule="evenodd" d="M88.5565 65.4342C88.0624 65.1444 87.528 64.8722 86.9553 64.8678C86.3373 64.8628 85.7646 65.1683 85.2303 65.4776C74.9522 71.4217 67.5301 82.0782 65.5178 93.779C69.6852 97.0788 75.0993 98.763 80.4027 98.4091C78.8178 99.8123 76.5213 100.184 74.4298 99.86C72.3382 99.5357 70.3981 98.5952 68.5159 97.627C58.6207 92.5367 49.295 86.3418 40.7678 79.1939C40.1133 78.6457 39.4514 78.0774 39.0169 77.3425C38.5058 76.4793 38.3493 75.4558 38.2506 74.4575C37.1982 63.8073 42.0446 52.761 50.5945 46.3234C54.0804 43.6987 59.0614 41.8548 62.6718 44.306C70.9117 49.9011 78.9838 55.7434 86.8742 61.8213C90.3231 64.4787 93.8128 67.2649 96.0634 70.9917C96.8367 72.2729 97.3943 74.0721 96.3463 75.1402C95.0444 71.1036 92.216 67.5793 88.5565 65.4342ZM44.8309 54.3917C43.6584 55.942 42.4985 57.5281 41.7454 59.3205C40.8853 61.3661 40.5905 63.5979 40.3038 65.7989C39.7858 69.7677 39.3904 74.2186 41.8585 77.3701C42.7418 78.498 43.9231 79.3485 45.0867 80.1834C50.2883 83.9145 55.4899 87.6451 60.6909 91.3762C61.3126 91.8219 61.9683 92.2821 62.7265 92.3833C63.4853 92.4845 64.3686 92.0922 64.5465 91.3485C67.2541 80.0143 74.7711 69.9129 84.8493 64.0638C85.4937 63.6897 84.9511 62.7115 84.3828 62.2299C79.312 57.9349 73.9249 54.0126 68.2801 50.5047C67.9652 50.3091 67.6326 50.1092 67.2623 50.086C66.7852 50.0558 66.3457 50.3236 65.944 50.5832C60.9807 53.797 56.2122 57.4477 52.5477 62.0885C48.8832 66.7287 46.3761 72.4602 46.4082 78.3735C46.1423 78.8494 45.4822 78.205 45.3941 77.6662C44.6781 73.2857 46.5314 68.8856 48.8663 65.1105C52.9224 58.5497 58.5785 52.9866 65.2053 49.0399C63.2275 45.3213 57.9845 44.4223 54.088 46.0229C50.1921 47.6229 47.3719 51.0321 44.8309 54.3917Z" fill="#00160A"/>
<path fill-rule="evenodd" clip-rule="evenodd" d="M147.146 343.677C148.419 346.653 147.996 350.048 147.55 353.255L143.986 378.862C143.742 380.613 143.496 382.373 142.973 384.062C141.971 387.297 139.852 390.275 136.841 391.824C133.83 393.374 129.907 393.281 127.248 391.185C125.257 389.614 124.15 387.129 123.755 384.623C123.36 382.118 123.603 379.56 123.88 377.038C124.784 368.787 126.031 360.575 127.616 352.428L127.717 351.912C128.708 346.992 130.313 341.64 134.704 339.298C139.066 336.973 145.202 339.132 147.146 343.677ZM128.301 366.017L128.302 366.006C128.003 366.16 127.695 366.327 127.379 366.507C127.021 368.768 126.703 371.035 126.443 373.31C126.089 376.407 125.843 379.517 125.755 382.633L125.745 383.052C125.73 384.105 125.793 385.182 126.302 386.092C127.075 387.473 128.683 388.143 130.216 388.534C132.663 389.159 135.424 389.276 137.55 387.915C140.118 386.27 141.034 383.004 141.613 380.01C142.147 377.249 142.567 374.465 142.87 371.669L142.907 371.294C142.989 370.418 143.003 369.515 142.613 368.736C142.255 368.019 141.597 367.501 140.922 367.069C140.706 366.93 140.486 366.799 140.262 366.674C138.532 366.06 138.532 365.115 135.041 365.037C132.752 364.985 130.414 365.115 128.301 366.017Z" fill="#00160A"/>
<path fill-rule="evenodd" clip-rule="evenodd" d="M30.3363 169.415C29.8497 168.774 30.6815 167.967 31.3963 167.596C39.5903 163.352 47.8768 159.285 56.2475 155.402C58.4346 154.386 60.6638 153.372 63.0478 153.008C65.4317 152.642 68.0312 153.003 69.9166 154.506C72.1515 156.288 72.9939 159.319 73.1328 162.174C73.2479 164.532 72.8977 167.077 71.3166 168.831C70.5905 169.637 69.6544 170.219 68.7278 170.783C60.1835 175.987 51.3269 180.677 42.2213 184.821C39.4665 186.075 36.2892 187.288 33.5098 186.09C32.4669 185.64 31.5823 184.88 30.8405 184.02C27.4023 180.033 27.1811 173.629 30.3363 169.415ZM70.6584 158.105C70.0442 156.414 68.4411 155.202 66.6978 154.757C64.9545 154.313 63.0949 154.557 61.3862 155.119C60.1018 155.541 58.8822 156.136 57.6676 156.73C55.5654 157.757 53.4631 158.784 51.3615 159.812C50.7183 160.126 50.0482 160.463 49.6358 161.048C49.3434 161.462 49.2077 161.964 49.0781 162.454C48.5746 164.353 48.0673 166.327 48.4143 168.26C48.9266 171.12 51.1741 173.303 53.3034 175.279C53.707 175.653 54.1383 176.043 54.6764 176.161C55.3906 176.319 56.1079 175.963 56.7535 175.619C59.7586 174.018 62.763 172.416 65.768 170.815C68.084 169.581 70.5792 168.15 71.5128 165.698C72.4394 163.263 71.548 160.554 70.6584 158.105Z" fill="#00160A"/>
<path fill-rule="evenodd" clip-rule="evenodd" d="M171.311 5.01022C171.621 4.54828 172.26 4.4045 172.805 4.52106C173.349 4.63767 173.821 4.96263 174.278 5.28049C177.498 7.52206 180.719 9.7637 183.94 12.0053C184.479 12.3803 185.063 12.8237 185.171 13.4712C184.936 13.9973 184.143 13.7481 183.666 13.4237C179.548 10.6192 175.429 7.8147 171.311 5.01022Z" fill="#00160A"/>
<path fill-rule="evenodd" clip-rule="evenodd" d="M211.352 39.3754C210.86 39.3087 210.988 38.5581 211.252 38.1369C212.237 36.5621 213.224 34.9879 214.209 33.4131C214.555 33.4772 214.509 33.9883 214.367 34.3096C213.569 36.1101 212.555 37.815 211.352 39.3754Z" fill="#00160A"/>
<path fill-rule="evenodd" clip-rule="evenodd" d="M165.473 300.575C171.436 293.677 178.133 287.415 185.415 281.928C187.098 280.66 188.935 279.386 191.037 279.241C194.376 279.011 197.154 281.622 199.467 284.041C205.55 290.407 211.634 296.772 217.718 303.138C224.894 310.646 232.073 318.157 239.606 325.305C247.677 332.961 256.181 340.221 265.556 346.207C268.428 348.041 268.649 352.205 267.72 355.483C266.791 358.762 265.035 361.895 265.065 365.302C265.077 366.744 265.414 368.161 265.636 369.586C266.277 373.723 265.859 378.21 263.474 381.65C261.087 385.09 256.407 387.109 252.517 385.562C237.391 379.546 221.853 373.27 210.124 361.983C207.21 359.179 204.574 356.102 201.943 353.031C189.581 338.6 177.221 324.17 164.859 309.738C164.049 308.794 163.212 307.795 162.95 306.578C162.475 304.374 163.998 302.281 165.473 300.575ZM264.215 347.888C262.862 345.876 260.625 344.684 258.567 343.402C253.293 340.116 248.741 335.814 244.247 331.522C234.886 322.58 225.608 313.55 216.416 304.434C214.101 302.138 211.779 299.821 209.914 297.148C205.642 291.024 200.196 285.723 193.961 281.617C193.071 281.032 192.112 280.453 191.048 280.409C189.783 280.356 188.625 281.067 187.573 281.772C179.398 287.256 172.108 294.056 166.07 301.831C165.324 302.792 164.559 303.899 164.698 305.107C164.801 306 165.383 306.754 165.947 307.454C173.029 316.253 180.656 324.613 188.769 332.472C190.971 334.605 193.215 336.708 195.167 339.073C197.864 342.339 199.96 346.051 202.382 349.526C213.565 365.57 231.435 376.022 250.176 381.611C252.489 382.301 254.904 382.93 257.291 382.575C262.609 381.784 266.235 375.337 264.15 370.382C262.658 366.834 263.774 362.797 264.725 359.068C265.677 355.339 266.364 351.082 264.215 347.888Z" fill="#00160A"/>
<path fill-rule="evenodd" clip-rule="evenodd" d="M203.537 27.7853C202.844 29.0735 202.152 30.3616 201.459 31.6491C201.188 29.7876 202.423 28.077 203.589 26.6016C203.919 26.8769 203.74 27.4069 203.537 27.7853Z" fill="#00160A"/>
<path fill-rule="evenodd" clip-rule="evenodd" d="M207.343 32.0936C207.488 33.4421 206.902 34.8466 205.843 35.6927C205.722 34.3461 206.301 32.9555 207.343 32.0936Z" fill="#00160A"/>
<path fill-rule="evenodd" clip-rule="evenodd" d="M225.21 40.2543C224.987 41.6587 224.277 42.9821 223.23 43.9439C222.797 44.3412 222.302 44.682 221.743 44.8655C221.527 44.587 221.767 44.1935 221.999 43.9282C223.069 42.7036 224.14 41.4789 225.21 40.2543Z" fill="#00160A"/>
<path fill-rule="evenodd" clip-rule="evenodd" d="M217.284 40.7201C217.466 40.1097 217.787 39.5413 218.215 39.0698C218.645 39.0057 218.599 39.7199 218.358 40.0814C217.97 40.6623 217.581 41.2431 217.193 41.8247C216.778 41.6172 216.781 40.9068 217.197 40.7025L217.284 40.7201Z" fill="#00160A"/>
<path fill-rule="evenodd" clip-rule="evenodd" d="M236.686 47.8788C236.401 48.5879 235.756 49.1412 235.013 49.3159C235.583 48.4037 236.153 47.4915 236.723 46.5793C236.986 46.9622 236.97 47.5148 236.686 47.8819L236.686 47.8788Z" fill="#00160A"/>
<path fill-rule="evenodd" clip-rule="evenodd" d="M244.919 53.8059C245.015 53.4532 245.422 53.2193 245.775 53.3124C245.53 54.0152 245.181 54.6816 244.742 55.2826C244.315 54.9073 244.395 54.1133 244.888 53.831L244.919 53.8059Z" fill="#00160A"/>
<path fill-rule="evenodd" clip-rule="evenodd" d="M112.097 87.0636C111.586 91.1304 113.464 95.4104 116.803 97.7874C118.379 98.9095 118.96 101.053 118.71 102.972C118.46 104.891 117.519 106.642 116.558 108.322C115.838 109.582 115.064 110.867 113.882 111.71C112.702 112.553 111.001 112.841 109.811 112.012C105.243 108.829 99.054 110.073 93.6588 111.444C91.8696 111.898 90.1301 110.671 88.6911 109.515C86.8648 108.049 85.0385 106.583 83.2116 105.117C82.5559 104.59 81.8814 104.041 81.4966 103.294C81.0201 102.366 81.0553 101.265 81.1735 100.228C81.7644 95.0407 84.1075 90.2251 86.6592 85.6704C89.2952 80.9642 92.983 75.9035 98.3619 75.5043C99.7651 75.3999 101.317 75.713 102.206 76.8037C103.783 78.74 106.219 79.7113 108.322 81.0579C110.426 82.4045 112.409 84.5854 112.097 87.0636ZM90.1446 86.6876C89.7121 86.4582 89.2122 86.2224 88.7521 86.3903C88.4516 86.5003 88.2366 86.7618 88.0417 87.0152C85.6678 90.0944 83.9151 93.6495 82.9174 97.4064C82.6062 98.5776 82.3736 99.8494 82.8162 100.977C83.1664 101.869 83.8925 102.55 84.5966 103.2C86.1846 104.664 87.7732 106.129 89.3613 107.595C90.4551 108.603 91.8087 109.688 93.2602 109.362C98.5291 108.177 104.291 107.044 109.129 109.443C111.131 110.436 113.662 109.385 115.062 107.643C116.461 105.9 116.999 103.64 117.498 101.462C113.582 98.4852 110.61 94.2851 109.104 89.6021C108.894 88.9483 107.901 89.3569 107.429 89.8561C104.798 92.6398 102.166 95.4236 99.5343 98.2073C97.7891 100.053 95.9088 102.34 96.4312 104.826C96.574 105.505 95.4185 105.797 94.9752 105.263C94.5314 104.729 94.6571 103.936 94.8589 103.272C96.7361 97.0839 102.623 93.1704 106.892 88.314C107.725 87.3659 108.548 86.2343 108.441 84.977C108.329 83.6556 107.236 82.6604 106.219 81.8098C104.256 80.169 102.193 78.4917 99.711 77.8693C97.229 77.2469 94.2045 78.0064 93.0075 80.2683C96.8078 82.0216 100.487 84.0403 104.007 86.3035C104.506 86.6248 105.024 87.3691 104.529 87.6966C101.533 86.025 98.5366 84.3534 95.5404 82.6818C94.6081 82.1618 93.6418 81.6306 92.58 81.5206C91.5176 81.4112 90.3237 81.8337 89.8535 82.7924C89.2487 84.0265 90.0987 85.5428 91.2535 86.2872C92.409 87.0315 93.8091 87.2698 95.0815 87.789C96.9442 88.5491 98.5423 89.941 99.5507 91.6818C96.4149 90.017 93.2797 88.3523 90.1446 86.6876Z" fill="#00160A"/>
<path fill-rule="evenodd" clip-rule="evenodd" d="M239.277 53.6751C239.157 54.0975 238.804 54.4452 238.379 54.559C238.528 53.3482 239.24 52.2191 240.268 51.5627C240.291 52.3505 239.877 53.1376 239.213 53.5638L239.277 53.6751Z" fill="#00160A"/>
<path fill-rule="evenodd" clip-rule="evenodd" d="M229.333 47.3921C229.145 47.8133 228.718 48.1176 228.258 48.1572C228.361 47.3739 228.68 46.6201 229.17 46.0009C229.363 45.7582 229.607 45.5225 229.914 45.4885C230.222 45.4546 230.566 45.7325 230.485 46.0311C230.085 46.4642 229.686 46.8974 229.287 47.3299L229.333 47.3921Z" fill="#00160A"/>
<path fill-rule="evenodd" clip-rule="evenodd" d="M165.367 148.316C165.448 148.538 165.062 148.731 164.933 148.531C164.858 148.323 164.913 148.073 165.07 147.916C165.185 148.031 165.301 148.147 165.417 148.262L165.367 148.316Z" fill="#00160A"/>
<path fill-rule="evenodd" clip-rule="evenodd" d="M257.425 69.1861C258.016 68.8083 258.622 68.4154 259.023 67.8395C259.424 67.2637 259.572 66.4527 259.191 65.863C258.467 65.7687 257.795 65.3324 257.415 64.7087C257.398 64.3347 257.779 63.9971 258.148 64.0574C258.861 64.3693 259.603 64.7031 260.086 65.3129C260.57 65.9227 260.689 66.8971 260.134 67.4422C265.538 71.1576 270.941 74.873 276.344 78.5878C276.019 78.8267 275.564 78.6752 275.197 78.5086C270.371 76.3165 266.308 72.7789 261.896 69.8418C260.872 69.1603 259.341 68.5713 258.564 69.5243C257.523 70.8005 255.1 70.3642 254.57 68.8058C254.471 68.2236 255.452 68.1903 255.903 68.5713C256.355 68.9523 256.927 69.5042 257.425 69.1861Z" fill="#00160A"/>
<path fill-rule="evenodd" clip-rule="evenodd" d="M248.053 347.794C249.02 346.535 250.013 345.297 251.033 344.081C251.334 343.722 251.642 343.361 252.033 343.104C253.524 342.129 255.502 343.012 256.992 343.99C258.636 345.068 260.203 346.263 261.678 347.563C262.9 348.64 264.115 349.888 264.449 351.481C264.783 353.076 263.823 355.032 262.201 355.172C261.205 356.977 259.787 358.545 258.09 359.714C257.127 360.378 255.81 359.969 254.764 359.445C251.769 357.945 249.182 355.638 247.351 352.831C247.059 352.384 246.781 351.911 246.675 351.387C246.414 350.088 247.246 348.845 248.053 347.794ZM257.877 358.971C258.769 357.702 259.661 356.432 260.553 355.163C259.695 354.147 258.129 354.145 257.005 353.434C256.391 353.045 255.933 352.458 255.488 351.883C254.184 350.197 252.88 348.512 251.577 346.827C250.489 347.963 249.48 349.174 248.557 350.448C248.423 350.634 248.286 350.833 248.262 351.061C248.235 351.322 248.36 351.572 248.488 351.801C250.461 355.339 253.945 357.999 257.877 358.971ZM256.217 344.84C255.383 344.268 254.093 343.758 253.506 344.582C253.149 345.084 253.334 345.777 253.57 346.345C254.879 349.489 257.426 352.099 260.538 353.483C261.431 353.88 262.789 353.992 263.092 353.062C263.205 352.718 263.11 352.342 262.992 352C261.898 348.839 258.975 346.734 256.217 344.84Z" fill="#00160A"/>
<path fill-rule="evenodd" clip-rule="evenodd" d="M179.44 303.346C178.912 304.11 178.385 304.875 177.858 305.638C177.358 306.363 176.841 307.133 176.776 308.01C176.718 308.794 177.031 309.556 177.378 310.262C178.905 313.362 181.235 316.064 184.079 318.03C183.295 318.996 181.729 318.43 180.736 317.681C178.111 315.7 176.133 312.877 175.167 309.734C174.931 308.966 174.752 308.161 174.84 307.362C175.022 305.699 176.291 304.391 177.488 303.222C178.941 301.805 180.621 300.292 182.65 300.321C183.984 300.341 185.211 301.043 186.274 301.848C189.341 304.172 191.677 307.955 190.997 311.742C190.83 312.672 190.132 313.772 189.222 313.513C185.916 312.57 182.98 310.384 181.13 307.487C180.741 306.878 180.367 306.207 179.734 305.858C179.715 305.014 179.616 304.172 179.44 303.346ZM182.552 302.876C181.69 303.419 181.587 304.668 181.914 305.633C182.791 308.222 185.692 309.456 187.48 311.525C187.711 311.793 187.948 312.092 188.288 312.189C188.805 312.336 189.349 311.924 189.536 311.42C189.723 310.915 189.642 310.356 189.542 309.828C189.252 308.307 188.806 306.791 187.973 305.486C187.139 304.182 185.881 303.098 184.38 302.72C183.77 302.566 183.084 302.541 182.552 302.876Z" fill="#00160A"/>
<path fill-rule="evenodd" clip-rule="evenodd" d="M240.795 328.006C241.404 328.303 241.726 328.968 242.004 329.586C242.423 330.517 242.841 331.447 243.26 332.378C243.435 332.767 243.613 333.168 243.629 333.595C243.652 334.232 243.324 334.939 243.683 335.468C242 336.799 240.422 338.261 238.964 339.835C238.567 340.263 238.159 340.715 237.615 340.928C236.596 341.327 235.463 340.773 234.568 340.143C232.463 338.661 230.726 336.658 229.557 334.364C228.962 333.194 228.598 331.569 229.609 330.73C229.934 330.46 230.039 330.015 230.159 329.609C230.719 327.717 232.023 326.056 233.729 325.063C233.976 324.919 234.241 324.786 234.527 324.775C234.776 324.766 235.017 324.85 235.252 324.933C236.498 325.375 237.746 325.817 238.992 326.258C239.515 326.444 240.145 326.794 240.068 327.343C240.02 327.693 240.476 327.852 240.795 328.006ZM231.405 329.08C230.821 330.325 230.235 331.701 230.579 333.032C230.713 333.55 230.981 334.023 231.276 334.47C232.352 336.099 233.82 337.468 235.521 338.426C236.617 339.043 238.086 339.455 239.054 338.654C239.799 338.037 240.04 336.841 240.952 336.522C241.437 336.353 241.467 335.618 241.135 335.227C240.802 334.836 240.273 334.69 239.789 334.521C237.085 333.579 234.906 331.255 234.138 328.497C234.07 328.252 234.007 327.993 233.844 327.796C233.491 327.371 232.788 327.412 232.341 327.736C231.893 328.059 231.639 328.58 231.405 329.08ZM241.991 333.563C242.7 332.226 241.586 330.681 240.546 329.581C239.911 328.909 239.276 328.237 238.642 327.566C238.161 327.057 237.644 326.526 236.968 326.342C236.293 326.159 235.426 326.488 235.294 327.176C235.236 327.472 235.321 327.776 235.421 328.061C236.409 330.892 239.03 333.087 241.991 333.563Z" fill="#00160A"/>
<path fill-rule="evenodd" clip-rule="evenodd" d="M227.219 343.105C229.41 343.485 231.093 345.194 232.617 346.814C233.231 347.466 233.852 348.129 234.275 348.92C235.272 350.788 235 353.13 234.085 355.04C233.17 356.95 231.689 358.521 230.231 360.058C229.367 360.968 228.305 361.954 227.06 361.805C226.597 361.75 226.169 361.538 225.761 361.313C222.114 359.307 219.19 356.018 217.626 352.161C217.42 351.654 217.234 351.112 217.313 350.571C217.389 350.04 217.71 349.58 218.022 349.144C219.148 347.564 220.296 345.961 221.816 344.755C223.336 343.55 225.307 342.772 227.219 343.105ZM219.954 349.83C219.375 350.418 218.697 351.048 218.669 351.873C218.655 352.245 218.783 352.609 218.93 352.951C220.296 356.145 223.317 358.264 226.192 360.212C226.38 360.339 226.58 360.47 226.806 360.485C227.056 360.5 227.29 360.371 227.501 360.234C228.542 359.56 229.397 358.64 230.242 357.73C230.664 357.275 231.106 356.78 231.197 356.166C231.287 355.551 230.835 354.822 230.216 354.878C228.92 354.994 227.668 354.328 226.688 353.472C224.963 351.966 223.829 349.8 223.575 347.524C223.488 346.739 223.467 345.864 222.914 345.3C222.241 346.987 221.228 348.536 219.954 349.83ZM226.648 344.993C226.101 344.951 225.513 345.038 225.099 345.396C224.147 346.218 224.664 347.779 225.359 348.827C226.416 350.418 227.738 351.833 229.253 352.995C229.828 353.435 230.449 353.848 231.156 353.999C231.864 354.151 232.677 353.993 233.146 353.442C233.617 352.889 233.642 352.063 233.405 351.376C233.169 350.689 232.71 350.105 232.275 349.523C230.784 347.528 229.13 345.185 226.648 344.993Z" fill="#00160A"/>
<path fill-rule="evenodd" clip-rule="evenodd" d="M205.97 340.509C205.157 341.131 204.021 341.205 203.041 340.912C202.06 340.618 201.21 340 200.435 339.331C198.547 337.703 196.978 335.705 195.844 333.485C195.24 332.302 194.749 331.003 194.846 329.678C194.991 327.696 196.399 326.056 197.821 324.667C198.489 324.015 199.221 323.358 200.132 323.153C201.021 322.952 201.947 323.214 202.792 323.551C207.078 325.262 210.456 329.094 211.617 333.561C210.983 336.546 208.394 338.654 205.97 340.509ZM202.679 338.609C203.602 339.155 204.705 339.621 205.722 339.279C206.728 338.941 207.327 337.916 207.706 336.924C206.54 335.559 204.79 334.847 203.435 333.67C201.029 331.576 200.128 328.284 199.345 325.193C198.02 326.292 196.963 327.712 196.288 329.296C196.094 329.752 195.929 330.24 195.982 330.732C196.02 331.086 196.168 331.417 196.325 331.736C197.718 334.577 199.956 336.997 202.679 338.609ZM200.426 326.403C200.374 326.888 200.613 327.351 200.858 327.772C202.347 330.329 204.332 332.595 206.672 334.404C207.387 334.956 208.369 335.48 209.137 335.007C209.595 334.724 209.806 334.161 209.852 333.625C209.973 332.182 209.139 330.847 208.286 329.677C207.014 327.934 205.539 326.216 203.541 325.4C202.953 325.161 202.304 325.005 201.685 325.142C201.065 325.279 200.493 325.772 200.426 326.403Z" fill="#00160A"/>
<path fill-rule="evenodd" clip-rule="evenodd" d="M159.47 11.3373C158.586 12.5023 157.853 14.4824 159.158 15.1426C160.182 15.6604 161.289 14.6556 161.997 13.7534C164.775 10.2148 167.553 6.67608 170.33 3.13744C171.008 4.3446 170.232 5.82228 169.475 6.98142C167.375 10.1977 165.153 13.5313 161.825 15.4486C167.558 18.2689 173.026 21.6285 178.132 25.4687C180.317 24.6401 182.132 22.8816 183.029 20.7234C182.407 21.3161 181.393 20.8703 180.673 20.4026C176.135 17.4561 171.691 14.3637 167.352 11.1316C167.658 10.3073 168.898 10.6647 169.623 11.1609C173.644 13.9105 177.665 16.66 181.686 19.4095C182.669 20.0815 183.884 18.9933 184.571 18.0209C186.079 15.8871 187.585 13.7532 189.092 11.6194C189.646 10.8353 190.251 10.0105 191.146 9.66275C192.673 9.06904 194.313 10.0804 195.639 11.0432C196.028 11.3256 196.436 11.6325 196.61 12.0807C196.91 12.8559 196.4 13.6884 195.915 14.3632C191.193 20.9278 186.471 27.4924 181.75 34.0569C181.535 34.3555 181.311 34.6623 180.991 34.8446C180.177 35.3105 179.149 34.7755 178.47 34.1273C177.51 33.2107 176.058 31.6824 176.904 30.1453C177.749 28.6083 177.785 28.5397 178.496 27.3673C172.503 22.8161 166.259 18.1453 158.912 16.5202C157.66 16.2433 156.979 14.7741 157.128 13.5007C157.277 12.2273 158.029 11.1167 158.76 10.063C160.494 7.56023 162.229 5.05757 163.964 2.55491C164.41 1.91128 164.866 1.25678 165.487 0.778742C166.615 -0.0912075 168.248 -0.248626 169.522 0.389722C170.796 1.02807 171.648 2.43044 171.627 3.85531C170.858 3.1033 170.057 2.33042 169.047 1.96126C168.036 1.59217 166.753 1.74123 166.103 2.59791C163.892 5.51103 161.681 8.42421 159.47 11.3373ZM177.551 30.6621C177.551 31.9798 178.572 32.6971 179.349 32.997C180.125 33.2969 181.13 33.178 181.613 32.4997C185.871 26.5167 190.13 20.5339 194.388 14.5511C194.573 14.29 194.763 14.0215 194.845 13.7118C195.019 13.0489 194.649 12.3386 194.113 11.9118C193.576 11.4851 192.901 11.2823 192.243 11.0886C191.946 11.0013 191.619 10.9158 191.338 11.045C191.149 11.1322 191.014 11.3038 190.887 11.4694C187.326 16.1196 183.929 20.896 180.705 25.7868C180.578 25.5397 178.419 28.6636 177.551 30.6621Z" fill="#00160A"/>
<path fill-rule="evenodd" clip-rule="evenodd" d="M114.139 101.38C113.998 102.294 113.245 102.964 112.646 103.668C111.335 105.211 110.649 107.174 109.99 109.088C109.215 108.243 109.09 106.956 109.386 105.847C109.68 104.74 110.334 103.767 110.976 102.817C111.346 102.271 111.732 101.709 112.292 101.362C112.853 101.017 113.642 100.947 114.139 101.38Z" fill="#00160A"/>
<path fill-rule="evenodd" clip-rule="evenodd" d="M256.88 63.5345C255.5 65.3312 254.12 67.1279 252.741 68.9247C251.996 69.8941 250.538 70.9131 249.745 69.9821C248.357 68.3519 245.791 68.8115 243.694 68.3777C242.336 68.0967 241.108 67.397 239.905 66.7067C222.516 56.7317 205.127 46.7566 187.738 36.7822C186.364 35.9938 184.876 35.0672 184.421 33.5496C203.022 43.529 221.311 54.0894 239.253 65.2099C241.453 66.5734 244.489 67.8936 246.392 66.1384C246.939 65.6348 247.275 64.949 247.6 64.2801C249.273 60.8318 250.946 57.3836 252.618 53.9353C233.833 41.8555 213.331 32.4375 195.492 19.0005C195.135 18.7314 194.752 18.4175 194.68 17.976C194.608 17.5345 195.092 17.0296 195.475 17.261C199.646 20.2664 203.892 23.1672 208.208 25.9597C221.901 34.8195 236.272 42.5747 250.253 50.9718C251.613 51.7891 253.104 52.8031 253.358 54.3698C253.553 55.5762 252.941 56.7505 252.349 57.8199C251.131 60.0196 249.913 62.2193 248.695 64.419C248.266 65.1935 247.822 66.0636 248.031 66.9242C248.357 68.269 250.171 68.7574 251.441 68.2067C252.71 67.656 253.54 66.4376 254.298 65.2809C254.992 64.2229 255.686 63.1648 256.38 62.1068C256.937 61.2568 255.671 60.4194 254.704 60.1045C253.738 59.7901 252.668 58.5636 253.504 57.9852C253.953 57.674 254.562 57.9538 255.031 58.2348C256.451 59.0829 258.08 60.3748 257.736 61.9923C257.613 62.5726 257.241 63.0642 256.88 63.5345Z" fill="#00160A"/>
<path fill-rule="evenodd" clip-rule="evenodd" d="M105.847 84.5484C106.137 84.715 106.448 84.9042 106.565 85.2173C106.682 85.5298 106.458 85.9717 106.128 85.9233C103.066 84.1624 100.004 82.4015 96.9417 80.6406C96.997 80.2923 97.3855 80.078 97.7382 80.0912C98.0903 80.1044 98.4122 80.2842 98.7183 80.4596C101.095 81.8225 103.471 83.1855 105.847 84.5484Z" fill="#00160A"/>
<path fill-rule="evenodd" clip-rule="evenodd" d="M62.118 67.4365C61.4742 65.7794 62.4128 63.9481 63.462 62.5134C65.062 60.3263 66.9983 58.3856 69.181 56.7794C69.7242 56.3802 70.5572 56.0262 70.9947 56.5399C71.5253 57.161 70.7162 58.0109 70.041 58.4711C67.1913 60.4156 65.2053 63.3546 63.2671 66.2087C62.949 66.6765 62.6127 67.1612 62.118 67.4365Z" fill="#FFB61D"/>
<path fill-rule="evenodd" clip-rule="evenodd" d="M224.642 317.89C222.549 319.378 220.456 320.868 218.364 322.356C217.604 322.897 216.674 323.465 215.799 323.142C212.674 321.989 210.486 319.124 209.032 316.128C208.463 314.955 207.972 313.613 208.372 312.372C208.573 311.75 208.981 311.219 209.382 310.702C210.619 309.105 212.081 307.377 214.091 307.168C214.983 307.075 215.878 307.305 216.716 307.622C219.361 308.626 221.645 310.556 223.074 312.997C222.519 312.784 221.931 312.657 221.337 312.621C219.876 310.245 217.231 308.638 214.448 308.438C215.195 310.175 216.113 311.839 217.186 313.397C218.159 314.811 219.366 316.209 221.019 316.673C222.273 317.026 223.819 316.88 224.642 317.89ZM214.038 320.081C215.055 320.916 216.363 321.616 217.639 321.298C219.417 320.856 220.341 318.658 222.128 318.254C219.746 317.986 217.647 316.467 216.158 314.588C214.669 312.709 213.702 310.479 212.753 308.278C212.621 310.374 209.911 311.719 210.036 313.816C210.059 314.203 210.183 314.576 210.322 314.937C211.092 316.933 212.385 318.723 214.038 320.081Z" fill="#00160A"/>
<path fill-rule="evenodd" clip-rule="evenodd" d="M94.29 84.3029C94.7634 84.0219 95.3625 84.2872 95.8428 84.5575C97.317 85.3861 98.763 86.2656 100.177 87.1935C100.457 87.3771 100.773 87.6732 100.653 87.9844C100.497 88.3836 99.9009 88.2339 99.5325 88.0164C98.0563 87.1438 96.5796 86.2719 95.1035 85.3999C94.6848 85.1522 94.2045 84.7813 94.29 84.3029Z" fill="#00160A"/>
<path fill-rule="evenodd" clip-rule="evenodd" d="M65.453 71.7687C66.3206 69.325 67.6653 67.0511 69.3898 65.1148C69.9945 64.4346 70.6452 63.7972 71.2946 63.1597C72.2389 62.2343 73.1831 61.3083 74.1274 60.3822C74.3902 60.1251 74.6988 59.8491 75.066 59.868C75.5343 59.8919 75.8468 60.4187 75.8097 60.8858C75.7726 61.3529 75.4878 61.7603 75.2005 62.1306C73.7338 64.021 71.9409 65.6297 70.3535 67.4195C68.7661 69.2087 67.351 71.2557 66.8707 73.5993C66.7424 74.2274 65.7058 74.1815 65.3833 73.6276C65.0614 73.0738 65.2387 72.3728 65.453 71.7687Z" fill="#FFB61D"/>
<path fill-rule="evenodd" clip-rule="evenodd" d="M241.196 367.2C241.685 365.083 242.709 363.091 244.149 361.462C244.779 362.277 244.054 363.4 243.515 364.28C243.08 364.99 242.761 365.771 242.574 366.583C242.519 366.822 242.476 367.075 242.541 367.312C242.595 367.511 242.721 367.681 242.845 367.846C244.973 370.689 247.413 373.736 250.895 374.431C251.579 374.567 252.286 374.205 252.748 373.682C253.211 373.159 253.475 372.495 253.731 371.847C249.492 370.161 246.224 366.229 245.342 361.753C245.306 361.573 245.275 361.381 245.341 361.209C245.432 360.971 245.682 360.837 245.918 360.74C247.601 360.045 249.595 360.158 251.188 361.039C251.805 361.38 252.358 361.825 252.907 362.268C253.758 362.954 254.609 363.641 255.459 364.326C256.86 365.456 258.401 366.905 258.208 368.693C258.102 369.676 257.475 370.513 256.871 371.296C255.553 373.004 254.235 374.713 252.917 376.421C248.305 375.821 244.016 373.079 241.536 369.144C241.348 368.846 241.167 368.533 241.111 368.185C241.059 367.858 241.121 367.523 241.196 367.2ZM251.084 362.75C249.634 361.912 247.913 361.552 246.248 361.738C247.499 365.127 249.955 368.056 253.073 369.879C253.836 370.326 254.768 370.714 255.579 370.361C256.623 369.907 256.863 368.516 257.708 367.752C256.079 366.492 254.45 365.232 252.82 363.972C252.26 363.539 251.698 363.104 251.084 362.75Z" fill="#00160A"/>
<path fill-rule="evenodd" clip-rule="evenodd" d="M196.346 288.517C198.564 287.201 201.534 288.342 203.284 290.236C205.035 292.13 205.962 294.62 207.257 296.85C207.011 296.95 206.765 297.051 206.519 297.151C205.28 293.842 203.122 290.882 200.351 288.689C199.898 288.33 199.048 288.105 198.899 288.664C198.856 288.824 198.904 288.992 198.952 289.151C199.231 290.074 199.51 290.998 199.789 291.921C199.96 292.488 200.132 293.059 200.39 293.592C201.329 295.536 203.263 296.768 205.103 297.898C205.527 298.159 205.259 298.841 204.857 299.135C204.456 299.429 203.918 299.652 203.797 300.134C203.633 298.159 201.457 297.09 200.277 295.497C199.848 294.918 199.547 294.255 199.25 293.597C198.621 292.207 197.992 290.816 197.364 289.426C196.587 290.173 195.81 290.921 195.034 291.667C194.674 292.014 194.301 292.378 194.13 292.847C193.887 293.513 194.093 294.254 194.363 294.91C194.866 296.131 195.593 297.259 196.496 298.223C197.048 298.812 197.67 299.347 198.095 300.033C198.519 300.719 198.713 301.618 198.335 302.331C196.271 300.62 194.53 298.521 193.23 296.176C192.722 295.26 192.271 294.258 192.32 293.212C192.421 291.061 194.494 289.616 196.346 288.517Z" fill="#00160A"/>
<path fill-rule="evenodd" clip-rule="evenodd" d="M31.4082 351.508C28.7728 355.309 25.7106 359.17 21.3615 360.743C17.0117 362.317 11.1463 360.509 9.96751 356.036C7.99727 348.558 18.8581 344.735 22.9155 338.151C27.7318 330.337 21.9587 320.468 16.2862 313.251C12.2615 316.616 6.39857 320.074 2.25314 316.859C-2.76676 312.966 1.45725 304.827 6.57648 301.065C15.7582 294.319 27.4998 291.15 38.829 292.362C41.7133 270.88 52.7483 250.594 69.2156 236.501C85.6829 222.408 107.43 214.638 129.099 215.107C126.677 173.092 151.036 130.72 188.564 111.671C192.637 109.604 196.999 107.759 201.567 107.786C206.135 107.813 210.959 110.139 212.692 114.365C214.426 118.592 211.738 124.393 207.186 124.779C189.658 126.265 173.01 136.03 163.159 150.605C186.474 148.81 208.534 160.239 229.118 171.334C237.505 175.855 245.894 180.376 254.281 184.897C262.425 189.287 271.46 193.82 280.511 191.905C297.251 188.363 302.349 166.433 316.36 156.614C318.164 155.35 320.311 154.258 322.482 154.631C328.14 155.603 327.743 163.958 325.309 169.158C310.793 200.171 278.273 219.687 244.843 227.099C211.413 234.512 176.665 231.582 142.551 228.615C140.191 253.012 136.858 279.544 119.402 296.752C102.807 313.112 76.5572 316.709 54.0911 310.519C66.0427 311.4 78.1471 312.078 89.9365 309.927C101.726 307.776 113.328 302.513 120.989 293.298C125.574 287.781 128.555 281.119 131.058 274.397C136.47 259.864 139.914 244.601 141.266 229.152C137.092 229.435 132.917 229.718 128.742 230.001C129.8 250.574 124.677 272.324 110.522 287.29C96.3658 302.255 72.0364 308.363 54.2829 297.915C50.3858 317.08 42.5513 335.435 31.4082 351.508ZM76.8476 301.329C83.7491 300.251 90.4966 298.191 96.8229 295.23C92.9038 292.102 89.1192 288.735 86.1337 284.705C79.7772 276.125 77.3688 265.003 70.4453 256.873C62.1311 268.403 56.6812 281.982 54.7179 296.061C54.6739 296.379 54.6374 296.727 54.8091 296.997C54.987 297.278 55.3346 297.39 55.6546 297.48C60.9455 298.981 66.3231 300.176 71.751 301.056C68.7403 297.781 65.707 294.477 63.4168 290.662C61.1265 286.848 59.6027 282.439 59.9013 278C62.7221 285.389 66.7569 292.311 71.7944 298.408C73.0938 299.981 74.8315 301.643 76.8476 301.329ZM326.598 162.792C328.16 158.933 322.832 155.249 318.855 156.478C314.878 157.706 312.414 161.551 310.095 165.008C297.094 184.396 278.147 199.738 256.48 208.421C223.104 221.798 185.811 219.133 149.886 217.667C132.994 216.978 115.755 216.643 99.5557 221.478C75.9694 228.518 56.0463 246.888 47.1198 269.827C41.966 283.071 40.3805 297.394 36.855 311.161C33.3294 324.928 27.3099 338.881 15.8349 347.264C13.7533 348.786 11.3399 350.349 10.7615 352.861C9.90087 356.596 14.0564 359.987 17.8812 359.741C21.706 359.495 24.9153 356.827 27.5406 354.035C54.2219 325.646 48.0999 276.55 75.6437 248.997C88.6314 236.005 107.279 230.09 125.578 228.468C143.877 226.846 162.265 229.057 180.612 229.979C209.193 231.416 238.459 229.598 265.156 219.294C291.854 208.989 315.855 189.316 326.598 162.792ZM153.92 170.639C153.33 170.998 152.977 171.635 152.658 172.247C145.919 185.175 142.586 199.86 143.086 214.43C142.363 214.396 142.08 213.487 142.004 212.767C140.225 195.798 147.278 179.287 154.179 163.682C156.269 158.955 158.374 154.2 161.259 149.91C166.632 141.919 174.449 135.915 182.411 130.498C185.062 128.695 187.782 126.921 190.819 125.893C192.839 125.21 194.957 124.872 197.063 124.536C199.685 124.118 202.308 123.7 204.93 123.283C207.653 122.849 210.771 122.139 212.013 119.678C213.756 116.219 210.245 112.192 206.515 111.148C201.812 109.832 196.799 111.18 192.197 112.819C185.146 115.33 178.303 118.564 172.266 122.991C167.449 126.523 163.196 130.776 159.294 135.299C140.887 156.633 130.184 184.478 129.563 212.649C129.549 213.291 129.547 213.964 129.84 214.535C130.545 215.903 132.439 215.974 133.975 215.877C144.94 215.189 155.975 215.611 166.855 217.135C161.542 212.122 156.141 207.045 149.672 203.654C147.624 202.579 145.346 201.56 144.217 199.541C148.665 200.258 152.914 202.171 156.4 205.025C159.208 207.324 161.5 210.192 164.232 212.581C166.963 214.97 170.356 216.927 173.983 216.813C184.154 216.493 194.34 216.676 204.493 217.361C196.393 211.97 189.716 204.746 182.39 198.343C175.064 191.939 166.666 186.167 157.055 184.652C154.372 184.228 150.998 183.636 150.326 181.005C160.474 181.546 169.986 186.282 178.186 192.284C186.387 198.285 193.541 205.579 201.263 212.185C204.021 214.544 207.291 216.953 210.894 216.521C222.182 215.165 233.555 213.79 244.357 210.246C218.079 200.906 197.327 178.538 170.11 172.45C165.608 171.443 161.016 170.909 156.434 170.376C155.581 170.277 154.654 170.193 153.92 170.639ZM257.436 188.486C254.442 187.035 251.449 185.584 248.454 184.132C244.178 182.06 239.901 179.986 235.687 177.79C225.874 172.675 216.405 166.896 206.416 162.135C196.426 157.374 185.784 153.617 174.742 152.877C171.933 152.689 169.079 152.692 166.367 151.939C164.67 151.469 162.823 152.259 161.572 153.499C160.321 154.738 159.546 156.367 158.796 157.961C157.125 161.513 155.452 165.066 153.781 168.619C166.664 167.416 179.337 172.24 190.916 178.015C201.886 183.485 212.373 189.881 222.575 196.675C227.205 199.758 231.813 202.945 236.906 205.183C241.998 207.421 247.683 208.674 253.157 207.685C262.539 205.989 269.615 198.194 278.533 194.826C271.118 195.033 264.112 191.722 257.436 188.486ZM88.1567 242.104C90.9618 249.04 94.9394 255.561 100.258 260.823C105.577 266.085 112.28 270.047 119.598 271.603C121.302 265.368 122.933 259.113 124.489 252.84C124.637 252.245 124.702 251.456 124.156 251.178C116.337 247.202 109.299 241.694 103.561 235.059C103.611 234.37 104.438 233.959 105.116 234.087C105.795 234.216 106.338 234.708 106.841 235.182C112.437 240.462 117.941 246.214 125.083 249.075C126.705 243.747 127.809 238.261 128.374 232.721C128.478 231.701 128.227 230.279 127.203 230.275C106.99 230.2 86.8793 238.616 72.7449 253.065C71.7648 254.066 71.707 255.697 72.2005 257.008C72.6946 258.319 73.6383 259.401 74.5109 260.498C78.7625 265.845 81.6443 272.122 85.0039 278.071C88.3635 284.02 92.4015 289.851 98.1946 293.472C98.7919 293.845 99.4539 294.205 100.156 294.151C100.733 294.107 101.249 293.789 101.733 293.472C108.642 288.942 114.416 282.693 118.386 275.449C118.816 274.663 119.014 273.354 118.138 273.164C112.826 272.011 107.782 269.639 103.506 266.283C100.203 263.69 97.3811 260.546 94.5779 257.42C92.8635 255.507 91.1379 253.58 89.8139 251.38C88.2215 248.732 87.2439 245.718 86.9786 242.64C87.3715 242.461 87.7638 242.283 88.1567 242.104ZM5.11546 316.533C7.9847 317.131 10.71 315.184 12.9443 313.287C15.535 311.087 18.0735 308.782 21.0182 307.086C23.9635 305.388 27.4092 304.324 30.7663 304.854C31.9061 305.034 33.0364 305.394 34.1869 305.308C35.3374 305.223 36.5601 304.521 36.7588 303.385C37.2315 300.686 37.6043 297.97 37.8753 295.244C37.9143 294.855 37.9363 294.417 37.6804 294.121C37.4333 293.835 37.0153 293.786 36.6375 293.762C24.6525 292.989 12.4212 297.67 4.01341 306.246C2.7391 307.547 1.5 309.031 1.20327 310.827C0.787721 313.34 2.62154 316.015 5.11546 316.533ZM29.2978 308.603C30.9084 310.46 32.5184 312.317 34.1291 314.173C34.5528 311.894 35.223 309.662 36.1245 307.526C31.3183 305.507 25.495 306.128 21.2238 309.116C20.294 309.766 19.439 310.516 18.5865 311.264C18.2483 311.562 17.8956 311.879 17.7517 312.306C17.6083 312.732 17.7649 313.295 18.1924 313.437C19.7816 313.964 20.9088 315.363 21.8179 316.769C24.8003 321.383 26.4367 326.857 26.4763 332.352C28.7621 327.543 31.0486 322.733 33.3344 317.923C32.4266 317.669 32.1934 316.528 31.9665 315.614C31.1593 312.366 28.5553 309.924 26.0733 307.679C26.4606 307.163 27.2464 307.097 27.8386 307.355C28.4308 307.613 28.8747 308.115 29.2978 308.603Z" fill="#00160A"/>
</svg>
