<svg width="198" height="198" viewBox="0 0 198 198" fill="none" xmlns="http://www.w3.org/2000/svg">
<mask id="mask0_277_1068" style="mask-type:alpha" maskUnits="userSpaceOnUse" x="0" y="0" width="198" height="198">
<circle cx="99" cy="99" r="99" fill="#C4C4C4"/>
</mask>
<g mask="url(#mask0_277_1068)">
<path fill-rule="evenodd" clip-rule="evenodd" d="M34.4562 273C47.3317 273.361 59.4946 273.758 72.3453 273C92.9093 271.728 153.257 274.021 166.523 273C167.524 272.923 170.967 274.021 171.038 273C171.622 265.888 172 193.939 170.267 188.989C168.534 184.037 159.984 160.24 149.087 149.142C146.048 146.144 141.425 144.983 138.871 141.518C136.669 137.74 136.84 135.523 134.665 133.536C133.722 132.673 131.496 132.323 129.842 131.126C128.18 129.473 129.754 125.833 129.072 123.531C127.664 117.783 122.482 114.096 116.817 113.227C108.945 111.342 100.633 113.124 96.8617 119.31C95.4573 121.613 96.2048 124.413 94.4779 128.102C94.6013 130.891 91.3467 131.565 89.4019 132.67L85.5391 136.575C73.6372 143.275 59.6364 146.893 49.2083 155.892C40.3422 164.891 31.5237 175.289 27.5899 187.463C26.7755 190.78 26.5098 194.209 26.1723 197.598C25.2087 207.503 22.5259 217.117 20.2171 226.765C17.5844 238.922 15.1304 251.826 18.6786 264.098C19.7015 266.695 32.1274 272.878 34.4562 273Z" fill="#D08B5B"/>
<path fill-rule="evenodd" clip-rule="evenodd" d="M94.4248 128.076L95.4301 128.184V135.929L108.579 149.613L110.982 152.361C109.549 157.47 110.993 160.025 115.309 160.025C121.786 160.025 116.779 158.142 117.996 155.594L118.048 155.49C118.931 153.746 121.952 150.046 127.111 144.391L133.028 134.495V132.688L133.23 132.77C133.788 133.003 134.271 133.24 134.598 133.54C136.773 135.527 136.602 137.745 138.803 141.523C141.357 144.988 145.981 146.149 149.019 149.147C159.915 160.243 168.467 184.042 170.199 188.993C171.932 193.943 171.554 265.893 170.97 273.005C170.899 274.026 167.456 272.928 166.456 273.005C153.19 274.026 92.8413 271.733 72.2776 273.005C59.4269 273.763 47.2641 273.365 34.3886 273.005C32.0598 272.883 19.6339 266.7 18.6109 264.102C15.0628 251.831 17.5168 238.927 20.1495 226.77L20.3777 225.822C22.5941 216.649 25.0867 207.498 26.0559 198.09L26.1046 197.603C26.4422 194.213 26.7079 190.785 27.5223 187.468C31.4561 175.294 40.2746 164.895 49.1406 155.897C59.4645 146.987 73.2899 143.352 85.1138 136.78L85.4711 136.58L89.3339 132.675L89.4523 132.609C91.4081 131.542 94.5313 130.84 94.4109 128.107L94.4248 128.076Z" fill="#FDEA6B"/>
<path fill-rule="evenodd" clip-rule="evenodd" d="M96.1795 120.3C96.283 119.964 96.7269 120.058 96.7607 120.379C97.0941 123.551 96.6741 126.866 96.27 130.017C96.077 131.538 95.9655 133.12 95.6709 134.62C95.633 134.78 95.5972 134.941 95.5634 135.101C95.6599 135.274 95.9466 135.468 96.0829 135.6L96.6761 136.177L97.8665 137.329C100.195 139.584 102.522 141.842 104.85 144.096L108.266 147.409C109.438 148.545 110.769 149.633 111.797 150.899C112.354 151.586 112.48 152.43 111.931 153.167C111.66 153.53 111.173 153.796 110.678 153.851C110.871 154.12 111.02 154.425 111.116 154.763C111.309 155.453 110.611 156.301 109.869 156.013C109.026 155.689 108.329 155.108 107.471 154.83C106.605 154.548 105.664 154.494 104.765 154.645C104.353 154.715 103.95 154.818 103.556 154.949C107.764 156.886 112.316 157.999 116.959 158.158C117.905 158.19 118.849 158.177 119.789 158.115C121.37 158.011 122.941 157.771 124.485 157.384C125.698 157.08 126.899 156.696 128.064 156.234C128.636 156.007 129.201 155.757 129.748 155.472L129.796 155.444C129.92 155.367 132.204 154.071 132.244 153.876C132.284 153.681 132.284 153.613 132.209 153.444C132.136 153.274 131.929 153.157 131.929 153.157C131.223 152.855 130.491 152.575 129.721 152.569C127.945 152.559 126.01 153.872 124.541 154.765C122.929 155.748 121.446 156.896 119.894 157.961C119.859 157.986 119.819 157.996 119.781 157.996C119.617 157.996 119.465 157.794 119.571 157.637C120.683 155.999 122.184 154.634 123.754 153.444L124.387 152.969C125.825 151.896 127.507 150.708 129.256 150.449C131.398 150.133 133.637 151.469 135.548 152.251L138.933 153.638C139.536 153.884 140.193 154.095 140.8 154.374L139.381 149.933C138.673 147.713 137.965 145.492 137.265 143.27L137.13 142.834C136.432 140.578 135.792 138.232 134.631 136.17C134.353 135.676 134.036 135.211 133.722 134.741C133.396 134.255 133.274 133.72 132.864 133.286C132.053 132.425 130.89 131.92 129.78 131.591C129.508 131.51 129.589 131.153 129.842 131.126C130.982 131.006 132.069 131.271 133.098 131.752L133.526 131.956C134.499 132.417 135.449 132.846 136.172 133.673C137.82 135.562 138.677 137.94 139.463 140.288L139.673 140.918C139.968 140.821 141.967 141.431 142.217 141.576C149.714 144.746 155.487 150.649 159.71 157.565C164.337 165.144 166.855 173.805 168.935 182.375C169.577 185.02 170.19 187.673 170.78 190.331C168.153 191.343 165.361 191.872 162.901 193.296C161.965 193.839 162.811 195.294 163.75 194.75C166.053 193.416 168.677 192.922 171.143 191.986C172.48 198.142 173.668 204.33 174.665 210.546C177.724 229.621 179.656 249.007 179.535 268.343C179.533 268.771 179.406 269.248 179.172 269.658C179.31 269.591 179.417 269.51 179.478 269.414C180.253 268.196 182.199 269.325 181.419 270.551L181.304 270.728C180.719 271.63 180.173 272.32 179.144 272.83C178.106 273.343 176.984 273.43 175.84 273.459C171.953 273.561 168.062 273.628 164.169 273.677C163.636 269.511 163.419 265.307 162.683 261.167C162.494 260.103 160.873 260.554 161.062 261.615C161.772 265.613 161.999 269.672 162.494 273.697C154.174 273.786 145.849 273.787 137.534 273.81C126.267 273.844 115.001 273.82 103.734 273.814L98.9046 273.812C85.8891 273.812 72.8729 273.77 59.8571 273.684L56.7617 273.662C55.5303 266.4 54.6921 259.077 54.6766 251.698C54.6742 250.615 52.9921 250.613 52.9944 251.698C53.01 259.069 53.8389 266.393 55.0588 273.653C51.9771 273.639 48.8967 273.651 45.8148 273.76L44.2461 273.816C41.1076 273.924 37.9627 273.989 34.8301 273.739C31.3521 273.459 27.8344 272.82 24.716 271.182C23.3117 270.442 22.075 269.496 21.0182 268.386C22.0924 267.76 23.1821 267.161 24.2228 266.479C25.125 265.889 24.2833 264.431 23.3737 265.027C22.2523 265.76 21.0734 266.4 19.9189 267.079C19.0828 265.962 18.3967 264.724 17.8756 263.387C17.0534 261.277 16.7359 259.008 16.4604 256.774C16.1348 254.142 16 251.49 16 248.839C16 243.264 16.5866 237.707 17.4048 232.2C18.1872 226.924 19.2215 221.69 20.3146 216.474L20.4641 215.762C21.5428 210.634 22.5711 205.491 23.8074 200.398C24.9507 195.689 26.2719 191.001 27.8464 186.405C29.2479 187.272 30.7145 188.03 32.0942 188.933C33.0028 189.528 33.8466 188.072 32.9433 187.481C31.4713 186.516 29.9014 185.716 28.416 184.775C30.1766 179.853 32.2433 175.046 34.7209 170.441C39.6831 161.221 46.3701 152.973 54.9346 146.886C59.2218 143.839 63.9257 141.347 68.8653 139.533C73.9013 137.682 79.1201 136.668 84.4568 136.252C84.6091 136.24 84.6947 136.381 84.6887 136.512L84.6868 136.536L84.8968 136.569C84.9744 136.042 85.1346 135.53 85.4392 135.062C86.1329 133.993 87.4487 133.307 88.5007 132.651L88.7496 132.496C90.0007 131.72 91.3204 130.956 92.7756 130.684C92.8263 130.675 92.8572 130.728 92.8233 130.768C91.8639 131.869 90.6376 132.71 89.513 133.64L89.2552 133.855C88.3226 134.623 87.0237 135.494 86.9889 136.775C86.9491 138.286 87.2576 139.858 87.3691 141.364C87.4806 142.866 87.5582 144.366 87.598 145.871C87.7433 151.267 87.5691 156.665 87.0914 162.04L89.2024 160.626C92.4879 158.426 95.7843 156.232 99.1484 154.172C101.185 152.925 103.472 151.858 105.911 151.907C106.594 151.919 107.367 152.018 108.107 152.228C107.31 151.473 106.547 150.67 105.766 149.91C104.481 148.658 103.196 147.407 101.912 146.158L98.2079 142.548L94.5014 138.938C93.3538 137.817 92.0082 136.784 92.1296 135.018C92.2291 133.607 92.9457 132.205 93.4354 130.845C93.5051 130.65 93.5678 130.456 93.6265 130.265C94.6159 126.98 95.1762 123.574 96.1795 120.3ZM144.057 261.28C143.291 260.514 142.102 261.703 142.868 262.471L143.273 262.874C143.951 263.55 144.622 264.246 145.09 265.081L145.159 265.208C145.664 266.166 147.116 265.317 146.611 264.359C145.987 263.174 144.994 262.218 144.057 261.28ZM111.226 261.064C108.787 260.598 106.436 260.598 103.997 261.064C102.935 261.267 103.384 262.89 104.444 262.687C106.577 262.28 108.646 262.28 110.78 262.687C111.838 262.889 112.29 261.267 111.226 261.064ZM78.2824 244.1C77.2327 243.835 76.7848 245.457 77.8353 245.724L78.3525 245.853C80.1107 246.288 81.7852 246.612 83.6118 246.208C84.6539 245.978 84.2329 244.394 83.2057 244.577L83.1639 244.585C81.4743 244.958 79.9175 244.516 78.2824 244.1ZM136.791 233.17C136.013 232.415 134.823 233.603 135.601 234.359C136.572 235.304 137.716 236.023 139.103 236.06C140.169 236.09 140.185 234.458 139.15 234.38L139.103 234.377C138.173 234.352 137.433 233.795 136.791 233.17ZM37.7882 228.675C38.7567 228.192 37.9057 226.739 36.9393 227.223L31.1257 230.13C30.1571 230.615 31.0081 232.067 31.9744 231.584L37.7882 228.675ZM152.668 229.047C151.585 229.016 151.586 230.699 152.668 230.73C153.685 230.757 154.728 231.144 155.635 231.584C156.604 232.054 157.458 230.604 156.484 230.13C155.298 229.555 153.997 229.083 152.668 229.047ZM98.3472 220.921C99.238 220.316 98.397 218.857 97.4982 219.468C96.272 220.302 95.1613 221.286 93.954 222.145L93.6225 222.376C92.7318 222.981 93.5728 224.44 94.4715 223.829C95.8092 222.92 97.0095 221.831 98.3472 220.921ZM160.904 208.691C159.821 208.69 159.82 210.373 160.904 210.374L161.109 210.373C162.003 210.368 162.944 210.343 163.775 210.7L163.871 210.743C164.844 211.202 165.699 209.752 164.72 209.29C163.501 208.717 162.227 208.691 160.904 208.691ZM67.4825 207.488L67.6239 207.436C68.6353 207.072 68.1991 205.445 67.1766 205.813C65.6357 206.367 64.4369 207.413 63.1002 208.32C62.2095 208.926 63.0502 210.385 63.9491 209.774C65.1009 208.991 66.1724 208.001 67.4825 207.488ZM130.58 203.11L130.806 202.989C131.769 202.493 130.919 201.041 129.958 201.536C129.194 201.929 128.511 202.451 127.761 202.868L127.535 202.99C126.572 203.485 127.422 204.937 128.384 204.443C129.148 204.05 129.831 203.527 130.58 203.11ZM104.988 186.81L104.815 186.643C104.041 185.884 102.851 187.074 103.625 187.833C105.561 189.728 107.85 191.168 110.158 192.558L110.578 192.811C111.509 193.369 112.356 191.915 111.427 191.358L110.811 190.987C108.759 189.749 106.73 188.47 104.988 186.81ZM58.4376 185.24C59.09 184.392 57.6715 183.562 57.0085 184.361L56.9851 184.39C56.3061 185.271 55.5004 186.07 54.6584 186.798L54.5 186.935C53.9988 187.36 53.0864 188.275 52.3822 188.335C51.3115 188.425 51.3018 190.109 52.3822 190.018C53.4718 189.925 54.4095 189.158 55.2327 188.5C56.4308 187.544 57.5026 186.453 58.4376 185.24ZM147.933 179.108C148.714 178.374 147.56 177.204 146.771 177.894L146.744 177.919C145.284 179.292 143.181 179.66 141.301 180.126C140.251 180.386 140.696 182.009 141.748 181.748L142.605 181.537C144.527 181.057 146.455 180.498 147.933 179.108ZM114.618 168.494C113.568 168.227 113.12 169.849 114.17 170.117C115.955 170.57 117.645 171.156 119.299 171.97C120.267 172.447 121.121 170.996 120.148 170.517C118.369 169.641 116.539 168.982 114.618 168.494ZM131.802 133.019C131.777 132.944 131.857 132.857 131.935 132.884C133.823 133.588 132.819 136.062 132.232 137.542L132.127 137.813C131.207 140.185 129.923 142.495 128.523 144.62C127.057 146.844 125.429 148.972 123.667 150.97C122.902 151.838 122.11 152.681 121.29 153.498L120.981 153.804C120.153 154.618 119.085 156.048 117.8 155.891C116.417 155.725 115.645 154.246 116.654 153.122C117.367 152.328 118.356 151.694 119.152 150.97C119.943 150.256 120.709 149.517 121.455 148.758C122.982 147.199 124.428 145.552 125.751 143.816C127.03 142.138 128.254 140.413 129.368 138.621L129.589 138.261C130.436 136.866 132.391 134.816 131.802 133.019ZM64.918 150.646C64.0219 150.034 63.1795 151.491 64.0689 152.099C65.7045 153.218 67.1434 154.572 68.9137 155.492C69.8616 155.985 70.7045 154.573 69.7964 154.057L69.7628 154.039C67.9937 153.119 66.5527 151.764 64.918 150.646Z" fill="black"/>
<path fill-rule="evenodd" clip-rule="evenodd" d="M102.418 44.7081C134.223 43.1402 148.574 65.5889 149.502 75.6158C150.146 82.576 146.045 90.5986 146.045 96.8182C146.045 99.9922 149.922 106.808 148.117 111.435C144.099 121.735 135.593 133.164 124.753 133.164C113.912 133.164 99.8051 136.169 87.8276 118.977C86.7039 117.363 72.4892 108.194 71.1082 99.4826C67.6683 77.781 79.7246 45.8269 102.418 44.7081Z" fill="#D08B5B"/>
<path fill-rule="evenodd" clip-rule="evenodd" d="M100.92 30.7372C102.056 29.4329 103.976 28.9112 105.682 29.0122C108.16 29.1594 110.315 30.693 112.782 30.8065C115.366 30.9265 117.861 30.0282 120.452 30.4447C122.041 30.7013 123.614 31.4397 124.633 32.6851C128.157 31.6732 131.985 33.0132 134.23 35.9393C136.999 35.508 140.013 37.3467 140.861 40.0223C144.379 40.1359 147.701 42.9694 148.094 46.5202C149.499 46.8925 150.72 47.8646 151.47 49.1497C152.341 50.639 152.485 52.3471 152.328 54.0258C153.983 54.8734 154.825 56.6951 155.045 58.622C156.558 59.7537 157.215 61.7879 156.906 63.7084C158.065 64.3626 158.663 65.8856 158.656 67.2445C158.65 68.5129 158.315 69.6365 158.786 70.8605C159.207 71.9508 159.359 72.8594 159.127 74.0014L159.103 74.1127C159.062 74.2988 159.028 74.4774 158.997 74.6535C159.31 74.929 159.576 75.2745 159.775 75.6763C160.5 77.1446 160.392 78.8191 159.838 80.3083C160.081 81.2566 160.05 82.2583 159.692 83.1698C160.363 84.1385 160.715 85.3266 160.612 86.5593C160.495 87.9394 159.867 89.1751 158.914 90.0888C159.168 91.9739 158.403 94.0113 157.021 95.338C157.217 96.4667 157.048 97.6501 156.431 98.72C155.993 99.4824 155.401 100.051 154.72 100.446C154.742 101.076 154.657 101.72 154.448 102.365C154.158 103.261 153.667 104.085 153.02 104.75C153.406 107.223 151.929 109.967 149.328 110.661C149.11 110.719 148.902 110.746 148.702 110.75C148.444 113.129 147.88 115.475 147.007 117.703C144.786 123.377 140.75 128.336 135.484 131.431C132.881 132.96 129.956 134.007 126.97 134.445C124.821 134.761 122.755 134.683 120.598 134.468C117.891 134.196 115.171 133.79 112.54 133.093L112.117 132.979C111.026 132.687 109.875 132.348 108.931 131.759C107.873 131.098 107.323 130.08 107.081 128.882C106.944 128.214 107.366 127.496 108.095 127.482H108.142C108.301 127.485 108.459 127.479 108.619 127.469L108.74 127.461H108.746C108.755 127.459 108.759 127.459 108.767 127.459C108.838 127.448 108.908 127.427 108.977 127.417C109.779 127.282 110.48 127.415 111.233 127.667L111.327 127.699C112.595 128.136 113.852 128.542 115.16 128.843C116.514 129.152 117.885 129.398 119.258 129.592L119.394 129.609L119.437 129.615L119.458 129.617C119.462 129.617 119.466 129.617 119.47 129.619L119.875 129.67C120.195 129.708 120.513 129.742 120.833 129.775C121.42 129.834 122.007 129.88 122.595 129.914C132.736 130.486 141.253 122.482 143.823 112.885C144.755 109.413 144.816 105.948 144.541 102.481C144.453 102.228 144.4 101.949 144.402 101.642C144.402 101.482 144.411 101.325 144.421 101.164C144.08 97.8113 143.486 94.4562 143.114 91.0901C142.68 87.1589 142.439 83.2045 142.526 79.2474C142.571 77.2932 142.778 75.358 143.052 73.4229L143.15 72.7277C141.917 72.4864 140.771 71.9003 139.859 71.0519C137.878 72.1984 135.315 72.3 133.36 71.0894C131.17 72.4666 128.109 72.5916 125.903 71.2451C124.57 72.1992 122.89 72.611 121.241 72.2487C120.499 72.0858 119.762 71.7335 119.13 71.2457C118.679 71.3254 118.222 71.3564 117.768 71.3326L117.675 71.3852C116.627 71.9384 115.467 72.3025 114.274 72.2619C113.39 72.2321 112.479 72.0573 111.636 71.7265C110.735 72.2714 109.75 72.6433 108.696 72.7767C107.157 72.9713 105.495 72.6299 104.215 71.7543C101.875 73.0905 98.9968 73.2962 96.4717 72.3985C95.9541 73.2767 95.2385 74.0339 94.4005 74.6177C94.5508 75.1566 94.5985 75.7313 94.5468 76.2839C94.4622 77.1935 94.2343 78.0091 93.862 78.7416C94.2542 79.5594 94.3726 80.5637 94.1527 81.5717C93.8401 83.0092 93.0061 84.2598 91.9262 85.2338C91.8306 87.5279 90.5756 89.6787 88.5332 90.8741C88.4297 90.9348 88.3272 90.9836 88.2237 91.0284C88.1341 91.1518 88.0256 91.2603 87.9032 91.3518C86.6043 92.5551 84.549 92.4596 82.9207 91.7798C82.8889 91.7818 82.858 91.7838 82.8262 91.7848C82.2444 91.7997 81.848 91.5718 81.6128 91.2374C81.3759 91.2503 81.1406 91.2752 80.9037 91.32C80.039 91.4822 79.0906 91.7928 78.3079 92.1968C76.2768 93.2449 75.3367 95.0961 75.0556 97.3216C74.7494 99.7492 75.4458 102.222 77.3199 103.866C78.2303 104.665 79.3949 105.166 80.5783 105.376C81.8856 105.609 83.283 105.035 84.2484 106.161C84.4415 106.384 84.5739 106.694 84.4684 106.996C84.1409 107.934 83.6015 108.294 82.7585 108.424C83.9777 109.873 85.2278 111.275 86.6133 112.577C88.1112 113.988 89.6599 115.355 91.0115 116.912C92.4397 118.559 93.7306 120.305 94.6264 122.304C95.138 123.452 95.5501 124.636 95.993 125.812L96.0716 126.017C96.5653 127.266 97.2222 128.471 96.4627 129.775C96.1602 130.288 95.4764 130.785 94.8464 130.703C93.0738 130.476 92.4806 129.275 91.9341 127.709C91.5231 126.528 91.2086 125.311 90.7657 124.14C90.683 123.923 90.5925 123.708 90.4979 123.494C89.4757 123.781 88.3521 123.554 87.4394 122.969C86.465 123.402 85.3841 123.618 84.341 123.6C82.9446 123.576 81.6688 123.186 80.5718 122.485C80.4845 122.462 80.3968 122.439 80.3097 122.414C78.6409 123.055 76.6866 122.941 75.1756 121.903C74.1971 121.23 73.5282 120.332 73.148 119.333C71.8837 119.309 70.6332 118.859 69.7273 117.96C68.8956 117.135 68.4094 116.069 68.265 114.963C67.1769 114.746 66.1567 114.22 65.3566 113.331C64.6884 112.59 64.2825 111.644 64.1452 110.664C62.82 110.284 61.6247 109.417 60.972 108.207C60.3645 107.081 60.2768 105.859 60.5739 104.749L60.4969 104.637C59.1317 103.921 58.0899 102.748 57.9829 101.074C57.9527 100.597 58.0039 100.119 58.1329 99.6685C58.0863 99.1639 58.1162 98.6593 58.2482 98.1716C56.4121 96.3811 55.747 93.5057 56.7437 91.1289C54.9496 89.193 54.4754 86.1324 55.7911 83.8355C54.8887 82.7415 54.425 81.3468 54.5027 79.8575C54.5992 77.9981 55.449 76.374 56.4667 74.87C55.7112 74.0327 55.3084 72.8653 55.338 71.7377C55.3797 70.1033 56.2463 68.696 57.3314 67.5306C56.3849 64.653 57.4424 61.5312 59.7652 59.7095C59.2952 58.9334 59.121 57.972 59.2744 56.998C59.5427 55.2962 60.8164 54.1372 62.1908 53.2201C61.9034 52.2821 61.9789 51.2701 62.4364 50.3002C63.047 49.0066 64.1989 48.1862 65.4013 47.492C65.7118 44.6228 68.9096 42.1721 71.5912 43.653C70.9261 41.5179 72.842 39.2124 75.0453 38.9684C76.1236 35.6911 79.8439 33.6253 83.1884 34.4394C84.8984 32.096 88.0823 31.1938 90.7846 32.1992C93.7555 29.9167 97.4421 29.578 100.92 30.7372ZM79.7531 95.0872C81.8408 94.9737 83.4064 96.6817 84.5062 98.2453C85.5383 99.7113 82.8899 101.259 82.1178 99.6437C81.8408 99.0674 81.5261 98.4573 81.1044 97.9527C81.0335 98.0522 80.971 98.1547 80.9087 98.2602L80.8462 98.3667C80.8001 98.4443 80.7519 98.525 80.7119 98.6066C80.7161 98.6215 80.6532 98.8146 80.6511 98.8235C80.479 99.3471 80.1034 99.6835 79.5916 99.8646C78.9305 100.097 78.3052 99.5979 78.0933 99.0127C77.7557 98.0791 78.5402 97.2649 79.3564 96.8947C78.5549 96.7643 77.766 97.037 77.1868 97.6561C77.1073 97.7426 76.9728 97.673 76.9688 97.5655C76.9014 96.0994 78.4311 95.1589 79.7531 95.0872Z" fill="black"/>
<path fill-rule="evenodd" clip-rule="evenodd" d="M125.676 117.124C124.263 116.548 123.002 115.585 122.079 114.356C121.759 113.928 121.676 113.477 121.743 113.064C121.819 112.6 122.093 112.179 122.467 111.898C122.843 111.615 123.312 111.475 123.766 111.546C124.161 111.608 124.554 111.824 124.865 112.272L124.93 112.362C125.478 113.104 126.192 113.712 127.006 114.105C127.79 114.484 128.668 114.66 129.576 114.557C131.305 114.362 132.497 113.427 133.764 112.156C133.921 111.995 134.078 111.83 134.236 111.662C134.335 111.51 134.474 111.411 134.628 111.36C134.798 111.303 134.991 111.307 135.168 111.368C135.339 111.427 135.491 111.54 135.593 111.691C135.69 111.833 135.745 112.009 135.728 112.212C135.611 113.528 134.924 114.704 133.946 115.626C132.86 116.651 131.421 117.36 130.067 117.609C128.575 117.883 127.054 117.686 125.676 117.124ZM130.771 96.812C132.359 97.7775 134.778 100.029 133.069 102.423C131.059 104.534 128.165 102.114 126.737 101.019C125.415 100.171 123.929 102.353 125.156 103.343C135.464 110.978 139.647 97.0648 131.573 95.6774C130.685 95.5241 130.355 96.5135 130.771 96.812ZM112.299 87.9309C112.474 85.7524 115.79 85.2576 116.12 87.4134C116.415 89.3443 116.068 91.1179 115.198 92.8567C114.368 94.5179 112.28 93.7435 112.121 92.2307C111.909 90.2033 112.189 89.2856 112.299 87.9309ZM137.544 86.9664C138.007 86.3606 138.675 85.947 139.474 86.1808C141.973 86.9113 141.237 90.461 140.359 92.1879C139.882 93.1265 138.34 93.3643 137.644 92.5382C136.508 91.1916 135.965 88.5009 137.408 87.1741C137.448 87.1055 137.491 87.0362 137.544 86.9664ZM115.163 78.3984L115.558 78.3292C116.779 78.1179 118.297 77.9149 119.161 78.8972C119.62 79.418 119.777 80.386 119.161 80.8846C118.078 81.7617 116.88 81.4218 115.582 81.4961C114.512 81.5575 113.484 81.7347 112.454 82.0294C110.192 82.6758 108.35 83.8558 106.419 85.1517C106.166 85.3216 105.908 84.9975 106.028 84.7604C107.143 82.5763 109.303 80.7822 111.466 79.6885C112.622 79.1048 113.885 78.6205 115.163 78.3984ZM135.266 77.4199L135.569 77.4819C138.856 78.1694 143.129 79.5429 144.686 82.7739C144.745 83.2307 144.683 83.3286 144.631 83.3926L144.614 83.4139C144.572 83.4686 144.538 83.5438 144.341 83.606C144.285 83.5929 144.231 83.5791 144.174 83.5643C143.46 83.3772 142.896 83.1194 142.35 82.852L141.756 82.5599C141.069 82.2226 140.375 81.8975 139.639 81.6575C138.071 81.1454 136.456 80.7849 134.817 80.5923C134.463 80.5506 134.12 80.4306 133.851 80.225C133.594 80.0299 133.399 79.7598 133.309 79.4007C133.194 78.9361 133.227 78.5842 133.476 78.165C133.664 77.8502 133.931 77.6319 134.24 77.5066C134.553 77.3789 134.911 77.3488 135.266 77.4199Z" fill="black"/>
<path fill-rule="evenodd" clip-rule="evenodd" d="M139.459 121.92C138.725 121.68 138.003 121.4 137.28 121.13C133.577 119.27 129.105 118.933 125.221 120.499C123.315 121.269 121.538 122.65 119.625 123.556C119.171 123.725 118.714 123.879 118.25 124.009C117.966 123.909 117.682 123.805 117.401 123.699C115.372 122.935 113.464 121.991 111.612 120.953C111.414 120.675 111.209 120.404 110.989 120.144C112.329 119.954 113.642 119.637 114.829 119.311C118.475 118.312 121.912 116.684 125.544 115.64C128.928 114.667 132.599 114.134 135.997 115.344C137.61 115.918 139.03 116.923 140.598 117.601C141.409 117.95 142.384 118.293 143.331 118.344C142.72 119.81 141.946 121.179 140.889 122.32C140.405 122.216 139.925 122.071 139.459 121.92ZM147.348 110.436C147.023 110.706 145.683 111.576 145.249 112.096C145.137 112.053 145.025 112.009 144.914 111.965C144.723 111.73 144.441 111.626 144.154 111.633C142.151 110.701 140.366 109.383 138.775 107.732C137.643 106.559 136.485 105.333 134.973 104.653C133.192 103.85 131.44 104.22 129.569 104.343C127.578 104.475 125.612 103.909 123.622 104.18C122.167 104.38 120.805 104.997 119.627 105.865C117.224 107.639 115.566 110.129 113.536 112.277C111.231 114.713 108.396 116.269 105.244 117.065C105.206 117.04 105.167 117.014 105.127 116.991C102.803 114.888 100.705 112.513 98.8485 109.982C97.035 107.511 92.2556 96.3842 91.1011 95.4088C90.6223 95.0027 90.0968 94.8276 89.5942 94.8425C88.6835 94.8634 87.8425 95.4964 87.4662 96.4937C86.8263 98.1897 87.1458 100.381 87.1965 102.155C87.2602 104.326 87.4025 106.494 87.6295 108.654C87.8544 110.79 88.153 112.918 88.5252 115.032C88.7123 116.101 88.9214 117.168 89.1503 118.23C89.2219 118.564 89.3125 118.863 89.421 119.141C89.5325 119.664 89.6529 120.187 89.7813 120.703C90.6183 124.092 91.9381 127.485 94.4592 129.987C97.0838 132.593 100.65 134.324 103.962 135.873C107.116 137.348 110.422 138.658 113.813 139.685C116.759 141.02 119.913 142.076 123.08 142.632C126.567 143.244 130.231 143.282 133.598 142.069C135.252 141.474 136.817 140.643 138.236 139.609C140.249 138.563 142.059 137.127 143.541 135.225C146.197 131.817 147.464 127.681 148.019 123.417C148.16 122.325 148.694 118.141 148.737 117.49C148.872 115.386 149.007 113.283 149.143 111.179C149.207 110.187 147.989 109.903 147.348 110.436Z" fill="black"/>
<circle cx="99" cy="99" r="97.5" stroke="black" stroke-width="3"/>
</g>
</svg>
