<svg width="693" height="880" viewBox="0 0 693 880" fill="none" xmlns="http://www.w3.org/2000/svg">
<g clip-path="url(#clip0_103_560)">
<path d="M349.978 419.985C351.713 420.986 353.966 422.177 356.681 423.473C364.467 427.189 375.894 431.691 389.445 434.976C416.348 441.498 451.274 443.147 482.765 424.792C482.814 424.612 482.87 424.407 482.932 424.176C483.211 423.142 483.614 421.609 484.112 419.623C485.108 415.652 486.481 409.872 487.981 402.661C490.982 388.237 494.492 368.1 496.526 345.26C500.603 299.473 498.706 243.269 475.348 200.334C456.072 164.906 427.367 143.569 397.161 133.647C394.906 138.952 390.68 147.603 384.413 155.165C377.232 163.83 366.996 171.488 353.676 170.322C345.854 169.65 340.652 166.533 337.519 161.948C334.465 157.478 333.615 151.957 333.698 146.853C333.781 141.718 334.813 136.723 335.803 133.053C336.3 131.208 336.793 129.675 337.163 128.599C337.203 128.483 337.241 128.373 337.278 128.268C330.338 129.565 320.952 132.914 312.201 136.769C307.297 138.93 302.667 141.217 298.879 143.326C295.033 145.467 292.231 147.329 290.843 148.621L290.72 148.736L349.978 419.985ZM349.978 419.985C408.683 406.214 441.26 380.698 459.199 358.147C468.409 346.57 473.723 335.822 476.737 327.935C478.245 323.992 479.178 320.763 479.737 318.503C480.016 317.372 480.202 316.483 480.319 315.868C480.355 315.679 480.385 315.516 480.409 315.379C480.424 315.293 480.437 315.218 480.447 315.153C480.461 315.069 480.471 315.004 480.478 314.956L480.487 314.9L480.489 314.882L480.49 314.876C480.491 314.873 480.491 314.871 478.047 314.529L480.491 314.871L480.583 314.211L480.331 313.594C467.655 282.621 443.914 272.057 423.503 269.304C413.341 267.933 403.991 268.489 397.195 269.38C393.792 269.826 391.016 270.359 389.082 270.782C388.115 270.993 387.357 271.178 386.835 271.311C386.574 271.378 386.373 271.432 386.233 271.47C386.213 271.475 386.194 271.48 386.177 271.485C386.134 271.497 386.099 271.507 386.071 271.514L386.026 271.527L386.013 271.531L386.008 271.532C386.007 271.533 386.005 271.533 386.69 273.904L386.005 271.533L384.264 272.036L384.223 273.848C383.284 315.106 358.375 336.873 333.363 348.453C320.834 354.254 308.335 357.459 298.95 359.212C294.263 360.087 290.366 360.598 287.65 360.889C286.822 360.978 286.104 361.046 285.507 361.098C282.628 347.403 281.207 325.899 280.518 307.281C280.158 297.533 280 288.642 279.932 282.188C279.898 278.961 279.887 276.345 279.884 274.536C279.882 273.632 279.883 272.93 279.884 272.454C279.884 272.216 279.885 272.035 279.885 271.914L279.886 271.777L279.886 271.743L279.886 271.735L279.886 271.733C279.886 271.733 279.886 271.732 277.419 271.719L279.886 271.732L279.894 270.438L278.833 269.696C263.366 258.883 253.705 255.5 247.661 255.045C246.047 254.924 244.679 255.011 243.524 255.227C248.635 215.494 260.204 189.053 270.568 172.485C275.943 163.892 281.004 157.939 284.691 154.156C286.535 152.263 288.036 150.913 289.062 150.045C289.575 149.612 289.969 149.299 290.228 149.099C290.357 148.999 290.453 148.928 290.513 148.884C290.543 148.862 290.564 148.847 290.575 148.838L290.582 148.833L290.584 148.831L290.586 148.831L349.978 419.985Z" fill="white" stroke="#00160A" stroke-width="4.935"/>
<path d="M491.899 389.725L649.766 494.189C680.379 514.443 676.442 560.543 642.868 575.312L458.122 656.62C423.18 671.994 382.752 668.039 351.453 646.184L280.504 596.582" stroke="#00160A" stroke-width="4.15527"/>
<path d="M491.899 423.414L486.589 419.893L649.794 527.858C680.408 548.113 676.471 594.212 642.898 608.983L458.151 690.291C423.21 705.664 382.78 701.709 351.481 679.854L261.275 615.608" stroke="#00160A" stroke-width="4.15527"/>
<path d="M629.278 569.547L459.476 644.288C427.363 658.413 390.209 654.775 361.444 634.692L296.376 588.98C305.335 582.114 315.374 576.786 326.081 573.214C352.903 564.103 379.079 553.19 404.429 540.549C443.392 521.274 471.722 485.62 481.694 443.311C485.098 428.85 488.087 414.225 490.535 399.522L639.977 498.308C668.104 516.919 660.124 555.987 629.278 569.547Z" fill="#64FCD9"/>
<path d="M191.738 786.156C191.738 786.156 221.511 773.813 227.218 764.508C227.218 764.508 228.291 785.633 222.72 792.849C217.149 800.065 183.855 819.139 182.066 816.75C180.276 814.36 191.738 786.156 191.738 786.156Z" fill="#1E3227"/>
<path d="M100.091 836.492C100.091 836.492 105.507 843.843 124.727 836.492C143.946 829.141 185.761 802.066 185.761 802.066C185.761 802.066 174.096 833.387 169.868 836.83C165.642 840.273 85.7849 879.39 85.7849 879.39C85.7849 879.39 50.0832 884.468 63.538 859.077L100.091 836.492Z" fill="#1E3227"/>
<path d="M215.02 427.264C171.009 444.394 124.436 484.641 137.832 596.099L141.556 625.059" stroke="#00160A" stroke-width="4.15527"/>
<path d="M214.953 354.478C222.149 344.205 228.649 333.101 232.634 321.146C236.619 309.19 236.823 296.239 237.935 283.664C240.894 249.945 245.48 222.06 258.489 190.652C269.758 163.472 303.795 128.458 337.659 125.14L340.706 124.879" stroke="#00160A" stroke-width="4.15527"/>
<path d="M300.072 424.798C299.907 424.323 299.742 423.879 299.568 423.414" stroke="#00160A" stroke-width="4.15527"/>
<path d="M283.56 361.626C281.897 351.846 280.658 342.367 279.691 333.372C279.694 333.202 279.674 333.033 279.634 332.868C274.564 282.639 279.691 246.095 279.691 246.095" stroke="#00160A" stroke-width="4.15527"/>
<path d="M401.866 56.7639L394.128 59.7822C394.128 60.024 394.128 63.0413 393.799 67.2686C393.439 72.3171 392.636 77.3241 391.4 82.2325C392.087 78.8856 393.083 70.9343 388.711 65.4022C388.643 65.2887 388.566 65.1821 388.479 65.0824C385.577 61.5904 381.998 62.9741 379.125 65.3725C377.141 67.0514 375.408 69.0057 373.979 71.1761C374.48 64.7142 373.322 58.2316 370.613 52.3442C368.847 48.327 366.505 44.5895 363.659 41.2492C368.04 56.3385 362.42 66.2145 362.42 66.2145C347.573 69.7065 337.272 68.9613 329.592 67.6357C323.121 61.6002 325.365 39.866 325.365 39.866C318.855 45.1859 320.423 65.7693 320.423 65.7693C319.591 60.3981 319.692 54.9242 320.723 49.587C317.489 54.1602 315.621 59.5571 315.335 65.1505L315.218 65.0922C314.77 64.9768 314.328 64.8386 313.893 64.6767C313.096 64.2572 312.324 63.7924 311.582 63.2831L307.296 60.3813C313.767 27.369 336.392 6.6116 371.349 12.7053C373.631 13.0987 375.876 13.681 378.061 14.4464C401.092 26.4501 401.866 56.7639 401.866 56.7639Z" fill="white"/>
<path d="M202.378 378.281L193.566 351.76C193.17 350.503 192.153 349.542 190.878 349.215C190.8 349.215 190.713 349.215 190.626 349.157C190.539 349.1 190.519 349.157 190.461 349.157C190.259 349.144 190.055 349.144 189.852 349.157C188.875 349.161 187.935 349.534 187.221 350.202C185.775 351.538 184.951 353.417 184.948 355.387C184.949 356.149 185.069 356.906 185.306 357.63C187.241 363.23 190.684 373.338 192.319 377.943" fill="#64FCD9"/>
<path d="M200.386 378.281L190.887 349.215C190.81 349.215 190.723 349.215 190.636 349.157C190.548 349.1 190.529 349.157 190.471 349.157L185.49 348.19C182.83 347.697 180.17 347.165 177.51 346.672C174.318 346.033 171.106 345.501 167.924 344.737C167.173 344.525 166.401 344.395 165.622 344.35C164.641 344.347 163.699 344.725 162.991 345.404C161.531 346.74 160.706 348.63 160.718 350.608C160.713 351.361 160.834 352.11 161.076 352.824C163.214 359.091 167.285 370.95 168.582 374.547L200.386 378.281Z" fill="#64FCD9"/>
<path d="M388.189 246.086C387.222 256.852 386.719 269.881 386.381 286.256C386.381 321.078 347.884 349.912 313.671 356.508L250.935 370.678C242.646 372.284 235.304 367.109 229.54 363.676C223.61 360.145 217.536 355.937 213.26 352.814C207.108 348.316 195.259 351.933 197.687 362.66C198.748 366.794 201.677 370.197 205.609 371.859C206.701 372.348 207.826 372.762 208.975 373.096C209.855 373.318 210.478 374.102 210.49 375.009C210.504 375.916 209.906 376.719 209.034 376.965C203.597 378.843 193.644 379.955 177.588 374.064C157.014 366.49 155.418 413.441 183.546 421.614H183.652C209.566 429.449 237.451 428.443 264.235 427.321C294.649 426.169 324.913 422.477 354.712 416.285C369.869 413.074 385.442 409.737 399.312 402.879C423.204 391.069 440.421 377.527 456.797 356.451C475.175 332.82 483.019 301.819 487.45 272.753C492.518 239.499 485.515 211.419 467.688 182.798L467.03 181.754" stroke="#00160A" stroke-width="4.15527"/>
<path d="M202.378 378.281L193.566 351.76C193.17 350.503 192.153 349.542 190.878 349.215C190.8 349.215 190.713 349.215 190.626 349.157C190.539 349.1 190.519 349.157 190.461 349.157C190.259 349.144 190.055 349.144 189.852 349.157C188.875 349.161 187.935 349.534 187.221 350.202C185.775 351.538 184.951 353.417 184.948 355.387C184.949 356.149 185.069 356.906 185.306 357.63C187.241 363.23 190.684 373.338 192.319 377.943" stroke="#00160A" stroke-width="4.15527"/>
<path d="M190.888 349.215C190.81 349.215 190.723 349.215 190.636 349.157C190.549 349.1 190.529 349.157 190.471 349.157L185.49 348.19C182.83 347.697 180.17 347.165 177.51 346.672C174.318 346.033 171.107 345.501 167.925 344.737C167.174 344.525 166.402 344.395 165.622 344.35C164.642 344.347 163.699 344.725 162.992 345.404C161.532 346.74 160.706 348.63 160.719 350.608C160.714 351.361 160.834 352.11 161.076 352.824C163.214 359.091 167.286 370.95 168.582 374.547" stroke="#00160A" stroke-width="4.15527"/>
<path d="M312.327 64.2021C312.327 76.7765 314.774 88.8002 320.81 99.9039C325.647 108.822 332.746 117.808 342.902 120.758C345.153 121.408 347.485 121.733 349.828 121.725C367.064 121.649 369.754 101.229 369.754 101.229" stroke="#00160A" stroke-width="4.15527"/>
<path d="M393.219 71.4958V71.5531C392.42 77.7929 391.047 83.9449 389.118 89.931C386.813 97.073 386.268 104.665 387.532 112.063L390.211 127.645C390.46 129.062 391.497 130.211 392.88 130.604C426.889 140.48 457.078 162.273 474.643 193.738C496.552 233.028 500.546 280.346 498.776 324.453C497.219 362.689 491.038 400.703 482.265 437.913C471.407 483.958 440.574 522.76 398.171 543.741C370.612 557.502 342.151 569.378 312.984 579.288C281.717 589.642 256.774 613.527 245.074 644.316L176.534 826.568C174.015 833.296 169.046 838.823 162.624 842.044L96.9469 875.037C88.6532 879.189 79.1928 880.389 70.1252 878.441C65.3136 877.403 61.6281 873.527 60.8336 868.67C60.0391 863.812 62.2973 858.963 66.5266 856.446L100.072 836.492L146.2 601.331C152.77 558.874 177.581 521.415 214.112 498.802C216.518 497.335 219.026 496.042 221.618 494.933L321.613 451.513" stroke="#00160A" stroke-width="4.15527"/>
<path d="M365.73 10.4325C360.384 9.15834 354.85 8.87636 349.402 9.60062C349.179 9.60555 348.956 9.6249 348.735 9.65865" stroke="#00160A" stroke-width="4.15527"/>
<path d="M341.509 125.449C341.509 125.449 323.818 166.006 355.457 168.009C383.846 169.827 394.264 131.253 394.264 131.253" stroke="#00160A" stroke-width="4.15527"/>
<path fill-rule="evenodd" clip-rule="evenodd" d="M390.994 83.7119C391.197 82.9677 394.244 71.9696 388.421 65.0438C382.599 58.118 374.706 69.9966 373.912 71.1859C375.46 54.1335 363.611 41.201 363.611 41.201C367.983 56.3 362.353 66.166 362.353 66.166C340.716 71.2343 328.809 67.3751 320.364 65.711C319.534 60.3427 319.639 54.8718 320.674 49.5387C317.432 54.1 315.562 59.4939 315.286 65.0823H315.151C311.936 64.2286 308.889 62.8389 306.137 60.9715L301.851 58.0697C308.332 25.0671 330.947 4.29033 365.903 10.3841C400.86 16.4778 401.837 56.677 401.837 56.677L394.051 59.7051C394.051 59.7051 394.118 72.9754 390.994 83.7119Z" stroke="#00160A" stroke-width="4.15527"/>
<path d="M325.887 81.9907V98.0374C325.89 98.4332 326.082 98.8043 326.403 99.0372C326.722 99.2701 327.135 99.3373 327.513 99.2168C328.774 98.7993 329.935 98.1203 330.917 97.2251" stroke="#00160A" stroke-width="4.15527"/>
<path d="M316.292 94.1728C321.353 92.1993 323.232 84.8943 320.488 77.8567C317.745 70.819 311.417 66.7137 306.355 68.6872C301.293 70.6607 299.414 77.9656 302.158 85.0033C304.902 92.0409 311.23 96.1463 316.292 94.1728Z" stroke="#00160A" stroke-width="4.15527"/>
<path d="M346.751 98.7616C351.813 96.7882 353.692 89.4832 350.948 82.4455C348.204 75.4079 341.877 71.3026 336.815 73.276C331.753 75.2495 329.874 82.5545 332.618 89.5922C335.362 96.6298 341.69 100.735 346.751 98.7616Z" stroke="#00160A" stroke-width="4.15527"/>
<path d="M321.632 82.8218C321.632 82.8218 324.63 79.3979 330.917 83.412" stroke="#00160A" stroke-width="4.15527"/>
<path d="M340.087 119.742C340.087 119.742 342.264 127.113 348.667 151.005" stroke="#00160A" stroke-width="4.15527"/>
<path d="M179.774 817.959L217.497 797.598C221.886 795.218 224.816 790.822 225.322 785.856C231.59 724.29 229.675 685.367 229.675 685.367" stroke="#00160A" stroke-width="4.15527"/>
<path d="M145.533 502.227L0.35614 400.77" stroke="#00160A" stroke-width="4.15527"/>
<path d="M137.311 530.18L0.35614 434.46" stroke="#00160A" stroke-width="4.15527"/>
<path d="M692.644 337.338V420.397C692.644 428.178 688.055 435.227 680.94 438.378L577.927 483.994L546.433 531.854C544.769 534.289 541.722 535.368 538.897 534.521C536.072 533.675 534.12 531.098 534.07 528.149V503.426L523.509 508.098C518.736 510.184 513.234 509.731 508.868 506.89C504.502 504.05 501.858 499.204 501.832 493.995V424.633C501.835 406.953 512.335 390.961 528.557 383.931L670.125 322.558C675.105 320.397 680.837 320.888 685.376 323.867C689.914 326.846 692.646 331.909 692.644 337.338Z" fill="#D7E8F0"/>
<path d="M566.278 445.898C571.352 436.109 569.979 425.33 563.211 421.822C556.443 418.314 546.843 423.405 541.769 433.194C536.695 442.983 538.068 453.763 544.836 457.271C551.604 460.779 561.204 455.687 566.278 445.898Z" fill="white"/>
<path d="M610.273 427.067C615.347 417.278 613.974 406.499 607.206 402.991C600.438 399.483 590.838 404.574 585.764 414.363C580.69 424.152 582.063 434.932 588.831 438.44C595.599 441.948 605.198 436.856 610.273 427.067Z" fill="white"/>
<path d="M652.788 406.733C657.862 396.944 656.489 386.165 649.721 382.657C642.953 379.148 633.353 384.24 628.279 394.029C623.205 403.818 624.578 414.598 631.346 418.106C638.114 421.614 647.713 416.522 652.788 406.733Z" fill="white"/>
<path d="M570.597 303.769L573.012 304.414L578.429 284.146C578.66 283.283 578.413 282.362 577.781 281.731C577.148 281.1 576.227 280.854 575.365 281.086L555.113 286.533H555.114L534.852 291.976C533.989 292.207 533.316 292.882 533.085 293.745C532.855 294.608 533.102 295.528 533.734 296.159L548.577 310.977L548.576 310.976L563.416 325.802C564.048 326.433 564.969 326.68 565.831 326.448C566.694 326.216 567.368 325.542 567.598 324.679L573.012 304.414L570.597 303.769L568.182 303.124L563.886 319.204L552.11 307.439L552.109 307.438L540.332 295.681L556.411 291.362H556.412L572.48 287.04L568.182 303.124L570.597 303.769Z" fill="#64FCD9"/>
<path d="M576.327 189.413H573.827C573.826 193.126 572.33 196.463 569.898 198.898C567.463 201.329 564.126 202.825 560.414 202.827C556.702 202.825 553.365 201.329 550.929 198.898C548.498 196.463 547.001 193.125 547 189.413C547.001 185.701 548.498 182.364 550.929 179.929C553.365 177.498 556.702 176.002 560.414 176C564.126 176.002 567.463 177.498 569.898 179.929C572.33 182.364 573.826 185.701 573.827 189.413H576.327H578.827C578.825 179.243 570.584 171.002 560.414 171C550.244 171.002 542.002 179.243 542 189.413C542.002 199.585 550.244 207.825 560.414 207.827C570.584 207.825 578.825 199.584 578.827 189.413H576.327Z" fill="#00160A"/>
<path d="M157.748 299.377C158.064 299.758 158.186 300.045 158.265 300.374C158.329 300.661 158.345 301.002 158.291 301.439C158.204 302.2 157.873 303.225 157.416 304.39C156.746 306.149 155.794 308.2 155.454 310.62C155.288 311.829 155.299 313.148 155.647 314.491C155.991 315.833 156.676 317.167 157.706 318.388C158.593 319.446 160.17 319.584 161.228 318.696C162.285 317.809 162.424 316.232 161.536 315.174C161.013 314.55 160.728 314.001 160.556 313.474C160.408 313.012 160.345 312.554 160.351 312.05C160.358 311.173 160.6 310.143 160.999 309.005C161.583 307.289 162.517 305.413 163.034 303.269C163.285 302.195 163.425 301.018 163.236 299.768C163.052 298.523 162.494 297.242 161.579 296.163C160.691 295.105 159.115 294.967 158.057 295.855C156.999 296.742 156.861 298.319 157.748 299.377Z" fill="#64FCD9"/>
<path d="M139.061 277.106C139.376 277.488 139.499 277.774 139.578 278.103C139.642 278.391 139.657 278.731 139.604 279.169C139.517 279.93 139.186 280.955 138.729 282.12C138.059 283.879 137.106 285.929 136.767 288.35C136.601 289.559 136.611 290.878 136.959 292.22C137.304 293.562 137.988 294.896 139.018 296.117C139.905 297.174 141.482 297.313 142.54 296.425C143.597 295.538 143.735 293.96 142.848 292.903C142.326 292.279 142.04 291.73 141.868 291.203C141.721 290.741 141.658 290.284 141.663 289.78C141.67 288.902 141.913 287.873 142.312 286.735C142.896 285.018 143.829 283.142 144.347 280.999C144.598 279.924 144.738 278.747 144.549 277.498C144.365 276.252 143.807 274.971 142.891 273.892C142.004 272.835 140.427 272.696 139.369 273.584C138.312 274.471 138.174 276.049 139.061 277.106Z" fill="#64FCD9"/>
<path d="M161.579 296.163C160.791 295.216 159.809 294.503 158.776 294.079C157.873 293.702 156.952 293.536 156.077 293.49C154.541 293.414 153.123 293.666 151.782 293.927C149.779 294.335 147.924 294.758 146.476 294.688C145.75 294.657 145.139 294.528 144.572 294.271C144.005 294.009 143.452 293.617 142.848 292.903C141.961 291.845 140.383 291.708 139.326 292.595C138.268 293.483 138.13 295.059 139.018 296.117C139.91 297.183 140.929 298.01 142.013 298.582C142.96 299.084 143.947 299.389 144.907 299.546C146.591 299.82 148.178 299.67 149.626 299.439C151.79 299.079 153.723 298.551 155.113 298.488C155.807 298.448 156.332 298.51 156.711 298.64C157.094 298.779 157.378 298.946 157.749 299.377C158.636 300.434 160.213 300.572 161.271 299.685C162.329 298.797 162.466 297.22 161.579 296.163Z" fill="#64FCD9"/>
<path d="M142.891 273.892C142.103 272.945 141.122 272.233 140.089 271.808C139.186 271.432 138.264 271.267 137.389 271.22C135.854 271.144 134.436 271.397 133.095 271.658C131.092 272.066 129.237 272.488 127.789 272.417C127.063 272.387 126.452 272.258 125.885 272.001C125.318 271.74 124.764 271.347 124.161 270.633C123.274 269.575 121.696 269.437 120.639 270.324C119.581 271.212 119.444 272.789 120.331 273.846C121.223 274.913 122.242 275.74 123.326 276.312C124.274 276.814 125.261 277.119 126.22 277.276C127.904 277.55 129.492 277.401 130.939 277.169C133.104 276.809 135.037 276.282 136.426 276.217C137.12 276.178 137.645 276.24 138.025 276.371C138.407 276.508 138.69 276.675 139.061 277.106C139.948 278.164 141.526 278.301 142.583 277.414C143.641 276.526 143.779 274.95 142.891 273.892Z" fill="#64FCD9"/>
<path d="M475.025 755.535C475.34 755.917 475.462 756.203 475.541 756.532C475.605 756.82 475.621 757.161 475.567 757.598C475.48 758.359 475.149 759.383 474.692 760.549C474.023 762.308 473.07 764.359 472.73 766.779C472.564 767.988 472.575 769.307 472.923 770.649C473.268 771.992 473.952 773.326 474.982 774.547C475.869 775.605 477.446 775.742 478.504 774.855C479.561 773.968 479.7 772.391 478.812 771.333C478.29 770.709 478.004 770.16 477.832 769.633C477.685 769.171 477.622 768.713 477.627 768.209C477.634 767.332 477.877 766.302 478.275 765.164C478.86 763.447 479.793 761.571 480.31 759.428C480.562 758.354 480.701 757.176 480.512 755.927C480.328 754.681 479.77 753.4 478.855 752.321C477.967 751.264 476.391 751.126 475.333 752.013C474.276 752.9 474.137 754.477 475.025 755.535Z" fill="#64FCD9"/>
<path d="M456.337 733.264C456.653 733.647 456.775 733.933 456.854 734.261C456.918 734.55 456.933 734.89 456.88 735.328C456.793 736.089 456.462 737.113 456.005 738.279C455.335 740.038 454.382 742.088 454.043 744.509C453.877 745.718 453.888 747.037 454.235 748.378C454.58 749.721 455.264 751.055 456.294 752.276C457.181 753.333 458.758 753.471 459.816 752.584C460.873 751.697 461.011 750.119 460.124 749.062C459.602 748.438 459.316 747.889 459.144 747.362C458.997 746.9 458.934 746.443 458.94 745.939C458.946 745.061 459.189 744.032 459.588 742.893C460.172 741.177 461.105 739.3 461.623 737.157C461.874 736.083 462.014 734.906 461.825 733.656C461.641 732.41 461.083 731.13 460.167 730.05C459.28 728.993 457.703 728.855 456.645 729.742C455.588 730.629 455.45 732.207 456.337 733.264Z" fill="#64FCD9"/>
<path d="M478.855 752.322C478.067 751.375 477.085 750.662 476.053 750.237C475.149 749.861 474.228 749.695 473.353 749.649C471.817 749.572 470.399 749.825 469.058 750.086C467.055 750.494 465.2 750.917 463.752 750.846C463.026 750.816 462.415 750.687 461.848 750.43C461.281 750.168 460.728 749.776 460.124 749.062C459.237 748.004 457.659 747.867 456.602 748.754C455.544 749.641 455.406 751.218 456.294 752.276C457.186 753.342 458.205 754.168 459.289 754.74C460.237 755.243 461.224 755.548 462.183 755.705C463.867 755.979 465.454 755.829 466.903 755.598C469.066 755.238 470.999 754.71 472.39 754.646C473.083 754.606 473.608 754.668 473.987 754.799C474.37 754.937 474.654 755.105 475.025 755.536C475.912 756.593 477.49 756.731 478.547 755.844C479.605 754.956 479.742 753.379 478.855 752.322Z" fill="#64FCD9"/>
<path d="M460.167 730.05C459.379 729.103 458.398 728.392 457.365 727.967C456.462 727.59 455.54 727.425 454.666 727.379C453.131 727.303 451.712 727.555 450.371 727.816C448.368 728.225 446.513 728.646 445.065 728.576C444.339 728.546 443.728 728.417 443.161 728.159C442.595 727.898 442.041 727.506 441.437 726.791C440.55 725.734 438.972 725.596 437.915 726.483C436.857 727.371 436.72 728.948 437.607 730.005C438.5 731.072 439.518 731.899 440.602 732.471C441.55 732.973 442.537 733.278 443.496 733.435C445.18 733.709 446.768 733.559 448.215 733.328C450.38 732.968 452.313 732.44 453.702 732.376C454.397 732.337 454.921 732.399 455.301 732.529C455.683 732.667 455.966 732.834 456.337 733.264C457.225 734.322 458.802 734.46 459.859 733.572C460.917 732.685 461.055 731.108 460.167 730.05Z" fill="#64FCD9"/>
<path d="M501.025 38.5354C501.34 38.9171 501.462 39.2032 501.541 39.5324C501.605 39.8198 501.621 40.1612 501.567 40.598C501.48 41.3591 501.149 42.3835 500.692 43.5488C500.023 45.308 499.07 47.359 498.73 49.7788C498.564 50.9881 498.575 52.3071 498.923 53.6493C499.268 54.9918 499.952 56.3258 500.982 57.5466C501.869 58.6046 503.446 58.7425 504.504 57.8548C505.561 56.9677 505.7 55.3906 504.812 54.3327C504.29 53.7085 504.004 53.1597 503.832 52.6329C503.685 52.1706 503.622 51.713 503.627 51.2088C503.634 50.3321 503.877 49.3021 504.275 48.1636C504.86 46.4473 505.793 44.5714 506.31 42.4275C506.562 41.3536 506.701 40.1762 506.512 38.9267C506.328 37.6813 505.77 36.4002 504.855 35.3214C503.967 34.2635 502.391 34.1256 501.333 35.0133C500.276 35.9003 500.137 37.4774 501.025 38.5354Z" fill="#64FCD9"/>
<path d="M482.337 16.2644C482.653 16.6469 482.775 16.933 482.854 17.2614C482.918 17.5495 482.933 17.8902 482.88 18.3277C482.793 19.0888 482.462 20.1132 482.005 21.2785C481.335 23.0377 480.382 25.088 480.043 27.5086C479.877 28.7178 479.888 30.0368 480.235 31.3782C480.58 32.7208 481.264 34.0548 482.294 35.2756C483.181 36.3328 484.758 36.4715 485.816 35.5838C486.873 34.6967 487.011 33.1189 486.124 32.0617C485.602 31.4375 485.316 30.8887 485.144 30.3619C484.997 29.8997 484.934 29.4428 484.94 28.9385C484.946 28.0611 485.189 27.0318 485.588 25.8934C486.172 24.1771 487.105 22.3004 487.623 20.1573C487.874 19.0826 488.014 17.906 487.825 16.6565C487.641 15.4103 487.083 14.13 486.167 13.0504C485.28 11.9933 483.703 11.8546 482.645 12.7423C481.588 13.6293 481.45 15.2072 482.337 16.2644Z" fill="#64FCD9"/>
<path d="M504.855 35.3217C504.067 34.3747 503.085 33.662 502.053 33.2374C501.149 32.8609 500.228 32.6952 499.353 32.6491C497.817 32.5723 496.399 32.8251 495.058 33.0861C493.055 33.4937 491.2 33.917 489.752 33.8463C489.026 33.8162 488.415 33.6867 487.848 33.4299C487.281 33.168 486.728 32.7761 486.124 32.0618C485.237 31.0039 483.659 30.8666 482.602 31.7536C481.544 32.6413 481.406 34.2178 482.294 35.2757C483.186 36.3418 484.205 37.1684 485.289 37.7402C486.237 38.2427 487.224 38.5476 488.183 38.7047C489.867 38.9791 491.454 38.829 492.903 38.598C495.066 38.2379 496.999 37.71 498.39 37.6464C499.083 37.6062 499.608 37.6685 499.987 37.7989C500.37 37.9375 500.654 38.105 501.025 38.5356C501.912 39.5928 503.49 39.7308 504.547 38.8438C505.605 37.9561 505.742 36.3788 504.855 35.3217Z" fill="#64FCD9"/>
<path d="M486.167 13.0504C485.379 12.1034 484.398 11.3915 483.365 10.9669C482.462 10.5904 481.54 10.4253 480.666 10.3786C479.131 10.3025 477.712 10.5554 476.371 10.8164C474.368 11.2246 472.513 11.6465 471.065 11.5758C470.339 11.5456 469.728 11.417 469.161 11.1594C468.595 10.8983 468.041 10.5056 467.437 9.79125C466.55 8.73411 464.972 8.59606 463.915 9.48311C462.857 10.3708 462.72 11.948 463.607 13.0052C464.5 14.072 465.518 14.8987 466.602 15.4705C467.55 15.9729 468.537 16.2779 469.496 16.4349C471.18 16.7086 472.768 16.5593 474.215 16.3275C476.38 15.9682 478.313 15.4402 479.702 15.3759C480.397 15.3365 480.921 15.3987 481.301 15.5292C481.683 15.667 481.966 15.8337 482.337 16.2644C483.225 17.3223 484.802 17.4595 485.859 16.5725C486.917 15.6848 487.055 14.1083 486.167 13.0504Z" fill="#64FCD9"/>
<path d="M108.413 385.682C104.697 385.68 101.358 384.189 98.924 381.77C96.494 379.346 95.001 376.028 95 372.34C95.001 368.652 96.494 365.334 98.924 362.911C101.358 360.492 104.697 359.001 108.413 359C109.793 359 110.913 357.881 110.913 356.5C110.913 355.119 109.793 354 108.413 354C103.339 353.999 98.722 356.054 95.397 359.368C92.067 362.677 89.998 367.28 90 372.34C89.998 377.4 92.067 382.003 95.396 385.313C98.722 388.627 103.339 390.683 108.413 390.682C109.793 390.682 110.913 389.562 110.913 388.182C110.913 386.801 109.793 385.682 108.413 385.682Z" fill="#00160A"/>
<path d="M651.72 654.937L632.496 646.712C631.226 646.169 629.757 646.757 629.214 648.026C628.671 649.297 629.26 650.766 630.529 651.308L649.754 659.534C651.023 660.077 652.493 659.489 653.035 658.22C653.579 656.95 652.99 655.48 651.72 654.937Z" fill="#64FCD9"/>
<path d="M639.309 663.722L647.537 644.497C648.08 643.227 647.492 641.758 646.223 641.215C644.953 640.672 643.484 641.261 642.94 642.53L634.713 661.756C634.17 663.025 634.758 664.494 636.027 665.037C637.297 665.58 638.766 664.991 639.309 663.722Z" fill="#64FCD9"/>
<path d="M591.65 686.208L603.918 652.502C604.39 651.204 603.72 649.77 602.423 649.298C601.126 648.826 599.691 649.494 599.219 650.792L586.951 684.498C586.479 685.796 587.148 687.23 588.445 687.702C589.742 688.174 591.177 687.506 591.65 686.208Z" fill="#00160A"/>
<path d="M322.327 703.412H319.827C319.826 707.124 318.33 710.462 315.898 712.897C313.463 715.328 310.126 716.825 306.414 716.826C302.703 716.825 299.365 715.328 296.929 712.897C294.498 710.461 293.002 707.124 293 703.412C293.002 699.7 294.498 696.363 296.929 693.928C299.365 691.497 302.703 690.001 306.414 690C310.126 690.001 313.464 691.497 315.899 693.928C318.33 696.363 319.826 699.7 319.827 703.412H322.327H324.827C324.826 693.241 316.584 685.001 306.414 685C301.338 684.998 296.719 687.064 293.394 690.392C290.065 693.716 287.999 698.335 288 703.412C288.002 713.583 296.245 721.824 306.414 721.826C316.584 721.824 324.826 713.583 324.827 703.412H322.327Z" fill="#00160A"/>
<path d="M63.5 544.5V547H92.654V573.655H66V544.5H63.5V547V544.5H61V576.155C61 576.813 61.267 577.457 61.733 577.922C62.198 578.388 62.842 578.655 63.5 578.655H95.154C95.812 578.655 96.456 578.388 96.921 577.922C97.387 577.457 97.654 576.813 97.654 576.155V544.5C97.654 543.842 97.387 543.198 96.921 542.732C96.456 542.267 95.812 542 95.154 542H63.5C62.842 542 62.198 542.267 61.733 542.732C61.267 543.198 61 543.842 61 544.5H63.5Z" fill="#64FCD9"/>
<path d="M205.105 67.071L203.775 64.954C203.143 65.35 202.46 65.532 201.773 65.533C201.146 65.534 200.523 65.376 199.972 65.079C199.421 64.78 198.944 64.348 198.582 63.772L198.58 63.77C198.184 63.138 198.001 62.455 198 61.768C198 61.143 198.157 60.52 198.454 59.97C198.753 59.419 199.185 58.941 199.761 58.578C200.39 58.184 201.071 58.002 201.758 58C202.385 58 203.01 58.157 203.561 58.455C204.113 58.755 204.59 59.186 204.952 59.761L204.954 59.763C205.349 60.393 205.531 61.074 205.532 61.761C205.533 62.387 205.375 63.012 205.077 63.563C204.778 64.115 204.347 64.593 203.773 64.955L203.775 64.954L205.105 67.071L206.437 69.186C207.754 68.358 208.786 67.222 209.478 65.938C210.171 64.652 210.532 63.217 210.532 61.761C210.534 60.168 210.094 58.541 209.185 57.099L209.186 57.101C208.358 55.782 207.222 54.749 205.936 54.056C204.651 53.362 203.215 53.001 201.758 53C200.165 52.999 198.54 53.438 197.098 54.346C195.781 55.173 194.748 56.308 194.056 57.593C193.362 58.878 193 60.313 193 61.768C192.999 63.363 193.439 64.99 194.349 66.434L194.347 66.431C195.175 67.75 196.31 68.784 197.595 69.477C198.881 70.172 200.316 70.533 201.773 70.533C203.366 70.535 204.992 70.095 206.435 69.188L206.437 69.186L205.105 67.071Z" fill="#00160A"/>
<path d="M186.371 146.346L188.637 147.4L197.491 128.381C197.869 127.571 197.785 126.621 197.272 125.89C196.759 125.159 195.894 124.757 195.005 124.835L174.115 126.683L174.116 126.683L153.217 128.525C152.327 128.603 151.547 129.15 151.169 129.96C150.793 130.77 150.876 131.719 151.389 132.45L163.434 149.621L163.433 149.619L175.473 166.797C175.986 167.528 176.85 167.931 177.739 167.853C178.629 167.774 179.41 167.227 179.786 166.417L188.637 147.4L186.371 146.346L184.104 145.291L177.081 160.381L167.527 146.75L167.526 146.749L157.97 133.125L174.555 131.664L174.556 131.664L191.13 130.198L184.104 145.291L186.371 146.346Z" fill="#00160A"/>
</g>
<defs>
<clipPath id="clip0_103_560">
<rect width="692.288" height="879.804" fill="white" transform="translate(0.35614)"/>
</clipPath>
</defs>
</svg>
