<svg width="830" height="774" viewBox="0 0 830 774" fill="none" xmlns="http://www.w3.org/2000/svg">
<g clip-path="url(#clip0_228_186)">
<path fill-rule="evenodd" clip-rule="evenodd" d="M458.53 687.973C638.376 687.973 663.87 607.963 691.14 593.26C718.409 578.558 701.455 549.051 719.34 526.797C747.907 491.248 765.221 509.568 774.676 463.452C784.131 417.336 766.942 404.29 766.942 363.117C766.942 280.627 806.458 241.579 755.995 198.418C705.532 155.258 621.262 160.35 537.917 160.35C383.22 160.35 290.545 -51.7146 84.2154 11.9067C13.1108 33.8334 20.9694 63.7115 36.5932 169.305C43.3779 215.157 -7.84855 273.456 1.0394 325.564C17.2723 420.733 60.1442 407.823 141.033 472.078C154.604 482.858 174.396 482.746 189.19 493.803C213.994 512.338 215.588 541.16 261.957 560.6C336.725 591.946 330.383 687.973 458.53 687.973Z" fill="#64FCD9"/>
<path d="M114.715 485.071C139.827 485.071 160.185 465.928 160.185 442.314C160.185 418.699 139.827 399.556 114.715 399.556C89.6026 399.556 69.2452 418.699 69.2452 442.314C69.2452 465.928 89.6026 485.071 114.715 485.071Z" fill="white"/>
<path fill-rule="evenodd" clip-rule="evenodd" d="M96.8823 289.864C89.1312 270.506 95.9029 258.908 100.243 243.766C103.868 231.119 132.22 210.574 145.268 231.996C149.107 238.299 147.566 244.255 155.956 249.794C176.266 263.202 165.186 235.386 165.941 228.354C166.31 224.924 163.412 217.012 164.49 213.702C165.623 210.228 171.657 205.294 171.657 198.093C171.657 190.894 159.383 188.12 155.956 186.351C125.507 170.631 106.143 144.372 115.793 131.047C129.239 112.479 181.931 141.692 197.765 144.372C197.969 144.407 200.796 129.646 203.107 126.266C207.727 119.504 212.834 112.939 218.927 107.465C221.655 105.013 225.354 103.499 228.991 103.008C239.872 101.54 251.003 100.336 261.902 101.666C265.753 102.136 288.689 75.5915 297.632 67.0293C366.244 1.33635 503.786 81.3905 428.813 190.171C415.033 210.164 397.413 216.522 395.136 223.589C390.081 239.285 421.904 237.22 435.383 238.897C458.411 241.762 469.761 253.591 455.466 273.866C446.56 286.497 394.316 285.853 371.431 276.719C362.937 273.329 352.44 258.506 344.412 270.666C338.881 279.044 317.313 296.818 294.179 306.872C283.737 311.411 271.842 308.676 262.931 312.729C250.389 318.434 213.359 342.388 197.765 342.381C182.058 342.376 161.733 323.474 159.383 322.234C155.798 320.345 128.074 314.928 114.377 293.793C110.236 287.402 99.7203 296.951 96.8823 289.864Z" fill="white"/>
<path d="M363.558 182.388C366.219 182.388 368.375 180.263 368.375 177.64C368.375 175.018 366.219 172.893 363.558 172.893C360.898 172.893 358.742 175.018 358.742 177.64C358.742 180.263 360.898 182.388 363.558 182.388Z" fill="#FFB61D"/>
<path d="M328.293 172.407C330.876 172.407 332.969 170.313 332.969 167.73C332.969 165.147 330.876 163.053 328.293 163.053C325.71 163.053 323.616 165.147 323.616 167.73C323.616 170.313 325.71 172.407 328.293 172.407Z" fill="#FFB61D"/>
<path d="M669.017 227.19C704.069 227.19 732.485 198.774 732.485 163.721C732.485 128.669 704.069 100.253 669.017 100.253C633.964 100.253 605.549 128.669 605.549 163.721C605.549 198.774 633.964 227.19 669.017 227.19Z" fill="white"/>
<path d="M470.562 681.411C572.417 681.411 654.987 610.838 654.987 523.781C654.987 436.725 572.417 366.152 470.562 366.152C368.707 366.152 286.137 436.725 286.137 523.781C286.137 610.838 368.707 681.411 470.562 681.411Z" fill="white"/>
<path fill-rule="evenodd" clip-rule="evenodd" d="M314.212 609.729L316.282 611.229C311.609 615.42 304.582 610.208 300.642 605.323C294.306 597.466 287.876 589.118 285.948 579.211C284.851 573.574 285.289 567.766 285.733 562.04L287.521 538.954C288.312 528.723 289.107 518.474 290.877 508.367C295.67 481.014 307.736 454.968 325.5 433.624L325.678 433.411C328.815 429.643 332.241 425.529 332.181 420.644C332.053 410.31 338.004 400.652 345.819 393.887C353.633 387.122 363.202 382.78 372.623 378.531C376.891 376.606 382.464 374.881 385.772 378.195C392.576 385.01 403.931 380.669 412.918 377.207C423.952 372.957 435.738 370.667 447.561 370.476C447.904 370.47 448.252 370.466 448.6 370.461C455.7 370.359 463.689 370.246 468.019 364.746C470.777 361.244 476.049 361.447 480.475 361.976L510.912 365.617C513.238 365.895 516.025 366.53 516.759 368.755C518.724 374.721 525.66 377.154 531.673 378.967C553.052 385.413 573.948 394.165 592.097 407.171C610.247 420.177 625.586 437.674 633.726 458.467C620.492 440.377 606.916 421.949 588.549 409.103C583.293 405.427 577.703 402.252 572.028 399.262C558.636 392.202 544.698 386.117 530.218 381.697C463 361.18 385.246 380.208 335.099 429.448C327.829 436.587 321.012 444.45 316.887 453.769L322.335 455.459C313.702 459.318 307.288 467.772 305.901 477.126C309.375 471.176 314.327 466.095 320.188 462.468C318.511 468.071 314.148 472.574 309.872 476.987C304.422 482.611 299.112 488.091 299.675 495.524C302.263 488.734 308.781 483.607 315.991 482.694C304.556 493.866 292.284 506.979 292.649 522.962C296.821 513.732 303.902 505.845 312.631 500.708L300.065 517.595C295.313 523.982 290.308 531.279 291.394 539.165C295.528 531.745 301.44 525.323 308.492 520.591C305.097 528.314 300.248 535.395 294.275 541.355C299.954 540.669 305.423 538.316 309.827 534.665C307.98 537.242 306.317 540.149 306.255 543.32C306.192 546.49 308.246 549.89 311.384 550.347C312.334 548.223 315.312 547.326 317.276 548.573C311.322 554.365 311.261 565.098 317.148 570.959C317.672 568.205 319.995 565.883 322.749 565.362C318.358 573.039 317.569 582.681 320.653 590.971C321.585 586.274 324.192 581.928 327.895 578.892C325.759 590.033 321.04 600.67 314.212 609.729ZM311.611 606.18C315.328 606.142 317.641 601.984 318.028 598.286C318.492 593.862 317.394 589.441 316.303 585.129L309.836 559.552C308.619 559.937 308.477 561.261 308.33 562.648C308.203 563.832 308.072 565.061 307.263 565.792C305.626 563.756 305.44 560.674 306.82 558.456C308.214 556.217 307.301 553.082 305.325 551.337C303.348 549.592 300.598 548.999 297.962 548.912C296.537 548.865 295.022 548.975 293.857 549.795C292.69 550.616 292.077 552.359 292.906 553.519C295.371 556.972 297.224 560.86 298.357 564.949C298.441 565.255 298.523 565.563 298.606 565.875C299.168 567.998 299.748 570.18 301.301 571.694C302.501 572.863 302.807 574.648 303.051 576.306L305.027 589.747C305.387 592.193 305.746 594.688 305.335 597.127C304.923 599.564 303.606 601.981 301.394 603.089L308.456 605.49C309.479 605.838 310.528 606.191 311.611 606.18ZM388.58 385.888C387.189 386.182 386.022 384.96 385.025 383.916L384.912 383.796C383.89 382.728 382.135 381.798 381.06 382.81C368.526 394.601 354.264 404.551 338.871 412.242C336.077 413.637 335.702 417.401 335.701 420.525C335.699 421.567 336.699 423.031 337.349 422.216C340.523 418.24 344.65 415.152 348.73 412.111C360.209 403.552 371.824 394.915 384.983 389.273C386.579 388.587 388.449 387.62 388.58 385.888ZM514.546 372.627C513.835 370.961 511.816 370.359 510.035 370.024C505.185 369.11 500.248 368.696 495.314 368.283C488.54 367.714 481.775 367.147 475.256 365.287C473.167 364.691 471.382 366.806 470.237 368.653C473.672 368.295 477.129 368.147 480.583 368.211C486.593 368.322 492.573 369.07 498.537 369.818C501.569 370.198 504.621 370.582 507.528 371.523C507.866 371.633 508.207 371.749 508.551 371.867C510.536 372.548 512.587 373.253 514.546 372.627ZM450.38 398.247C451.754 398.561 453.062 399.587 453.268 400.98C453.472 402.371 452.522 403.726 451.308 404.434C450.094 405.143 448.659 405.342 447.266 405.526L443.071 406.081C442.65 406.137 442.218 406.197 441.853 406.413C440.799 407.037 440.871 408.729 441.733 409.6C442.596 410.47 443.917 410.686 445.142 410.684C450.848 410.673 456.25 406.567 457.992 401.134C458.407 399.845 458.626 398.41 458.113 397.155C457.852 396.519 457.418 395.967 456.936 395.478C454.691 393.204 451.348 392.202 448.161 392.426C444.974 392.652 441.942 394.01 439.349 395.875C438.106 396.77 436.922 397.816 436.215 399.175C435.51 400.534 435.358 402.26 436.149 403.571C436.449 404.072 436.916 404.515 437.492 404.609C438.067 404.703 438.733 404.332 438.805 403.752C439.004 402.14 440.18 400.779 441.582 399.96C442.983 399.14 444.599 398.781 446.191 398.462C447.573 398.185 449.007 397.933 450.38 398.247ZM337.936 477.947C339.503 468.674 346.994 461.135 355.726 457.641C360.537 455.715 366.044 454.872 370.883 456.727C372.078 457.184 373.234 457.816 374.094 458.762C374.903 459.652 375.412 460.773 375.795 461.911C378.254 469.204 375.759 477.637 370.477 483.233C365.195 488.83 357.504 491.765 349.829 492.316C347.369 492.492 344.729 492.393 342.698 490.996C340.667 489.598 339.66 486.493 341.223 484.587C341.962 484.622 342.361 485.282 342.769 485.957C342.971 486.292 343.175 486.63 343.425 486.899C344.277 487.817 345.687 487.882 346.938 487.83C352.381 487.6 357.906 486.252 362.336 483.082C366.765 479.912 369.949 474.734 369.856 469.287C369.825 467.532 369.444 465.737 368.45 464.291C366.817 461.917 363.732 460.845 360.857 461.035C357.983 461.224 355.287 462.499 352.84 464.018C349.618 466.017 346.641 468.531 344.622 471.739C342.603 474.948 341.616 478.914 342.47 482.609C341.715 483.969 339.473 483.698 338.545 482.447C337.618 481.196 337.677 479.482 337.936 477.947ZM388.06 554.377C384.078 556.94 380.776 560.95 380.162 565.644C379.665 569.442 380.938 573.225 382.193 576.845C383.172 579.671 384.184 582.556 386.049 584.893C389.417 589.114 394.995 590.86 400.326 591.716C401.778 591.95 403.98 591.294 403.463 589.918C397.834 589.815 392.298 587.206 388.634 582.931C384.972 578.657 383.242 572.786 384.002 567.207C384.161 566.034 384.429 564.866 384.921 563.789C385.919 561.61 387.778 559.934 389.79 558.634C394.122 555.835 399.396 554.524 404.535 554.968C409.488 555.395 414.437 557.567 417.462 561.514C420.486 565.461 421.208 571.284 418.538 575.481C418.105 576.162 417.788 577.369 418.583 577.51C422.879 575.196 425.264 570.092 425.024 565.217C424.783 560.343 422.208 555.781 418.673 552.418C416.717 550.558 414.4 548.987 411.776 548.355C408.316 547.521 404.696 548.382 401.256 549.286C396.675 550.492 392.042 551.816 388.06 554.377ZM583.621 560.431C569.221 555.056 553.574 553.052 538.286 554.626C531.875 555.286 525.442 556.594 519.68 559.479C508.804 564.921 501.029 576.125 499.736 588.217C498.442 600.308 503.671 612.904 513.148 620.524C516.743 623.413 520.822 625.576 524.907 627.744C527.695 629.223 530.487 630.703 533.127 632.416C533.882 633.138 532.183 633.857 531.191 633.536C521.955 630.555 512.987 626.021 506.399 618.894C498.385 610.225 494.475 597.914 496.021 586.209C497.567 574.504 504.538 563.63 514.529 557.338C522.431 552.362 531.879 550.266 541.211 549.929C550.544 549.592 559.849 550.926 569.077 552.355C574.841 553.248 581.599 554.961 583.621 560.431ZM432.111 578.474C431.457 576.976 428.829 576.584 428.348 578.148C425.294 588.087 415.594 595.603 405.207 596.079C402.859 596.187 400.509 595.968 398.169 595.742C393.131 595.255 387.934 594.679 383.522 592.197C377.177 588.63 373.358 581.305 373.314 574.025C373.268 566.746 376.721 559.672 381.964 554.622C381.236 552.584 378.112 553.569 376.561 555.076C367.961 563.434 366.486 577.86 372.52 588.222C378.553 598.586 391.197 604.394 403.116 603.077C415.034 601.759 425.795 593.779 431.336 583.145C432.091 581.695 432.765 579.971 432.111 578.474ZM357.475 628.807C355.533 636.252 355.349 644.151 356.94 651.679C357.655 655.055 357.733 656.915 357.747 657.264C357.749 657.304 357.75 657.324 357.751 657.324C357.751 657.324 357.753 657.304 357.754 657.264C357.77 656.915 357.854 655.047 358.585 651.665C360.214 644.124 359.826 636.156 357.475 628.807ZM367.79 633.31C365.031 639.092 365.373 646.246 368.671 651.739C369.411 652.972 369.973 653.975 370.388 654.716C370.945 655.711 371.236 656.23 371.338 656.195C371.447 656.157 371.33 655.46 371.085 654.001C370.988 653.416 370.869 652.707 370.735 651.87L367.79 633.31ZM375.556 640.694C374.385 644.384 375.247 648.653 377.758 651.601C380.321 654.613 381.158 655.577 380.377 651.701C379.58 647.745 377.924 643.962 375.556 640.694ZM600.31 598.705C596.789 612.843 585.539 623.555 574.632 633.214C575.131 634.288 576.742 633.903 577.774 633.322C588.823 627.105 597.761 616.97 601.841 604.967C605.919 592.964 604.905 579.172 598.467 568.252C597.926 567.335 597.238 566.36 596.193 566.155C595.149 565.951 593.945 567.162 594.56 568.031C600.748 576.795 602.903 588.293 600.31 598.705ZM441.475 471.053C441.448 468.817 441.479 466.395 442.83 464.613C444.689 462.158 448.217 461.901 451.297 461.858C452.67 461.838 454.061 461.82 455.399 462.138C458.246 462.816 460.514 464.918 462.534 467.034C462.982 467.503 463.459 468.08 463.348 468.719C463.21 469.511 462.219 469.875 461.43 469.713C460.907 469.605 460.438 469.344 459.967 469.084H459.966C459.729 468.953 459.492 468.821 459.247 468.708C456.416 467.41 453.089 468.834 450.546 470.632C450.146 470.916 449.715 471.279 449.704 471.768C449.695 472.26 450.116 472.641 450.513 472.932C453.949 475.449 458.349 476.614 462.581 476.129C463.594 476.013 464.782 475.642 465.045 474.657C465.146 474.273 465.108 473.821 465.069 473.384C465.005 472.653 464.943 471.965 465.558 471.711C465.879 471.578 466.242 471.673 466.573 471.771C468.865 472.436 471.543 473.508 471.986 475.852C472.114 476.529 472.024 477.234 471.807 477.889C471.176 479.805 469.418 481.302 467.426 481.618C466.541 481.759 465.639 481.683 464.747 481.606C462.415 481.406 460.082 481.206 457.772 480.833C453.53 480.15 449.382 478.886 445.481 477.089C444.127 476.465 442.72 475.696 442.033 474.374C441.512 473.368 441.487 472.186 441.475 471.053ZM528.59 415.901C527.228 412.218 523.934 409.31 520.108 408.413C518.925 408.137 517.588 408.069 516.585 408.754C515.58 409.441 515.235 411.113 516.192 411.862C517.121 412.589 516.56 414.299 515.426 414.621C514.292 414.945 513.072 414.175 512.506 413.141C511.94 412.108 511.879 410.879 511.872 409.7C511.864 408.128 512.007 406.372 513.17 405.312C513.612 404.907 514.164 404.647 514.712 404.402C516.975 403.39 519.479 402.532 521.899 403.075C524.204 403.594 526.042 405.296 527.65 407.028C528.969 408.447 530.215 409.934 531.384 411.479C532.415 412.84 533.405 414.293 533.792 415.956C534.178 417.62 533.846 419.549 532.56 420.674C531.303 421.774 529.368 421.869 527.842 421.189C526.493 420.587 525.342 419.266 525.442 417.793C525.543 416.32 527.352 415.098 528.59 415.901ZM540.756 519.495C544.138 519.397 547.289 516.793 548.018 513.49C548.463 511.482 547.916 509.093 546.165 508.013C544.886 507.223 543.278 507.281 541.778 507.377C539.702 507.511 537.547 507.693 535.743 508.728C533.939 509.765 532.598 511.913 533.163 513.916C534.082 517.171 537.376 519.591 540.756 519.495ZM541.191 514.615C540.537 514.792 539.606 514.623 539.546 513.948C539.522 513.668 539.673 513.403 539.845 513.18C540.806 511.936 542.636 511.452 544.086 512.06C543.582 513.295 542.479 514.269 541.191 514.615ZM542.938 464.581C542.386 463.31 543.454 461.828 544.75 461.342C545.788 460.952 546.916 460.992 548.036 461.033C548.315 461.043 548.592 461.053 548.867 461.056C550.253 461.073 551.782 460.842 552.682 459.788C552.998 459.417 553.213 458.87 552.972 458.445C552.719 458.002 552.123 457.925 551.614 457.899C548.084 457.716 543.915 457.824 541.88 460.714C541.443 461.337 540.372 461.126 539.963 460.486C539.554 459.845 539.647 459.005 539.881 458.282C540.714 455.691 543.107 453.807 545.72 453.052C548.335 452.297 551.141 452.535 553.795 453.137C554.69 453.338 555.619 453.606 556.272 454.25C556.79 454.76 557.08 455.46 557.27 456.163C558.173 459.522 556.839 463.372 554.049 465.451C551.259 467.531 547.189 467.71 544.226 465.884C543.699 465.558 543.184 465.15 542.938 464.581ZM530.838 523.959C532.477 525.923 534.419 527.71 536.773 528.709C541.534 530.731 547.62 528.864 550.428 524.52C551.451 522.94 551.908 520.526 550.395 519.404C547.973 524.495 540.947 526.742 536.021 524.003C535.076 523.478 534.218 522.807 533.438 522.06C529.895 518.668 528.045 513.127 530.124 508.683C530.802 507.234 531.843 505.984 532.981 504.86C535.464 502.409 539.015 500.404 542.329 501.493C542.467 501.538 542.604 501.589 542.742 501.64C543.206 501.809 543.672 501.982 544.16 501.954C544.792 501.916 545.453 501.351 545.29 500.738C545.242 500.557 545.13 500.4 545.013 500.253C542.965 497.643 538.946 496.837 536.049 498.456C532.603 500.381 529.101 502.648 527.268 506.145C524.284 511.836 526.72 519.026 530.838 523.959ZM585.732 436.171C585.581 436.389 585.62 436.691 585.656 436.981C585.699 437.324 585.739 437.649 585.457 437.788C584.425 438.297 583.191 438.245 582.091 437.908C579.09 436.986 577.076 434.231 575.378 431.591C574.385 430.046 573.396 428.407 573.236 426.576C573.076 424.747 574.011 422.688 575.773 422.171C577.738 421.595 579.663 423.055 581.193 424.417C582.918 425.952 584.68 427.535 585.748 429.582C586.816 431.631 587.052 434.276 585.732 436.171ZM579.206 429.318C579.63 429.729 579.861 430.283 580.093 430.836C580.32 431.381 580.55 431.926 580.962 432.336C581.483 432.856 582.275 433.09 582.995 432.935C581.646 430.846 580.083 428.896 578.336 427.125C577.87 427.266 577.831 427.958 578.112 428.356C578.283 428.598 578.521 428.775 578.76 428.955C578.913 429.069 579.068 429.186 579.206 429.318ZM322.247 618.031C322.08 620.771 322.289 623.948 324.483 625.599C325.214 625.192 325.165 624.147 325.073 623.314C324.506 618.19 326.096 613.252 327.697 608.281C328.842 604.723 329.992 601.147 330.361 597.475C330.469 596.41 330.185 594.953 329.115 594.911C328.313 594.88 327.796 595.726 327.472 596.46C324.477 603.266 322.697 610.607 322.247 618.031ZM535.055 519.17C537.529 520.265 540.274 521.382 542.865 520.595C543.895 520.282 544.812 519.687 545.714 519.099C545.71 520.613 544.408 521.885 542.957 522.317C541.506 522.75 539.945 522.519 538.466 522.198C536.823 521.843 534.813 520.834 535.055 519.17ZM339.255 645.527C339.885 644.402 339.994 643.067 340.087 641.78L340.834 631.533C341.2 626.502 341.568 621.454 341.239 616.422C341.198 615.788 341.133 615.12 340.763 614.602C340.393 614.085 339.61 613.809 339.102 614.192C338.73 614.475 338.636 614.986 338.571 615.45C337.76 621.269 337.327 627.14 337.275 633.015C337.236 637.275 337.431 641.676 339.255 645.527ZM328.052 636.719C327.396 637.273 326.303 636.786 325.941 636.007C325.58 635.226 325.726 634.316 325.881 633.472C327.503 624.626 329.343 615.822 331.398 607.068C331.449 606.849 331.505 606.621 331.647 606.446C332.188 605.777 333.282 606.45 333.666 607.22C334.608 609.108 334.156 611.362 333.686 613.419L328.619 635.513C328.519 635.954 328.398 636.427 328.052 636.719ZM345.599 637.112C345.316 640.429 345.814 643.758 346.31 647.05C346.486 648.222 347.331 649.78 348.389 649.247L350.453 627.174C350.537 626.277 350.593 625.281 350.038 624.572C349.48 623.862 348.071 623.891 347.893 624.775L346.371 632.344C346.053 633.923 345.735 635.507 345.599 637.112ZM558.74 569.464C552.863 566.439 545.712 565.246 539.607 567.78C535.048 569.674 522.162 577.851 520.446 588.332C519.299 595.348 519.311 602.518 521.767 609.292L522.162 610.355C522.893 612.273 525.223 614.478 526.526 612.892C522.722 606.015 522.011 597.501 524.622 590.089C527.233 582.677 533.124 576.488 540.397 573.514C541.928 572.887 543.526 572.395 545.172 572.239C548.502 571.924 551.825 573.003 554.802 574.528C561.209 577.811 569.149 583.27 572.198 589.792C575.139 596.08 577.303 603.579 574.643 609.99C571.983 616.401 554.502 621.039 554.502 621.039L556.436 624.569C556.436 624.569 566.221 622.638 572.198 618.286C597.286 600.013 564.361 572.358 558.74 569.464Z" fill="#00160A"/>
<path fill-rule="evenodd" clip-rule="evenodd" d="M115.241 479.241C106.368 480.193 96.9705 478.14 90.0424 472.515C85.136 468.532 81.6887 462.99 79.2689 457.15C76.6419 450.812 75.1321 444.012 74.8288 437.156C74.7139 434.576 74.7753 431.948 75.5343 429.477C76.7822 425.414 79.7886 422.152 82.8565 419.208C89.385 412.949 97.0587 407.235 106.007 405.919C112.105 405.022 118.308 406.245 124.277 407.78C128.965 408.987 133.647 410.41 137.863 412.787C147.181 418.041 153.638 428.061 154.572 438.715C155.506 449.371 154.356 456.432 139.977 469.67C132.505 474.549 124.115 478.289 115.241 479.241ZM130.889 445.793C129.45 446.246 128.015 447.049 126.529 446.787C123.495 446.254 122.951 442.089 123.624 439.083C125.554 430.474 131.555 422.871 139.479 418.995C137.685 415.741 132.92 415.502 129.549 417.065C126.179 418.63 123.544 421.448 120.285 423.232C118.663 424.119 116.74 424.748 114.977 424.195C112.072 423.286 110.964 419.482 111.914 416.592C112.866 413.702 115.237 411.546 117.515 409.528C109.262 409.818 101.094 412.295 94.0696 416.64C88.57 420.041 83.3535 425.618 84.0844 432.042C88.6301 428.383 93.9681 425.712 99.6228 424.267C100.823 423.96 102.329 423.806 103.079 424.791C103.647 425.537 103.484 426.61 103.12 427.473C101.312 431.76 95.9964 433.198 92.7001 436.48C92.2672 436.911 91.8516 437.408 91.7474 438.011C91.5416 439.19 92.6653 440.265 93.8465 440.463C95.0277 440.659 96.2129 440.229 97.3326 439.807C99.6589 438.929 101.985 438.053 104.311 437.175C105.996 436.539 107.995 435.932 109.493 436.93C111.042 437.964 111.187 440.313 110.312 441.955C109.437 443.599 107.83 444.701 106.282 445.738C102.554 448.237 98.8264 450.735 95.0985 453.234C91.9772 455.327 88.4804 458.147 88.7771 461.893C89.0563 465.419 92.9352 467.814 96.4641 467.589C99.9942 467.361 103.101 465.204 105.706 462.812C108.311 460.419 110.662 457.686 113.687 455.854C115.662 454.658 118.479 453.994 120.082 455.654C121.321 456.937 121.202 458.998 120.737 460.721C119.397 465.682 115.773 469.976 111.107 472.133C114.903 473.009 118.862 473.174 122.717 472.618C124.917 472.3 127.192 471.691 128.782 470.139C130.372 468.588 130.988 465.857 129.609 464.116C127.551 461.518 127.633 457.717 128.948 454.675C130.263 451.633 132.61 449.176 134.91 446.791C134.251 445.434 132.328 445.341 130.889 445.793ZM148.461 451.689C150.528 446.913 150.603 441.509 150.079 436.33C149.501 430.602 147.505 424.052 142.108 422.045C134.2 425.327 128.098 432.649 126.295 441.019C126.144 441.722 126.026 442.478 126.302 443.142C126.579 443.806 127.4 444.291 128.038 443.957C130.224 442.812 132.914 442.161 135.136 443.236C137.358 444.308 138.44 447.658 136.64 449.347C134.652 451.214 132.61 453.155 131.537 455.662C130.464 458.169 130.619 461.414 132.64 463.246C134.156 464.624 134.16 467.327 132.646 468.708C136.95 467.451 140.018 463.75 142.808 460.241C144.942 457.559 147.1 454.836 148.461 451.689ZM98.9146 426.982C94.4384 428.84 90.0919 431.014 85.9217 433.481C84.9289 434.068 83.9268 434.689 83.2012 435.585C82.2218 436.795 81.849 438.373 81.547 439.9C80.569 444.832 80.0652 450.144 82.1363 454.725C82.7977 456.187 83.701 457.525 84.6002 458.854C84.8661 459.247 85.1667 459.666 85.6224 459.799C86.0767 459.931 86.6779 459.564 86.5711 459.103C86.2424 457.68 87.3193 456.342 88.3816 455.341C94.6081 449.481 102.995 446.116 108.595 439.655C107.745 438.648 106.134 439.121 104.923 439.639C102.039 440.869 99.0643 441.891 96.0325 442.69C94.4678 443.103 92.7241 443.439 91.2971 442.678C89.2073 441.564 88.8679 438.516 89.9716 436.422C91.0753 434.327 93.1731 432.975 95.196 431.744C97.219 430.515 99.3422 429.231 100.557 427.199C100.335 426.62 99.4878 426.746 98.9146 426.982ZM114.238 466.242C116.215 464.652 118.353 462.777 118.57 460.248C118.682 458.926 117.835 457.308 116.513 457.435C116.107 457.474 115.736 457.674 115.386 457.884C109.632 461.321 105.847 468.042 99.3556 469.713C101.19 470.534 103.102 471.179 105.058 471.639C105.641 471.776 106.248 471.896 106.833 471.775C107.516 471.633 108.086 471.184 108.629 470.749C110.498 469.245 112.367 467.744 114.238 466.242ZM119.588 411.297C118.308 412.712 117.028 414.128 115.748 415.545C114.734 416.666 113.645 418.146 114.21 419.549C114.625 420.582 115.853 421.104 116.964 421.019C118.075 420.932 119.087 420.364 120.018 419.752C123.337 417.576 126.325 414.609 130.198 413.738C127.513 412.76 124.827 411.781 122.141 410.803C121.583 410.598 120.959 410.395 120.408 410.622C120.078 410.759 119.827 411.031 119.588 411.297Z" fill="#00160A"/>
<path fill-rule="evenodd" clip-rule="evenodd" d="M169.565 242.152C169.229 248.861 164.053 256.127 157.382 255.333C154.37 251.851 152.014 247.529 149.685 243.257C145.212 235.053 140.841 227.036 132.132 225.514C123.578 224.019 115.611 230.311 110.284 237.168C102.569 247.099 97.5825 259.13 96.0111 271.607C95.0865 278.944 98.0955 289.116 105.444 288.309C113.84 287.387 119.81 293.99 125.883 300.707C131.503 306.923 137.209 313.237 145.009 313.768C154.294 314.403 161.878 319.966 169.555 325.596C174.684 329.357 179.853 333.148 185.599 335.523C196.406 339.988 208.87 339.125 219.901 335.246C230.934 331.368 240.752 324.689 250.044 317.59L250.532 317.217C255.604 313.338 260.914 309.277 267.22 308.422C299.473 304.053 329.471 285.135 347.313 257.915C372.608 278.135 407.974 285.046 439.02 275.836C444.287 274.272 449.589 272.177 453.495 268.313C457.402 264.449 459.617 258.449 457.697 253.301C455.597 247.671 449.322 244.656 443.357 243.932C440.088 243.534 436.793 243.651 433.495 243.769H433.494C430.776 243.866 428.055 243.963 425.347 243.772C408.948 242.612 395.293 231.301 382.875 220.526C400.867 215.008 415.454 201.146 425.086 184.98C434.718 168.812 439.879 150.396 443.801 131.99C445.865 122.304 447.398 111.393 441.865 103.181C439.388 99.505 435.756 96.8166 432.137 94.1389C428.062 91.1231 424.003 88.1194 421.628 83.7301C417.059 75.2855 408.152 70.2789 399.703 65.7172C377.595 53.7811 352.201 41.4964 328.374 49.468C319.093 52.5732 311.076 58.5232 303.26 64.4117C290.279 74.1898 276.373 85.6609 273.901 101.724C252.663 92.2215 225.184 99.8109 211.832 118.866C208.777 123.225 206.434 128.031 204.091 132.833C201.334 138.486 198.58 144.132 194.675 149.033C178.991 141.887 163.012 135.392 146.792 129.57C139.601 126.989 131.01 124.707 124.812 129.176C119.843 132.76 118.319 139.792 119.778 145.742C121.235 151.693 125.13 156.737 129.306 161.22C138.365 170.945 149.248 178.966 161.219 184.741C161.605 184.928 161.994 185.114 162.384 185.299C166.132 187.084 169.986 188.92 172.482 192.198C175.237 195.816 175.408 201.872 171.545 204.273C165.84 207.819 164.788 215.777 165.958 222.393C166.358 224.654 166.945 226.893 167.53 229.128C168.659 233.438 169.785 237.735 169.565 242.152ZM324.478 277.529C310.099 292.626 289.867 301.458 269.179 304.041C248.491 306.622 227.366 303.266 207.604 296.624C212.921 296.621 216.764 289.661 213.936 285.16C203.045 297.856 186.441 303.803 170.619 309.232C156.325 314.138 139.239 310.575 128.739 299.706C118.24 288.837 115.399 271.003 122.783 257.816C125.992 252.085 131.436 247.096 137.98 246.533C144.525 245.971 151.573 251.398 150.965 257.939C147.324 257.306 143.491 260.399 143.341 264.092C157.431 262.576 170.676 254.501 178.481 242.675C181.175 238.591 183.223 234.146 185.271 229.695C186.648 226.707 188.024 223.717 189.598 220.835C193.516 213.66 199.14 206.82 206.935 204.353C213.191 202.376 219.953 203.473 226.419 204.588L255.143 209.54C257.293 207.684 253.81 204.71 251.031 204.13C242.054 202.254 232.95 201.098 223.847 199.941C215.406 198.869 206.963 197.798 198.62 196.152C181.278 192.73 163.847 186.471 151.226 174.098C159.788 169.172 166.302 160.802 168.974 151.294C169.515 149.37 168.227 146.21 166.664 147.455C164.88 153.628 162.945 160.067 158.473 164.681C154.001 169.296 146.151 171.323 141.09 167.364C134.518 162.225 127.61 156.618 125.011 148.692C122.413 140.765 126.524 130.119 134.808 129.147C138.528 128.711 142.163 130.248 145.593 131.751L180.19 146.916C190.487 151.43 200.938 155.989 212.06 157.627C219.87 158.776 227.814 158.454 235.7 158.128L258.061 157.206C258.975 157.169 259.913 157.126 260.755 156.767C263.001 155.809 263.762 153.064 264.258 150.674C270.259 121.719 278.32 91.1632 300.13 71.1955C309.89 62.2605 322.047 55.9698 334.978 53.1638C347.723 50.3979 361.787 51.2103 372.759 58.26C354.352 59.6149 336.477 67.378 322.921 79.9046C317.225 73.8237 306.624 78.7943 302.081 85.7771C295.039 96.6028 295.166 111.641 302.392 122.347C308.475 131.357 310.73 142.108 312.991 152.884C315.069 162.787 317.15 172.713 322.211 181.327C330.217 194.954 345.126 203.701 360.696 206.413C376.268 209.125 392.41 206.292 407.209 200.743C390.645 217.263 364.186 222.978 342.283 214.765C340.686 214.166 339.097 213.498 337.508 212.828L337.507 212.827C332.474 210.708 327.423 208.581 322.025 208.645C325.188 211.993 329.227 214.508 333.628 215.867C328.553 224.392 323.229 232.767 317.664 240.98C316.951 242.031 316.14 243.15 314.922 243.506C313.564 243.901 312.148 243.225 310.909 242.541C300.678 236.886 291.507 229.318 284.012 220.347L269.017 238.586C276.712 247.993 285.708 256.332 295.669 263.293C282.411 279.671 262.326 290.339 241.332 292.152C263.063 293.258 285.062 283.066 298.269 265.772C306.629 270.466 315.412 274.406 324.478 277.529ZM393.201 117.149C398.002 111.913 399.782 104.434 399.372 97.3417C398.962 90.2493 396.577 83.4281 393.936 76.8314C400.814 76.0164 407.802 78.6112 413.281 82.8496C418.761 87.0866 422.876 92.8522 426.252 98.901C430.344 106.233 433.482 114.16 434.842 122.446C438.047 141.955 431.205 161.845 421.463 179.05C419.571 182.39 417.536 185.708 414.774 188.374C411.993 191.06 408.573 192.99 405.068 194.619C390.601 201.34 373.962 203.28 358.338 200.065C368.311 191.762 375.355 180.322 379.841 168.144C384.327 155.966 386.38 143.023 387.563 130.099L387.569 130.027C387.867 126.768 388.18 123.342 390.037 120.651C390.653 119.76 391.414 118.988 392.175 118.215C392.521 117.864 392.869 117.511 393.201 117.149ZM375.152 170.978C370.849 181.045 364.181 190.289 355.142 196.466C354.084 197.19 352.946 197.887 351.673 198.037C350.549 198.168 349.423 197.858 348.343 197.517C340.659 195.092 333.397 190.792 328.468 184.417C326.679 182.105 325.218 179.552 323.915 176.935C314.426 157.868 313.496 134.733 321.425 114.966C321.804 114.022 322.345 112.962 323.344 112.764C324.634 112.507 325.624 113.829 326.35 114.926C332.272 123.901 343.347 128.445 354.09 128.915C364.833 129.386 375.401 126.333 385.588 122.889C383.732 127.43 383.259 132.375 382.79 137.275V137.281L382.789 137.288C382.731 137.9 382.672 138.512 382.611 139.122C381.519 150.016 379.456 160.911 375.152 170.978ZM372.965 77.4568C378.462 76.2061 384.876 75.8627 389.077 79.6227C390.433 80.8373 391.44 82.3953 392.27 84.0161C397.473 94.183 395.435 107.573 387.444 115.733C378.206 125.165 363.584 126.719 350.429 125.6C345.708 125.198 340.854 124.471 336.824 121.981C331.611 118.758 328.523 113.079 325.667 107.654C338.343 93.4909 354.43 81.6697 372.965 77.4568ZM417.425 248.443C415.7 252.797 413.959 257.211 413.394 261.861C412.83 266.511 413.565 271.5 416.392 275.234C392.925 276.532 369.078 269.297 350.29 255.176C356.348 246.602 361.133 237.129 364.438 227.164C365.744 223.229 370.727 221.587 374.773 222.498C378.498 223.338 381.625 225.727 384.675 228.057L385.049 228.343C385.187 228.447 385.325 228.553 385.462 228.657C395.452 236.241 406.459 242.355 417.425 248.443ZM253.443 307.911C249.742 312.078 245.319 315.536 240.8 318.799C231.369 325.608 221.085 331.797 209.622 333.776C192.824 336.674 174.674 329.43 164.49 315.758L201.132 302.09C202.008 301.763 202.917 301.43 203.852 301.484C204.38 301.513 204.888 301.665 205.397 301.816C205.736 301.918 206.076 302.018 206.422 302.085C207.598 302.307 208.784 302.112 209.976 301.915C210.718 301.794 211.462 301.671 212.206 301.648C214.949 301.566 217.469 302.82 219.964 304.06C220.596 304.374 221.228 304.688 221.861 304.979C231.577 309.447 242.779 308.724 253.443 307.911ZM200.537 151.14C200.279 150.561 200.552 149.897 200.825 149.327C208.328 133.611 218.255 119.055 230.146 106.331C238.51 117.945 244.076 131.558 246.245 145.706C246.679 148.533 246.21 152.444 243.371 152.797C229.765 154.494 215.919 154.263 202.376 152.115C201.66 152.002 200.834 151.801 200.537 151.14ZM251.786 150.17C248.984 134.767 243.168 119.919 234.763 106.711C241.877 102.966 250.288 102.904 258.328 102.93C263.406 102.946 268.948 103.123 272.818 106.412L262.78 136.028C261.077 141.056 259.35 146.226 259.565 151.53L253.221 151.632C252.994 151.636 252.762 151.637 252.553 151.55C252.045 151.338 251.885 150.711 251.786 150.17ZM333.425 225.963C335.11 223.096 336.716 220.033 336.887 216.711C344.478 220.125 352.838 221.817 361.159 221.623C362.465 221.592 362.419 223.606 361.883 224.798C360.263 228.404 358.641 232.015 356.765 235.495C354.841 239.068 352.657 242.493 350.473 245.913L345.242 254.114C344.526 255.236 343.787 256.384 342.723 257.184C339.867 259.331 335.791 258.298 332.532 256.834C327.128 254.406 322.152 251.024 317.905 246.89C323.803 240.493 329.016 233.464 333.425 225.963ZM137.12 233.047C139.634 235.584 141.279 238.834 142.881 242.027L135.336 243.102C132.821 243.46 130.244 243.84 128.022 245.069C125.86 246.265 124.192 248.184 122.725 250.171C116.588 258.484 113.186 268.783 113.165 279.117C113.158 282.849 108.746 285.512 105.136 284.566C101.526 283.62 99.0723 280.034 98.4483 276.354C97.8243 272.674 98.7035 268.912 99.8058 265.345C103.685 252.797 110.625 240.946 120.891 232.753C122.854 231.189 125.021 229.723 127.498 229.328C131.026 228.764 134.605 230.511 137.12 233.047ZM453.984 254.053C454.856 255.174 455.503 256.54 455.464 257.962C455.414 259.796 454.25 261.406 452.996 262.749C445.713 270.555 434.519 273.213 423.916 274.465C423.217 274.548 422.485 274.622 421.829 274.366C421.29 274.155 420.858 273.741 420.474 273.308C417.915 270.431 416.902 266.41 417.11 262.566C417.317 258.722 418.643 255.02 420.295 251.543C420.644 250.811 421.046 250.041 421.755 249.648C422.322 249.335 422.997 249.31 423.643 249.294L436.475 248.957C439.635 248.874 442.828 248.794 445.921 249.446C449.013 250.097 452.042 251.56 453.984 254.053ZM310.977 132.81C305.748 123.123 301.837 112.726 299.383 101.994L301.494 96.3516C304.108 91.2928 307.403 86.5855 311.261 82.3979C312.833 80.693 315.556 80.5033 317.725 81.325C319.894 82.1467 321.639 83.7809 323.322 85.3763L330.898 92.5542C331.123 92.768 331.358 92.9978 331.434 93.2984C331.574 93.865 331.107 94.3847 330.683 94.7869C327.136 98.1594 323.984 101.964 321.456 106.155C317.635 112.491 315.302 119.593 313.002 126.624L310.977 132.81ZM330.338 78.4001C345.763 70.1386 362.635 62.3647 380.035 64.2246C389.13 65.196 397.831 68.8144 405.409 73.9413C383.704 68.3614 359.51 73.5084 341.955 87.438C339.241 89.5919 335.17 91.9302 332.754 89.4476C332.134 88.8102 331.729 87.9177 331.334 87.0465C330.701 85.6542 330.094 84.3194 328.676 84.1884C327.324 84.0642 326.721 82.2283 327.296 80.9976C327.869 79.7657 329.141 79.0415 330.338 78.4001ZM287.964 229.503C291.01 232.429 294.362 235.01 297.706 237.586L311.22 247.995C307.06 251.663 302.987 255.432 299.011 259.299C289.542 253.687 281.091 246.365 274.188 237.794C277.967 233.857 281.595 229.777 285.06 225.562C285.605 227.118 286.777 228.361 287.964 229.503ZM201.076 201.351C193.959 206.909 186.602 212.76 182.689 220.898C181.924 222.488 181.292 224.162 180.662 225.832C179.32 229.384 177.984 232.923 175.385 235.626C174.232 235.288 173.779 233.929 173.498 232.762L170.79 221.499C170.425 219.98 170.058 218.418 170.265 216.869C170.472 215.327 171.232 213.923 171.978 212.557L179.923 198.04C180.101 197.716 180.284 197.384 180.568 197.148C181.271 196.565 182.311 196.75 183.198 196.968L201.076 201.351ZM316.672 251.223C321.524 256.213 327.555 260.049 334.131 262.327C335.361 261.17 337.737 261.807 338.222 263.425C335.96 266.361 333.476 269.127 330.797 271.69C329.602 272.835 327.686 272.593 326.072 272.223C318.191 270.414 310.601 267.348 303.672 263.178C303.21 262.899 302.688 262.502 302.734 261.962C302.765 261.6 303.05 261.318 303.318 261.072L313.044 252.115C314.064 251.175 315.705 250.229 316.672 251.223ZM440.847 126.091C440.757 127.188 440.602 128.413 439.744 129.104C439.738 120.482 437.598 111.87 433.573 104.244C432.843 102.863 432.051 101.511 431.17 100.218C431.056 100.051 430.942 99.8858 430.827 99.7188C429.938 98.436 429.03 97.1239 428.813 95.5926L439.235 106.48C440.193 107.482 441.179 108.527 441.634 109.838C442.071 111.102 441.966 112.479 441.857 113.813L440.847 126.091ZM428.872 112.255L426.512 109.28C423.916 106.007 420.731 102.434 416.552 102.429C414.127 102.426 411.898 103.668 409.794 104.874L406.527 106.748C405.634 107.26 404.718 107.792 404.089 108.607C402.273 110.955 403.597 114.386 405.312 116.807C406.5 118.483 407.923 120.091 409.811 120.898C412.254 121.942 415.064 121.48 417.625 120.774C421.131 119.807 424.52 118.412 427.691 116.629C428.705 116.059 429.825 115.224 429.774 114.063C429.743 113.378 429.298 112.792 428.872 112.255ZM408.253 114.552C407.847 113.905 407.428 113.214 407.421 112.45C407.409 110.957 408.899 109.955 410.21 109.24L414.867 106.7C415.572 106.315 416.304 105.923 417.106 105.869C417.906 105.814 418.796 106.201 419.064 106.955C419.859 109.187 421.817 110.965 424.112 111.544C424.855 111.732 425.094 112.761 424.743 113.443C424.392 114.124 423.673 114.522 422.986 114.863C420.531 116.08 417.965 117.074 415.328 117.827C414.272 118.127 413.153 118.392 412.084 118.137C410.336 117.721 409.21 116.072 408.253 114.552ZM375.118 137.548C370.497 138.086 369.618 146.415 371.764 150.858C372.205 151.772 372.896 152.714 373.903 152.841C375.624 153.06 376.575 150.936 376.956 149.243L376.966 149.203C377.468 146.971 379.709 137.013 375.118 137.548ZM351.291 148.474C352.214 146.32 352.523 143.905 352.17 141.588C352.006 140.511 351.681 139.416 350.962 138.599C350.242 137.781 349.053 137.305 348.028 137.674C347.101 138.008 346.517 138.915 346.079 139.799C344.527 142.915 343.91 146.487 344.324 149.943C344.517 151.55 346.542 152.429 348.079 151.92C349.617 151.413 350.654 149.963 351.291 148.474ZM364.911 143.543C365.627 142.949 366.531 144.028 366.823 144.913C367.779 147.821 368.572 150.783 369.193 153.78C369.587 155.674 369.912 157.642 369.492 159.53C368.902 162.193 366.877 164.359 364.53 165.746C362.181 167.133 359.508 167.852 356.874 168.554C356.177 168.74 355.302 168.872 354.852 168.309C354.471 167.832 354.659 167.083 355.094 166.652C355.52 166.231 356.113 166.036 356.684 165.849L356.717 165.837C360.826 164.487 365.215 162.051 366.172 157.834C366.698 155.516 366.058 153.187 365.416 150.847C364.83 148.716 364.243 146.578 364.532 144.432C364.577 144.105 364.655 143.754 364.911 143.543ZM336.22 134.058C335.138 132.559 336.005 130.282 337.574 129.306C339.143 128.328 341.125 128.341 342.959 128.577C345.146 128.861 347.299 129.417 349.35 130.23C349.786 130.404 350.257 130.624 350.449 131.053C350.805 131.847 349.884 132.716 349.014 132.714C348.314 132.714 347.679 132.378 347.051 132.043C346.899 131.963 346.748 131.883 346.596 131.807C343.172 130.109 338.632 131.093 336.22 134.058ZM375.68 133.541C377.308 133.271 379.033 133.647 380.4 134.569C380.971 134.955 381.789 134.307 381.793 133.617C381.796 132.928 381.281 132.348 380.74 131.922C379.572 131.003 378.12 130.453 376.637 130.371C375.68 130.316 374.622 130.502 374.005 131.235C373.389 131.969 373.574 133.346 374.499 133.601C374.828 133.694 375.174 133.631 375.514 133.571C375.569 133.561 375.625 133.551 375.68 133.541ZM355.488 175.815C355.945 175.556 356.55 176.008 356.618 176.529C356.686 177.05 356.388 177.549 356.049 177.95C354.343 179.964 351.403 180.584 348.807 180.111C346.211 179.639 343.883 178.244 341.693 176.772C340.664 176.08 339.649 175.363 338.651 174.627C337.617 173.863 336.514 172.928 336.39 171.648C336.267 170.368 337.907 169.077 338.843 169.959C341.144 172.126 343.498 174.329 346.361 175.669C349.224 177.011 352.734 177.368 355.488 175.815ZM306.204 186.08C296.616 165.235 292.616 141.851 294.729 119.005C294.766 118.615 294.815 118.197 295.073 117.901C295.438 117.484 296.183 117.502 296.528 117.935C296.405 130.503 296.287 143.146 298.34 155.545C300.391 167.945 304.747 180.212 312.701 189.944C312.939 190.235 313.179 190.524 313.421 190.814C314.789 192.455 316.17 194.109 316.945 196.088C311.772 195.987 308.366 190.779 306.204 186.08ZM315.61 91.9556C315.433 91.7632 315.226 91.5948 314.987 91.4906C314.295 91.1926 313.485 91.4986 312.879 91.9462C310.466 93.7327 310.456 97.9109 312.861 99.7094C314.036 98.7086 315.24 97.6704 315.928 96.2901C316.615 94.9112 316.657 93.0873 315.61 91.9556ZM336.422 113.966C339.024 116.079 341.987 117.742 345.146 118.862C355.337 122.475 366.788 120.206 376.622 115.711C378.124 115.025 380.041 115.387 381.191 116.575C374.876 121.073 367.141 123.547 359.387 123.545C357.678 123.545 355.97 123.428 354.267 123.278C350.781 122.975 347.269 122.527 343.991 121.307C340.713 120.086 337.651 118.022 335.795 115.057L336.422 113.966ZM447.393 251.309C447.291 251.656 447.57 251.988 447.827 252.243L451.699 256.086C452.121 254.981 451.647 253.694 450.835 252.833C450.023 251.973 448.926 251.451 447.856 250.945C447.646 250.955 447.451 251.109 447.393 251.309Z" fill="#00160A"/>
<path fill-rule="evenodd" clip-rule="evenodd" d="M701.684 101.846C706.427 103.489 710.895 99.211 714.983 96.2968C721.308 91.7872 729.559 90.0823 737.154 91.7151C738.414 91.9863 739.734 92.3925 740.564 93.3786C741.321 94.2805 741.538 95.5098 741.659 96.683C742.408 103.857 740.613 111.27 736.669 117.308C734.749 120.246 732.345 122.861 730.628 125.922C728.912 128.984 727.932 132.722 729.154 136.012C736.424 155.567 733.399 178.632 721.331 195.651C709.264 212.668 688.5 223.156 667.641 222.766C656.973 222.565 646.521 219.718 636.471 216.138C632.085 214.575 627.264 212.862 622.912 214.511C614.969 217.521 606.607 219.423 598.142 220.141C596.042 220.32 593.848 220.411 591.91 219.583C589.01 218.342 587.258 215.196 586.925 212.057C586.592 208.92 587.46 205.78 588.555 202.821C591.86 193.895 602.12 179.952 608.332 176.74C607.83 165.901 607.884 154.935 610.228 144.342C612.57 133.747 617.354 123.467 625.198 115.971C628.439 112.875 632.147 110.297 636.031 108.06C655.675 96.7498 680.265 94.4222 701.684 101.846ZM671.767 100.965C656.746 101.317 642.122 107.351 630.379 116.727C626.932 119.479 623.691 122.537 621.103 126.11C619.063 128.926 617.45 132.034 616.102 135.241C608.104 154.264 609.929 177.121 620.847 194.632C621.084 195.015 621.357 195.419 621.782 195.568C622.306 195.751 622.871 195.484 623.36 195.223C657.649 176.951 688.168 151.642 712.473 121.33C713.052 120.608 713.66 119.769 713.536 118.853C713.442 118.165 712.952 117.606 712.472 117.104C702.101 106.231 686.789 100.614 671.767 100.965ZM692.769 214.529C709.055 206.882 721.424 191.774 726.714 174.578C727.913 170.684 728.773 166.658 728.857 162.586C728.93 159.16 728.451 155.75 727.974 152.357C727.283 147.439 726.593 142.52 725.901 137.601C725.717 136.296 724.461 134.575 723.544 135.52C698.061 161.744 670.237 185.689 640.508 206.979C639.52 207.687 638.431 208.563 638.377 209.779C638.316 211.186 639.659 212.206 640.878 212.91C656.464 221.897 676.483 222.175 692.769 214.529ZM592.313 212.526C593.498 214.427 596.066 214.817 598.304 214.878C610.049 215.203 621.667 211.762 632.175 206.506C642.682 201.251 652.193 194.22 661.434 186.965C673.762 177.292 685.72 167.151 697.375 156.677C711.808 143.704 725.991 129.944 735.468 113.008C737.301 109.732 738.992 106.14 738.705 102.396C738.419 98.6538 735.433 94.8751 731.682 95.0221C723.721 95.3321 715.895 98.3933 709.836 103.564C708.631 104.593 709.483 106.782 710.966 107.339C712.449 107.896 714.102 107.343 715.552 106.703C717 106.063 718.51 105.315 720.084 105.49C722.489 105.757 724.198 108.219 724.341 110.635C724.484 113.052 723.417 115.373 722.158 117.44C719.828 121.266 716.785 124.601 713.711 127.859C686.382 156.812 654.855 181.797 620.426 201.792C617.324 203.593 614.187 205.359 610.851 206.67C609.1 207.358 607.093 207.911 605.386 207.124C602.584 205.834 602.359 201.901 603.2 198.934C604.462 194.479 607.188 190.452 610.856 187.626C610.161 185.668 609.466 183.711 608.772 181.754C599.719 187.536 593.366 197.373 591.817 208.002C591.594 209.536 591.492 211.212 592.313 212.526ZM618.054 199.097C618.118 198.895 618.001 198.684 617.887 198.505C616.718 196.646 615.549 194.789 614.38 192.93C613.85 192.09 612.827 191.137 612.033 191.734C609.174 193.888 607.128 197.095 606.378 200.594C606.231 201.285 606.145 202.056 606.522 202.654C607.22 203.765 608.892 203.518 610.129 203.074C612.765 202.13 615.305 200.915 617.696 199.455C617.844 199.365 618.002 199.261 618.054 199.097ZM719.792 110.642C719.674 110.158 719.099 109.948 718.602 109.927C717.096 109.862 715.521 111.1 715.617 112.606C715.712 114.111 717.95 115.059 718.884 113.876C719.168 113.517 719.286 113.062 719.399 112.621C719.51 112.184 719.622 111.747 719.733 111.31C719.789 111.091 719.845 110.861 719.792 110.642Z" fill="#00160A"/>
<path d="M587.148 95.8008L589.444 96.414L594.594 77.1453C594.814 76.3248 594.579 75.4492 593.978 74.8493C593.376 74.2494 592.501 74.0156 591.681 74.2361L572.428 79.4146H572.429L553.166 84.5892C552.345 84.8089 551.705 85.4506 551.486 86.271C551.267 87.0915 551.502 87.9661 552.103 88.566L566.214 102.653L566.213 102.653L580.321 116.748C580.922 117.347 581.798 117.582 582.617 117.362C583.438 117.141 584.079 116.5 584.297 115.68L589.444 96.414L587.148 95.8008L584.852 95.1876L580.768 110.475L569.573 99.2899L569.572 99.289L558.375 88.1116L573.662 84.0055H573.663L588.939 79.8966L584.852 95.1876L587.148 95.8008Z" fill="#64FCD9"/>
<path d="M395.107 728.016L397.403 728.629L402.553 709.36C402.773 708.54 402.538 707.664 401.937 707.064C401.335 706.464 400.46 706.23 399.64 706.451L380.387 711.629H380.387L361.124 716.804C360.304 717.024 359.664 717.665 359.445 718.486C359.226 719.306 359.461 720.181 360.062 720.781L374.173 734.868L374.172 734.867L388.28 748.962C388.881 749.562 389.757 749.797 390.576 749.577C391.397 749.356 392.037 748.715 392.256 747.895L397.403 728.629L395.107 728.016L392.811 727.402L388.727 742.69L377.532 731.505L377.531 731.504L366.334 720.326L381.621 716.22H381.622L396.897 712.111L392.811 727.402L395.107 728.016Z" fill="#64FCD9"/>
<path d="M442.747 59.0579L444.806 60.2463L458.664 36.2421L480.609 48.9121L467.939 70.858L443.936 56.9996L442.747 59.0579L444.806 60.2463L442.747 59.0579L441.559 61.1163L467.621 76.163C468.163 76.4762 468.82 76.5625 469.424 76.4007C470.029 76.2386 470.555 75.8348 470.867 75.293L485.915 49.2305C486.227 48.6888 486.314 48.0321 486.152 47.4278C485.99 46.823 485.587 46.2971 485.045 45.9838L458.983 30.9371C458.441 30.6243 457.784 30.5381 457.179 30.7002C456.575 30.862 456.049 31.2653 455.736 31.807L440.689 57.8696C440.376 58.4113 440.29 59.0685 440.451 59.6732C440.614 60.2775 441.017 60.8035 441.559 61.1163L442.747 59.0579Z" fill="#64FCD9"/>
<path d="M256.281 597.953C256.366 597.489 256.5 597.225 256.692 596.967C256.862 596.744 257.101 596.525 257.451 596.296C258.059 595.894 259.007 595.509 260.135 595.13C261.826 594.543 263.902 593.983 265.872 592.752C266.854 592.134 267.809 591.32 268.573 590.246C269.34 589.176 269.894 587.861 270.154 586.365C270.382 585.073 269.519 583.84 268.226 583.612C266.934 583.384 265.701 584.248 265.473 585.54C265.337 586.302 265.112 586.845 264.833 587.292C264.587 587.683 264.292 588.008 263.921 588.312C263.278 588.844 262.38 589.295 261.308 589.701C259.7 590.324 257.764 590.791 255.886 591.724C254.95 592.198 254.007 592.815 253.214 593.716C252.418 594.612 251.826 595.8 251.599 597.127C251.372 598.419 252.234 599.653 253.527 599.881C254.82 600.109 256.053 599.245 256.281 597.953Z" fill="#00160A"/>
<path d="M251.481 625.171C251.567 624.708 251.7 624.444 251.893 624.186C252.062 623.963 252.302 623.744 252.652 623.515C253.259 623.113 254.208 622.729 255.336 622.349C257.026 621.763 259.102 621.203 261.073 619.972C262.054 619.353 263.008 618.54 263.773 617.466C264.54 616.396 265.093 615.081 265.354 613.586C265.582 612.293 264.718 611.06 263.426 610.833C262.133 610.605 260.9 611.468 260.672 612.761C260.536 613.521 260.311 614.065 260.033 614.512C259.787 614.902 259.491 615.227 259.121 615.532C258.478 616.062 257.58 616.515 256.507 616.92C254.9 617.544 252.963 618.01 251.086 618.944C250.15 619.417 249.207 620.034 248.414 620.936C247.618 621.831 247.026 623.019 246.8 624.346C246.572 625.639 247.435 626.871 248.728 627.099C250.021 627.327 251.253 626.464 251.481 625.171Z" fill="#00160A"/>
<path d="M251.599 597.127C251.391 598.28 251.473 599.429 251.794 600.442C252.073 601.33 252.515 602.102 253.016 602.767C253.899 603.932 254.949 604.81 255.958 605.627C257.48 606.837 258.921 607.93 259.754 609.028C260.176 609.575 260.455 610.098 260.615 610.669C260.771 611.241 260.824 611.885 260.672 612.761C260.445 614.053 261.307 615.286 262.6 615.514C263.892 615.742 265.126 614.878 265.354 613.586C265.585 612.284 265.564 611.037 265.318 609.898C265.105 608.901 264.724 607.996 264.253 607.201C263.422 605.807 262.343 604.742 261.291 603.83C259.705 602.473 258.141 601.388 257.243 600.415C256.791 599.934 256.516 599.514 256.378 599.157C256.245 598.795 256.194 598.486 256.281 597.953C256.509 596.66 255.646 595.427 254.353 595.199C253.06 594.971 251.827 595.834 251.599 597.127Z" fill="#00160A"/>
<path d="M246.8 624.346C246.593 625.499 246.673 626.648 246.996 627.661C247.273 628.549 247.716 629.321 248.217 629.986C249.1 631.151 250.151 632.028 251.16 632.846C252.681 634.055 254.122 635.148 254.955 636.245C255.377 636.793 255.656 637.316 255.815 637.886C255.971 638.459 256.025 639.102 255.873 639.978L258.207 640.389L255.915 639.785C255.891 639.877 255.879 639.945 255.873 639.978L258.207 640.389L255.915 639.785C255.581 641.055 256.338 642.355 257.608 642.689C258.877 643.024 260.178 642.267 260.512 640.997C260.536 640.904 260.549 640.837 260.555 640.803C260.785 639.502 260.765 638.255 260.519 637.115C260.306 636.119 259.925 635.214 259.453 634.419C258.623 633.024 257.544 631.96 256.491 631.048C254.907 629.692 253.341 628.606 252.445 627.633C251.991 627.152 251.717 626.733 251.579 626.375C251.446 626.013 251.395 625.704 251.481 625.171C251.709 623.879 250.845 622.646 249.552 622.418C248.26 622.19 247.028 623.053 246.8 624.346Z" fill="#00160A"/>
<path d="M786.375 104.584C785.93 104.742 785.635 104.758 785.316 104.721C785.038 104.685 784.728 104.588 784.355 104.399C783.703 104.073 782.895 103.445 782.003 102.658C780.649 101.487 779.126 99.9684 777.075 98.8777C776.049 98.3368 774.867 97.917 773.555 97.7917C772.244 97.6627 770.829 97.8409 769.403 98.3628C768.17 98.8116 767.534 100.176 767.982 101.409C768.432 102.643 769.796 103.278 771.029 102.83C771.757 102.567 772.34 102.49 772.866 102.508C773.328 102.525 773.757 102.619 774.205 102.787C774.987 103.079 775.827 103.631 776.715 104.357C778.058 105.437 779.431 106.881 781.178 108.041C782.056 108.614 783.062 109.122 784.24 109.359C785.413 109.6 786.738 109.519 788 109.051C789.233 108.602 789.87 107.238 789.421 106.005C788.972 104.771 787.607 104.135 786.375 104.584Z" fill="#64FCD9"/>
<path d="M812.347 95.1312C811.902 95.2889 811.607 95.3054 811.287 95.2678C811.009 95.2324 810.7 95.1347 810.326 94.9458C809.675 94.6205 808.868 93.9914 807.975 93.2047C806.622 92.0338 805.099 90.516 803.048 89.4244C802.022 88.8843 800.84 88.4646 799.528 88.3392C798.217 88.2102 796.802 88.3885 795.377 88.9101C794.143 89.3591 793.508 90.7235 793.956 91.9564C794.406 93.1901 795.769 93.826 797.003 93.3769C797.73 93.1143 798.313 93.0377 798.839 93.0555C799.3 93.0729 799.73 93.1665 800.178 93.335C800.959 93.6264 801.801 94.1782 802.688 94.9043C804.031 95.9846 805.404 97.4285 807.151 98.5874C808.028 99.1613 809.035 99.6692 810.212 99.9053C811.385 100.147 812.71 100.066 813.972 99.598C815.206 99.149 815.842 97.7855 815.393 96.5517C814.944 95.318 813.58 94.6822 812.347 95.1312Z" fill="#64FCD9"/>
<path d="M788 109.051C789.103 108.655 790.058 108.01 790.774 107.225C791.403 106.54 791.851 105.771 792.176 105.005C792.744 103.657 792.979 102.309 793.182 101.026C793.469 99.1035 793.695 97.3093 794.229 96.0385C794.492 95.3995 794.806 94.8959 795.22 94.4728C795.638 94.0518 796.168 93.6836 797.003 93.3769C798.236 92.9282 798.872 91.5643 798.423 90.3306C797.975 89.0977 796.61 88.4614 795.377 88.9101C794.134 89.3606 793.064 90.0027 792.201 90.7854C791.444 91.4686 790.85 92.2503 790.398 93.0563C789.606 94.4725 789.224 95.9392 788.96 97.307C788.577 99.3583 788.42 101.256 788.026 102.519C787.835 103.152 787.609 103.6 787.369 103.897C787.122 104.194 786.879 104.392 786.375 104.584C785.141 105.033 784.505 106.397 784.954 107.63C785.403 108.864 786.767 109.5 788 109.051Z" fill="#64FCD9"/>
<path d="M813.972 99.598C815.074 99.201 816.03 98.5569 816.745 97.7713C817.375 97.0867 817.823 96.3178 818.148 95.551C818.716 94.2041 818.95 92.8551 819.153 91.5723C819.44 89.6508 819.666 87.8558 820.199 86.5862C820.463 85.9468 820.777 85.4432 821.191 85.0205C821.609 84.5991 822.139 84.2313 822.973 83.9246L822.162 81.6974L822.785 83.9847C822.877 83.9594 822.942 83.9359 822.973 83.9246L822.162 81.6974L822.785 83.9847C824.052 83.6391 824.8 82.333 824.454 81.0667C824.109 79.8 822.803 79.0522 821.537 79.3978C821.444 79.4235 821.379 79.446 821.347 79.4577C820.105 79.9088 819.035 80.5501 818.171 81.3331C817.415 82.0151 816.821 82.7976 816.369 83.6036C815.576 85.0202 815.195 86.4865 814.931 87.8543C814.549 89.9044 814.391 91.8032 813.997 93.0657C813.806 93.6994 813.581 94.1468 813.34 94.4448C813.093 94.7412 812.85 94.9397 812.346 95.1315C811.113 95.5802 810.477 96.9447 810.926 98.1784C811.375 99.4112 812.739 100.047 813.972 99.598Z" fill="#64FCD9"/>
<path d="M259.393 731.387C258.983 731.619 258.695 731.687 258.374 731.705C258.094 731.719 257.772 731.676 257.372 731.555C256.674 731.348 255.769 730.869 254.753 730.249C253.217 729.331 251.453 728.1 249.244 727.382C248.139 727.027 246.903 726.819 245.589 726.924C244.275 727.024 242.913 727.445 241.599 728.207C240.463 728.863 240.073 730.318 240.729 731.454C241.386 732.591 242.84 732.98 243.976 732.324C244.647 731.938 245.208 731.762 245.73 731.688C246.187 731.625 246.626 731.643 247.097 731.73C247.917 731.881 248.841 732.279 249.841 732.84C251.351 733.671 252.954 734.854 254.876 735.693C255.841 736.106 256.919 736.431 258.12 736.459C259.317 736.494 260.608 736.183 261.77 735.503C262.906 734.847 263.296 733.394 262.64 732.257C261.984 731.12 260.53 730.731 259.393 731.387Z" fill="#64FCD9"/>
<path d="M283.329 717.567C282.919 717.8 282.631 717.868 282.31 717.886C282.03 717.899 281.708 717.857 281.308 717.736C280.609 717.528 279.706 717.049 278.689 716.429C277.154 715.511 275.391 714.281 273.181 713.562C272.076 713.208 270.84 713 269.526 713.105C268.213 713.205 266.85 713.626 265.537 714.388C264.4 715.044 264.011 716.498 264.667 717.634C265.324 718.771 266.777 719.161 267.914 718.504C268.584 718.119 269.145 717.943 269.667 717.869C270.123 717.806 270.563 717.823 271.034 717.911C271.854 718.063 272.778 718.46 273.778 719.021C275.288 719.852 276.891 721.036 278.812 721.873C279.776 722.286 280.856 722.612 282.056 722.64C283.253 722.674 284.544 722.364 285.706 721.684C286.843 721.028 287.232 719.574 286.576 718.437C285.919 717.3 284.466 716.911 283.329 717.567Z" fill="#64FCD9"/>
<path d="M261.77 735.503C262.787 734.922 263.615 734.121 264.184 733.224C264.685 732.439 264.992 731.604 265.18 730.794C265.505 729.368 265.503 727.999 265.48 726.7C265.428 724.757 265.339 722.951 265.645 721.607C265.793 720.932 266.014 720.382 266.349 719.893C266.687 719.406 267.145 718.951 267.914 718.504C269.05 717.848 269.44 716.395 268.784 715.258C268.128 714.121 266.673 713.732 265.537 714.388C264.391 715.047 263.449 715.865 262.735 716.786C262.108 717.59 261.659 718.463 261.354 719.335C260.82 720.868 260.698 722.378 260.675 723.771C260.655 725.858 260.83 727.754 260.661 729.067C260.583 729.723 260.438 730.203 260.253 730.538C260.061 730.873 259.857 731.11 259.393 731.387C258.256 732.043 257.867 733.497 258.523 734.634C259.18 735.771 260.633 736.16 261.77 735.503Z" fill="#64FCD9"/>
<path d="M285.706 721.684C286.722 721.102 287.551 720.302 288.119 719.404C288.621 718.62 288.928 717.785 289.115 716.974C289.441 715.548 289.437 714.179 289.414 712.881C289.363 710.939 289.274 709.132 289.579 707.789C289.728 707.113 289.949 706.563 290.283 706.075C290.622 705.587 291.08 705.133 291.848 704.686L290.663 702.633L291.674 704.778C291.76 704.737 291.819 704.702 291.848 704.686L290.663 702.633L291.674 704.778C292.861 704.217 293.371 702.801 292.81 701.614C292.251 700.427 290.835 699.917 289.648 700.477C289.561 700.519 289.501 700.552 289.471 700.569C288.326 701.229 287.384 702.046 286.669 702.968C286.043 703.771 285.594 704.644 285.289 705.517C284.754 707.049 284.633 708.56 284.61 709.952C284.59 712.038 284.765 713.935 284.595 715.247C284.518 715.904 284.374 716.384 284.188 716.719C283.996 717.054 283.792 717.291 283.328 717.568C282.192 718.224 281.803 719.678 282.46 720.815C283.116 721.951 284.569 722.341 285.706 721.684Z" fill="#64FCD9"/>
<path d="M737.231 730.566L722.731 716.967C721.773 716.069 720.269 716.117 719.372 717.074C718.473 718.032 718.522 719.536 719.479 720.434L733.979 734.034C734.937 734.931 736.441 734.883 737.338 733.926C738.237 732.969 738.188 731.464 737.231 730.566Z" fill="#64FCD9"/>
<path d="M723.287 734.379L736.888 719.879C737.786 718.921 737.738 717.417 736.781 716.52C735.824 715.621 734.32 715.67 733.421 716.627L719.82 731.127C718.922 732.085 718.97 733.589 719.927 734.486C720.884 735.384 722.388 735.336 723.287 734.379Z" fill="#64FCD9"/>
<path d="M626.808 743.523L628.335 741.701L613.048 728.89C612.396 728.345 611.504 728.188 610.706 728.48C609.908 728.77 609.327 729.465 609.18 730.302L605.736 749.94L602.285 769.584C602.138 770.42 602.449 771.272 603.1 771.817C603.751 772.362 604.643 772.519 605.441 772.228L624.172 765.393L642.908 758.563C643.705 758.272 644.288 757.577 644.435 756.742C644.582 755.905 644.271 755.054 643.62 754.508L628.335 741.701L626.808 743.523L625.282 745.344L637.411 755.508L622.543 760.927L607.68 766.351L610.419 750.761L613.151 735.179L625.282 745.344L626.808 743.523Z" fill="#00160A"/>
<path d="M665.014 650.753V653.13H692.732V678.47H667.391V650.753H665.014V653.13V650.753H662.637V680.847C662.637 681.473 662.891 682.086 663.333 682.528C663.776 682.971 664.388 683.224 665.014 683.224H695.108C695.734 683.224 696.346 682.971 696.788 682.528C697.231 682.086 697.485 681.473 697.485 680.847V650.753C697.485 650.128 697.231 649.516 696.788 649.073C696.346 648.631 695.734 648.377 695.108 648.377H665.014C664.388 648.377 663.776 648.631 663.333 649.073C662.891 649.516 662.637 650.128 662.637 650.753H665.014Z" fill="#64FCD9"/>
<path d="M757.595 658.518C757.185 658.75 756.896 658.818 756.576 658.836C756.296 658.85 755.974 658.807 755.573 658.686C754.875 658.479 753.971 658 752.955 657.38C751.419 656.462 749.655 655.231 747.446 654.513C746.341 654.158 745.104 653.95 743.79 654.055C742.477 654.155 741.114 654.576 739.801 655.338C738.665 655.994 738.275 657.449 738.931 658.585C739.587 659.722 741.041 660.111 742.177 659.455C742.849 659.069 743.41 658.893 743.931 658.819C744.389 658.756 744.827 658.774 745.298 658.862C746.119 659.012 747.042 659.41 748.042 659.971C749.553 660.802 751.156 661.985 753.077 662.824C754.042 663.237 755.121 663.562 756.321 663.59C757.519 663.625 758.81 663.314 759.972 662.634C761.108 661.979 761.498 660.525 760.842 659.388C760.185 658.251 758.731 657.862 757.595 658.518Z" fill="#00160A"/>
<path d="M781.531 644.698C781.12 644.931 780.832 644.999 780.511 645.017C780.231 645.03 779.909 644.988 779.509 644.867C778.811 644.659 777.907 644.18 776.891 643.56C775.355 642.642 773.592 641.412 771.382 640.693C770.278 640.339 769.041 640.131 767.727 640.236C766.414 640.336 765.051 640.757 763.739 641.519C762.602 642.175 762.213 643.629 762.869 644.765C763.525 645.902 764.978 646.292 766.115 645.635C766.786 645.25 767.347 645.074 767.868 645C768.325 644.937 768.764 644.954 769.236 645.042C770.055 645.194 770.979 645.591 771.98 646.152C773.49 646.983 775.092 648.167 777.014 649.004C777.978 649.417 779.057 649.743 780.258 649.771C781.455 649.805 782.745 649.495 783.907 648.815C785.044 648.159 785.434 646.705 784.777 645.568C784.121 644.431 782.668 644.042 781.531 644.698Z" fill="#00160A"/>
<path d="M759.972 662.634C760.988 662.053 761.817 661.252 762.386 660.355C762.887 659.57 763.194 658.735 763.381 657.925C763.706 656.499 763.704 655.13 763.681 653.831C763.63 651.888 763.541 650.082 763.846 648.738C763.994 648.063 764.216 647.513 764.55 647.024C764.888 646.537 765.347 646.082 766.115 645.635C767.252 644.979 767.642 643.526 766.985 642.389C766.329 641.252 764.875 640.863 763.739 641.519C762.592 642.178 761.651 642.996 760.936 643.917C760.31 644.721 759.861 645.594 759.555 646.466C759.022 647.999 758.899 649.509 758.877 650.902C758.856 652.989 759.031 654.885 758.862 656.198C758.785 656.854 758.639 657.334 758.455 657.669C758.263 658.004 758.059 658.241 757.595 658.518C756.458 659.174 756.068 660.628 756.725 661.765C757.381 662.902 758.835 663.291 759.972 662.634Z" fill="#00160A"/>
<path d="M783.907 648.815C784.924 648.233 785.753 647.433 786.321 646.535C786.823 645.751 787.13 644.916 787.317 644.105C787.642 642.679 787.639 641.31 787.616 640.012C787.565 638.07 787.475 636.263 787.78 634.92C787.929 634.244 788.151 633.694 788.485 633.206C788.823 632.718 789.281 632.264 790.05 631.817L788.865 629.764L789.875 631.909C789.961 631.868 790.021 631.834 790.05 631.817L788.865 629.764L789.875 631.909C791.062 631.348 791.572 629.932 791.012 628.745C790.452 627.558 789.036 627.048 787.849 627.608C787.762 627.65 787.702 627.683 787.673 627.7C786.528 628.36 785.586 629.177 784.871 630.099C784.244 630.902 783.796 631.775 783.49 632.648C782.956 634.18 782.834 635.691 782.812 637.083C782.792 639.169 782.966 641.066 782.797 642.378C782.72 643.035 782.575 643.515 782.39 643.85C782.198 644.185 781.994 644.422 781.53 644.699C780.394 645.355 780.005 646.809 780.661 647.946C781.317 649.082 782.77 649.472 783.907 648.815Z" fill="#00160A"/>
<path d="M750.201 65.6658L748.937 63.6531C748.336 64.0296 747.687 64.2036 747.033 64.2045C746.437 64.2045 745.845 64.0553 745.321 63.772C744.797 63.4877 744.344 63.077 743.999 62.5294C743.621 61.9276 743.448 61.2783 743.447 60.6242C743.447 60.03 743.596 59.4377 743.878 58.9139C744.162 58.3901 744.573 57.9366 745.121 57.5915C745.718 57.2169 746.366 57.0429 747.02 57.0419C747.615 57.0419 748.21 57.1912 748.733 57.4745C749.258 57.7588 749.713 58.1695 750.057 58.7161L750.058 58.718C750.434 59.316 750.607 59.9635 750.608 60.6166C750.608 61.2127 750.459 61.8059 750.176 62.3307C749.891 62.8555 749.481 63.3099 748.935 63.6541L748.937 63.6531L750.201 65.6658L751.468 67.6774C752.72 66.8902 753.701 65.8103 754.359 64.5886C755.017 63.366 755.362 62.0018 755.362 60.6166C755.363 59.1021 754.945 57.5553 754.08 56.1844L754.081 56.1863C753.294 54.9324 752.214 53.9503 750.991 53.2915C749.769 52.6317 748.404 52.2885 747.02 52.2885C745.506 52.2875 743.961 52.7049 742.59 53.5671C741.337 54.3543 740.355 55.4334 739.696 56.655C739.037 57.8767 738.693 59.2409 738.693 60.6242C738.692 62.1406 739.11 63.6873 739.975 65.0592C740.761 66.3113 741.84 67.2943 743.061 67.9541C744.284 68.6139 745.648 68.9571 747.033 68.958C748.548 68.959 750.094 68.5407 751.466 67.6784L751.468 67.6774L750.201 65.6658Z" fill="#00160A"/>
<path d="M511.576 132.215L510.311 130.202C509.711 130.579 509.061 130.753 508.408 130.753C507.812 130.753 507.22 130.604 506.696 130.321C506.172 130.037 505.719 129.626 505.373 129.078C504.996 128.477 504.822 127.827 504.821 127.173C504.821 126.579 504.97 125.987 505.253 125.463C505.537 124.939 505.948 124.485 506.495 124.14C507.092 123.766 507.741 123.592 508.395 123.591C508.99 123.591 509.584 123.74 510.108 124.023C510.633 124.308 511.087 124.718 511.431 125.265L511.432 125.267C511.809 125.865 511.982 126.512 511.983 127.166C511.983 127.762 511.833 128.355 511.55 128.88C511.266 129.404 510.855 129.859 510.309 130.203L510.311 130.202L511.576 132.215L512.842 134.226C514.094 133.439 515.075 132.359 515.733 131.138C516.392 129.915 516.736 128.551 516.736 127.166C516.737 125.651 516.32 124.104 515.455 122.733L515.456 122.735C514.668 121.481 513.588 120.499 512.366 119.84C511.143 119.181 509.779 118.837 508.395 118.837C506.88 118.836 505.335 119.254 503.965 120.116C502.712 120.903 501.729 121.982 501.071 123.204C500.412 124.426 500.068 125.79 500.068 127.173C500.067 128.689 500.485 130.236 501.349 131.608C502.135 132.86 503.214 133.843 504.436 134.503C505.659 135.163 507.023 135.506 508.408 135.507C509.923 135.508 511.468 135.09 512.84 134.227L512.842 134.226L511.576 132.215Z" fill="#00160A"/>
</g>
<defs>
<clipPath id="clip0_228_186">
<rect width="829.192" height="773.041" fill="white"/>
</clipPath>
</defs>
</svg>
