<svg width="198" height="198" viewBox="0 0 198 198" fill="none" xmlns="http://www.w3.org/2000/svg">
<mask id="mask0_277_1070" style="mask-type:alpha" maskUnits="userSpaceOnUse" x="0" y="0" width="198" height="198">
<circle cx="99" cy="99" r="99" fill="#C4C4C4"/>
</mask>
<g mask="url(#mask0_277_1070)">
<path fill-rule="evenodd" clip-rule="evenodd" d="M159.917 156.938C157.23 144.197 147.695 134.311 134.874 129.386C132.409 127.992 130.02 122.008 126.707 120.912C126.177 120.736 127.015 122.134 126.707 122.217C125.612 122.515 124.385 122.547 123.176 121.471C121.014 119.549 120.336 113.934 119.021 111.396C112.09 98.012 94.7837 103.249 92.4654 118.045C90.8484 119.099 88.5632 120.028 86.8041 120.877C84.9918 121.752 83.3977 123.87 81.5305 124.627C79.8642 125.304 77.1188 124.824 75.4398 125.414C67.7177 128.124 61.1774 131.543 56.0497 138.471C54.9692 139.932 53.7514 141.729 52.7681 143.205C47.6992 149.042 44.1784 155.585 40.9357 162.605C31.8635 183.209 29.3958 206.023 27.1819 228.222C27.2322 232.107 24.6557 242.877 28.4664 244.739C28.2387 244.976 28.3212 245.45 28.7438 245.446C38.4062 245.348 48.046 246.213 57.5586 247.895C62.1481 248.706 66.7131 249.819 71.3881 250.003C81.0923 249.935 90.7622 248.309 100.454 249.848C112.105 249.848 126.265 249.509 139.227 249.01C151.341 248.544 163.52 249.596 175.484 247.535C176.431 247.386 176.893 246.23 176.695 245.402C175.291 240.285 174.602 235.019 173.814 229.782C173.972 226.423 173.69 222.916 172.448 219.787C169.203 198.667 165.042 177.684 159.917 156.938Z" fill="#D08B5B"/>
<path fill-rule="evenodd" clip-rule="evenodd" d="M126.706 122.295C127.014 122.212 126.176 120.813 126.706 120.989C130.019 122.085 132.408 128.068 134.873 129.463C147.694 134.388 157.229 144.274 159.916 157.015C165.041 177.761 169.202 198.744 172.448 219.865C173.69 222.994 173.971 226.5 173.814 229.86L173.938 230.686C174.676 235.65 175.364 240.631 176.694 245.479C176.892 246.307 176.43 247.462 175.483 247.613C163.655 249.649 151.617 248.645 139.639 249.071L137.143 249.165C124.761 249.62 111.483 249.924 100.453 249.924C90.7612 248.385 81.0922 250.012 71.3874 250.079C66.7124 249.896 62.1474 248.783 57.5577 247.972C48.0453 246.29 38.4054 245.425 28.743 245.523C28.3204 245.527 28.2379 245.052 28.4657 244.816C24.655 242.954 27.2315 232.183 27.1811 228.299L27.3812 226.299C29.5491 204.733 32.1348 182.668 40.935 162.682L41.1985 162.114C44.3691 155.309 47.8354 148.962 52.7673 143.282L53.069 142.83C53.9928 141.45 55.0765 139.863 56.0489 138.548C61.1765 131.62 67.7169 128.201 75.439 125.491C77.1179 124.902 79.8633 125.381 81.5295 124.705C83.2757 123.996 84.7836 122.097 86.4538 121.139V128.287L110.623 152.106L124.331 131.078L125.725 122.466C126.061 122.444 126.389 122.381 126.706 122.295Z" fill="#8FA7DF"/>
<path fill-rule="evenodd" clip-rule="evenodd" d="M156.008 184.7C155.753 185.941 155.394 187.183 154.918 188.359C154.459 189.495 153.767 190.512 153.292 191.634C153.227 191.785 153.123 191.899 152.996 191.986L153.036 192.291L153.073 192.596C153.31 194.656 153.577 196.709 153.809 198.768L153.92 199.798C154.375 204.097 155.094 208.375 155.652 212.662C156.197 216.86 156.754 221.059 157.348 225.251C157.962 229.574 158.588 233.889 159.318 238.195C159.626 240.013 159.948 241.83 160.283 243.645L160.542 245.033C163.206 245.675 163.935 249.391 161.222 250.762C159.99 251.382 158.408 251.234 157.393 250.259C156.338 249.244 156.295 247.412 156.05 246.037L155.813 244.759C154.049 235.149 152.518 225.429 151.802 215.683C151.618 213.166 151.463 210.647 151.362 208.126C151.267 205.756 151.313 203.385 151.276 201.014L151.263 200.368C151.207 197.839 151.254 195.314 151.32 192.786C151.327 192.478 151.341 192.17 151.357 191.86C151.268 191.756 151.203 191.632 151.177 191.512L151.141 191.352C151.054 190.944 151.153 190.465 151.467 190.173C151.602 188.45 151.78 186.731 151.829 185.01C151.833 184.868 152.036 184.872 152.048 185.01C152.162 186.475 152.391 187.943 152.619 189.41C154.089 188.227 155.175 186.279 155.816 184.648C155.863 184.53 156.035 184.572 156.008 184.7ZM121.23 116.229C121.474 117.344 121.956 118.346 122.603 119.279C122.911 119.724 123.262 120.138 123.681 120.486C124.043 120.782 124.453 120.975 124.836 121.233C125.394 121.146 125.977 121.358 126.368 121.768L126.306 121.168C126.287 120.973 126.608 120.935 126.645 121.123C128.339 129.671 129.885 138.224 131.222 146.834L131.809 150.637L132.36 154.206C133.276 160.154 134.162 166.1 134.829 172.091C135.718 180.087 136.465 188.104 137.012 196.132C137.56 204.217 137.897 212.307 138.137 220.408C138.197 222.449 138.261 224.49 138.322 226.531L138.737 224.09C139.149 221.648 139.554 219.204 139.901 216.751C141.147 207.973 142.142 199.133 142.628 190.28C143.074 182.177 142.924 173.915 140.863 166.021C140.345 164.036 139.709 162.08 138.943 160.177C138.199 158.324 137.184 156.608 136.385 154.783C135.454 152.66 135.176 150.656 135.654 148.37C136.073 146.379 136.806 144.505 136.938 142.456C137.184 138.65 135.946 134.965 134.198 131.635C133.736 130.757 133.251 129.892 132.744 129.033C131.208 126.439 129.477 123.94 127.679 121.544C127.583 121.415 127.787 121.274 127.893 121.379C129.531 122.998 131.322 124.591 132.796 126.36C133.512 127.22 134.211 128.097 134.874 128.998C142.14 130.213 148.384 134.741 152.652 140.719C157.495 147.505 159.945 155.67 161.758 163.712C163.774 172.65 165.474 181.668 167.285 190.649C169.159 199.943 171.025 209.237 172.911 218.529C173.848 223.141 174.786 227.754 175.721 232.369C176.195 234.705 176.693 237.036 177.214 239.365C177.482 240.558 177.768 241.75 178.016 242.947C178.295 244.297 178.035 245.162 177.121 246.153C176.784 246.522 176.251 246.516 175.833 246.32L175.702 246.259L175.576 246.197C175.059 245.943 174.653 245.68 174.33 245.113C173.976 244.492 173.919 243.801 173.798 243.11C173.573 241.837 173.35 240.565 173.126 239.289C172.79 237.383 172.425 235.482 172.054 233.581L170.19 224.084C169.693 221.552 169.196 219.019 168.694 216.488C166.907 207.437 165.118 198.388 163.328 189.338C161.61 180.648 160.091 171.9 158.134 163.26L158.023 162.774L157.91 162.288C156.162 154.841 153.718 147.637 149.284 141.326C145.872 136.472 141.133 132.138 135.551 129.946C135.945 130.511 136.322 131.089 136.683 131.677C138.945 135.374 140.597 139.762 140.209 144.164C140.019 146.315 139.202 148.429 139.279 150.596C139.351 152.522 140.543 154.214 141.366 155.889C143.234 159.686 144.586 163.722 145.458 167.862C147.206 176.175 147.2 184.729 146.598 193.168C145.944 202.341 144.701 211.514 143.284 220.598C142.558 225.257 141.592 229.877 140.852 234.529C140.486 236.823 139.988 239.111 139.553 241.393L139.345 242.484C139.228 243.089 139.108 243.692 138.969 244.289L138.883 244.646V244.71C138.879 245.15 138.759 245.515 138.564 245.805C138.3 246.655 137.97 247.484 137.533 248.281C137.308 248.687 136.982 248.916 136.628 249C136.272 249.816 135.464 250.443 134.5 250.439L121.817 250.39C114.45 250.361 107.083 250.312 99.7161 250.272C97.8571 250.263 96 250.228 94.1428 250.179C92.402 250.131 90.7328 249.922 89.0104 249.705C87.0661 249.461 86.0129 248.083 86.3035 246.14C86.3676 245.712 86.4364 245.285 86.5033 244.859C86.1155 244.987 85.6545 244.927 85.3428 244.623L85.0504 244.337C84.6452 243.936 84.2831 243.542 84.0255 243.007C83.7606 242.457 83.5452 241.875 83.3115 241.313C82.8055 240.105 82.3141 238.893 81.8356 237.673C80.8768 235.236 79.9183 232.789 79.0273 230.327C77.2632 225.451 75.7021 220.501 74.3447 215.495C71.924 206.564 70.173 197.459 69.0692 188.274L68.8053 186.085L68.7286 185.439C68.3099 181.879 67.9576 178.263 68.1241 174.71C68.227 172.486 68.5714 170.245 69.4025 168.168C70.1692 166.252 71.3524 164.613 72.4776 162.901L72.6064 162.703L72.7359 162.5C73.7199 160.945 74.5028 159.319 74.5421 157.429C74.5818 155.513 74.0236 153.646 73.3993 151.851L73.2438 151.41L73.1394 151.116C71.8114 147.407 70.3002 143.75 70.7986 139.714C71.5347 133.77 75.1366 128.979 79.6685 125.285C75.6382 126.083 71.649 127.66 68.1282 129.659C63.9701 132.023 60.2266 135.141 56.9983 138.662C50.8979 145.315 46.5424 153.297 42.9773 161.539C39.2453 170.164 36.4778 179.202 34.3922 188.358C32.2949 197.566 30.8909 206.922 29.932 216.314C29.4539 220.989 29.078 225.675 28.7664 230.364C28.6076 232.766 28.4875 235.173 28.3016 237.571C28.1156 239.968 28.0322 242.401 27.4474 244.734C27.1743 245.82 25.3325 245.931 25.1352 244.734C24.6973 242.06 24.8197 239.294 24.9419 236.586L24.953 236.341C25.0732 233.644 25.2302 230.949 25.4159 228.254C25.7957 222.746 26.3028 217.245 26.9651 211.763C29.2871 192.517 33.5692 173.372 41.9683 155.804C45.9229 147.529 50.9988 139.489 58.0597 133.514C61.4214 130.672 65.2114 128.403 69.2958 126.76C72.9484 125.29 76.659 124.594 80.54 124.596C82.4865 123.105 84.5755 121.805 86.6637 120.695C86.7893 120.627 86.9213 120.789 86.8168 120.895C86.7627 120.947 86.7095 121.001 86.6555 121.051C86.892 121.067 87.1358 121.177 87.3549 121.408C88.1221 122.212 88.7684 123.217 89.3477 124.262C90.2286 125.362 91.0692 126.499 91.9483 127.588C93.3563 129.332 94.7973 131.049 96.2557 132.754C98.705 135.62 101.234 138.431 103.871 141.129L104.312 141.577C105.679 142.963 107.064 144.621 108.681 145.718L108.767 145.775C109.449 146.219 109.933 146.3 110.514 145.636C111.043 145.032 111.484 144.331 111.936 143.665L112.041 143.512C114.352 140.154 116.493 136.672 118.432 133.088C119.315 131.457 120.156 129.802 120.953 128.129L121.192 127.627C121.625 126.704 122.096 125.8 122.454 124.85C122.537 124.627 122.619 124.405 122.698 124.184C121.478 123.383 120.533 121.652 120.191 120.296C119.834 118.887 120.014 117.442 120.649 116.154C120.769 115.912 121.172 115.971 121.23 116.229ZM61.0421 173.465C60.8734 178.82 60.7709 184.18 60.519 189.532L60.432 191.359C60.825 191.796 61.0554 192.302 60.8714 192.996C60.7999 193.261 60.5887 193.501 60.3253 193.591L60.2432 195.289C59.8694 202.931 59.4314 210.557 58.6307 218.18C57.6296 227.719 56.4715 237.243 55.3154 246.766C55.1509 248.114 54.2133 249.183 52.7551 248.986C51.2795 248.786 50.6811 247.502 50.8748 246.163C51.6359 240.911 52.3677 235.655 53.0089 230.385L53.739 224.382C54.6545 216.877 55.5915 209.373 56.6711 201.892C57.1224 198.765 57.591 195.641 58.0614 192.515L57.897 192.302C57.2248 191.428 56.5296 190.574 55.8421 189.713C54.5214 188.055 53.2181 186.411 52.0077 184.674C51.9475 184.587 52.0697 184.459 52.1567 184.526C53.8532 185.779 55.4588 187.119 57.0739 188.481L58.4877 189.679C59.301 184.279 60.1067 178.877 60.825 173.465C60.8426 173.33 61.0459 173.32 61.0421 173.465ZM85.4455 122.217C84.4243 123.18 83.3811 124.122 82.3526 125.079L81.9759 125.431L81.6009 125.785C79.7931 127.5 78.0612 129.285 76.6182 131.335C73.969 135.099 72.3907 139.688 73.4924 144.284C74.4067 148.091 76.504 151.542 77.0676 155.444C77.3501 157.398 77.2128 159.363 76.4767 161.209C75.7253 163.092 74.5246 164.706 73.4459 166.405C71.1025 170.098 70.783 174.151 71.0156 178.428C71.2597 182.896 71.7726 187.366 72.4061 191.792C73.6879 200.763 75.6207 209.64 78.1789 218.333C79.4592 222.686 80.9712 226.947 82.4764 231.224C83.2262 233.353 84.0998 235.432 85 237.501C85.4739 238.59 85.9606 239.673 86.4547 240.753C86.2723 239.227 86.2723 237.66 86.1834 236.143C86.055 233.969 85.8928 231.799 85.7434 229.628C85.44 225.22 85.1686 220.809 84.9266 216.398C84.0686 200.666 83.437 184.921 83.4838 169.164C83.5067 161.285 83.6671 153.405 84.0063 145.534C84.1658 141.827 84.4729 138.123 84.7515 134.422L84.8102 133.629C85.0559 130.306 85.3501 126.976 85.8561 123.682C85.7058 123.345 85.5765 123.002 85.4803 122.652L85.4455 122.52L85.4702 122.524C85.4473 122.421 85.44 122.318 85.4455 122.217ZM94.273 108.679C94.294 108.588 94.4233 108.596 94.4471 108.679C95.0219 110.616 94.8184 112.747 94.3234 114.696C94.0557 115.752 93.6762 116.777 93.217 117.765L93.0565 118.111C92.6633 118.952 92.2205 119.819 91.4551 120.344C91.1352 120.563 90.5641 120.577 90.2442 120.344L90.081 120.22C90.0545 120.2 90.0279 120.178 90.0022 120.156C89.7043 119.906 89.5567 119.354 89.6942 118.99C90.049 118.05 90.8529 117.361 91.4084 116.523C91.9006 115.78 92.336 114.995 92.6981 114.179C93.4782 112.415 93.8293 110.541 94.273 108.679Z" fill="black"/>
<path fill-rule="evenodd" clip-rule="evenodd" d="M139.863 51.8608C139.434 50.7749 138.675 49.41 137.407 49.3555C136.425 46.3478 133.985 43.2846 130.591 43.366C120.629 33.1533 108.088 33.6347 94.9758 35.7966C88.0578 37.0828 81.0333 39.6015 75.8743 44.5716C69.6947 50.4228 67.2886 60.6327 72.1276 68.0317C67.9454 70.2785 67.8642 75.6101 69.6528 79.4576C67.5029 80.948 67.3723 84.5652 69.7931 85.7028C69.6644 86.2308 69.7554 86.7771 70.0009 87.2464C68.8006 88.2483 67.2383 88.9881 65.9468 89.6243C65.3759 89.9057 65.0467 90.3649 64.9098 90.8819C60.669 93.6713 50.0946 100.487 50.2206 105.913C50.1583 108.742 52.2525 110.605 54.7972 111.346C53.2831 114.381 52.1339 117.925 53.5832 121.199C53.9839 122.188 56.9855 125.095 57.1366 125.148C57.4008 125.375 61.707 123.393 63.7999 122.382C64.2058 125.029 67.0286 126.416 69.4619 125.508C71.7691 124.811 73.1874 122.853 74.6426 121.071C76.5742 125.296 82.2571 125.345 85.9302 123.524C89.2293 121.995 91.7363 119.196 93.1333 115.822C100.551 119.462 109.229 120.523 117.288 119.069C117.805 119.987 118.949 120.603 119.97 120.248C124.254 118.957 128.992 118.884 132.625 115.925C140.196 110.478 140.834 100.433 140.306 91.871C139.838 83.3341 140.247 74.7267 138.7 66.2823C139.371 63.796 140.488 61.598 141.522 59.2623C142.646 56.8131 142.622 53.1722 139.863 51.8608Z" fill="#D08B5B"/>
<path fill-rule="evenodd" clip-rule="evenodd" d="M105.49 34.9158L105.785 34.917C106.271 34.9202 106.757 34.9299 107.242 34.9459C109.802 35.0304 112.473 35.3633 115.479 35.9334L115.937 36.0214C116.685 36.1682 117.355 36.3155 118.423 36.5657L120.544 37.0667C121.624 37.319 122.417 37.4934 123.151 37.6338L123.247 37.652C123.247 37.652 128.898 40.3674 130.723 42.1538L130.905 42.3335L130.983 42.4112L131.777 42.4363L131.784 42.5367L131.79 42.5377C132.579 42.6607 133.291 43.0697 133.954 43.7066L134.025 43.7757L134.093 43.8442C134.609 44.3707 135.022 44.9317 135.588 45.821L135.717 46.0242L135.947 46.391L136.134 46.6856C136.256 46.8782 136.373 47.0688 136.485 47.2576L136.595 47.4459L136.674 47.5843L138.723 48.7824C139.018 48.955 139.287 49.1784 139.533 49.446L139.599 49.5201L139.665 49.5963L140.223 50.2622L140.11 50.3796L140.165 50.4514L140.262 50.5851L140.358 50.7208L140.45 50.8583L140.49 50.9186L140.55 51.0491L140.579 51.1142L140.602 51.1678L140.673 51.2038L140.815 51.4613C141.554 52.7972 141.952 54.3144 141.978 55.8735C141.997 56.9488 141.865 57.9254 141.55 58.8676C141.333 59.5191 141.041 60.0309 140.538 60.7358L140.139 61.283L140.059 61.396L139.962 61.5333C139.946 61.5554 139.931 61.577 139.916 61.5985C139.269 62.5383 133.737 64.3169 130.337 64.4029L130.236 64.405L130.105 64.4063C129.78 64.4077 129.467 64.396 129.165 64.3707C127.857 64.2611 126.634 63.9852 125.213 63.5341L124.919 63.4386L123.354 62.9116C123.304 62.895 123.264 62.8818 123.236 62.8729L123.093 62.8281C122.748 62.7221 122.498 62.6612 122.328 62.6391L122.293 62.6349L122.289 62.6998L122.288 62.761V62.8107C122.298 63.5328 121.86 64.0592 121.182 64.3946C120.75 64.6082 120.194 64.7608 119.494 64.8753L119.382 64.8931C118.24 65.07 116.878 65.1456 114.599 65.1974C114.512 65.1993 114.425 65.1982 114.337 65.1942C113.848 65.1717 113.463 65.0881 112.748 64.8824L112.41 64.7851L112.227 64.7344C111.887 64.6423 111.697 64.6056 111.518 64.5955L111.467 64.5934L111.415 64.5925C111.2 64.5922 111.045 64.6401 110.892 64.7569L110.814 64.8196L109.764 65.702C109.626 65.8161 109.504 65.9174 109.414 65.9892L109.378 66.0181C107.936 67.1516 106.561 67.799 104.941 67.8606L104.832 67.8638L104.719 67.8651C104.638 67.8653 104.554 67.8639 104.472 67.8606C103.79 67.8346 103.082 67.5812 102.115 67.0924L101.914 66.9897L101.774 66.9163C101.703 66.8786 101.628 66.8388 101.548 66.7954L100.826 66.4086L100.458 66.2154C100.017 65.9884 99.7712 65.8788 99.6062 65.8337L99.5787 65.8266L99.564 65.8415C99.1808 66.216 98.8527 66.6871 98.4998 67.3377L98.4466 67.4366L98.3687 67.584L97.8673 68.5853L97.7729 68.7715C97.3998 69.4943 97.1055 69.9562 96.7196 70.3615C96.1604 70.9496 95.483 71.2909 94.6525 71.3457L94.5691 71.3502L94.4701 71.3527C94.0787 71.3565 93.6643 71.2963 93.2152 71.1712L93.1107 71.1412L93.0089 71.11C92.3398 70.898 91.2819 71.0299 90.4413 71.4771C89.5283 71.9627 89.026 72.7037 89.048 73.6506C89.059 74.1209 89.1131 74.6252 89.2084 75.1717L89.235 75.3218C89.3597 75.9974 89.5284 76.6752 89.7887 77.5795L90.3478 79.471L90.4111 79.6916L90.4743 79.9188C90.5651 80.2495 90.6375 80.5377 90.6971 80.8089C90.9253 81.8466 90.9638 82.6258 90.7347 83.2894C89.7254 86.2163 87.9755 87.771 85.9827 87.8361L85.913 87.8379H85.8278C84.2969 87.8214 82.91 86.8213 82.9265 85.5261C82.9283 85.3904 82.954 85.2639 82.9989 85.1493L83.0191 85.1008L83.0292 85.0806L83.0136 85.0412C82.5424 83.9118 81.4543 83.0878 80.1765 82.9264L80.104 82.9182L80.0324 82.9108C79.9622 82.9044 79.8922 82.9008 79.8259 82.898L79.7609 82.8962H79.6833C77.9802 82.8989 76.2949 84.0356 74.9692 85.8946C74.6928 86.2823 74.4363 86.7049 74.2057 87.1523L74.1298 87.3026L73.7612 88.0588L73.5122 88.7894C72.1405 92.8154 72.835 97.0275 75.5125 99.2055L75.5943 99.2706C76.5589 100.03 77.6934 100.491 78.9045 100.614C79.044 100.628 79.1842 100.637 79.3192 100.641L79.4193 100.643H79.5343C79.9289 100.637 80.3064 100.588 80.6455 100.496C80.9218 100.422 81.1143 100.331 81.2481 100.215C81.2838 100.185 81.3123 100.157 81.3361 100.13L81.3572 100.105L81.3645 100.095L83.1951 100.367C83.5058 102.347 84.4051 104.399 85.8681 106.753L85.9598 106.901L86.1211 107.155L86.2843 107.409C88.0058 110.063 89.9253 112.297 92.0354 114.012L92.183 114.131L92.3801 114.288L92.5616 114.43C92.9145 114.705 93.2078 114.918 93.5021 115.109L93.5754 115.156L94.2693 115.597L93.9476 116.355C93.1959 118.122 92.1583 119.729 90.8804 121.096L90.7594 121.224L89.8712 122.142L89.1873 121.271C89.1828 121.264 89.1672 121.256 89.1488 121.252L89.1369 121.25H89.1296L89.1204 121.251L89.1094 121.254L89.0984 121.26C88.5869 121.537 88.3055 121.75 87.9022 122.166L87.8435 122.227L87.7757 122.299L87.6813 122.397C87.2623 122.828 86.8141 123.195 86.3255 123.5C85.1971 124.205 83.9449 124.597 82.6478 124.632L82.5259 124.635H82.4031C82.3591 124.634 82.3151 124.633 82.2711 124.632C79.5656 124.557 77.141 122.819 75.9492 120.272C75.9019 120.171 75.8584 120.138 75.7782 120.131L75.7553 120.13L75.7267 120.129C75.528 120.131 75.2844 120.249 75.1486 120.409L75.1244 120.439L74.6683 121.053L74.4934 121.285C72.8662 123.428 71.5302 124.598 69.7359 124.955C69.5946 124.982 69.4451 125 69.2864 125.006L69.1901 125.011H69.1338C68.3621 125.012 67.4728 124.788 66.7795 124.394C65.8627 123.871 65.2958 123.068 65.3677 122.074L65.3731 122.01L65.3858 121.903C65.4457 121.372 65.0215 121.084 64.6969 121.344L64.675 121.363L64.6482 121.388C63.3113 122.645 61.7737 123.609 60.1175 124.204L59.971 124.255L59.7534 124.33C58.7089 124.683 57.9725 124.858 57.197 124.872C56.5258 124.884 55.9677 124.641 55.564 124.175C55.2949 123.863 55.1303 123.517 54.9661 123.013L54.9388 122.927L54.8788 122.731L54.8416 122.603C54.3611 120.909 54.3507 119.096 54.7279 117.096C55.0097 115.603 55.4583 114.16 56.2126 112.137L56.3591 111.747L56.6613 110.952C56.6916 110.872 56.5102 110.593 56.3978 110.562L56.3846 110.559L56.2821 110.57C56.2103 110.578 56.1378 110.582 56.0636 110.585L55.9507 110.588H55.8766C53.4263 110.563 51.5547 108.154 51.572 105.602C51.5909 103.211 52.7901 101.156 55.0796 98.716L55.2785 98.5061L55.4937 98.2824L55.7064 98.0643C57.7408 95.988 59.8206 94.1748 61.9865 92.6202L62.1658 92.4928L62.3655 92.3516C63.0949 91.8383 63.8039 91.3735 64.7853 90.7621L65.363 90.4037L67.7043 87.6344C67.7605 87.6023 67.8158 87.5703 67.8704 87.5391L67.9001 86.5784L70.1559 86.6243C69.5835 86.33 69.1092 85.9734 68.724 85.5151C67.4436 83.9934 67.6043 81.8787 69.1611 80.8401L69.216 80.8043L69.8724 80.3979L70.4093 80.8703C70.877 81.2819 71.3732 81.5542 71.8906 81.6798L71.9724 81.699L72.3772 81.7852L72.456 81.9126L72.5015 81.8466C72.5013 81.8402 72.5001 81.8338 72.4979 81.8273L72.4938 81.8173L72.4853 81.8044L72.4343 81.7412L72.3781 81.6743C72.1979 81.4616 71.9958 81.2553 71.6287 80.9015L71.3711 80.6533L71.1706 80.4578C70.6446 79.9397 70.3644 79.6189 70.0665 79.1733C69.3253 78.0646 68.9066 76.8146 68.8892 75.5449C68.8527 72.9047 70.4908 70.4085 72.9183 69.2693C73.0031 69.2294 73.0659 68.9458 72.964 68.7583C70.6137 64.4352 69.9615 59.2531 71.1421 54.4324C72.2437 49.9348 74.9843 45.9648 78.908 42.9237C85.6435 37.7029 94.988 35.0106 104.902 34.9178L105.202 34.9158H105.49Z" fill="#ECDCBF"/>
<path fill-rule="evenodd" clip-rule="evenodd" d="M69.4707 88.0961C69.917 87.9834 70.1567 88.5847 69.7778 88.8258C67.373 90.3594 64.8888 91.7289 62.5657 93.3972C60.356 94.9839 58.3153 96.7907 56.4121 98.7331L56.2012 98.9494C54.4807 100.724 52.5752 102.981 52.5558 105.599C52.541 107.633 54.1057 109.854 56.289 109.587C57.1114 109.487 57.8675 110.532 57.5805 111.287L57.2785 112.082C56.0638 115.298 54.8279 118.944 55.7875 122.328L55.8227 122.449C56.0548 123.224 56.2994 123.908 57.1967 123.893C58.0294 123.878 58.896 123.597 59.6755 123.328C61.2932 122.771 62.7593 121.84 64.0036 120.671C65.1043 119.636 66.5105 120.687 66.3623 122.002L66.3571 122.044C66.1543 123.52 68.4991 124.205 69.5651 123.994C71.6698 123.577 73.1704 121.462 74.3658 119.85C74.9402 119.076 76.3358 118.771 76.8405 119.85C77.8408 121.988 79.9026 123.587 82.3146 123.654C83.5677 123.688 84.7695 123.331 85.831 122.667C86.2636 122.397 86.6514 122.075 87.0061 121.71L87.0941 121.618C87.6203 121.059 87.9833 120.762 88.6543 120.398C89.3161 120.038 90.1714 120.484 90.1677 121.268C90.1622 122.283 89.8652 122.959 89.1667 123.695C88.5883 124.305 87.9017 124.841 87.1794 125.269C85.7292 126.128 84.0041 126.612 82.3146 126.556C79.652 126.467 77.1105 125.137 75.463 123.068C73.7809 125.084 71.6944 126.936 68.9828 126.887C66.9528 126.849 65.0611 125.79 64.1548 124.149C62.8752 125.033 61.4709 125.724 59.9685 126.176L59.8346 126.216C57.7081 126.836 55.2608 127.083 53.8921 124.966C52.6069 122.98 52.511 120.228 52.8055 117.957C53.0686 115.928 53.6912 114.001 54.4063 112.101C52.3709 111.491 50.7911 109.575 50.2484 107.509C49.4275 104.384 51.0201 101.355 52.989 99.0338C55.1277 96.512 57.8195 94.3789 60.5315 92.5117C63.2362 90.6508 66.2663 88.9009 69.4707 88.0961ZM139.016 63.6591C139.022 63.5723 139.164 63.5419 139.176 63.6372C140.111 70.4331 140.651 77.2153 141.1 84.0582C141.326 87.5241 141.585 90.9873 141.866 94.4495C142.137 97.7697 142.587 101.179 142.486 104.512C142.326 109.732 139.798 113.976 135.652 117.031C131.679 119.959 126.751 121.405 121.916 122.016C119.107 122.372 116.26 122.389 113.448 122.055C111.989 121.882 110.531 121.652 109.101 121.305L108.482 121.15C107.356 120.861 106.098 120.47 105.938 119.133C105.86 118.485 106.203 118.008 106.758 117.682C107.48 117.259 108.309 117.508 109.053 117.702C110.308 118.027 111.576 118.306 112.858 118.499C115.613 118.914 118.444 118.939 121.213 118.651C125.87 118.167 130.783 116.654 134.373 113.526C135.933 112.168 137.291 110.511 138.004 108.544C138.922 106.015 138.786 103.256 138.755 100.608C138.684 94.4495 138.747 88.2923 138.661 82.1332C138.575 75.956 138.65 69.8273 139.016 63.6591ZM92.1844 34.8804C97.6267 33.4735 103.149 33.1079 108.738 33.5314C114.01 33.9305 120.015 35.1129 124.32 38.3633C124.529 38.5209 124.404 38.8195 124.146 38.7782C121.268 38.3183 118.462 37.4817 115.596 36.9282C112.839 36.3958 110.033 35.9962 107.226 35.9036C97.733 35.5899 87.1702 37.7464 79.5152 43.6796C75.9259 46.4615 73.1867 50.2022 72.0966 54.6529C70.9787 59.218 71.5835 64.1548 73.8286 68.2843C74.1519 68.8789 74.0185 69.8195 73.344 70.136C71.2975 71.0966 69.8398 73.2247 69.8715 75.521C69.8867 76.6347 70.2698 77.7028 70.8853 78.6235C71.5362 79.597 72.527 80.2782 73.2549 81.1872C73.5416 81.5456 73.5526 82.0388 73.3255 82.3679C73.7512 82.5549 74.2104 82.6557 74.6294 82.8766C74.9846 83.0636 74.9947 83.6484 74.6294 83.8327C73.7057 84.2993 72.7069 83.8043 72.0834 83.0526C71.9721 82.9179 71.8759 82.7785 71.7882 82.6364C71.0415 82.4769 70.3724 82.102 69.7882 81.5878C68.6751 82.256 68.5225 83.7438 69.4788 84.8804C69.9671 85.4607 70.6609 85.8191 71.3621 86.0758L71.4463 86.1069C72.1287 86.3498 72.7537 86.4855 73.197 87.0328C73.4894 86.4214 73.8251 85.8457 74.1992 85.3204C75.5595 83.4129 77.6505 81.7207 80.1317 81.9352C82.0754 82.1029 83.7593 83.4981 84.1571 85.4231C84.1865 85.5652 83.9729 85.6761 83.9087 85.5276C82.9765 83.3478 80.026 83.268 78.2686 84.4038C76.2017 85.7403 75.0721 88.2574 74.6189 90.6023C74.1729 92.9123 74.4307 95.7209 76.1552 97.4782C76.8607 98.1968 77.8206 98.6946 78.8224 98.8248C79.3121 98.8898 79.7441 98.8266 80.2124 98.7313L80.5228 98.6671C80.738 98.6222 80.9525 98.5855 81.178 98.6057L81.5144 98.6515L81.706 98.7414C81.8719 98.8156 81.8563 98.7954 81.661 98.679C82.2321 98.6323 82.5282 99.0558 82.5594 99.5205C82.5777 99.5324 82.5951 99.5443 82.6098 99.5627C84.7786 102.225 86.3901 105.284 88.6919 107.858L89.3656 108.612C91.0981 110.544 93.0763 112.639 95.4303 113.641L95.7099 113.757C96.3947 114.047 97.0831 114.444 97.1702 115.272C97.2481 116.013 96.6651 116.571 95.9932 116.744C94.4632 117.137 92.7188 115.774 91.5986 114.879C89.1887 112.956 87.1629 110.505 85.4909 107.926L85.325 107.67C83.95 105.516 82.6575 103.062 82.256 100.507L82.1835 100.624C82.1781 100.632 82.1744 100.639 82.1716 100.643C82.0891 100.754 81.9993 100.849 81.8948 100.939C81.6134 101.182 81.2696 101.325 80.913 101.421C80.2442 101.602 79.5104 101.638 78.8224 101.567C77.425 101.424 76.1188 100.891 75.0142 100.023C71.6508 97.3783 71.2537 92.4576 72.614 88.4655C71.4977 88.7332 70.2263 87.9797 69.3547 87.3344C68.3552 86.5946 67.531 85.5258 67.3341 84.2681C67.1385 83.0205 67.932 81.3678 69.1089 80.8865C67.8877 79.4168 67.1768 77.3309 67.1034 75.6607C66.9758 72.7554 68.5154 70.0093 70.8793 68.4242C68.6563 63.6483 68.228 58.1076 69.7248 53.0367C72.6949 42.9742 82.6446 37.3471 92.1844 34.8804ZM83.7162 111.334L83.7437 111.246C83.9802 110.467 84.2864 108.919 85.446 109.509C86.5542 110.071 85.8466 111.738 85.4588 112.548C84.9959 113.519 84.1947 114.297 83.1195 114.505C82.245 114.675 81.2843 114.458 80.6729 113.779C80.4943 113.582 80.3936 113.366 80.2879 113.127C80.2467 113.034 80.2282 112.97 80.2205 112.929C80.2104 112.974 80.1818 113.041 80.1088 113.121C79.6206 113.656 79.1595 114.279 78.8053 114.911C78.7214 115.061 78.457 114.956 78.5238 114.792C78.9365 113.781 78.8671 112.216 79.7868 111.485C80.5974 110.84 81.3595 111.347 81.7875 112.098L81.8096 112.138C82.4366 113.278 83.4348 112.194 83.7162 111.334ZM74.8982 107.679L74.9828 107.561C75.8496 106.373 77.3115 104.944 78.7741 106.049C79.2393 106.4 79.2564 106.987 78.7741 107.335L78.5916 107.465C77.9526 107.92 77.3163 108.349 76.847 109C76.3369 109.708 75.879 110.458 75.1933 111.013C73.9807 111.995 72.0208 112.189 70.9686 110.865L70.8651 110.733C70.7771 110.62 70.6761 110.483 70.594 110.346L70.5302 110.435C70.524 110.444 70.5181 110.453 70.5127 110.461L70.498 110.483C70.0655 111.176 69.5192 111.746 68.8388 112.197C67.5455 113.052 66.0881 113.172 64.6251 112.719C64.4819 112.674 64.5203 112.481 64.6589 112.468C66.3926 112.306 68.0818 111.071 68.787 109.482L68.8666 109.303C69.1519 108.671 69.4717 108.069 70.1767 107.821C70.8629 107.58 71.5833 107.835 72.0539 108.355C72.4473 108.79 72.5486 109.654 73.2584 109.465C74.0357 109.256 74.4733 108.279 74.8982 107.679ZM69.933 97.1152C70.317 96.8228 70.9184 97.1363 71.0241 97.5607C71.5033 99.4793 69.5135 101.741 67.6015 101.8C67.1092 101.816 66.6358 101.697 66.1998 101.468C65.8615 101.291 65.4613 100.838 65.0901 100.764C64.6107 100.666 64.1859 101.307 63.8483 101.635C63.4294 102.043 63.0151 102.422 62.546 102.769C62.3585 102.909 62.0676 102.675 62.1468 102.461L62.3056 102.038C62.8801 100.528 63.8696 98.3243 65.7215 98.9503C66.6288 99.2574 67.3117 100.292 68.2672 99.4729C69.0323 98.8165 69.1036 97.7468 69.933 97.1152ZM78.1036 89.3895C79.8299 87.4022 83.8876 88.4518 84.6576 90.869C84.8272 91.4025 84.6503 92.0964 84.2341 92.4741C83.6869 92.9718 82.905 93.1222 82.2395 92.7317C81.6675 92.3962 81.4328 91.8471 81.012 91.3759C80.3946 90.6848 79.5553 90.3016 78.6905 90.0266C78.4743 90.1403 78.273 90.2906 78.0926 90.4712C78.0002 90.5638 77.8257 90.4364 77.9077 90.3282C78.0189 90.1797 78.155 90.0404 78.3098 89.912L78.2354 89.89C78.0078 89.8268 77.9584 89.5564 78.1036 89.3895ZM89.3235 67.4552C89.7103 67.4558 90.1613 67.8201 90.1118 68.2453L90.0971 68.3634C89.9853 69.173 89.7259 69.6314 88.9174 70.0075C88.2317 70.3262 87.5112 70.5023 86.7596 70.5721C86.4754 70.5984 86.1738 70.6 85.8686 70.5773L85.8044 70.9489C85.677 71.6922 85.5587 72.436 85.5367 73.1936C85.4955 74.5979 86.018 75.7553 86.579 77.0092C87.6551 79.4177 87.7761 81.8224 86.6037 84.2269C86.4323 84.5789 85.9474 84.8658 85.556 84.83C85.0481 84.7833 84.8034 84.6366 84.5073 84.2269C84.2598 83.8831 84.3166 83.3973 84.4881 83.0379L84.5073 82.9985C85.0976 81.8518 85.2837 80.5563 84.9831 79.2959C84.6998 78.1112 84.0572 77.0464 83.7712 75.8654C83.3037 73.9416 83.8015 72.0333 84.7731 70.3828C84.0398 70.1711 83.3615 69.7937 82.9086 69.2181L82.9105 69.2173C82.7381 69.0323 82.8326 68.6457 83.1351 68.669L83.4779 68.6968C84.4587 68.7789 85.3616 68.8644 86.3544 68.5903C86.8622 68.4496 87.3013 68.2152 87.7376 67.9312L87.8311 67.8697C88.3775 67.5058 88.68 67.4544 89.3235 67.4552ZM91.6711 53.2362C94.1296 53.0961 96.2287 54.7229 97.2499 56.8886C98.3582 59.2396 97.8934 61.9374 96.9144 64.2506L96.6367 64.8979C96.1499 66.0196 95.511 67.3536 94.5146 67.9555C93.3953 68.6316 92.4282 67.8476 92.7582 66.6012C92.9544 65.8591 93.487 65.2865 93.9178 64.6739C94.3202 64.1018 94.6952 63.5097 95.0242 62.8921C95.6677 61.6809 96.149 60.3313 96.1435 58.9435C96.1352 56.4106 94.4651 53.5078 91.6711 53.545C91.4712 53.5474 91.4749 53.2473 91.6711 53.2362ZM104.107 49.1493C103.954 49.0327 104.091 48.7733 104.262 48.8828C107.114 50.7008 109.243 54.1158 109.672 57.4707C109.909 59.3322 109.728 61.3215 108.937 63.0394C108.484 64.0251 107.705 64.966 106.616 65.2364C105.616 65.4845 104.584 64.9117 104.274 63.9325C104.153 63.5525 104.36 63.1553 104.674 62.9477C105.688 62.2753 106.505 61.4267 106.983 60.2852C107.48 59.0984 107.679 57.8389 107.684 56.5586C107.699 53.5605 106.505 50.9767 104.107 49.1493ZM138.939 50.4486C138.807 50.302 138.973 50.0858 139.148 50.1776C141.21 51.2644 142.52 53.3464 142.894 55.6265C143.262 57.8588 142.768 60.8977 141.044 62.5121C140.071 63.4235 138.329 62.2115 139.138 61.0376C139.708 60.2097 140.324 59.528 140.65 58.5498C140.941 57.677 141.045 56.7969 141.029 55.8797C140.994 53.8788 140.281 51.9404 138.939 50.4486ZM113.736 47.6533C117.258 47.4851 119.393 51.5159 119.882 54.5202C120.183 56.3763 119.957 58.2881 118.935 59.8982L118.874 59.9918C118.031 61.2779 116.497 62.7587 114.844 62.1498C114.145 61.8923 113.959 61.1412 114.428 60.5714C115.148 59.6991 116.259 59.3437 116.934 58.4123C117.693 57.3679 117.942 56.0594 117.898 54.7892L117.891 54.649C117.774 52.3126 116.663 47.8283 113.736 47.9077C113.572 47.9119 113.574 47.6608 113.736 47.6533ZM124.752 46.9837C128.158 46.5472 130.233 50.5649 130.873 53.3326C131.273 55.0629 131.36 56.9931 130.849 58.7104L130.811 58.8328C130.395 60.1144 129.167 62.3104 127.564 61.6554C127.125 61.476 126.678 60.9872 126.888 60.4603C127.156 59.7867 127.543 59.6119 128.06 59.1809C128.458 58.8489 128.736 58.3725 128.94 57.9033C129.485 56.6528 129.606 55.1918 129.531 53.8441L129.521 53.6846C129.329 51.0523 127.905 47.1294 124.752 47.2017C124.608 47.2049 124.618 47.0007 124.752 46.9837ZM130.989 43.2065C132.885 42.4827 134.438 44.3002 135.528 45.5971C136.894 47.2225 138.132 48.9732 138.833 50.9965C139.456 52.7992 139.566 54.8036 139.004 56.6387C138.725 57.5474 138.293 58.3899 137.702 59.1315L137.625 59.225C137.01 59.9774 136.416 60.4397 135.408 60.1703C134.997 60.0605 134.824 59.6539 134.896 59.2652C135.047 58.4349 135.474 58.2192 136.027 57.6396C136.514 57.1283 136.877 56.4986 137.119 55.8366C137.621 54.4709 137.647 52.9913 137.31 51.5844C136.933 50.0094 136.192 48.555 135.334 47.1921L135.149 46.9001C134.239 45.4592 132.943 43.2402 131.025 43.4741C130.86 43.4941 130.859 43.2561 130.989 43.2065Z" fill="black"/>
<path fill-rule="evenodd" clip-rule="evenodd" d="M116.265 97.9375C117.348 96.1546 119.658 100.522 119.902 101.272C120.12 101.938 120.263 102.619 120.336 103.308C121.176 103.497 122.048 103.497 122.909 103.332C124.188 103.086 124.97 102.399 126.082 101.809C126.849 101.4 127.817 101.878 128.216 102.556C128.686 103.352 128.387 104.179 127.769 104.773C126.598 105.9 124.292 106.158 122.763 105.859C121.887 105.688 121.084 105.359 120.375 104.881C120.371 104.971 120.367 105.06 120.361 105.149L120.347 105.303C120.23 106.552 119.886 108.123 118.916 108.937C117.326 110.269 115.362 107.706 116.908 106.374L116.956 106.333C117.917 105.557 118.126 103.473 118.074 102.326C118.041 101.577 117.904 100.818 117.667 100.104L117.619 99.9624C117.548 99.7607 116.772 97.8486 116.491 98.0924L116.479 98.1062C116.363 98.2446 116.176 98.0833 116.265 97.9375ZM124.915 87.8771C126.377 88.7672 128.605 90.8407 127.032 93.0452C125.18 94.9886 122.514 92.7602 121.2 91.7518C119.982 90.9708 118.613 92.9802 119.744 93.8922C129.238 100.924 133.09 88.1099 125.654 86.8321C124.836 86.6909 124.531 87.6021 124.915 87.8771ZM109.298 79.6578C110.728 79.4041 112.192 79.7596 113.375 80.5962L113.465 80.6607C114.604 81.4943 115.878 82.9582 115.225 84.3947C114.962 84.9722 114.177 85.062 113.678 84.8007C112.848 84.3653 112.697 83.2937 111.957 82.7007C111.349 82.2148 110.53 81.9197 109.748 81.9912C107.91 82.158 106.779 83.9712 106.209 85.5341C106.136 85.7339 105.842 85.8118 105.728 85.5973C104.381 83.0802 106.765 80.1076 109.298 79.6578ZM132.191 78.7078C134.929 78.4822 138.134 81.322 137.412 84.2122C137.067 85.6001 135.01 85.5597 134.645 84.2122C134.443 83.4707 134.464 82.8152 133.93 82.1992C133.49 81.6914 132.864 81.3953 132.191 81.4412C131.45 81.4907 130.767 81.8619 130.247 82.3826C129.778 82.8528 129.497 83.5412 129.01 83.9574C128.891 84.0601 128.731 84.0665 128.612 83.9574C127.776 83.1865 128.278 81.5796 128.809 80.7738C129.568 79.6213 130.804 78.8223 132.191 78.7078ZM104.085 74.5304C105.842 72.9751 109.032 71.4731 111.401 72.2386C112.762 72.6785 113.356 74.8733 111.837 75.5691C110.076 76.3747 108.046 76.0469 106.255 76.8818C105.502 77.2327 104.795 77.6711 104.271 78.3141C103.859 78.821 103.439 79.4878 102.841 79.78C102.685 79.8569 102.473 79.8588 102.346 79.7162C101.038 78.2357 102.943 75.542 104.085 74.5304ZM129.173 72.1613C130.258 71.8566 131.462 71.8627 132.565 72.0542C133.668 72.2456 134.786 72.7027 135.686 73.3693L135.791 73.4474C136.774 74.1879 137.946 75.2656 137.883 76.5776C137.83 77.6732 136.678 78.4142 135.684 77.8399C134.873 77.3717 134.492 76.4336 133.805 75.809C133.239 75.2934 132.573 74.887 131.863 74.6022C131.075 74.2858 130.284 74.1376 129.438 74.1235C128.787 74.1127 128.131 74.3265 127.491 74.3949C127.545 74.503 127.039 74.4527 126.749 74.3568C126.534 74.2653 126.533 73.9939 126.608 73.8178C126.977 72.9454 128.319 72.4008 129.173 72.1613Z" fill="black"/>
<path fill-rule="evenodd" clip-rule="evenodd" d="M125.128 95.4258C122.973 94.4551 119.106 95.3021 117.703 95.6385C114.438 96.4223 111.154 98.1144 110.139 100.765C108.996 103.754 111.278 104.694 111.613 104.54C113.873 104.7 116.564 103.279 118.932 102.912C120.854 102.612 122.882 102.349 124.683 101.327C125.997 102.051 128.967 102.442 131.365 103.075C133.406 103.613 134.29 104.781 136.183 104.534C138.451 104.236 137.523 99.4638 134.995 97.5305C132.228 95.4139 127.549 94.5559 125.128 95.4258ZM129.392 115.831C127.507 116.291 127.381 112.16 127.17 110.699C127.005 109.559 126.075 106.618 123.717 106.746C121.359 106.872 120.473 109.336 120.592 110.869C120.67 111.863 121.586 116.896 118.663 117.533C116.801 117.526 114.645 117.4 112.687 117.039C110.381 116.516 107.384 114.688 106.592 118.289C106.307 119.585 116.462 123.436 120.969 123.785C125.538 124.711 130.885 123.287 134.139 119.789C134.88 118.993 136.964 115.691 137.113 114.882C137.425 113.182 136.702 112.088 134.599 112.687C133.114 113.48 130.604 115.536 129.392 115.831Z" fill="black"/>
<path fill-rule="evenodd" clip-rule="evenodd" d="M138.503 91.1762C135.597 92.5768 131.542 90.5107 129.588 88.3473C128.876 87.5599 128.328 85.3058 128.601 83.8767C129.343 80.0056 132.128 77.6823 135.068 76.8889C139.143 75.7889 143.244 78.5756 142.766 81.8637C142.313 84.9804 141.626 89.5014 138.503 91.1762ZM118.721 83.7402C118.488 87.9587 115.102 91.651 111.054 92.7455C104.532 94.566 101.309 89.9799 99.8502 85.0391C99.7044 84.5487 99.3634 83.0499 100.279 81.7647C103.878 76.7091 112.634 77.5709 117.006 78.9588C118.287 80.1834 118.81 81.9508 118.721 83.7402ZM141.662 76.464C141.659 76.4666 141.657 76.4687 141.656 76.4713C141.641 76.4621 141.626 76.4528 141.611 76.444C141.627 76.4509 141.646 76.4569 141.662 76.464ZM147.118 76.9517C146.739 72.6565 133.267 74.3012 131.692 74.6532C127.394 75.9179 123.682 79.3587 118.876 77.8462C113.895 72.293 97.1267 73.8855 93.6113 76.7143C92.9458 76.4531 92.1364 76.5933 91.2793 76.8397C86.8766 76.6806 66.7778 78.1989 70.8887 83.8199C71.5127 84.2535 72.1361 83.8126 72.1534 82.9207C93.5847 75.1814 91.5076 82.4302 94.0486 81.5842C94.4372 81.696 94.8415 81.7666 95.1962 81.8408C97.1634 82.4742 97.8317 82.2781 98.0902 84.4872C99.8703 101.546 122.579 95.6587 120.716 81.6657C122.56 81.5649 124.173 80.7665 126.123 81.5457C127.477 94.7273 138.08 95.259 141.272 90.6894C143.678 87.5187 142.724 82.7318 146.031 80.2372C147.336 81.3302 147.421 77.6411 147.118 76.9517Z" fill="black"/>
<circle cx="99" cy="99" r="97.5" stroke="black" stroke-width="3"/>
</g>
</svg>
